<?xml version="1.0" encoding="utf-8"?>
<!-- Generator: Adobe Illustrator 19.0.0, SVG Export Plug-In . SVG Version: 6.00 Build 0)  -->
<svg version="1.1" id="Layer_1" xmlns="http://www.w3.org/2000/svg" xmlns:xlink="http://www.w3.org/1999/xlink" x="0px" y="0px"
	 viewBox="0 0 19.9 19.8" style="enable-background:new 0 0 19.9 19.8;" xml:space="preserve">
<style type="text/css">
	.st0{clip-path:url(#XMLID_168_);fill:#414141;}
	.st1{clip-path:url(#XMLID_168_);fill:none;stroke:#414141;stroke-width:0.5;stroke-miterlimit:10;}
	.st2{clip-path:url(#XMLID_168_);fill:none;stroke:#DCDBDB;stroke-width:0.5;stroke-miterlimit:10;}
	.st3{clip-path:url(#XMLID_168_);fill:none;stroke:#DCDBDB;stroke-width:0.25;stroke-miterlimit:10;}
</style>
<g id="XMLID_2_">
	<defs>
		<rect id="XMLID_3_" x="-12.1" y="-747.4" width="1852.2" height="3344.4"/>
	</defs>
	<clipPath id="XMLID_168_">
		<use xlink:href="#XMLID_3_"  style="overflow:visible;"/>
	</clipPath>
	<path id="XMLID_63_" class="st0" d="M18.4-270.7l-7.1-7.1c0,0,0,0,0,0c-0.8-0.7-1.9-0.7-2.7,0c0,0,0,0,0,0l-7.1,7.1
		c-0.3,0.3-0.3,0.7,0,1c0.3,0.3,0.7,0.3,1,0l0.5-0.5v5.9c0,1.5,1.2,2.7,2.7,2.7h2.4c0.4,0,0.7-0.3,0.7-0.7v-5.5h2.4v5.5
		c0,0.4,0.3,0.7,0.7,0.7h2.4c1.5,0,2.7-1.2,2.7-2.7c0-0.4-0.3-0.7-0.7-0.7c-0.4,0-0.7,0.3-0.7,0.7c0,0.7-0.6,1.4-1.4,1.4h-1.7v-5.5
		c0-0.4-0.3-0.7-0.7-0.7H8.1c-0.4,0-0.7,0.3-0.7,0.7v5.5H5.6c-0.7,0-1.4-0.6-1.4-1.4v-7.2c0,0,0,0,0,0l5.2-5.2
		c0.3-0.2,0.6-0.2,0.9,0l5.2,5.2v7.3c0,0.4,0.3,0.7,0.7,0.7c0.4,0,0.7-0.3,0.7-0.7v-5.9l0.5,0.5c0.1,0.1,0.3,0.2,0.5,0.2
		c0.2,0,0.3-0.1,0.5-0.2C18.6-270,18.6-270.4,18.4-270.7"/>
	<path id="XMLID_60_" class="st0" d="M19.5-241.3c-0.3-0.9-1.1-1.4-2-1.4h-3.9c0,0,0,0,0,0c-0.2,0-0.4-0.2-0.5-0.4l-1.2-3.7
		c-0.3-0.9-1.1-1.4-2-1.4h0c-0.9,0-1.7,0.6-2,1.4l-1.2,3.7c-0.1,0.2-0.3,0.4-0.5,0.4c0,0,0,0,0,0H2.3h0c-0.9,0-1.7,0.6-2,1.4
		c0,0.1,0,0.2-0.1,0.3c-0.1,0.3-0.1,0.7,0,1c0.1,0.4,0.4,0.8,0.8,1l0.9,0.6l1.3,0.9c0,0,0,0,0,0l1,0.7c0.2,0.1,0.3,0.4,0.2,0.6
		l-0.6,1.8l-0.6,1.8c-0.1,0.2-0.1,0.4-0.1,0.7c0,0.2,0,0.4,0.1,0.6c0.1,0.4,0.4,0.8,0.8,1c0.4,0.3,0.8,0.4,1.2,0.4c0,0,0.1,0,0.1,0
		c0.4,0,0.8-0.1,1.1-0.4l2.1-1.5l1-0.8c0.1-0.1,0.2-0.1,0.3-0.1c0.1,0,0.2,0,0.3,0.1l1,0.8l2.1,1.5c0.3,0.2,0.7,0.4,1.1,0.4
		c0,0,0.1,0,0.1,0c0.4,0,0.9-0.1,1.2-0.4c0.2-0.1,0.3-0.3,0.5-0.5c0.3-0.4,0.4-0.8,0.4-1.2c0-0.2,0-0.4-0.1-0.7l-0.6-1.8l-0.6-1.8
		c-0.1-0.2,0-0.5,0.2-0.6l1-0.7l1.3-0.9l0.9-0.6C19.4-239.5,19.7-240.4,19.5-241.3 M14.7-237.9c-0.7,0.5-1,1.5-0.8,2.3l0.4,1.2
		l0.8,2.5c0.1,0.4-0.1,0.6-0.2,0.6c0,0-0.1,0.1-0.2,0.1c-0.1,0-0.3,0-0.4-0.1l-3.1-2.3c-0.4-0.3-0.8-0.4-1.2-0.4
		c-0.4,0-0.9,0.1-1.2,0.4l-3.1,2.3c-0.2,0.1-0.3,0.1-0.4,0.1c-0.1,0-0.2-0.1-0.2-0.1c-0.1-0.1-0.3-0.3-0.2-0.6l0.8-2.5l0.4-1.2
		c0.3-0.9,0-1.8-0.8-2.3l-1.2-0.9L2-240.1c-0.3-0.2-0.2-0.6-0.2-0.7c0-0.1,0.2-0.4,0.5-0.4h3.9h0c0.1,0,0.1,0,0.2,0
		c0.8-0.1,1.5-0.6,1.8-1.4v0l1.2-3.7c0.1-0.4,0.4-0.4,0.5-0.4c0.1,0,0.4,0,0.5,0.4l1.2,3.7v0c0.3,0.8,1,1.3,1.8,1.4
		c0.1,0,0.1,0,0.2,0h3.9c0.4,0,0.5,0.3,0.5,0.4c0,0.1,0.1,0.4-0.2,0.7l-1.9,1.4L14.7-237.9z"/>
	<path id="XMLID_57_" class="st0" d="M17.9-202.2c0-0.2,0.1-0.4,0.1-0.6c0-0.1,0-0.3-0.1-0.4c0-0.2-0.1-0.3-0.2-0.5
		c-0.1-0.3-0.3-0.5-0.5-0.8c-0.9-0.9-1.6-1.3-2.3-1.5c-1-0.3-1.9,0-2.7,0.8c0,0,0,0,0,0l-0.9,0.8c-0.4-0.2-1.1-0.7-1.9-1.3
		c-0.3-0.2-0.5-0.5-0.8-0.8l-0.1-0.1c-1.1-1.1-1.8-2.2-2.1-2.7l0.8-0.9l0,0c0.8-0.8,1-1.7,0.8-2.7c-0.2-0.7-0.7-1.4-1.5-2.3
		c-0.4-0.5-1-0.7-1.6-0.7c-0.2,0-0.4,0-0.6,0.1c-0.4,0.1-0.8,0.3-1.1,0.6l0,0c0,0,0,0,0,0c-0.2,0.2-0.4,0.5-0.6,0.8
		c-0.1,0.1-0.1,0.2-0.2,0.3c-0.1,0.2-0.2,0.4-0.3,0.6c0,0.1-0.1,0.3-0.1,0.4c-0.1,0.2-0.1,0.4-0.2,0.6c0,0.2,0,0.3,0,0.5
		c0,0.2-0.1,0.4-0.1,0.6v0c0,0.3,0,0.6,0.1,0.9c0,0.2,0.1,0.5,0.1,0.7c0,0,0,0.1,0,0.1c0.4,1.6,1.1,3.2,2.3,4.7c0,0,0,0,0,0
		c0,0.1,0.1,0.1,0.1,0.2c0.2,0.2,0.3,0.4,0.5,0.6c0.2,0.3,0.5,0.5,0.7,0.8c0,0,0,0,0,0c0.2,0.2,0.5,0.5,0.8,0.7
		c0.2,0.2,0.4,0.3,0.6,0.5c0.1,0,0.1,0.1,0.2,0.1c0,0,0,0,0,0c1.5,1.1,3.1,1.9,4.7,2.3c0,0,0.1,0,0.1,0c0.2,0.1,0.5,0.1,0.7,0.1
		c0.3,0,0.6,0.1,0.9,0.1h0c0.2,0,0.4,0,0.6,0c0.2,0,0.3,0,0.5,0c0.2,0,0.4-0.1,0.6-0.2c0.1,0,0.3-0.1,0.4-0.1
		c0.2-0.1,0.4-0.2,0.6-0.3c0.1-0.1,0.2-0.1,0.3-0.1c0.3-0.2,0.5-0.4,0.8-0.6c0,0,0,0,0,0l0,0l0,0C17.7-201.5,17.8-201.8,17.9-202.2
		 M16.7-202.7c0,0.3-0.1,0.5-0.3,0.7v0l0,0c0,0-0.1,0-0.1,0.1c-0.2,0.1-0.3,0.3-0.5,0.4c-0.1,0-0.2,0.1-0.2,0.1
		c-0.1,0.1-0.3,0.1-0.4,0.2c-0.1,0-0.2,0.1-0.3,0.1c-0.1,0-0.3,0.1-0.4,0.1c-0.1,0-0.3,0-0.4,0c-0.2,0-0.3,0-0.5,0h0c0,0,0,0,0,0
		c-0.2,0-0.5,0-0.7-0.1c-0.7-0.1-1.5-0.3-2.4-0.7c0,0,0,0-0.1,0c-0.9-0.4-1.7-0.9-2.6-1.5c-0.2-0.2-0.4-0.3-0.6-0.5
		c-0.2-0.2-0.5-0.4-0.7-0.6c-0.2-0.2-0.4-0.5-0.6-0.7c-0.2-0.2-0.3-0.4-0.5-0.6c-0.6-0.8-1.2-1.7-1.5-2.6c0,0,0,0,0-0.1
		c-0.4-0.8-0.6-1.6-0.7-2.4c0-0.2-0.1-0.5-0.1-0.7c0,0,0,0,0,0v0c0-0.2,0-0.3,0-0.5c0-0.1,0-0.3,0-0.4c0-0.2,0.1-0.3,0.1-0.4
		c0-0.1,0-0.2,0.1-0.3c0.1-0.2,0.1-0.3,0.2-0.4c0-0.1,0.1-0.2,0.1-0.2c0.1-0.2,0.2-0.3,0.4-0.5c0,0,0-0.1,0.1-0.1l0,0l0,0
		c0.5-0.4,1.2-0.4,1.6,0.1c1.6,1.7,1.5,2.5,0.8,3.2l-1.2,1.2c-0.2,0.2-0.2,0.5-0.1,0.7c0,0.1,0.8,1.7,2.5,3.5l0,0l0.1,0.1
		c1.8,1.8,3.4,2.5,3.5,2.5c0.2,0.1,0.5,0.1,0.7-0.1l1.2-1.2c0.7-0.7,1.5-0.8,3.2,0.8C16.6-203.4,16.7-203.1,16.7-202.7
		C16.7-202.8,16.7-202.7,16.7-202.7"/>
	<path id="XMLID_54_" class="st0" d="M9.9-167.9c-4.8,0-8.8-3.9-8.8-8.8c0-4.8,3.9-8.8,8.8-8.8s8.8,3.9,8.8,8.8
		C18.6-171.9,14.7-167.9,9.9-167.9 M9.9-184.1c-4.1,0-7.4,3.3-7.4,7.4c0,4.1,3.3,7.4,7.4,7.4s7.4-3.3,7.4-7.4
		C17.3-180.8,14-184.1,9.9-184.1"/>
	<path id="XMLID_53_" class="st0" d="M9.9-171.6c-2.3,0-4.2-1.9-4.2-4.2c0-0.4,0.3-0.7,0.7-0.7c0.4,0,0.7,0.3,0.7,0.7
		c0,1.6,1.3,2.9,2.9,2.9s2.9-1.3,2.9-2.9c0-0.4,0.3-0.7,0.7-0.7c0.4,0,0.7,0.3,0.7,0.7C14.1-173.5,12.2-171.6,9.9-171.6"/>
	<path id="XMLID_52_" class="st0" d="M16.5,2.8H3.3c-0.4,0-0.7-0.3-0.7-0.7s0.3-0.7,0.7-0.7h13.3c0.4,0,0.7,0.3,0.7,0.7
		S16.9,2.8,16.5,2.8"/>
	<path id="XMLID_51_" class="st0" d="M16.5,18.4H3.3c-0.4,0-0.7-0.3-0.7-0.7s0.3-0.7,0.7-0.7h13.3c0.4,0,0.7,0.3,0.7,0.7
		S16.9,18.4,16.5,18.4"/>
	<path id="XMLID_50_" class="st0" d="M16.5,10.6H3.3c-0.4,0-0.7-0.3-0.7-0.7c0-0.4,0.3-0.7,0.7-0.7h13.3c0.4,0,0.7,0.3,0.7,0.7
		C17.2,10.3,16.9,10.6,16.5,10.6"/>
	<path id="XMLID_47_" class="st0" d="M16.6-123.5H3.2c-1.3,0-2.3,1-2.3,2.3v13.5c0,1.3,1,2.3,2.3,2.3h13.5c1.3,0,2.3-1,2.3-2.3
		v-13.5C19-122.5,17.9-123.5,16.6-123.5 M18.3-107.7c0,0.9-0.7,1.6-1.6,1.6H3.2c-0.9,0-1.6-0.7-1.6-1.6v-13.5c0-0.9,0.7-1.6,1.6-1.6
		h13.5c0.9,0,1.6,0.7,1.6,1.6V-107.7z"/>
	<path id="XMLID_44_" class="st1" d="M16.6-123.5H3.2c-1.3,0-2.3,1-2.3,2.3v13.5c0,1.3,1,2.3,2.3,2.3h13.5c1.3,0,2.3-1,2.3-2.3
		v-13.5C19-122.5,17.9-123.5,16.6-123.5z M18.3-107.7c0,0.9-0.7,1.6-1.6,1.6H3.2c-0.9,0-1.6-0.7-1.6-1.6v-13.5
		c0-0.9,0.7-1.6,1.6-1.6h13.5c0.9,0,1.6,0.7,1.6,1.6V-107.7z"/>
	<path id="XMLID_43_" class="st0" d="M15.4-116.1L15.4-116.1c-0.5-0.6-1.2-0.9-2.1-0.9c-0.6,0-1.2,0.1-1.6,0.4
		c-0.2,0.1-0.4,0.3-0.6,0.5v-0.3c0-0.2-0.2-0.4-0.4-0.4H8.2c-0.2,0-0.4,0.2-0.4,0.4v7.9c0,0.2,0.2,0.4,0.4,0.4h2.6
		c0.2,0,0.4-0.2,0.4-0.4v-4.5c0-0.6,0.4-1.1,1-1.1l0.1,0c0.2,0,0.4,0.1,0.6,0.2c0.2,0.2,0.3,0.4,0.3,0.7v4.7c0,0.2,0.2,0.4,0.4,0.4
		h2.4c0.2,0,0.4-0.2,0.4-0.4v-5C16.2-114.7,15.9-115.5,15.4-116.1"/>
	<path id="XMLID_42_" class="st2" d="M15.4-116.1L15.4-116.1c-0.5-0.6-1.2-0.9-2.1-0.9c-0.6,0-1.2,0.1-1.6,0.4
		c-0.2,0.1-0.4,0.3-0.6,0.5v-0.3c0-0.2-0.2-0.4-0.4-0.4H8.2c-0.2,0-0.4,0.2-0.4,0.4v7.9c0,0.2,0.2,0.4,0.4,0.4h2.6
		c0.2,0,0.4-0.2,0.4-0.4v-4.5c0-0.6,0.4-1.1,1-1.1l0.1,0c0.2,0,0.4,0.1,0.6,0.2c0.2,0.2,0.3,0.4,0.3,0.7v4.7c0,0.2,0.2,0.4,0.4,0.4
		h2.4c0.2,0,0.4-0.2,0.4-0.4v-5C16.2-114.7,15.9-115.5,15.4-116.1z"/>
	<path id="XMLID_41_" class="st0" d="M6.7-116.8H4.1c-0.2,0-0.4,0.2-0.4,0.4v6v0.5v1.4c0,0.2,0.2,0.4,0.4,0.4h2.6
		c0.2,0,0.4-0.2,0.4-0.4v-7.9C7.1-116.6,6.9-116.8,6.7-116.8"/>
	<path id="XMLID_40_" class="st2" d="M6.7-116.8H4.1c-0.2,0-0.4,0.2-0.4,0.4v6v0.5v1.4c0,0.2,0.2,0.4,0.4,0.4h2.6
		c0.2,0,0.4-0.2,0.4-0.4v-7.9C7.1-116.6,6.9-116.8,6.7-116.8z"/>
	<path id="XMLID_39_" class="st0" d="M5.4-120.8c-1,0-1.8,0.8-1.8,1.8c0,1,0.8,1.8,1.8,1.8c1,0,1.8-0.8,1.8-1.8
		C7.2-120,6.4-120.8,5.4-120.8"/>
	<circle id="XMLID_38_" class="st2" cx="5.4" cy="-119" r="1.8"/>
	<path id="XMLID_35_" class="st0" d="M19-89.1c-0.1-0.1-0.3-0.2-0.4-0.1c-0.2,0.1-0.4,0.2-0.7,0.3c0.3-0.4,0.5-0.8,0.7-1.3
		c0-0.1,0-0.3-0.1-0.4c-0.1-0.1-0.3-0.1-0.4,0c-0.6,0.4-1.3,0.6-2,0.8c-0.7-0.7-1.7-1.1-2.8-1.1c-2.2,0-4,1.8-4,4c0,0.1,0,0.3,0,0.4
		c-0.5-0.1-1.1-0.1-1.6-0.3c-1-0.3-2.3-0.9-3.1-1.4c0,0,0,0-0.1,0c-0.8-0.5-1.4-1.2-2-1.9c-0.1-0.1-0.2-0.1-0.3-0.1
		c-0.1,0-0.2,0.1-0.3,0.2c-0.4,0.6-0.5,1.3-0.5,2c0,0.9,0.3,1.7,0.8,2.4c-0.1,0-0.2-0.1-0.3-0.1c-0.1-0.1-0.2-0.1-0.4,0
		c-0.1,0.1-0.2,0.2-0.2,0.3v0c0,1.3,0.7,2.5,1.7,3.3c0,0,0,0,0,0c-0.1,0-0.3,0-0.3,0.1c-0.1,0.1-0.1,0.2-0.1,0.3
		c0.4,1.3,1.5,2.3,2.8,2.6c-1.1,0.6-2.3,1-3.6,1c-0.3,0-0.5,0-0.8,0c-0.2,0-0.3,0.1-0.4,0.2c-0.1,0.2,0,0.3,0.1,0.4
		c1.7,1.1,3.7,1.7,5.8,1.7c1.6,0,3.2-0.3,4.6-1c1.3-0.6,2.4-1.4,3.4-2.5c1.7-2,2.8-4.6,2.8-7.2v0l0-0.3c0.7-0.5,1.3-1.1,1.8-1.9
		C19.1-88.8,19.1-89,19-89.1 M16.7-87.3c-0.1,0.1-0.2,0.2-0.1,0.3l0,0.5c0,4.9-3.7,10-10,10c-1.4,0-2.8-0.3-4.1-0.9
		C4-77.5,5.4-78.1,6.6-79c0.1-0.1,0.2-0.3,0.1-0.4c0-0.1-0.2-0.2-0.3-0.2c-1.2,0-2.3-0.7-2.8-1.7c0,0,0.1,0,0.1,0c0.4,0,0.7,0,1-0.1
		c0.2,0,0.3-0.2,0.3-0.4c0-0.2-0.1-0.3-0.3-0.3c-1.3-0.3-2.4-1.4-2.6-2.7c0.4,0.1,0.8,0.2,1.2,0.2c0.2,0,0.3-0.1,0.4-0.3
		c0-0.2,0-0.3-0.1-0.4C2.7-86,2.1-87,2.1-88.1c0-0.4,0.1-0.8,0.2-1.2c0.6,0.6,1.3,1.2,2,1.7c0,0,0,0,0,0c0.8,0.6,2.1,1.1,3.1,1.4
		c0,0,0,0,0,0c0,0,0,0,0.1,0c0,0,0,0,0,0c0,0,0.1,0,0.1,0c0.7,0.2,1.4,0.3,2.1,0.3c0.1,0,0.2,0,0.3-0.1c0.1-0.1,0.1-0.2,0.1-0.3
		c-0.1-0.2-0.1-0.5-0.1-0.7c0-1.8,1.5-3.3,3.3-3.3c0.9,0,1.8,0.4,2.4,1c0.1,0.1,0.2,0.1,0.3,0.1c0.5-0.1,1-0.2,1.4-0.4
		c-0.3,0.4-0.6,0.7-1,0.9c-0.1,0.1-0.2,0.3-0.2,0.4c0.1,0.2,0.2,0.3,0.4,0.2c0.3,0,0.7-0.1,1-0.2C17.4-87.8,17.1-87.5,16.7-87.3"/>
	<path id="XMLID_32_" class="st1" d="M19-89.1c-0.1-0.1-0.3-0.2-0.4-0.1c-0.2,0.1-0.4,0.2-0.7,0.3c0.3-0.4,0.5-0.8,0.7-1.3
		c0-0.1,0-0.3-0.1-0.4c-0.1-0.1-0.3-0.1-0.4,0c-0.6,0.4-1.3,0.6-2,0.8c-0.7-0.7-1.7-1.1-2.8-1.1c-2.2,0-4,1.8-4,4c0,0.1,0,0.3,0,0.4
		c-0.5-0.1-1.1-0.1-1.6-0.3c-1-0.3-2.3-0.9-3.1-1.4c0,0,0,0-0.1,0c-0.8-0.5-1.4-1.2-2-1.9c-0.1-0.1-0.2-0.1-0.3-0.1
		c-0.1,0-0.2,0.1-0.3,0.2c-0.4,0.6-0.5,1.3-0.5,2c0,0.9,0.3,1.7,0.8,2.4c-0.1,0-0.2-0.1-0.3-0.1c-0.1-0.1-0.2-0.1-0.4,0
		c-0.1,0.1-0.2,0.2-0.2,0.3v0c0,1.3,0.7,2.5,1.7,3.3c0,0,0,0,0,0c-0.1,0-0.3,0-0.3,0.1c-0.1,0.1-0.1,0.2-0.1,0.3
		c0.4,1.3,1.5,2.3,2.8,2.6c-1.1,0.6-2.3,1-3.6,1c-0.3,0-0.5,0-0.8,0c-0.2,0-0.3,0.1-0.4,0.2c-0.1,0.2,0,0.3,0.1,0.4
		c1.7,1.1,3.7,1.7,5.8,1.7c1.6,0,3.2-0.3,4.6-1c1.3-0.6,2.4-1.4,3.4-2.5c1.7-2,2.8-4.6,2.8-7.2v0l0-0.3c0.7-0.5,1.3-1.1,1.8-1.9
		C19.1-88.8,19.1-89,19-89.1z M16.7-87.3c-0.1,0.1-0.2,0.2-0.1,0.3l0,0.5c0,4.9-3.7,10-10,10c-1.4,0-2.8-0.3-4.1-0.9
		C4-77.5,5.4-78.1,6.6-79c0.1-0.1,0.2-0.3,0.1-0.4c0-0.1-0.2-0.2-0.3-0.2c-1.2,0-2.3-0.7-2.8-1.7c0,0,0.1,0,0.1,0c0.4,0,0.7,0,1-0.1
		c0.2,0,0.3-0.2,0.3-0.4c0-0.2-0.1-0.3-0.3-0.3c-1.3-0.3-2.4-1.4-2.6-2.7c0.4,0.1,0.8,0.2,1.2,0.2c0.2,0,0.3-0.1,0.4-0.3
		c0-0.2,0-0.3-0.1-0.4C2.7-86,2.1-87,2.1-88.1c0-0.4,0.1-0.8,0.2-1.2c0.6,0.6,1.3,1.2,2,1.7c0,0,0,0,0,0c0.8,0.6,2.1,1.1,3.1,1.4
		c0,0,0,0,0,0c0,0,0,0,0.1,0c0,0,0,0,0,0c0,0,0.1,0,0.1,0c0.7,0.2,1.4,0.3,2.1,0.3c0.1,0,0.2,0,0.3-0.1c0.1-0.1,0.1-0.2,0.1-0.3
		c-0.1-0.2-0.1-0.5-0.1-0.7c0-1.8,1.5-3.3,3.3-3.3c0.9,0,1.8,0.4,2.4,1c0.1,0.1,0.2,0.1,0.3,0.1c0.5-0.1,1-0.2,1.4-0.4
		c-0.3,0.4-0.6,0.7-1,0.9c-0.1,0.1-0.2,0.3-0.2,0.4c0.1,0.2,0.2,0.3,0.4,0.2c0.3,0,0.7-0.1,1-0.2C17.4-87.8,17.1-87.5,16.7-87.3z"/>
	<path id="XMLID_31_" class="st0" d="M13.3-52.6l-5.2-3c-0.1-0.1-0.3-0.1-0.4,0c-0.1,0.1-0.2,0.2-0.2,0.4v6c0,0.1,0.1,0.3,0.2,0.4
		c0.1,0,0.1,0.1,0.2,0.1c0.1,0,0.1,0,0.2-0.1l5.2-3c0.1-0.1,0.2-0.2,0.2-0.4C13.5-52.4,13.4-52.5,13.3-52.6"/>
	<path id="XMLID_30_" class="st1" d="M13.3-52.6l-5.2-3c-0.1-0.1-0.3-0.1-0.4,0c-0.1,0.1-0.2,0.2-0.2,0.4v6c0,0.1,0.1,0.3,0.2,0.4
		c0.1,0,0.1,0.1,0.2,0.1c0.1,0,0.1,0,0.2-0.1l5.2-3c0.1-0.1,0.2-0.2,0.2-0.4C13.5-52.4,13.4-52.5,13.3-52.6z"/>
	<path id="XMLID_27_" class="st0" d="M20.6-52.3c0-0.1,0-3.5-0.4-5.1c-0.3-1-1.1-1.9-2.1-2.1c-1.1-0.3-15.2-0.3-16.3,0
		c-1,0.3-1.8,1.1-2.1,2.1c-0.4,1.7-0.4,5-0.4,5.1c0,0,0,0,0,0c0,0,0,0,0,0c0,0.1,0,3.5,0.4,5.1c0.3,1,1.1,1.9,2.1,2.1
		c1.1,0.3,15.2,0.3,16.3,0c1-0.3,1.8-1.1,2.1-2.1C20.6-48.8,20.6-52.1,20.6-52.3C20.6-52.3,20.6-52.3,20.6-52.3
		C20.6-52.3,20.6-52.3,20.6-52.3 M2-45.8c-0.7-0.2-1.3-0.8-1.5-1.5C0.1-48.9,0-52.1,0-52.3c0-0.2,0-3.4,0.4-4.9
		c0.2-0.8,0.8-1.3,1.5-1.5c1.5-0.4,14.3-0.4,15.8,0c0.7,0.2,1.3,0.8,1.5,1.5c0.4,1.5,0.4,4.7,0.4,4.9c0,0.2,0,3.4-0.4,4.9
		c-0.2,0.8-0.8,1.3-1.5,1.5C16.3-45.4,3.5-45.4,2-45.8"/>
	<path id="XMLID_24_" class="st1" d="M20.6-52.3c0-0.1,0-3.5-0.4-5.1c-0.3-1-1.1-1.9-2.1-2.1c-1.1-0.3-15.2-0.3-16.3,0
		c-1,0.3-1.8,1.1-2.1,2.1c-0.4,1.7-0.4,5-0.4,5.1c0,0,0,0,0,0c0,0,0,0,0,0c0,0.1,0,3.5,0.4,5.1c0.3,1,1.1,1.9,2.1,2.1
		c1.1,0.3,15.2,0.3,16.3,0c1-0.3,1.8-1.1,2.1-2.1C20.6-48.8,20.6-52.1,20.6-52.3C20.6-52.3,20.6-52.3,20.6-52.3
		C20.6-52.3,20.6-52.3,20.6-52.3z M2-45.8c-0.7-0.2-1.3-0.8-1.5-1.5C0.1-48.9,0-52.1,0-52.3c0-0.2,0-3.4,0.4-4.9
		c0.2-0.8,0.8-1.3,1.5-1.5c1.5-0.4,14.3-0.4,15.8,0c0.7,0.2,1.3,0.8,1.5,1.5c0.4,1.5,0.4,4.7,0.4,4.9c0,0.2,0,3.4-0.4,4.9
		c-0.2,0.8-0.8,1.3-1.5,1.5C16.3-45.4,3.5-45.4,2-45.8z"/>
	<path id="XMLID_21_" class="st0" d="M15.4-154.5h-11c-1.9,0-3.4,1.5-3.4,3.4v11c0,1.9,1.5,3.4,3.4,3.4h5.5c0.2,0,0.3-0.2,0.3-0.3
		v-1.5v-1.1v-4.1c0-0.2-0.2-0.3-0.3-0.3H8.2v-1.8h1.7c0.2,0,0.3-0.2,0.3-0.3v-1.8c0-0.8,0.3-2.6,2.6-2.6h2.2v1.7h-1.6
		c-0.4,0-1,0.3-1,1v1.7c0,0.2,0.2,0.3,0.3,0.3H15l-0.2,1.8h-2c-0.2,0-0.3,0.2-0.3,0.3v6.8c0,0.2,0.2,0.3,0.3,0.3h2.6
		c1.9,0,3.4-1.5,3.4-3.4v-11C18.8-153,17.3-154.5,15.4-154.5 M18.1-140.1c0,1.5-1.2,2.7-2.7,2.7h-2.2v-6.1h2c0.2,0,0.3-0.1,0.3-0.3
		l0.2-2.5c0-0.1,0-0.2-0.1-0.3c-0.1-0.1-0.2-0.1-0.3-0.1h-2.3v-1.3c0-0.2,0.1-0.3,0.3-0.3h2c0.2,0,0.3-0.2,0.3-0.3v-2.4
		c0-0.2-0.2-0.3-0.3-0.3h-2.6c-1.5,0-2.2,0.6-2.6,1.2c-0.6,0.8-0.6,1.6-0.6,2.1v1.5H7.8c-0.2,0-0.3,0.2-0.3,0.3v2.5
		c0,0.2,0.2,0.3,0.3,0.3h1.7v3.8v1.1v1.2H4.4c-1.5,0-2.7-1.2-2.7-2.7v-11c0-1.5,1.2-2.7,2.7-2.7h11c1.5,0,2.7,1.2,2.7,2.7V-140.1z"
		/>
	<path id="XMLID_18_" class="st1" d="M15.4-154.5h-11c-1.9,0-3.4,1.5-3.4,3.4v11c0,1.9,1.5,3.4,3.4,3.4h5.5c0.2,0,0.3-0.2,0.3-0.3
		v-1.5v-1.1v-4.1c0-0.2-0.2-0.3-0.3-0.3H8.2v-1.8h1.7c0.2,0,0.3-0.2,0.3-0.3v-1.8c0-0.8,0.3-2.6,2.6-2.6h2.2v1.7h-1.6
		c-0.4,0-1,0.3-1,1v1.7c0,0.2,0.2,0.3,0.3,0.3H15l-0.2,1.8h-2c-0.2,0-0.3,0.2-0.3,0.3v6.8c0,0.2,0.2,0.3,0.3,0.3h2.6
		c1.9,0,3.4-1.5,3.4-3.4v-11C18.8-153,17.3-154.5,15.4-154.5z M18.1-140.1c0,1.5-1.2,2.7-2.7,2.7h-2.2v-6.1h2c0.2,0,0.3-0.1,0.3-0.3
		l0.2-2.5c0-0.1,0-0.2-0.1-0.3c-0.1-0.1-0.2-0.1-0.3-0.1h-2.3v-1.3c0-0.2,0.1-0.3,0.3-0.3h2c0.2,0,0.3-0.2,0.3-0.3v-2.4
		c0-0.2-0.2-0.3-0.3-0.3h-2.6c-1.5,0-2.2,0.6-2.6,1.2c-0.6,0.8-0.6,1.6-0.6,2.1v1.5H7.8c-0.2,0-0.3,0.2-0.3,0.3v2.5
		c0,0.2,0.2,0.3,0.3,0.3h1.7v3.8v1.1v1.2H4.4c-1.5,0-2.7-1.2-2.7-2.7v-11c0-1.5,1.2-2.7,2.7-2.7h11c1.5,0,2.7,1.2,2.7,2.7V-140.1z"
		/>
	<path id="XMLID_15_" class="st0" d="M9.9-28.7c2.5,0,2.8,0,3.7,0.1c0.9,0,1.4,0.2,1.7,0.3c0.4,0.2,0.7,0.4,1.1,0.7s0.5,0.6,0.7,1.1
		c0.1,0.3,0.3,0.8,0.3,1.7c0,1,0.1,1.3,0.1,3.7c0,2.5,0,2.8-0.1,3.7c0,0.9-0.2,1.4-0.3,1.7c-0.2,0.4-0.4,0.7-0.7,1.1
		c-0.3,0.3-0.6,0.5-1.1,0.7c-0.3,0.1-0.8,0.3-1.7,0.3c-1,0-1.3,0.1-3.7,0.1s-2.8,0-3.7-0.1c-0.9,0-1.4-0.2-1.7-0.3
		c-0.4-0.2-0.7-0.4-1.1-0.7c-0.3-0.3-0.5-0.6-0.7-1.1c-0.1-0.3-0.3-0.8-0.3-1.7c0-1-0.1-1.3-0.1-3.7c0-2.5,0-2.8,0.1-3.7
		c0-0.9,0.2-1.4,0.3-1.7c0.2-0.4,0.4-0.7,0.7-1.1C3.7-28,4-28.2,4.4-28.3c0.3-0.1,0.8-0.3,1.7-0.3C7.1-28.7,7.4-28.7,9.9-28.7
		 M9.9-30.4c-2.5,0-2.8,0-3.8,0.1c-1,0-1.7,0.2-2.2,0.4c-0.6,0.2-1.1,0.6-1.6,1.1c-0.5,0.5-0.8,1-1.1,1.6c-0.2,0.6-0.4,1.3-0.4,2.2
		c0,1-0.1,1.3-0.1,3.8c0,2.5,0,2.8,0.1,3.8c0,1,0.2,1.7,0.4,2.2c0.2,0.6,0.6,1.1,1.1,1.6c0.5,0.5,1,0.8,1.6,1.1
		C4.4-12.2,5.1-12,6.1-12c1,0,1.3,0.1,3.8,0.1s2.8,0,3.8-0.1c1,0,1.7-0.2,2.2-0.4c0.6-0.2,1.1-0.6,1.6-1.1c0.5-0.5,0.8-1,1.1-1.6
		c0.2-0.6,0.4-1.3,0.4-2.2c0-1,0.1-1.3,0.1-3.8c0-2.5,0-2.8-0.1-3.8c0-1-0.2-1.7-0.4-2.2c-0.2-0.6-0.6-1.1-1.1-1.6
		c-0.5-0.5-1-0.8-1.6-1.1c-0.6-0.2-1.3-0.4-2.2-0.4C12.7-30.4,12.4-30.4,9.9-30.4"/>
	<path id="XMLID_12_" class="st3" d="M9.9-28.7c2.5,0,2.8,0,3.7,0.1c0.9,0,1.4,0.2,1.7,0.3c0.4,0.2,0.7,0.4,1.1,0.7s0.5,0.6,0.7,1.1
		c0.1,0.3,0.3,0.8,0.3,1.7c0,1,0.1,1.3,0.1,3.7c0,2.5,0,2.8-0.1,3.7c0,0.9-0.2,1.4-0.3,1.7c-0.2,0.4-0.4,0.7-0.7,1.1
		c-0.3,0.3-0.6,0.5-1.1,0.7c-0.3,0.1-0.8,0.3-1.7,0.3c-1,0-1.3,0.1-3.7,0.1s-2.8,0-3.7-0.1c-0.9,0-1.4-0.2-1.7-0.3
		c-0.4-0.2-0.7-0.4-1.1-0.7c-0.3-0.3-0.5-0.6-0.7-1.1c-0.1-0.3-0.3-0.8-0.3-1.7c0-1-0.1-1.3-0.1-3.7c0-2.5,0-2.8,0.1-3.7
		c0-0.9,0.2-1.4,0.3-1.7c0.2-0.4,0.4-0.7,0.7-1.1C3.7-28,4-28.2,4.4-28.3c0.3-0.1,0.8-0.3,1.7-0.3C7.1-28.7,7.4-28.7,9.9-28.7
		 M9.9-30.4c-2.5,0-2.8,0-3.8,0.1c-1,0-1.7,0.2-2.2,0.4c-0.6,0.2-1.1,0.6-1.6,1.1c-0.5,0.5-0.8,1-1.1,1.6c-0.2,0.6-0.4,1.3-0.4,2.2
		c0,1-0.1,1.3-0.1,3.8c0,2.5,0,2.8,0.1,3.8c0,1,0.2,1.7,0.4,2.2c0.2,0.6,0.6,1.1,1.1,1.6c0.5,0.5,1,0.8,1.6,1.1
		C4.4-12.2,5.1-12,6.1-12c1,0,1.3,0.1,3.8,0.1s2.8,0,3.8-0.1c1,0,1.7-0.2,2.2-0.4c0.6-0.2,1.1-0.6,1.6-1.1c0.5-0.5,0.8-1,1.1-1.6
		c0.2-0.6,0.4-1.3,0.4-2.2c0-1,0.1-1.3,0.1-3.8c0-2.5,0-2.8-0.1-3.8c0-1-0.2-1.7-0.4-2.2c-0.2-0.6-0.6-1.1-1.1-1.6
		c-0.5-0.5-1-0.8-1.6-1.1c-0.6-0.2-1.3-0.4-2.2-0.4C12.7-30.4,12.4-30.4,9.9-30.4z"/>
	<path id="XMLID_9_" class="st0" d="M9.9-25.9c-2.6,0-4.7,2.1-4.7,4.7c0,2.6,2.1,4.7,4.7,4.7s4.7-2.1,4.7-4.7
		C14.6-23.8,12.5-25.9,9.9-25.9 M9.9-18.1c-1.7,0-3.1-1.4-3.1-3.1s1.4-3.1,3.1-3.1c1.7,0,3.1,1.4,3.1,3.1S11.6-18.1,9.9-18.1"/>
	<path id="XMLID_6_" class="st3" d="M9.9-25.9c-2.6,0-4.7,2.1-4.7,4.7c0,2.6,2.1,4.7,4.7,4.7s4.7-2.1,4.7-4.7
		C14.6-23.8,12.5-25.9,9.9-25.9z M9.9-18.1c-1.7,0-3.1-1.4-3.1-3.1s1.4-3.1,3.1-3.1c1.7,0,3.1,1.4,3.1,3.1S11.6-18.1,9.9-18.1z"/>
	<path id="XMLID_5_" class="st0" d="M15.9-26.1c0,0.6-0.5,1.1-1.1,1.1c-0.6,0-1.1-0.5-1.1-1.1c0-0.6,0.5-1.1,1.1-1.1
		C15.4-27.2,15.9-26.7,15.9-26.1"/>
	<circle id="XMLID_4_" class="st3" cx="14.8" cy="-26.1" r="1.1"/>
</g>
</svg>
