<?xml version="1.0" encoding="utf-8"?>
<!-- Generator: Adobe Illustrator 22.0.1, SVG Export Plug-In . SVG Version: 6.00 Build 0)  -->
<svg version="1.1" id="Layer_1" xmlns="http://www.w3.org/2000/svg" xmlns:xlink="http://www.w3.org/1999/xlink" x="0px" y="0px"
	 viewBox="0 0 1607 540.5" enable-background="new 0 0 1607 540.5" xml:space="preserve">
<g>
	<g>
		<path fill="#976F33" d="M108.037,211.609c0,9.007-3.016,19.14-9.039,30.401H34.451c-2.943,0-6.588-1.542-10.932-4.645
			c-4.348-3.093-6.52-5.977-6.52-8.66c0-0.42,0-1.159,0-2.217c0-1.049,0-1.716,0-1.998c0-10.558,2.523-20.486,7.569-29.776
			c0.142,0,0.771-0.283,1.894-0.848l0.629,0.429c0,1.56-0.21,4.617-0.629,9.162c-0.42,4.545-0.63,6.89-0.63,7.026
			c0,2.701,0.315,4.909,0.944,6.616c0.63,1.702,2.592,3.513,5.886,5.429c3.294,1.916,5.854,2.874,7.674,2.874h55.929
			c0.698-1.273,1.049-2.126,1.049-2.555c0-2.409-2.386-7.519-7.15-15.33l8.623-15.331c2.24,1.971,4.339,4.964,6.306,8.97
			C107.056,205.171,108.037,208.652,108.037,211.609z M77.55,267.661c-0.42,0.981-1.962,2.592-4.622,4.837
			c-3.084,2.523-5.256,3.787-6.52,3.787c-0.42,0-2.313-1.195-5.676-3.577c-3.363-2.382-5.046-4.065-5.046-5.046
			c0-0.703,1.579-2.518,4.732-5.466c3.153-2.943,5.078-4.417,5.781-4.417c0.981,0,3.153,1.542,6.52,4.626
			C75.661,265.352,77.272,267.1,77.55,267.661z"/>
		<path fill="#976F33" d="M151.975,242.01h-23.762l-7.355-77.966c0-0.561,0.767-1.757,2.313-3.586
			c2.523-3.226,5.744-6.807,9.668-10.745c0.42,3.385,0.913,8.386,1.474,15.011c2.523,27.49,4.553,46.516,6.096,57.083
			c0.137,0.712,0.771,1.204,1.893,1.478c0.557,0.146,1.542,0.534,2.943,1.168c1.401,0.634,2.45,0.949,3.153,0.949h3.577V242.01z"/>
		<path fill="#976F33" d="M274.536,242.01h-15.139c0.142,0-0.493-0.21-1.889-0.639c-2.523-1.004-4.489-2.501-5.89-4.508
			c-0.981-1.287-1.752-3.075-2.314-5.365c-1.259,2.29-3.294,5.794-6.095,10.512h-96.782v-16.608h100.145
			c0.844-2.126,1.227-5.005,1.159-8.633c-0.073-3.623,0.173-6.073,0.735-7.355c0.839-2.126,4.836-7.035,11.986-14.71v11.94
			c0,0.425-0.246,2.058-0.739,4.905c-0.493,2.842-0.734,4.407-0.734,4.69c0,1.702,0.912,3.477,2.733,5.329
			c2.523,2.555,3.997,3.833,4.417,3.833h8.409V242.01z M259.607,268.925c0,0.42-0.703,1.291-2.099,2.628
			c-1.405,1.328-4.558,3.677-9.463,7.04c-1.542,0.42-2.176,0.629-1.894,0.629c-0.561,0-2.665-1.396-6.305-4.202
			c-1.405-0.981-3.577-2.943-6.52-5.886c2.806-3.928,6.31-7.569,10.512-10.936c0.981-0.703,1.752-1.049,2.313-1.049
			c0.844,0,4.837,3.157,11.986,9.463C259.115,267.451,259.607,268.218,259.607,268.925z"/>
		<path fill="#976F33" d="M313.008,223.513c-0.142,0-0.351,0.31-0.63,0.944c-0.283,0.63-0.561,0.945-0.839,0.945v16.608h-12.196
			c-1.264,0-2.559-0.684-3.892-2.062s-2.135-2.724-2.414-4.033c-3.509,4.07-6.1,6.096-7.779,6.096H264.02v-16.608l27.124-0.42
			c1.538,0,2.592-1.821,3.153-5.466c0.137-1.962,0.278-3.924,0.42-5.885c2.523-3.504,7.076-8.478,13.665-14.929
			c0.142,2.386-0.493,5.885-1.889,10.512c-2.523,7.71-3.787,11.771-3.787,12.191c2.382,2.391,4.627,3.577,6.73,3.577
			c0.42,0,1.013-0.242,1.784-0.735C311.991,223.759,312.589,223.513,313.008,223.513z"/>
		<path fill="#976F33" d="M366.833,242.01h-6.1c-0.981-1.314-2.24-3.062-3.783-5.256c-0.981,2.044-1.684,3.801-2.103,5.256h-22.708
			c-0.141-0.292-0.839-1.624-2.099-3.992c-0.703,0.297-1.966,1.629-3.787,3.992h-18.082v-16.608h20.814
			c-0.141-2.423-0.073-5.776,0.21-10.056c0.141-0.57,1.578-2.387,4.311-5.457c2.733-3.066,5.571-5.886,8.514-8.455
			c-2.665,12.415-3.992,19.405-3.992,20.975c0,1.14,0.201,2.14,0.611,2.993h15.157c0.42,0,0.068-2.418-1.054-7.264
			c-0.142-0.429-0.42-1.168-0.84-2.236c-0.42-1.068-0.63-1.821-0.63-2.245c0-0.57,1.574-2.993,4.727-7.264
			c3.157-4.27,5.224-6.835,6.205-7.692v13.24l-1.684,10.471c0.137,1.994,1.474,2.989,3.997,2.989h2.313V242.01z M351.275,179.356
			c-2.418,3.157-5.256,6.461-8.518,9.901l-13.291-6.415c-0.552,0.374-1.994,1.552-4.33,3.532c-1.793,1.496-2.824,2.236-3.098,2.236
			c-0.689,0-4.608-2.003-11.762-6.013c0.839-1.519,3.572-4.563,8.199-9.125c7.57,4.07,11.493,6.1,11.776,6.1
			c0.42,0,1.606-0.762,3.573-2.29c2.66-2.158,4.417-3.427,5.256-3.81L351.275,179.356z M338.03,166.111
			c-1.679,1.538-4.471,4.047-8.377,7.528c-0.844-0.698-2.213-1.884-4.111-3.563c-1.898-1.674-3.267-2.861-4.111-3.559l7.766-7.761
			C331.158,160.298,334.101,162.748,338.03,166.111z"/>
		<path fill="#976F33" d="M411.821,242.01h-14.929c-0.981-0.68-1.683-2.227-2.103-4.622c-0.42-2.4-0.84-4.011-1.259-4.836
			c-1.405,2.058-3.787,5.21-7.15,9.458h-25.022v-16.608h30.698l-7.57-51.822l12.826-17.767c0.561,3.81,1.122,8.532,1.683,14.171
			c1.118,11.142,2.66,27.992,4.626,50.554c0.137,3.249,1.958,4.864,5.466,4.864h2.733V242.01z"/>
		<path fill="#976F33" d="M457.228,172.936c-0.561,1.41-1.821,3.24-3.783,5.493c-0.42,0.424-3.153,3.942-8.199,10.562
			c-0.283,0.42-0.424,1.059-0.424,1.898l3.577,29.155l-3.997,21.125c-0.283,0-0.735,0.137-1.364,0.42
			c-0.63,0.283-1.159,0.42-1.579,0.42h-35.953v-16.608h31.117c0.42-2.117,0.634-3.814,0.634-5.087c0-2.546-0.634-7.286-1.894-14.213
			c-0.981-6.36-2.874-15.759-5.676-28.206l-6.1-4.877c3.924-8.058,7.848-14.847,11.776-20.363c0,2.957,0.488,5.21,1.469,6.761
			c0.562,0.844,3.504,2.957,8.834,6.338C449.449,168.292,453.304,170.683,457.228,172.936z"/>
		<path fill="#976F33" d="M540.063,163.587c-0.283,0.424-2.103,2.387-5.466,5.891c-2.244,2.523-3.572,3.782-3.997,3.782
			c-1.123,0-5.188-2.172-12.191-6.515c-3.787,4.065-6.027,6.096-6.73,6.096c-1.26,0-5.119-2.172-11.562-6.515
			c1.82-2.103,4.695-5.471,8.619-10.093c5.886,4.485,9.531,6.726,10.932,6.726c-0.283,0,2.24-2.24,7.57-6.726L540.063,163.587z
			 M562.346,242.01h-11.982c-0.702,0-1.405-0.351-2.103-1.059c-1.825-1.419-2.943-2.838-3.363-4.257
			c-0.561-2.834-1.546-7.159-2.943-12.972c-1.683,0.703-3.472,3.048-5.361,7.045c-1.894,3.992-4.033,6.132-6.415,6.406
			l-25.436-5.042v-2.313c0,0.84,2.099-5.183,6.306-18.082c0.976-2.943,4.905-6.447,11.771-10.512
			c4.627-2.523,8.97-5.183,13.036-7.989c-0.142-0.556-0.456-1.432-0.945-2.628c-0.492-1.186-0.734-1.998-0.734-2.418
			c0,0.42,3.011-4.554,9.039-14.929c1.542,11.023,4.344,27.486,8.409,49.386c0.424,1.843,2.523,2.756,6.31,2.756h4.412V242.01z
			 M541.322,218.676v-3.157c0-2.236-0.981-7.492-2.943-15.768c-1.679,0.566-2.733,1.546-3.153,2.947
			c-1.259,3.646-3.783,6.589-7.569,8.829c-2.943,1.401-5.817,2.733-8.619,3.992c7.008,2.108,11.279,3.157,12.825,3.157H541.322z"/>
		<path fill="#976F33" d="M673.346,216.468c0,1.688-1.122,10.202-3.363,25.542h-111.67v-16.608h105.155
			c0.137,0,0.21-0.356,0.21-1.063c0-0.425-0.912-2.551-2.733-6.384c-2.386-4.681-4.978-8.797-7.779-12.346l8.619-14.687
			c5.046,4.928,8.409,10.626,10.093,17.096C672.853,211.541,673.346,214.36,673.346,216.468z M665.781,266.402
			c-0.283,0.84-1.196,2.309-2.733,4.417c-3.509,4.626-5.68,6.935-6.52,6.935c-0.561,0-4.837-2.382-12.825-7.145
			c-0.84,1.118-3.085,3.499-6.726,7.145c-5.188-2.665-9.604-5.256-13.245-7.78c0.84-1.264,3.919-4.978,9.248-11.142
			c0.137-0.142,0.912,0.351,2.313,1.474c4.763,3.641,7.989,5.466,9.673,5.466c0.278,0,1.538-1.195,3.783-3.577
			c2.24-2.382,3.572-3.573,3.997-3.573C652.882,258.622,657.226,261.214,665.781,266.402z"/>
		<path fill="#976F33" d="M731.373,221.966c0,4.64-0.492,9.426-1.469,14.349c-0.283,1.971-1.196,3.869-2.733,5.694h-41.209
			l1.684-16.608h33.85c0.137-0.137,0.21-0.639,0.21-1.488c0-0.848-0.493-2.546-1.474-5.101c-2.103-5.803-8.062-11.256-17.872-16.352
			l4.207-17.849c5.744,2.117,10.932,6.127,15.558,12.036c4.627,5.904,7.359,11.534,8.199,16.872
			C731.021,217.326,731.373,220.141,731.373,221.966z"/>
		<path fill="#976F33" d="M777.629,242.01h-23.762l-7.355-77.966c0-0.561,0.766-1.757,2.313-3.586
			c2.523-3.226,5.744-6.807,9.668-10.745c0.42,3.385,0.912,8.386,1.474,15.011c2.523,27.49,4.553,46.516,6.095,57.083
			c0.137,0.712,0.771,1.204,1.894,1.478c0.557,0.146,1.542,0.534,2.943,1.168c1.401,0.634,2.45,0.949,3.153,0.949h3.577V242.01z"/>
		<path fill="#976F33" d="M946.656,217.107c0,4.362-0.42,7.948-1.26,10.763c-2.244,8.021-3.504,12.734-3.787,14.14h-56.344
			c-0.561-3.276-1.401-7.474-2.523-12.602c-2.387-0.429-6.516-0.639-12.406-0.639c-5.188,0-8.199,0.073-9.039,0.21
			c-2.523,0.287-5.676,1.57-9.463,3.851c-10.795,6.123-16.891,9.18-18.291,9.18h-55.915v-16.608h58.858
			c1.962,0,5.256-1.008,9.882-3.029c4.065-1.734,6.589-2.961,7.569-3.687c-13.455-5.051-21.937-7.579-25.441-7.579
			c-3.782,0-8.199,1.542-13.245,4.622v-1.483c0-0.99,1.542-3.609,4.626-7.857c2.523-3.682,4.134-5.808,4.837-6.369
			c3.782-3.682,8.126-5.525,13.035-5.525c4.905,0,9.18,0.931,12.825,2.792c17.238,8.733,33.709,13.523,49.409,14.381
			c-1.127,3.294-2.733,7.866-4.837,13.734h40.576c-2.523-9.778-6.169-16.936-10.932-21.472l9.463-16.371
			c0.84,0.283,1.679,1.127,2.523,2.532c2.382,4.22,4.832,8.445,7.355,12.661C945.816,206.558,946.656,211.34,946.656,217.107z
			 M937.407,171.828c-5.607,7.122-8.97,10.686-10.093,10.686c-0.84,0-5.256-2.382-13.245-7.15c-4.348,4.485-6.798,6.73-7.36,6.73
			c-2.523,0-7.008-2.455-13.455-7.36l9.882-10.512c6.442,4.485,10.371,6.725,11.771,6.725s4.207-2.24,8.409-6.725L937.407,171.828z"
			/>
		<path fill="#976F33" d="M1043.789,166.745c0,0.981-3.085,5.886-9.248,14.714c-0.142,0.142-0.561,0.21-1.264,0.21
			c-1.122,0-2.313-0.488-3.572-1.469c-0.981,5.908-2.245,11.11-3.782,15.609c-0.566,1.551-1.825,3.942-3.787,7.177
			c-1.962,3.235-2.943,4.996-2.943,5.27c0,0.283,0.488,1.268,1.474,2.957c2.943,5.201,4.412,10.831,4.412,16.877
			c0,4.357-0.42,9.002-1.259,13.921h-44.782c-2.103-1.127-3.153-4.663-3.153-10.603c0-5.229,0.767-9.755,2.309-13.569
			c0.703,1.013,1.683,2.354,2.947,4.015c1.26,1.67,3.012,2.501,5.256,2.501c3.362,0,10.088-4.581,20.181-13.757
			c-0.981-2.395-3.573-5.781-7.78-10.152c-4.202-4.371-7.711-7.405-10.512-9.098c-0.561,1.123-1.401,2.801-2.523,5.042
			c-0.561-0.42-7.218-4.275-19.971-11.562c-1.966-1.118-2.943-3.924-2.943-8.414c0-1.118,0.698-4.553,2.099-10.302h12.616
			c0.42-0.84,0.561-2.382,0.42-4.622c6.028,3.646,12.684,9.321,19.975,17.028c7.287,7.711,12.616,14.651,15.979,20.815
			c2.943-4.9,4.417-11.352,4.417-19.341c0-4.207-1.405-7.989-4.207-11.357l12.616-19.551c0,1.401,0.488,3.436,1.469,6.096
			c0.424,0.703,2.313,2.313,5.68,4.837C1040.495,163.519,1043.789,165.764,1043.789,166.745z M1014.985,225.192
			c-1.401-3.08-3.016-6.233-4.832-9.463c-3.928,4.489-7.223,7.647-9.883,9.463C1005.454,225.758,1010.363,225.758,1014.985,225.192z
			"/>
		<path fill="#976F33" d="M1078.269,210.61c0,12.365-2.875,22.831-8.619,31.4l-7.78-65.127c0-1.122,1.752-4.562,5.256-10.325
			c3.08-4.914,5.393-8.359,6.935-10.325L1078.269,210.61z"/>
		<path fill="#976F33" d="M1158.37,163.587c-0.283,0.424-2.103,2.387-5.466,5.891c-2.245,2.523-3.573,3.782-3.997,3.782
			c-1.122,0-5.188-2.172-12.191-6.515c-3.787,4.065-6.027,6.096-6.73,6.096c-1.259,0-5.119-2.172-11.562-6.515
			c1.821-2.103,4.695-5.471,8.619-10.093c5.886,4.485,9.532,6.726,10.932,6.726c-0.283,0,2.24-2.24,7.569-6.726L1158.37,163.587z
			 M1180.654,242.01h-11.981c-0.703,0-1.405-0.351-2.103-1.059c-1.825-1.419-2.943-2.838-3.362-4.257
			c-0.561-2.834-1.547-7.159-2.943-12.972c-1.684,0.703-3.472,3.048-5.361,7.045c-1.893,3.992-4.033,6.132-6.415,6.406
			l-25.437-5.042v-2.313c0,0.84,2.099-5.183,6.306-18.082c0.976-2.943,4.905-6.447,11.771-10.512
			c4.626-2.523,8.97-5.183,13.035-7.989c-0.141-0.556-0.456-1.432-0.944-2.628c-0.493-1.186-0.735-1.998-0.735-2.418
			c0,0.42,3.012-4.554,9.039-14.929c1.542,11.023,4.344,27.486,8.409,49.386c0.424,1.843,2.523,2.756,6.31,2.756h4.412V242.01z
			 M1159.629,218.676v-3.157c0-2.236-0.981-7.492-2.943-15.768c-1.679,0.566-2.733,1.546-3.153,2.947
			c-1.26,3.646-3.783,6.589-7.57,8.829c-2.943,1.401-5.817,2.733-8.619,3.992c7.008,2.108,11.279,3.157,12.825,3.157H1159.629z"/>
		<path fill="#976F33" d="M1288.076,223.513c-0.141,0-0.351,0.31-0.629,0.944c-0.283,0.63-0.562,0.945-0.84,0.945v16.608h-12.196
			c-1.264,0-2.559-0.684-3.892-2.062c-1.332-1.378-2.135-2.724-2.414-4.033c-3.509,4.07-6.1,6.096-7.779,6.096h-85.595v-16.608
			l91.48-0.42c1.538,0,2.592-1.821,3.153-5.466c0.137-1.962,0.278-3.924,0.42-5.885c2.523-3.504,7.076-8.478,13.665-14.929
			c0.142,2.386-0.493,5.885-1.889,10.512c-2.523,7.71-3.787,11.771-3.787,12.191c2.381,2.391,4.626,3.577,6.73,3.577
			c0.42,0,1.013-0.242,1.784-0.735C1287.059,223.759,1287.656,223.513,1288.076,223.513z"/>
		<path fill="#976F33" d="M1341.267,242.01h-6.096c-0.84-1.163-2.103-2.915-3.783-5.256c-0.985,2.044-1.615,3.801-1.893,5.256
			h-22.708c-0.283-0.885-1.049-2.217-2.313-3.992c-0.84,0.89-2.099,2.222-3.783,3.992h-17.452v-16.608h20.605
			c-0.283-2.281-0.283-5.347,0-9.207c0.981-2.569,5.325-7.209,13.036-13.916l-4.627,18.2v4.923h15.349
			c0.137-0.566,0.21-1.424,0.21-2.564c0-0.283-0.351-1.633-1.049-4.061c-0.703-2.418-1.054-3.778-1.054-4.061
			c0-0.999,2.455-4.845,7.36-11.543c0.844-0.853,2.031-1.994,3.577-3.422v13.469c0,1.14-0.703,4.489-2.104,10.047
			c0.698,1.424,2.382,2.135,5.046,2.135h1.679V242.01z"/>
		<path fill="#976F33" d="M1385.21,223.513c-0.141,0-0.351,0.31-0.63,0.944c-0.283,0.63-0.561,0.945-0.84,0.945v16.608h-12.196
			c-1.264,0-2.56-0.684-3.892-2.062c-1.333-1.378-2.136-2.724-2.414-4.033c-3.509,4.07-6.1,6.096-7.78,6.096h-21.239v-16.608
			l27.125-0.42c1.538,0,2.592-1.821,3.153-5.466c0.137-1.962,0.278-3.924,0.42-5.885c2.523-3.504,7.077-8.478,13.665-14.929
			c0.141,2.386-0.493,5.885-1.889,10.512c-2.523,7.71-3.787,11.771-3.787,12.191c2.382,2.391,4.626,3.577,6.73,3.577
			c0.42,0,1.013-0.242,1.784-0.735C1384.192,223.759,1384.79,223.513,1385.21,223.513z"/>
		<path fill="#976F33" d="M1429.987,224.229c0,2.095-0.63,4.672-1.894,7.743c-2.66,6.278-4.065,9.486-4.202,9.623
			c-0.84,0.278-1.405,0.415-1.684,0.415l-21.654-0.402c-1.401-2.391-2.177-3.591-2.314-3.591c-0.283,0-0.981,0.666-2.103,1.998
			c-1.122,1.332-2.24,1.994-3.363,1.994h-14.509v-16.608h17.662c0.137-2.423,0.771-5.85,1.894-10.275
			c1.118-1.999,2.87-4.139,5.256-6.424c2.382-2.281,4.695-4.426,6.939-6.424l-3.996,17.767v5.357h13.455
			c-0.142-1.277-0.42-3.422-0.84-6.411c-0.561-2.564-0.84-3.992-0.84-4.275c0-0.429,1.606-2.637,4.832-6.625
			c3.226-3.988,5.68-6.771,7.359-8.34V224.229z"/>
		<path fill="#976F33" d="M1482.759,178.936c-0.703,1.966-2.172,4.348-4.412,7.154c-5.046,0.137-12.825,3.085-23.338,8.824
			l-0.844-0.21c0.561-2.382,3.367-5.183,8.413-8.404c-2.103-0.562-5.188-1.689-9.253-3.367c-0.561-0.42-0.84-0.981-0.84-1.684
			c0-3.783,1.857-7.706,5.571-11.771c3.709-4.065,7.533-6.1,11.457-6.1c4.065,0,6.1,1.474,6.1,4.417
			c0-0.278-1.127,1.684-3.367,5.886c-1.123-1.396-2.943-2.45-5.466-3.153c-0.283-0.137-0.63-0.21-1.05-0.21
			c-1.122,0-2.313,0.351-3.577,1.049c-0.703,0.283-1.962,1.054-3.782,2.313c-0.142,0.142-0.283,0.351-0.42,0.634
			c-0.142,0.278-0.283,0.493-0.42,0.63c0.976,2.523,3.782,3.855,8.409,3.992H1482.759z"/>
		<path fill="#976F33" d="M1505.887,242.01h-6.726c-2.806,6.826-4.978,11.635-6.52,14.418c-3.084,5.576-6.515,9.96-10.302,13.168
			c-2.386,2.226-5.466,4.179-9.249,5.849c-1.546,0.557-3.44,0.84-5.68,0.84c-1.401,0-2.801-0.146-4.202-0.42
			c-3.787-0.986-9.394-2.948-16.822-5.891c-6.588-2.386-11.21-5.042-13.875-7.989v-1.469c0.283-0.283,1.122-0.42,2.523-0.42
			c0.283,0,2.975,0.662,8.094,1.994c5.115,1.332,7.811,1.999,8.094,1.999c1.962,0,4.344-0.351,7.15-1.054
			c10.512-2.519,20.604-9.458,30.277-20.815c-7.013-0.42-13.108-1.186-18.291-2.309c-1.825-0.283-3.928-1.332-6.31-3.157
			c-2.386-1.816-3.714-3.71-3.992-5.676c-0.142-0.698-0.21-1.469-0.21-2.309c0-2.665,1.118-6.798,3.363-12.406
			c1.962-5.187,3.641-9.18,5.046-11.986c2.801-5.183,5.954-9.107,9.458-11.771c1.684-1.401,3.646-2.103,5.89-2.103
			c0.976,0,1.606,0.073,1.889,0.214c3.226,1.419,5.539,3.477,6.94,6.169c4.763,8.514,7.638,18.018,8.619,28.516h4.837V242.01z
			 M1487.385,220.985c-0.981-2.801-1.752-4.763-2.313-5.886c-1.122-1.962-2.35-3.605-3.677-4.937
			c-1.337-1.332-2.628-1.999-3.892-1.999c-1.542,0-3.363,1.05-5.466,3.153c-1.542,1.684-2.314,2.943-2.314,3.783
			c0,0.986,0.493,2.176,1.474,3.577c1.259,1.962,3.641,3.294,7.149,3.992c0.278,0.142,1.328,0.214,3.153,0.214
			c2.24,0,3.71-0.214,4.412-0.634C1486.053,222.112,1486.545,221.688,1487.385,220.985z"/>
		<path fill="#976F33" d="M1551.718,235.075c0,1.825-0.734,4.663-2.203,8.514c-1.474,3.851-2.77,6.479-3.892,7.884
			c-2.245-1.921-4.485-3.842-6.725-5.758c-3.23-2.473-5.964-3.705-8.204-3.705h-31.327v-16.608h21.659
			c0.698-1.551,1.049-3.029,1.049-4.439c0-2.117-0.493-5.644-1.469-10.58c-0.986-6.767-3.089-16.708-6.31-29.826
			c0-0.283-0.876-1.09-2.628-2.432c-1.752-1.342-2.628-2.222-2.628-2.651c0-0.703,1.505-3.769,4.522-9.198
			c3.011-5.429,5.078-8.495,6.2-9.203h1.474c0.137,1.683,0.698,3.924,1.679,6.73c4.344,4.622,10.093,8.619,17.242,11.982
			c-0.84,0.981-2.386,3.646-4.626,7.989c-1.962,3.65-3.924,6.169-5.886,7.574c0.137,0.976,0.347,6.023,0.63,15.134
			c0.137,5.89,0.981,10.234,2.523,13.035c0.844,1.542,4.344,4.07,10.512,7.569C1548.916,230.17,1551.718,232.834,1551.718,235.075z"
			/>
		<path fill="#976F33" d="M1587.464,210.61c0,12.365-2.874,22.831-8.619,31.4l-7.779-65.127c0-1.122,1.752-4.562,5.256-10.325
			c3.079-4.914,5.393-8.359,6.935-10.325L1587.464,210.61z"/>
	</g>
	<g>
		<path fill="#976F33" d="M20.175,328.426c0-5.343-0.119-8.623-0.365-12.876c2.19-0.607,9.354-1.579,14.701-1.82
			c4.371-0.123,25.03,0,30.862,0c-0.976,5.466-2.674,7.774-4.252,9.353c-1.579,0.726-4.134,0.726-9.481,0.726H35.36v24.177h27.458
			c-1.214,9.23-4.134,10.083-8.87,10.083H35.36c0,12.15,0.128,22.234,0.365,31.341c-2.062,0.612-8.14,0.976-12.876,0.976
			c-1.825,0-2.673-0.365-2.673-2.309V328.426z"/>
		<path fill="#976F33" d="M78.485,330.734c0-5.831,0-10.202-0.365-15.303c3.404-0.848,8.742-1.579,13.724-1.702
			c6.196,0,20.048,0,29.52,0c-0.73,5.466-2.19,7.774-3.641,9.353c-1.825,0.726-5.959,0.726-11.425,0.726H93.67v21.745h26.481
			c-1.095,8.505-3.769,10.083-8.021,10.083H93.67v23.812c2.792,0.607,6.68,0.853,11.297,0.853c4.982,0,13.852,0,19.683-0.488
			l0.237,0.242c-1.095,5.224-3.404,8.021-6.433,9.718c-1.706,0.365-7.172,0.612-16.526,0.612c-10.686,0-18.707-0.612-21.627-1.218
			l-1.816-2.309V330.734z"/>
		<path fill="#976F33" d="M138.611,329.156c0-8.381-0.119-10.686-0.237-13.847c2.674-0.607,14.938-2.309,24.903-2.309
			c36.564,0,43.126,21.987,43.126,37.537c0,26.244-18.834,40.333-43.737,40.333c-8.988,0-16.279-0.73-24.054-2.309V329.156z
			 M153.796,380.421c2.92,0.73,6.196,0.972,9.481,0.972c10.932,0,26.846-5.224,26.846-30.611c0-18.346-10.449-28.307-28.553-28.307
			c-3.76,0-5.949,0.242-7.774,0.607V380.421z"/>
		<path fill="#976F33" d="M222.673,330.734c0-5.831,0-10.202-0.365-15.303c3.404-0.848,8.751-1.579,13.734-1.702
			c6.196,0,20.039,0,29.52,0c-0.73,5.466-2.19,7.774-3.65,9.353c-1.816,0.726-5.949,0.726-11.416,0.726h-12.638v21.745h26.481
			c-1.086,8.505-3.76,10.083-8.012,10.083h-18.469v23.812c2.801,0.607,6.689,0.853,11.297,0.853c4.982,0,13.852,0,19.683-0.488
			l0.246,0.242c-1.095,5.224-3.404,8.021-6.442,9.718c-1.697,0.365-7.163,0.612-16.516,0.612c-10.695,0-18.716-0.612-21.627-1.218
			l-1.825-2.309V330.734z"/>
		<path fill="#976F33" d="M297.619,386.736c0,2.432-0.721,2.92-2.793,3.157c-3.404,0.365-10.083,0.493-12.511,0.493
			c0.246-4.864,0.365-12.027,0.365-22.234v-40.694c0-6.077,0-8.988-0.246-12.392c3.157-0.73,15.312-2.067,20.897-2.067
			c19.318,0,28.909,6.561,28.909,21.987c0,11.543-9.718,17.128-14.573,19.318c2.792,2.428,6.561,8.505,10.686,15.668
			c5.831,10.202,9.718,15.672,12.757,18.953v0.484c-0.968,0.73-5.466,1.214-9.837,1.214c-4.499,0-7.656-1.214-10.814-5.466
			c-3.276-4.253-5.712-9.107-10.567-18.589c-3.769-6.921-6.077-7.893-10.083-7.893c-0.848,0-1.332,0-2.19,0V386.736z
			 M297.619,349.929c3.285,0.365,9.965,0,11.662-0.853c2.555-0.967,7.41-4.613,7.41-12.753c0-10.079-6.315-14.331-13.843-14.331
			c-1.706,0-3.769,0.119-5.229,0.365V349.929z"/>
		<path fill="#976F33" d="M371.36,368.759c-2.793,7.045-6.324,16.033-7.902,19.921c-0.484,1.095-1.451,1.706-3.395,1.706
			c-2.674,0-8.021-0.73-10.695-1.583v-0.488c6.315-14.819,25.268-60.007,29.885-71.062l-0.967-2.551
			c4.489-0.972,11.297-1.46,12.748-1.46c1.095,0,2.19,0.73,2.801,2.19c5.585,13.359,14.82,37.295,19.072,47.862
			c4.973,12.392,7.894,20.043,10.321,25.149v0.484c-2.673,0.848-10.932,1.46-13.606,1.46c-1.944,0-2.911-0.612-4.125-3.887
			c-2.19-6.196-3.887-10.814-6.689-17.74H371.36z M395.897,358.676c-5.593-15.066-9.234-24.173-10.567-28.06
			c-3.039,8.016-6.442,17.612-10.576,28.06H395.897z"/>
		<path fill="#976F33" d="M436.222,329.886c0-8.14-0.119-13.122-0.365-15.668c2.673-0.365,8.505-0.976,13.122-0.976
			c2.062,0,2.427,1.095,2.427,7.172v59.036c2.308,0.607,6.442,0.853,10.932,0.853c4.982,0,12.392,0,18.351-0.612l0.119,0.247
			c-0.73,4.736-3.157,8.14-6.196,9.837c-1.697,0.365-5.95,0.612-15.303,0.612c-10.083,0-18.223-0.612-21.262-1.218l-1.825-2.309
			V329.886z"/>
		<path fill="#976F33" d="M540.815,359.525c0-2.309-0.119-4.125-0.976-5.585c-6.552-11.297-17.365-27.695-24.538-38.143v-0.365
			c4.133-1.213,10.083-2.19,13.24-2.19c2.19,0,3.039,0.611,6.077,5.712c4.253,6.798,10.33,17.37,15.55,26.117
			c5.219-8.016,16.881-27.577,19.19-31.829c4.499,0,8.505,0.611,10.211,1.213c1.944,0.73,1.697,2.309,0.119,4.982
			c-3.039,4.983-21.015,31.583-22.357,33.654c-0.968,1.697-1.333,3.522-1.333,5.101v16.644c0,8.258,0.246,11.899,0.365,14.573
			c-2.792,0.612-6.68,0.976-13.359,0.976c-1.825,0-2.19-0.365-2.19-2.19V359.525z"/>
		<path fill="#976F33" d="M627.185,311.909c24.538,0,38.746,17.73,38.746,39.111c0,21.745-13.478,40.457-39.229,40.457
			c-28.069,0-39.12-20.774-39.12-39.115c0-22.959,14.701-40.452,39.476-40.452H627.185z M625.725,321.381
			c-11.908,0-21.745,9.6-21.745,29.52c0,20.285,11.06,31.099,23.808,31.099c13.606,0,21.992-10.932,21.992-29.885
			c0-17.247-8.87-30.734-23.936-30.734H625.725z"/>
		<path fill="#976F33" d="M697.03,354.305c0,22.594,9.718,26.235,18.096,26.235c9.846,0,18.104-4.125,18.104-27.33v-36.446
			c0-2.309,0.967-2.793,2.674-3.034c3.522-0.365,8.258-0.488,10.686-0.488c-0.237,4.864-0.365,12.027-0.365,22.11v17.251
			c0,34.014-17.976,38.873-32.796,38.873c-20.532,0-31.583-10.572-31.583-36.688v-24.903c0-8.14-0.128-13.122-0.365-15.668
			c2.181-0.365,10.567-0.976,12.995-0.976c2.19,0,2.555,1.095,2.555,7.045V354.305z"/>
		<path fill="#976F33" d="M783.391,323.808h-21.864c-1.944,0-2.911-0.848-2.062-3.641c1.332-3.641,2.793-5.713,4.006-7.045
			c1.944,0.484,5.229,0.607,17.493,0.607h43.245c-0.484,6.438-3.76,9.476-6.315,10.079h-19.309v50.782
			c0,8.382,0.237,12.392,0.356,14.82c-3.394,0.612-8.13,0.976-12.994,0.976c-1.697,0-2.555-0.365-2.555-2.19V323.808z"/>
		<path fill="#976F33" d="M883.979,345.07v-27.942c0-2.674,0.977-3.157,2.92-3.399c2.911-0.242,8.87-0.365,12.629-0.488
			c-0.237,4.617-0.365,11.908-0.365,21.992v39.238c0,8.5,0.247,12.511,0.365,14.938c-2.427,0.612-10.202,0.976-12.994,0.976
			c-1.706,0-2.555-0.365-2.555-2.309v-33.289c-2.427,0.246-6.433,0.365-13.843,0.365h-18.588v31.464
			c0,2.551-0.977,3.038-3.769,3.276c-3.276,0.365-9.235,0.612-11.781,0.493c0.237-4.864,0.365-12.027,0.365-22.234v-38.385
			c0-8.263-0.128-13.241-0.365-15.549c3.157-0.612,10.448-0.976,12.994-0.976c2.19,0,2.555,1.095,2.555,6.561v25.268H883.979z"/>
		<path fill="#976F33" d="M963.177,368.759c-2.793,7.045-6.315,16.033-7.893,19.921c-0.484,1.095-1.46,1.706-3.404,1.706
			c-2.673,0-8.012-0.73-10.686-1.583v-0.488c6.315-14.819,25.268-60.007,29.885-71.062l-0.976-2.551
			c4.499-0.972,11.297-1.46,12.757-1.46c1.095,0,2.181,0.73,2.792,2.19c5.585,13.359,14.819,37.295,19.072,47.862
			c4.982,12.392,7.893,20.043,10.33,25.149v0.484c-2.674,0.848-10.932,1.46-13.606,1.46c-1.944,0-2.92-0.612-4.134-3.887
			c-2.19-6.196-3.887-10.814-6.68-17.74H963.177z M987.714,358.676c-5.585-15.066-9.226-24.173-10.567-28.06
			c-3.039,8.016-6.433,17.612-10.567,28.06H987.714z"/>
		<path fill="#976F33" d="M1039.957,354.305c0,22.594,9.719,26.235,18.095,26.235c9.847,0,18.104-4.125,18.104-27.33v-36.446
			c0-2.309,0.968-2.793,2.674-3.034c3.522-0.365,8.258-0.488,10.686-0.488c-0.237,4.864-0.365,12.027-0.365,22.11v17.251
			c0,34.014-17.977,38.873-32.796,38.873c-20.532,0-31.583-10.572-31.583-36.688v-24.903c0-8.14-0.128-13.122-0.365-15.668
			c2.181-0.365,10.567-0.976,12.994-0.976c2.19,0,2.555,1.095,2.555,7.045V354.305z"/>
		<path fill="#976F33" d="M1126.318,323.808h-21.864c-1.944,0-2.911-0.848-2.062-3.641c1.332-3.641,2.792-5.713,4.006-7.045
			c1.944,0.484,5.229,0.607,17.493,0.607h43.245c-0.484,6.438-3.76,9.476-6.315,10.079h-19.309v50.782
			c0,8.382,0.237,12.392,0.356,14.82c-3.395,0.612-8.13,0.976-12.995,0.976c-1.697,0-2.555-0.365-2.555-2.19V323.808z"/>
		<path fill="#976F33" d="M1226.905,345.07v-27.942c0-2.674,0.967-3.157,2.911-3.399c2.92-0.242,8.87-0.365,12.639-0.488
			c-0.247,4.617-0.365,11.908-0.365,21.992v39.238c0,8.5,0.237,12.511,0.365,14.938c-2.427,0.612-10.202,0.976-13.003,0.976
			c-1.697,0-2.546-0.365-2.546-2.309v-33.289c-2.428,0.246-6.442,0.365-13.852,0.365h-18.588v31.464c0,2.551-0.967,3.038-3.76,3.276
			c-3.285,0.365-9.235,0.612-11.79,0.493c0.246-4.864,0.365-12.027,0.365-22.234v-38.385c0-8.263-0.119-13.241-0.365-15.549
			c3.157-0.612,10.448-0.976,13.003-0.976c2.181,0,2.546,1.095,2.546,6.561v25.268H1226.905z"/>
		<path fill="#976F33" d="M1298.328,311.909c24.538,0,38.755,17.73,38.755,39.111c0,21.745-13.487,40.457-39.238,40.457
			c-28.06,0-39.12-20.774-39.12-39.115c0-22.959,14.701-40.452,39.485-40.452H1298.328z M1296.877,321.381
			c-11.908,0-21.745,9.6-21.745,29.52c0,20.285,11.051,31.099,23.808,31.099c13.606,0,21.983-10.932,21.983-29.885
			c0-17.247-8.861-30.734-23.926-30.734H1296.877z"/>
		<path fill="#976F33" d="M1368.419,386.736c0,2.432-0.73,2.92-2.792,3.157c-3.404,0.365-10.083,0.493-12.511,0.493
			c0.237-4.864,0.356-12.027,0.356-22.234v-40.694c0-6.077,0-8.988-0.237-12.392c3.157-0.73,15.303-2.067,20.897-2.067
			c19.309,0,28.909,6.561,28.909,21.987c0,11.543-9.719,17.128-14.582,19.318c2.801,2.428,6.561,8.505,10.694,15.668
			c5.831,10.202,9.719,15.672,12.757,18.953v0.484c-0.977,0.73-5.466,1.214-9.846,1.214c-4.49,0-7.647-1.214-10.804-5.466
			c-3.285-4.253-5.713-9.107-10.576-18.589c-3.76-6.921-6.068-7.893-10.074-7.893c-0.858,0-1.341,0-2.19,0V386.736z
			 M1368.419,349.929c3.276,0.365,9.965,0,11.662-0.853c2.546-0.967,7.41-4.613,7.41-12.753c0-10.079-6.315-14.331-13.852-14.331
			c-1.697,0-3.76,0.119-5.22,0.365V349.929z"/>
		<path fill="#976F33" d="M1424.056,329.639c0-8.135-0.128-13.113-0.365-15.421c2.181-0.365,10.567-0.976,13.122-0.976
			c2.062,0,2.427,1.095,2.427,6.561v54.669c0,8.5,0.237,12.511,0.365,14.938c-2.071,0.612-10.202,0.976-13.003,0.976
			c-1.816,0-2.546-0.365-2.546-2.437V329.639z"/>
		<path fill="#976F33" d="M1476.161,323.808h-21.864c-1.944,0-2.911-0.848-2.062-3.641c1.332-3.641,2.792-5.713,4.006-7.045
			c1.944,0.484,5.229,0.607,17.493,0.607h43.245c-0.484,6.438-3.76,9.476-6.315,10.079h-19.309v50.782
			c0,8.382,0.237,12.392,0.356,14.82c-3.395,0.612-8.13,0.976-12.995,0.976c-1.697,0-2.555-0.365-2.555-2.19V323.808z"/>
		<path fill="#976F33" d="M1548.195,359.525c0-2.309-0.119-4.125-0.967-5.585c-6.561-11.297-17.374-27.695-24.537-38.143v-0.365
			c4.125-1.213,10.083-2.19,13.24-2.19c2.181,0,3.039,0.611,6.069,5.712c4.252,6.798,10.33,17.37,15.549,26.117
			c5.229-8.016,16.893-27.577,19.202-31.829c4.489,0,8.505,0.611,10.202,1.213c1.944,0.73,1.697,2.309,0.119,4.982
			c-3.029,4.983-21.018,31.583-22.35,33.654c-0.976,1.697-1.341,3.522-1.341,5.101v16.644c0,8.258,0.247,11.899,0.365,14.573
			c-2.792,0.612-6.68,0.976-13.359,0.976c-1.825,0-2.19-0.365-2.19-2.19V359.525z"/>
	</g>
</g>
</svg>
