<?xml version="1.0" encoding="utf-8"?>
<!-- Generator: Adobe Illustrator 19.0.0, SVG Export Plug-In . SVG Version: 6.00 Build 0)  -->
<svg version="1.1" xmlns="http://www.w3.org/2000/svg" xmlns:xlink="http://www.w3.org/1999/xlink" x="0px" y="0px"
	 viewBox="0 0 36.4 34.4" style="enable-background:new 0 0 36.4 34.4;" xml:space="preserve">
<style type="text/css">
	.st0{display:none;}
	.st1{display:inline;fill:none;stroke:#ED1C24;stroke-miterlimit:10;}
	.st2{display:inline;fill:none;stroke:#FFFFFF;stroke-miterlimit:10;}
	.st3{display:inline;fill:none;stroke:#FFFFFF;stroke-linecap:square;stroke-miterlimit:10;}
	.st4{display:inline;fill:#B08B43;}
	.st5{fill:#414141;}
</style>
<g id="Layer_1" class="st0">
	<line class="st1" x1="16" y1="11.9" x2="16" y2="19.1"/>
	<line class="st1" x1="19.7" y1="15.5" x2="12.4" y2="15.5"/>
	<circle class="st1" cx="16" cy="15.5" r="6.7"/>
</g>
<g id="Layer_2" class="st0">
	<line id="XMLID_134_" class="st2" x1="16" y1="11.7" x2="16" y2="19"/>
	<line id="XMLID_133_" class="st2" x1="19.6" y1="15.4" x2="12.4" y2="15.4"/>
	<circle id="XMLID_132_" class="st2" cx="16" cy="15.4" r="6.7"/>
</g>
<g id="Layer_3" class="st0">
	<line id="XMLID_135_" class="st3" x1="21.7" y1="11.6" x2="12.6" y2="20.7"/>
	<line id="XMLID_131_" class="st3" x1="12.5" y1="20.5" x2="7.9" y2="16"/>
	<path id="XMLID_215_" class="st4" d="M26.8,21l-10-10.1c0,0,0,0,0,0c-1.1-1-2.7-1-3.8,0c0,0,0,0,0,0L2.8,21c-0.4,0.4-0.4,1,0,1.4
		c0.4,0.4,1,0.4,1.4,0l0.8-0.8v8.3c0,2.1,1.7,3.8,3.8,3.8h3.5c0.5,0,1-0.4,1-1v-7.8h3.4v7.8c0,0.5,0.4,1,1,1h3.4
		c2.1,0,3.8-1.7,3.8-3.8c0-0.5-0.4-1-1-1s-1,0.4-1,1c0,1.1-0.9,1.9-1.9,1.9h-2.4v-7.8c0-0.5-0.4-1-1-1h-5.3c-0.5,0-1,0.4-1,1v7.8
		H8.7c-1.1,0-1.9-0.9-1.9-1.9V19.7c0,0,0,0,0,0l7.4-7.4c0.4-0.3,0.9-0.3,1.2,0l7.3,7.3V30c0,0.5,0.4,1,1,1s1-0.4,1-1v-8.4l0.8,0.8
		c0.2,0.2,0.4,0.3,0.7,0.3c0.2,0,0.5-0.1,0.7-0.3C27.1,21.9,27.1,21.3,26.8,21"/>
</g>
<g id="Layer_4">
	<path class="st5" d="M35.7,13.6c-0.6-4.1-3.3-7.7-6.7-9.7c-0.9-0.5-1.8-1-2.7-1.3C18.4-1.5,8.2,1.4,3.2,8.8
		C3.1,8.7,2.8,8.7,2.8,8.9c-0.2,0.5-0.3,0.9-0.4,1.4c-1.2,2.2-1.7,4.7-1.5,7.2C0.7,19,0.7,20.6,1,22.2c0.4,2.1,1.4,4,2.7,5.6
		c1.5,1.8,3.5,3,5.6,4c7.4,3.3,17.5,1.9,22.8-4.9c1.7-2.1,2.7-4.7,3.1-7.3C35.7,17.7,35.9,15.6,35.7,13.6 M32.7,22.6
		c-2,3.7-5.2,6.6-9,8.3C16,34.4,6.4,29.9,2.9,22c-0.2-0.6-0.4-1.1-0.6-1.7c0-2.2,0.1-4.3,0.9-6.4c0.6-1.7,1.5-3.2,2.7-4.6
		c2.4-2.8,5.6-4.7,9.1-5.7c3.4-1,7.1-1.1,10.6,0c0.2,0.1,0.4,0.1,0.6,0.2C27,4.4,27.8,5,28.6,5.7c3.3,2.9,5.6,7.2,5.6,11.8
		c0,0.5,0,0.9-0.1,1.4C33.9,20.2,33.4,21.5,32.7,22.6 M15.6,2.1c0.6-0.1,1.1-0.2,1.7-0.2c-3.2,0.5-6.4,1.8-9,3.7
		c-2.1,1.5-4,3.5-5.3,5.9c-0.2,0.3-0.3,0.6-0.5,0.9c0.3-0.9,0.8-1.7,1.3-2.5C6.5,5.7,10.9,2.9,15.6,2.1 M2.5,23.6
		c1.4,2.7,3.6,5,6.1,6.6c-1.3-0.7-2.5-1.5-3.6-2.6C3.8,26.5,3,25.1,2.5,23.6"/>
	<path class="st5" d="M30.9,14.9c0.1-0.6-0.8-0.9-1-0.3c-1,2.2-1.4,3.3-3.4,6c-1.5,1.9-3.1,3.1-5.4,3.5c-2.5,0.5-5.2,0.4-7.6-0.4
		c-1.2-0.4-2.2-0.9-3.2-1.7c-1-0.8-2.1-1.8-2.7-3c-0.1-0.2-0.2-0.4-0.2-0.5c-0.1-0.4-0.5-0.5-0.8-0.4c0,0,0,0,0-0.1
		c-0.4-0.6-1.3-0.2-0.9,0.5c1.2,2.6,2.7,4.8,4.9,6.5c0.3,0.2,0.5,0.4,0.8,0.6c2,1.4,4.3,2.3,6.8,2.4c4.9,0.2,9.9-3.2,11.6-8
		c0.1-0.2,0.1-0.4,0.2-0.6C30.5,18,30.8,16.4,30.9,14.9 M19,25.5c1.7-0.1,3.4-0.4,4.9-1.1c-0.6,0.4-1.3,0.8-2.1,1.1
		c-2.8,1.1-6,0.9-8.7-0.4c-0.2-0.1-0.5-0.3-0.7-0.4c-0.1-0.1-0.2-0.1-0.3-0.2C14.3,25.4,16.7,25.6,19,25.5"/>
</g>
</svg>
