<?xml version="1.0" encoding="utf-8"?>
<!-- Generator: Adobe Illustrator 19.0.0, SVG Export Plug-In . SVG Version: 6.00 Build 0)  -->
<svg version="1.1" id="Layer_1" xmlns="http://www.w3.org/2000/svg" xmlns:xlink="http://www.w3.org/1999/xlink" x="0px" y="0px"
	 viewBox="0 0 27.3 27.3" style="enable-background:new 0 0 27.3 27.3;" xml:space="preserve">
<style type="text/css">
	.st0{fill:#B08B43;}
</style>
<g>
	<path class="st0" d="M25.6,12.8l-10-10.1L14.9,2c-0.8-0.7-2-0.7-2.7,0.2c-0.3,0.4-0.4,0.4-0.5,0.5L1.6,12.8c-0.4,0.4-0.4,1,0,1.4
		c0.4,0.4,1,0.4,1.4,0l0.8-0.8v9.2c0,1.6,1.3,2.9,2.9,2.9H12c0,0,0,0,0,0v-8.8h3.4v8.8c0,0,0,0,0,0h4.3c2.1,0,3.8-1.7,3.8-3.8
		c0-0.5-0.4-1-1-1c-0.7,0-1.2,0.8-0.8,1.5c0.4,0.6-0.2,1.4-0.9,1.4l-3.6,0v-8.8c0,0,0,0,0,0h-7.2v8.8H6.6c-0.5,0-1-0.4-1-1V11.5
		c0,0,0,0,0,0l7.4-7.4c0.4-0.3,0.9-0.3,1.2,0l7.3,7.3v10.3c0,0.5,0.4,1,1,1s1-0.4,1-1v-8.4l0.8,0.8c0.2,0.2,0.4,0.3,0.7,0.3
		c0.2,0,0.5-0.1,0.7-0.3C26,13.8,26,13.1,25.6,12.8"/>
</g>
</svg>
