<?xml version="1.0" encoding="utf-8"?>
<!-- Generator: Adobe Illustrator 19.0.0, SVG Export Plug-In . SVG Version: 6.00 Build 0)  -->
<svg version="1.1" id="Layer_1" xmlns="http://www.w3.org/2000/svg" xmlns:xlink="http://www.w3.org/1999/xlink" x="0px" y="0px"
	 viewBox="0 0 20.5 20.3" style="enable-background:new 0 0 20.5 20.3;" xml:space="preserve">
<style type="text/css">
	.st0{clip-path:url(#XMLID_194_);fill:#414141;}
	.st1{clip-path:url(#XMLID_194_);fill:none;stroke:#414141;stroke-width:0.5;stroke-miterlimit:10;}
	.st2{clip-path:url(#XMLID_194_);fill:none;stroke:#DCDBDB;stroke-width:0.5;stroke-miterlimit:10;}
	.st3{clip-path:url(#XMLID_194_);fill:none;stroke:#DCDBDB;stroke-width:0.25;stroke-miterlimit:10;}
</style>
<g id="XMLID_2_">
	<defs>
		<rect id="XMLID_3_" x="-12.3" y="-646.1" width="1920" height="3466.8"/>
	</defs>
	<clipPath id="XMLID_194_">
		<use xlink:href="#XMLID_3_"  style="overflow:visible;"/>
	</clipPath>
	<path id="XMLID_63_" class="st0" d="M19.3-152l-7.3-7.4c0,0,0,0,0,0c-0.8-0.7-2-0.7-2.8,0c0,0,0,0,0,0L1.7-152
		c-0.3,0.3-0.3,0.7,0,1c0.3,0.3,0.7,0.3,1,0l0.6-0.6v6.1c0,1.6,1.3,2.8,2.8,2.8h2.5c0.4,0,0.7-0.3,0.7-0.7v-5.7h2.5v5.7
		c0,0.4,0.3,0.7,0.7,0.7h2.5c1.6,0,2.8-1.3,2.8-2.8c0-0.4-0.3-0.7-0.7-0.7c-0.4,0-0.7,0.3-0.7,0.7c0,0.8-0.6,1.4-1.4,1.4h-1.8v-5.7
		c0-0.4-0.3-0.7-0.7-0.7H8.6c-0.4,0-0.7,0.3-0.7,0.7v5.7H6c-0.8,0-1.4-0.6-1.4-1.4v-7.5c0,0,0,0,0,0l5.4-5.4c0.3-0.2,0.6-0.2,0.9,0
		l5.4,5.4v7.6c0,0.4,0.3,0.7,0.7,0.7c0.4,0,0.7-0.3,0.7-0.7v-6.2l0.6,0.6c0.1,0.1,0.3,0.2,0.5,0.2c0.2,0,0.4-0.1,0.5-0.2
		C19.6-151.2,19.6-151.7,19.3-152"/>
	<path id="XMLID_60_" class="st0" d="M20.4-121.5c-0.3-0.9-1.1-1.5-2.1-1.5h-4c0,0,0,0,0,0c-0.2,0-0.4-0.2-0.5-0.4l-1.2-3.8
		c-0.3-0.9-1.1-1.5-2.1-1.5h0c-1,0-1.8,0.6-2.1,1.5l-1.2,3.8c-0.1,0.2-0.3,0.4-0.5,0.4c0,0,0,0,0,0h-4h0c-1,0-1.8,0.6-2.1,1.5
		c0,0.1,0,0.2-0.1,0.3c-0.1,0.3-0.1,0.7,0,1c0.1,0.4,0.4,0.8,0.8,1.1l0.9,0.7l1.3,0.9c0,0,0,0,0,0l1,0.7c0.2,0.2,0.3,0.4,0.2,0.7
		l-0.6,1.9l-0.6,1.9c-0.1,0.2-0.1,0.5-0.1,0.7c0,0.2,0,0.4,0.1,0.7c0.1,0.4,0.4,0.8,0.8,1.1c0.4,0.3,0.8,0.4,1.3,0.4
		c0,0,0.1,0,0.1,0c0.4,0,0.8-0.1,1.2-0.4l2.2-1.6l1.1-0.8c0.1-0.1,0.2-0.1,0.3-0.1c0.1,0,0.2,0,0.3,0.1l1.1,0.8l2.2,1.6
		c0.4,0.3,0.8,0.4,1.2,0.4c0,0,0.1,0,0.1,0c0.4,0,0.9-0.1,1.3-0.4c0.2-0.1,0.4-0.3,0.5-0.5c0.3-0.4,0.4-0.8,0.4-1.2
		c0-0.2,0-0.5-0.1-0.7l-0.6-1.9l-0.6-1.9c-0.1-0.2,0-0.5,0.2-0.7l1-0.7l1.3-0.9l0.9-0.7C20.4-119.6,20.7-120.5,20.4-121.5
		 M15.4-117.9c-0.8,0.6-1.1,1.5-0.8,2.4l0.4,1.2l0.8,2.6c0.1,0.4-0.1,0.6-0.2,0.7c0,0-0.1,0.1-0.3,0.1c-0.1,0-0.3,0-0.4-0.1
		l-3.2-2.4c-0.4-0.3-0.8-0.4-1.3-0.4c-0.4,0-0.9,0.1-1.3,0.4l-3.2,2.4c-0.2,0.1-0.3,0.1-0.4,0.1c-0.1,0-0.2-0.1-0.3-0.1
		c-0.1-0.1-0.3-0.3-0.2-0.7l0.8-2.6l0.4-1.2c0.3-0.9,0-1.9-0.8-2.4l-1.3-0.9l-2-1.4C1.9-120.5,2-120.9,2-121c0-0.1,0.2-0.4,0.6-0.4
		h4h0c0.1,0,0.1,0,0.2,0c0.9-0.1,1.6-0.6,1.9-1.4v0l1.2-3.8c0.1-0.4,0.5-0.4,0.6-0.4c0.1,0,0.4,0,0.6,0.4l1.2,3.8v0
		c0.3,0.8,1,1.4,1.9,1.4c0.1,0,0.1,0,0.2,0h4c0.4,0,0.5,0.3,0.6,0.4c0,0.1,0.1,0.4-0.2,0.7l-2,1.4L15.4-117.9z"/>
	<path id="XMLID_57_" class="st0" d="M18.8-81c0-0.2,0.1-0.4,0.1-0.7c0-0.1,0-0.3-0.1-0.4c0-0.2-0.1-0.3-0.2-0.5
		c-0.1-0.3-0.3-0.6-0.5-0.8c-0.9-0.9-1.7-1.4-2.4-1.6c-1-0.3-1.9,0-2.8,0.8c0,0,0,0,0,0L12-83.3c-0.4-0.2-1.1-0.7-1.9-1.4
		c-0.3-0.2-0.6-0.5-0.9-0.8l-0.1-0.1C8-86.7,7.3-87.8,7-88.3l0.9-0.9l0,0C8.7-90.1,8.9-91,8.7-92c-0.2-0.7-0.7-1.5-1.6-2.4
		c-0.5-0.5-1.1-0.7-1.7-0.8c-0.2,0-0.4,0-0.6,0.1c-0.4,0.1-0.8,0.3-1.2,0.6l0,0c0,0,0,0,0,0c-0.2,0.2-0.5,0.5-0.6,0.8
		c-0.1,0.1-0.1,0.2-0.2,0.3c-0.1,0.2-0.2,0.4-0.3,0.6c-0.1,0.1-0.1,0.3-0.1,0.4c-0.1,0.2-0.1,0.4-0.2,0.6c0,0.2,0,0.3,0,0.5
		c0,0.2-0.1,0.4-0.1,0.6v0c0,0.3,0,0.6,0.1,0.9c0,0.3,0.1,0.5,0.1,0.8c0,0,0,0.1,0,0.1c0.4,1.6,1.2,3.3,2.4,4.8c0,0,0,0,0,0
		c0,0.1,0.1,0.1,0.1,0.2c0.2,0.2,0.3,0.4,0.5,0.6c0.2,0.3,0.5,0.6,0.7,0.8c0,0,0,0,0,0c0.3,0.3,0.5,0.5,0.8,0.7
		c0.2,0.2,0.4,0.3,0.6,0.5c0.1,0,0.1,0.1,0.2,0.1c0,0,0,0,0,0c1.5,1.2,3.2,2,4.8,2.4c0,0,0.1,0,0.1,0c0.3,0.1,0.5,0.1,0.8,0.1
		c0.3,0,0.6,0.1,0.9,0.1h0c0.2,0,0.4,0,0.6-0.1c0.2,0,0.3,0,0.5,0c0.2,0,0.4-0.1,0.6-0.2c0.1,0,0.3-0.1,0.4-0.1
		c0.2-0.1,0.4-0.2,0.6-0.3c0.1-0.1,0.2-0.1,0.3-0.2c0.3-0.2,0.5-0.4,0.8-0.6c0,0,0,0,0,0l0,0l0,0C18.5-80.2,18.7-80.6,18.8-81
		 M17.5-81.5c0,0.3-0.1,0.5-0.3,0.7v0l0,0c0,0-0.1,0-0.1,0.1c-0.2,0.1-0.3,0.3-0.5,0.4c-0.1,0.1-0.2,0.1-0.3,0.1
		C16.3-80.1,16.1-80,16-80c-0.1,0-0.2,0.1-0.3,0.1c-0.1,0-0.3,0.1-0.4,0.1c-0.1,0-0.3,0-0.4,0c-0.2,0-0.3,0-0.5,0h0c0,0,0,0,0,0
		c-0.2,0-0.5,0-0.7-0.1c-0.8-0.1-1.6-0.3-2.5-0.7c0,0,0,0-0.1,0c-0.9-0.4-1.8-0.9-2.7-1.6c-0.2-0.2-0.4-0.4-0.7-0.5
		C7.4-82.8,7.2-83,7-83.3c-0.2-0.2-0.5-0.5-0.7-0.7c-0.2-0.2-0.4-0.4-0.5-0.7c-0.7-0.9-1.2-1.8-1.6-2.7c0,0,0,0,0-0.1
		c-0.4-0.9-0.6-1.7-0.7-2.5c0-0.3-0.1-0.5-0.1-0.7c0,0,0,0,0,0v0c0-0.2,0-0.3,0-0.5c0-0.1,0-0.3,0-0.4c0-0.2,0.1-0.3,0.1-0.5
		c0-0.1,0-0.2,0.1-0.3c0.1-0.2,0.1-0.3,0.2-0.4c0-0.1,0.1-0.2,0.1-0.3c0.1-0.2,0.2-0.3,0.4-0.5c0,0,0-0.1,0.1-0.1l0,0l0,0
		C4.9-94,5.7-94,6.1-93.5c1.7,1.8,1.6,2.6,0.8,3.4l-1.2,1.2c-0.2,0.2-0.2,0.5-0.1,0.7c0,0.1,0.8,1.7,2.6,3.6l0,0l0.1,0.1
		c1.9,1.9,3.5,2.6,3.6,2.6c0.2,0.1,0.5,0.1,0.7-0.1l1.2-1.2c0.8-0.8,1.6-0.9,3.4,0.8C17.4-82.2,17.6-81.9,17.5-81.5
		C17.6-81.6,17.6-81.5,17.5-81.5"/>
	<path id="XMLID_54_" class="st0" d="M10.5-45.5c-5,0-9.1-4.1-9.1-9.1c0-5,4.1-9.1,9.1-9.1s9.1,4.1,9.1,9.1
		C19.5-49.5,15.5-45.5,10.5-45.5 M10.5-62.2c-4.2,0-7.7,3.4-7.7,7.7c0,4.2,3.4,7.7,7.7,7.7s7.7-3.4,7.7-7.7
		C18.1-58.8,14.7-62.2,10.5-62.2"/>
	<path id="XMLID_53_" class="st0" d="M10.5-49.2c-2.4,0-4.4-2-4.4-4.4c0-0.4,0.3-0.7,0.7-0.7c0.4,0,0.7,0.3,0.7,0.7c0,1.6,1.3,3,3,3
		s3-1.3,3-3c0-0.4,0.3-0.7,0.7-0.7c0.4,0,0.7,0.3,0.7,0.7C14.8-51.2,12.9-49.2,10.5-49.2"/>
	<path id="XMLID_52_" class="st0" d="M17.4,131.6H3.6c-0.4,0-0.7-0.3-0.7-0.7s0.3-0.7,0.7-0.7h13.8c0.4,0,0.7,0.3,0.7,0.7
		S17.7,131.6,17.4,131.6"/>
	<path id="XMLID_51_" class="st0" d="M17.4,147.7H3.6c-0.4,0-0.7-0.3-0.7-0.7s0.3-0.7,0.7-0.7h13.8c0.4,0,0.7,0.3,0.7,0.7
		S17.7,147.7,17.4,147.7"/>
	<path id="XMLID_50_" class="st0" d="M17.4,139.7H3.6c-0.4,0-0.7-0.3-0.7-0.7s0.3-0.7,0.7-0.7h13.8c0.4,0,0.7,0.3,0.7,0.7
		S17.7,139.7,17.4,139.7"/>
	<path id="XMLID_47_" class="st0" d="M17.5,0.6h-14C2.2,0.6,1.1,1.7,1.1,3v14c0,1.3,1.1,2.4,2.4,2.4h14c1.3,0,2.4-1.1,2.4-2.4V3
		C19.9,1.7,18.8,0.6,17.5,0.6 M19.1,16.9c0,0.9-0.8,1.7-1.7,1.7h-14c-0.9,0-1.7-0.8-1.7-1.7V3c0-0.9,0.8-1.7,1.7-1.7h14
		c0.9,0,1.7,0.8,1.7,1.7V16.9z"/>
	<path id="XMLID_44_" class="st1" d="M17.5,0.6h-14C2.2,0.6,1.1,1.7,1.1,3v14c0,1.3,1.1,2.4,2.4,2.4h14c1.3,0,2.4-1.1,2.4-2.4V3
		C19.9,1.7,18.8,0.6,17.5,0.6z M19.1,16.9c0,0.9-0.8,1.7-1.7,1.7h-14c-0.9,0-1.7-0.8-1.7-1.7V3c0-0.9,0.8-1.7,1.7-1.7h14
		c0.9,0,1.7,0.8,1.7,1.7V16.9z"/>
	<path id="XMLID_43_" class="st0" d="M16.2,8.3L16.2,8.3c-0.5-0.6-1.2-0.9-2.1-0.9c-0.6,0-1.2,0.1-1.7,0.4c-0.2,0.1-0.4,0.3-0.7,0.5
		V7.9c0-0.2-0.2-0.4-0.4-0.4H8.7c-0.2,0-0.4,0.2-0.4,0.4v8.2c0,0.2,0.2,0.4,0.4,0.4h2.7c0.2,0,0.4-0.2,0.4-0.4v-4.6
		c0-0.6,0.5-1.1,1-1.2l0.1,0c0.2,0,0.4,0.1,0.6,0.2c0.2,0.2,0.3,0.4,0.3,0.7v4.9c0,0.2,0.2,0.4,0.4,0.4h2.5c0.2,0,0.4-0.2,0.4-0.4
		v-5.2C17,9.8,16.7,8.9,16.2,8.3"/>
	<path id="XMLID_42_" class="st2" d="M16.2,8.3L16.2,8.3c-0.5-0.6-1.2-0.9-2.1-0.9c-0.6,0-1.2,0.1-1.7,0.4c-0.2,0.1-0.4,0.3-0.7,0.5
		V7.9c0-0.2-0.2-0.4-0.4-0.4H8.7c-0.2,0-0.4,0.2-0.4,0.4v8.2c0,0.2,0.2,0.4,0.4,0.4h2.7c0.2,0,0.4-0.2,0.4-0.4v-4.6
		c0-0.6,0.5-1.1,1-1.2l0.1,0c0.2,0,0.4,0.1,0.6,0.2c0.2,0.2,0.3,0.4,0.3,0.7v4.9c0,0.2,0.2,0.4,0.4,0.4h2.5c0.2,0,0.4-0.2,0.4-0.4
		v-5.2C17,9.8,16.7,8.9,16.2,8.3z"/>
	<path id="XMLID_41_" class="st0" d="M7.2,7.6H4.5c-0.2,0-0.4,0.2-0.4,0.4v6.2v0.6v1.4c0,0.2,0.2,0.4,0.4,0.4h2.7
		c0.2,0,0.4-0.2,0.4-0.4V7.9C7.5,7.7,7.4,7.6,7.2,7.6"/>
	<path id="XMLID_40_" class="st2" d="M7.2,7.6H4.5c-0.2,0-0.4,0.2-0.4,0.4v6.2v0.6v1.4c0,0.2,0.2,0.4,0.4,0.4h2.7
		c0.2,0,0.4-0.2,0.4-0.4V7.9C7.5,7.7,7.4,7.6,7.2,7.6z"/>
	<path id="XMLID_39_" class="st0" d="M5.8,3.5C4.8,3.5,4,4.3,4,5.3c0,1,0.8,1.9,1.9,1.9c1,0,1.9-0.8,1.9-1.9
		C7.7,4.3,6.9,3.5,5.8,3.5"/>
	<circle id="XMLID_38_" class="st2" cx="5.8" cy="5.3" r="1.9"/>
	<path id="XMLID_35_" class="st0" d="M19.9,36.3c-0.1-0.1-0.3-0.2-0.4-0.1c-0.2,0.1-0.5,0.2-0.7,0.3c0.3-0.4,0.5-0.8,0.7-1.3
		c0-0.1,0-0.3-0.1-0.4c-0.1-0.1-0.3-0.1-0.4,0c-0.7,0.4-1.4,0.7-2.1,0.8c-0.8-0.7-1.8-1.2-2.9-1.2c-2.3,0-4.1,1.9-4.1,4.1
		c0,0.2,0,0.3,0,0.5c-0.6-0.1-1.1-0.2-1.7-0.3c-1-0.3-2.4-0.9-3.2-1.5c0,0,0,0-0.1,0c-0.8-0.5-1.5-1.2-2.1-1.9
		c-0.1-0.1-0.2-0.1-0.3-0.1c-0.1,0-0.2,0.1-0.3,0.2c-0.4,0.6-0.6,1.3-0.6,2.1c0,0.9,0.3,1.8,0.8,2.5c-0.1,0-0.2-0.1-0.3-0.1
		c-0.1-0.1-0.3-0.1-0.4,0c-0.1,0.1-0.2,0.2-0.2,0.3v0c0,1.4,0.7,2.6,1.8,3.4c0,0,0,0,0,0c-0.1,0-0.3,0-0.3,0.1
		C3,43.7,2.9,43.8,3,43.9c0.4,1.4,1.5,2.4,2.9,2.7c-1.1,0.7-2.4,1-3.7,1c-0.3,0-0.6,0-0.9,0c-0.2,0-0.3,0.1-0.4,0.2
		c-0.1,0.2,0,0.3,0.1,0.4c1.8,1.1,3.9,1.8,6,1.8c1.7,0,3.3-0.3,4.8-1c1.3-0.6,2.5-1.5,3.5-2.6c1.8-2.1,2.9-4.8,2.9-7.5v0l0-0.3
		c0.7-0.5,1.3-1.2,1.8-1.9C20.1,36.6,20.1,36.4,19.9,36.3 M17.6,38.2c-0.1,0.1-0.2,0.2-0.2,0.3l0,0.5c0,5.1-3.9,10.3-10.3,10.3
		c-1.5,0-2.9-0.3-4.3-0.9c1.6-0.1,3-0.7,4.3-1.7c0.1-0.1,0.2-0.3,0.1-0.4c0-0.1-0.2-0.3-0.3-0.3c-1.3,0-2.4-0.7-2.9-1.8
		c0,0,0.1,0,0.1,0c0.4,0,0.7,0,1.1-0.1c0.2,0,0.3-0.2,0.3-0.4c0-0.2-0.1-0.3-0.3-0.4c-1.4-0.3-2.4-1.4-2.7-2.8
		c0.4,0.2,0.8,0.2,1.3,0.2c0.2,0,0.3-0.1,0.4-0.3c0-0.2,0-0.3-0.1-0.4c-0.9-0.6-1.5-1.7-1.5-2.8c0-0.4,0.1-0.8,0.2-1.2
		c0.6,0.7,1.3,1.3,2,1.8c0,0,0,0,0,0c0.9,0.6,2.2,1.2,3.2,1.5c0,0,0,0,0,0c0,0,0,0,0.1,0c0,0,0,0,0,0c0,0,0.1,0,0.1,0
		c0.7,0.2,1.4,0.3,2.2,0.3c0.1,0,0.2,0,0.3-0.1c0.1-0.1,0.1-0.2,0.1-0.3c-0.1-0.3-0.1-0.5-0.1-0.8c0-1.9,1.5-3.4,3.4-3.4
		c0.9,0,1.8,0.4,2.5,1.1c0.1,0.1,0.2,0.1,0.3,0.1c0.5-0.1,1-0.2,1.5-0.4c-0.3,0.4-0.6,0.7-1,0.9c-0.2,0.1-0.2,0.3-0.2,0.4
		c0.1,0.2,0.2,0.3,0.4,0.3c0.3,0,0.7-0.1,1-0.2C18.3,37.6,17.9,37.9,17.6,38.2"/>
	<path id="XMLID_32_" class="st1" d="M19.9,36.3c-0.1-0.1-0.3-0.2-0.4-0.1c-0.2,0.1-0.5,0.2-0.7,0.3c0.3-0.4,0.5-0.8,0.7-1.3
		c0-0.1,0-0.3-0.1-0.4c-0.1-0.1-0.3-0.1-0.4,0c-0.7,0.4-1.4,0.7-2.1,0.8c-0.8-0.7-1.8-1.2-2.9-1.2c-2.3,0-4.1,1.9-4.1,4.1
		c0,0.2,0,0.3,0,0.5c-0.6-0.1-1.1-0.2-1.7-0.3c-1-0.3-2.4-0.9-3.2-1.5c0,0,0,0-0.1,0c-0.8-0.5-1.5-1.2-2.1-1.9
		c-0.1-0.1-0.2-0.1-0.3-0.1c-0.1,0-0.2,0.1-0.3,0.2c-0.4,0.6-0.6,1.3-0.6,2.1c0,0.9,0.3,1.8,0.8,2.5c-0.1,0-0.2-0.1-0.3-0.1
		c-0.1-0.1-0.3-0.1-0.4,0c-0.1,0.1-0.2,0.2-0.2,0.3v0c0,1.4,0.7,2.6,1.8,3.4c0,0,0,0,0,0c-0.1,0-0.3,0-0.3,0.1
		C3,43.7,2.9,43.8,3,43.9c0.4,1.4,1.5,2.4,2.9,2.7c-1.1,0.7-2.4,1-3.7,1c-0.3,0-0.6,0-0.9,0c-0.2,0-0.3,0.1-0.4,0.2
		c-0.1,0.2,0,0.3,0.1,0.4c1.8,1.1,3.9,1.8,6,1.8c1.7,0,3.3-0.3,4.8-1c1.3-0.6,2.5-1.5,3.5-2.6c1.8-2.1,2.9-4.8,2.9-7.5v0l0-0.3
		c0.7-0.5,1.3-1.2,1.8-1.9C20.1,36.6,20.1,36.4,19.9,36.3z M17.6,38.2c-0.1,0.1-0.2,0.2-0.2,0.3l0,0.5c0,5.1-3.9,10.3-10.3,10.3
		c-1.5,0-2.9-0.3-4.3-0.9c1.6-0.1,3-0.7,4.3-1.7c0.1-0.1,0.2-0.3,0.1-0.4c0-0.1-0.2-0.3-0.3-0.3c-1.3,0-2.4-0.7-2.9-1.8
		c0,0,0.1,0,0.1,0c0.4,0,0.7,0,1.1-0.1c0.2,0,0.3-0.2,0.3-0.4c0-0.2-0.1-0.3-0.3-0.4c-1.4-0.3-2.4-1.4-2.7-2.8
		c0.4,0.2,0.8,0.2,1.3,0.2c0.2,0,0.3-0.1,0.4-0.3c0-0.2,0-0.3-0.1-0.4c-0.9-0.6-1.5-1.7-1.5-2.8c0-0.4,0.1-0.8,0.2-1.2
		c0.6,0.7,1.3,1.3,2,1.8c0,0,0,0,0,0c0.9,0.6,2.2,1.2,3.2,1.5c0,0,0,0,0,0c0,0,0,0,0.1,0c0,0,0,0,0,0c0,0,0.1,0,0.1,0
		c0.7,0.2,1.4,0.3,2.2,0.3c0.1,0,0.2,0,0.3-0.1c0.1-0.1,0.1-0.2,0.1-0.3c-0.1-0.3-0.1-0.5-0.1-0.8c0-1.9,1.5-3.4,3.4-3.4
		c0.9,0,1.8,0.4,2.5,1.1c0.1,0.1,0.2,0.1,0.3,0.1c0.5-0.1,1-0.2,1.5-0.4c-0.3,0.4-0.6,0.7-1,0.9c-0.2,0.1-0.2,0.3-0.2,0.4
		c0.1,0.2,0.2,0.3,0.4,0.3c0.3,0,0.7-0.1,1-0.2C18.3,37.6,17.9,37.9,17.6,38.2z"/>
	<path id="XMLID_31_" class="st0" d="M14,74.1L8.6,71C8.5,71,8.3,71,8.2,71C8,71.1,8,71.2,8,71.4v6.2C8,77.8,8,77.9,8.2,78
		c0.1,0,0.1,0.1,0.2,0.1c0.1,0,0.1,0,0.2-0.1l5.4-3.1c0.1-0.1,0.2-0.2,0.2-0.4C14.2,74.4,14.1,74.2,14,74.1"/>
	<path id="XMLID_30_" class="st1" d="M14,74.1L8.6,71C8.5,71,8.3,71,8.2,71C8,71.1,8,71.2,8,71.4v6.2C8,77.8,8,77.9,8.2,78
		c0.1,0,0.1,0.1,0.2,0.1c0.1,0,0.1,0,0.2-0.1l5.4-3.1c0.1-0.1,0.2-0.2,0.2-0.4C14.2,74.4,14.1,74.2,14,74.1z"/>
	<path id="XMLID_27_" class="st0" d="M21.6,74.5c0-0.1,0-3.6-0.5-5.3c-0.3-1.1-1.1-1.9-2.2-2.2c-1.1-0.3-15.7-0.3-16.9,0
		c-1.1,0.3-1.9,1.1-2.2,2.2c-0.5,1.7-0.5,5.2-0.5,5.3c0,0,0,0,0,0c0,0,0,0,0,0c0,0.1,0,3.6,0.5,5.3C0.1,80.9,1,81.7,2,82
		c1.1,0.3,15.7,0.3,16.9,0c1.1-0.3,1.9-1.1,2.2-2.2C21.5,78.1,21.6,74.6,21.6,74.5C21.6,74.5,21.6,74.5,21.6,74.5
		C21.6,74.5,21.6,74.5,21.6,74.5 M2.3,81.2c-0.8-0.2-1.4-0.8-1.6-1.6c-0.4-1.6-0.4-4.9-0.4-5.1c0-0.2,0-3.5,0.4-5.1
		c0.2-0.8,0.8-1.4,1.6-1.6c1.6-0.4,14.8-0.4,16.4,0c0.8,0.2,1.4,0.8,1.6,1.6c0.4,1.6,0.4,4.9,0.4,5.1c0,0.2,0,3.5-0.4,5.1
		c-0.2,0.8-0.8,1.4-1.6,1.6C17.1,81.6,3.9,81.6,2.3,81.2"/>
	<path id="XMLID_24_" class="st1" d="M21.6,74.5c0-0.1,0-3.6-0.5-5.3c-0.3-1.1-1.1-1.9-2.2-2.2c-1.1-0.3-15.7-0.3-16.9,0
		c-1.1,0.3-1.9,1.1-2.2,2.2c-0.5,1.7-0.5,5.2-0.5,5.3c0,0,0,0,0,0c0,0,0,0,0,0c0,0.1,0,3.6,0.5,5.3C0.1,80.9,1,81.7,2,82
		c1.1,0.3,15.7,0.3,16.9,0c1.1-0.3,1.9-1.1,2.2-2.2C21.5,78.1,21.6,74.6,21.6,74.5C21.6,74.5,21.6,74.5,21.6,74.5
		C21.6,74.5,21.6,74.5,21.6,74.5z M2.3,81.2c-0.8-0.2-1.4-0.8-1.6-1.6c-0.4-1.6-0.4-4.9-0.4-5.1c0-0.2,0-3.5,0.4-5.1
		c0.2-0.8,0.8-1.4,1.6-1.6c1.6-0.4,14.8-0.4,16.4,0c0.8,0.2,1.4,0.8,1.6,1.6c0.4,1.6,0.4,4.9,0.4,5.1c0,0.2,0,3.5-0.4,5.1
		c-0.2,0.8-0.8,1.4-1.6,1.6C17.1,81.6,3.9,81.6,2.3,81.2z"/>
	<path id="XMLID_21_" class="st0" d="M16.2-31.5H4.8c-1.9,0-3.5,1.6-3.5,3.5v11.4c0,1.9,1.6,3.5,3.5,3.5h5.7c0.2,0,0.4-0.2,0.4-0.4
		V-15v-1.2v-4.3c0-0.2-0.2-0.4-0.4-0.4H8.7v-1.8h1.8c0.2,0,0.4-0.2,0.4-0.4v-1.9c0-0.8,0.3-2.7,2.7-2.7h2.3v1.8h-1.7
		c-0.5,0-1,0.3-1,1.1v1.7c0,0.2,0.2,0.4,0.4,0.4h2.3l-0.2,1.9h-2.1c-0.2,0-0.4,0.2-0.4,0.4v7.1c0,0.2,0.2,0.4,0.4,0.4h2.7
		c1.9,0,3.5-1.6,3.5-3.5V-28C19.7-29.9,18.1-31.5,16.2-31.5 M19-16.6c0,1.5-1.3,2.8-2.8,2.8h-2.3v-6.4h2.1c0.2,0,0.3-0.1,0.4-0.3
		l0.3-2.6c0-0.1,0-0.2-0.1-0.3c-0.1-0.1-0.2-0.1-0.3-0.1h-2.3v-1.4c0-0.2,0.1-0.3,0.3-0.3h2c0.2,0,0.4-0.2,0.4-0.4V-28
		c0-0.2-0.2-0.4-0.4-0.4h-2.7c-1.5,0-2.3,0.7-2.7,1.2c-0.6,0.8-0.7,1.7-0.7,2.2v1.5H8.3c-0.2,0-0.4,0.2-0.4,0.4v2.6
		c0,0.2,0.2,0.4,0.4,0.4h1.8v3.9v1.2v1.2H4.8C3.2-13.8,2-15,2-16.6V-28c0-1.5,1.3-2.8,2.8-2.8h11.4c1.5,0,2.8,1.3,2.8,2.8V-16.6z"/>
	<path id="XMLID_18_" class="st1" d="M16.2-31.5H4.8c-1.9,0-3.5,1.6-3.5,3.5v11.4c0,1.9,1.6,3.5,3.5,3.5h5.7c0.2,0,0.4-0.2,0.4-0.4
		V-15v-1.2v-4.3c0-0.2-0.2-0.4-0.4-0.4H8.7v-1.8h1.8c0.2,0,0.4-0.2,0.4-0.4v-1.9c0-0.8,0.3-2.7,2.7-2.7h2.3v1.8h-1.7
		c-0.5,0-1,0.3-1,1.1v1.7c0,0.2,0.2,0.4,0.4,0.4h2.3l-0.2,1.9h-2.1c-0.2,0-0.4,0.2-0.4,0.4v7.1c0,0.2,0.2,0.4,0.4,0.4h2.7
		c1.9,0,3.5-1.6,3.5-3.5V-28C19.7-29.9,18.1-31.5,16.2-31.5z M19-16.6c0,1.5-1.3,2.8-2.8,2.8h-2.3v-6.4h2.1c0.2,0,0.3-0.1,0.4-0.3
		l0.3-2.6c0-0.1,0-0.2-0.1-0.3c-0.1-0.1-0.2-0.1-0.3-0.1h-2.3v-1.4c0-0.2,0.1-0.3,0.3-0.3h2c0.2,0,0.4-0.2,0.4-0.4V-28
		c0-0.2-0.2-0.4-0.4-0.4h-2.7c-1.5,0-2.3,0.7-2.7,1.2c-0.6,0.8-0.7,1.7-0.7,2.2v1.5H8.3c-0.2,0-0.4,0.2-0.4,0.4v2.6
		c0,0.2,0.2,0.4,0.4,0.4h1.8v3.9v1.2v1.2H4.8C3.2-13.8,2-15,2-16.6V-28c0-1.5,1.3-2.8,2.8-2.8h11.4c1.5,0,2.8,1.3,2.8,2.8V-16.6z"/>
	<path id="XMLID_15_" class="st0" d="M10.5,98.9c2.6,0,2.9,0,3.9,0.1c0.9,0,1.4,0.2,1.8,0.3c0.4,0.2,0.8,0.4,1.1,0.7
		c0.3,0.3,0.5,0.7,0.7,1.1c0.1,0.3,0.3,0.8,0.3,1.8c0,1,0.1,1.3,0.1,3.9c0,2.6,0,2.9-0.1,3.9c0,0.9-0.2,1.4-0.3,1.8
		c-0.2,0.4-0.4,0.8-0.7,1.1c-0.3,0.3-0.7,0.5-1.1,0.7c-0.3,0.1-0.8,0.3-1.8,0.3c-1,0-1.3,0.1-3.9,0.1s-2.9,0-3.9-0.1
		c-0.9,0-1.4-0.2-1.8-0.3c-0.4-0.2-0.8-0.4-1.1-0.7c-0.3-0.3-0.5-0.7-0.7-1.1c-0.1-0.3-0.3-0.8-0.3-1.8c0-1-0.1-1.3-0.1-3.9
		c0-2.6,0-2.9,0.1-3.9c0-0.9,0.2-1.4,0.3-1.8c0.2-0.4,0.4-0.8,0.7-1.1c0.3-0.3,0.7-0.5,1.1-0.7c0.3-0.1,0.8-0.3,1.8-0.3
		C7.6,98.9,7.9,98.9,10.5,98.9 M10.5,97.1c-2.6,0-2.9,0-3.9,0.1c-1,0-1.7,0.2-2.3,0.4c-0.6,0.2-1.2,0.6-1.7,1.1
		c-0.5,0.5-0.9,1.1-1.1,1.7c-0.2,0.6-0.4,1.3-0.4,2.3c0,1-0.1,1.3-0.1,3.9c0,2.6,0,2.9,0.1,3.9c0,1,0.2,1.7,0.4,2.3
		c0.2,0.6,0.6,1.2,1.1,1.7c0.5,0.5,1.1,0.9,1.7,1.1c0.6,0.2,1.3,0.4,2.3,0.4c1,0,1.3,0.1,3.9,0.1s2.9,0,3.9-0.1c1,0,1.7-0.2,2.3-0.4
		c0.6-0.2,1.2-0.6,1.7-1.1c0.5-0.5,0.9-1.1,1.1-1.7c0.2-0.6,0.4-1.3,0.4-2.3c0-1,0.1-1.3,0.1-3.9c0-2.6,0-2.9-0.1-3.9
		c0-1-0.2-1.7-0.4-2.3c-0.2-0.6-0.6-1.2-1.1-1.7c-0.5-0.5-1.1-0.9-1.7-1.1c-0.6-0.2-1.3-0.4-2.3-0.4C13.4,97.2,13.1,97.1,10.5,97.1"
		/>
	<path id="XMLID_12_" class="st3" d="M10.5,98.9c2.6,0,2.9,0,3.9,0.1c0.9,0,1.4,0.2,1.8,0.3c0.4,0.2,0.8,0.4,1.1,0.7
		c0.3,0.3,0.5,0.7,0.7,1.1c0.1,0.3,0.3,0.8,0.3,1.8c0,1,0.1,1.3,0.1,3.9c0,2.6,0,2.9-0.1,3.9c0,0.9-0.2,1.4-0.3,1.8
		c-0.2,0.4-0.4,0.8-0.7,1.1c-0.3,0.3-0.7,0.5-1.1,0.7c-0.3,0.1-0.8,0.3-1.8,0.3c-1,0-1.3,0.1-3.9,0.1s-2.9,0-3.9-0.1
		c-0.9,0-1.4-0.2-1.8-0.3c-0.4-0.2-0.8-0.4-1.1-0.7c-0.3-0.3-0.5-0.7-0.7-1.1c-0.1-0.3-0.3-0.8-0.3-1.8c0-1-0.1-1.3-0.1-3.9
		c0-2.6,0-2.9,0.1-3.9c0-0.9,0.2-1.4,0.3-1.8c0.2-0.4,0.4-0.8,0.7-1.1c0.3-0.3,0.7-0.5,1.1-0.7c0.3-0.1,0.8-0.3,1.8-0.3
		C7.6,98.9,7.9,98.9,10.5,98.9 M10.5,97.1c-2.6,0-2.9,0-3.9,0.1c-1,0-1.7,0.2-2.3,0.4c-0.6,0.2-1.2,0.6-1.7,1.1
		c-0.5,0.5-0.9,1.1-1.1,1.7c-0.2,0.6-0.4,1.3-0.4,2.3c0,1-0.1,1.3-0.1,3.9c0,2.6,0,2.9,0.1,3.9c0,1,0.2,1.7,0.4,2.3
		c0.2,0.6,0.6,1.2,1.1,1.7c0.5,0.5,1.1,0.9,1.7,1.1c0.6,0.2,1.3,0.4,2.3,0.4c1,0,1.3,0.1,3.9,0.1s2.9,0,3.9-0.1c1,0,1.7-0.2,2.3-0.4
		c0.6-0.2,1.2-0.6,1.7-1.1c0.5-0.5,0.9-1.1,1.1-1.7c0.2-0.6,0.4-1.3,0.4-2.3c0-1,0.1-1.3,0.1-3.9c0-2.6,0-2.9-0.1-3.9
		c0-1-0.2-1.7-0.4-2.3c-0.2-0.6-0.6-1.2-1.1-1.7c-0.5-0.5-1.1-0.9-1.7-1.1c-0.6-0.2-1.3-0.4-2.3-0.4C13.4,97.2,13.1,97.1,10.5,97.1z
		"/>
	<path id="XMLID_9_" class="st0" d="M10.5,101.8c-2.7,0-4.9,2.2-4.9,4.9c0,2.7,2.2,4.9,4.9,4.9s4.9-2.2,4.9-4.9
		C15.4,104,13.2,101.8,10.5,101.8 M10.5,109.9c-1.8,0-3.2-1.4-3.2-3.2s1.4-3.2,3.2-3.2c1.8,0,3.2,1.4,3.2,3.2S12.2,109.9,10.5,109.9
		"/>
	<path id="XMLID_6_" class="st3" d="M10.5,101.8c-2.7,0-4.9,2.2-4.9,4.9c0,2.7,2.2,4.9,4.9,4.9s4.9-2.2,4.9-4.9
		C15.4,104,13.2,101.8,10.5,101.8z M10.5,109.9c-1.8,0-3.2-1.4-3.2-3.2s1.4-3.2,3.2-3.2c1.8,0,3.2,1.4,3.2,3.2
		S12.2,109.9,10.5,109.9z"/>
	<path id="XMLID_5_" class="st0" d="M16.7,101.6c0,0.6-0.5,1.1-1.1,1.1c-0.6,0-1.1-0.5-1.1-1.1c0-0.6,0.5-1.1,1.1-1.1
		C16.2,100.5,16.7,101,16.7,101.6"/>
	<circle id="XMLID_4_" class="st3" cx="15.6" cy="101.6" r="1.1"/>
</g>
</svg>
