<?xml version="1.0" encoding="utf-8"?>
<!-- Generator: Adobe Illustrator 25.0.1, SVG Export Plug-In . SVG Version: 6.00 Build 0)  -->
<svg version="1.1" id="Layer_1" xmlns="http://www.w3.org/2000/svg" xmlns:xlink="http://www.w3.org/1999/xlink" x="0px" y="0px"
	 viewBox="0 0 808 61.3" style="enable-background:new 0 0 808 61.3;" xml:space="preserve">
<style type="text/css">
	.st0{fill:#F9F9F9;}
	.st1{fill:#E5E5E5;}
	.st2{fill:#B68A35;}
	.st3{fill:#2D2A26;}
	.st4{fill:url(#SVGID_1_);}
	.st5{fill:#FFFFFF;}
	.st6{fill:url(#SVGID_2_);}
	.st7{fill:url(#SVGID_3_);}
	.st8{fill:url(#SVGID_4_);}
	.st9{fill:url(#SVGID_5_);}
	.st10{fill:url(#SVGID_6_);}
	.st11{fill:url(#SVGID_7_);}
	.st12{fill:url(#SVGID_8_);}
	.st13{fill:url(#SVGID_9_);}
	.st14{fill:url(#SVGID_10_);}
	.st15{fill:url(#SVGID_11_);}
	.st16{fill:url(#SVGID_12_);}
	.st17{fill:url(#SVGID_13_);}
	.st18{fill-rule:evenodd;clip-rule:evenodd;fill:#2D2A26;}
	.st19{fill-rule:evenodd;clip-rule:evenodd;fill:#FFFFFF;}
	.st20{fill:none;}
	.st21{fill:#DBDBDA;}
	.st22{fill:url(#SVGID_14_);}
	.st23{fill:#00843D;}
	.st24{fill:url(#SVGID_15_);}
	.st25{fill:#C8102E;}
	.st26{fill:none;stroke:#DBDBDB;stroke-width:2;stroke-miterlimit:10;}
	.st27{fill:#B08B44;}
	.st28{fill:none;stroke:#B08B44;stroke-width:1.5;stroke-miterlimit:10;}
	.st29{fill:none;stroke:#FFFFFF;stroke-miterlimit:10;}
	.st30{fill:#404040;}
	.st31{fill:#404040;stroke:#404040;stroke-width:0.5;stroke-miterlimit:10;}
	.st32{fill:#404040;stroke:#DBDBDB;stroke-width:0.5;stroke-miterlimit:10;}
	.st33{fill:#404040;stroke:#DBDBDB;stroke-width:0.25;stroke-miterlimit:10;}
	.st34{fill:none;stroke:#DBDBDB;stroke-width:3;stroke-miterlimit:10;}
	.st35{clip-path:url(#SVGID_17_);}
	.st36{fill:none;stroke:#404040;stroke-linecap:square;stroke-miterlimit:10;}
	.st37{fill:none;stroke:#FFFFFF;stroke-linecap:square;stroke-miterlimit:10;}
	.st38{fill:#FFFFFF;fill-opacity:0;}
	.st39{fill:#A6A6A6;}
	.st40{fill:url(#SVGID_18_);}
	.st41{fill:url(#SVGID_19_);}
	.st42{fill:url(#SVGID_20_);}
	.st43{fill:url(#SVGID_21_);}
	.st44{opacity:0.2;enable-background:new    ;}
	.st45{opacity:0.12;enable-background:new    ;}
	.st46{opacity:0.25;fill:#FFFFFF;enable-background:new    ;}
	.st47{fill:#FFFFFF;stroke:#FFFFFF;stroke-width:0.2;stroke-miterlimit:10;}
	.st48{fill:none;stroke:#B08B44;stroke-width:2;stroke-miterlimit:10;}
	.st49{fill:#A5721F;}
	.st50{clip-path:url(#SVGID_23_);}
	.st51{opacity:0.27;}
	.st52{opacity:0.5;}
	.st53{clip-path:url(#SVGID_27_);}
	.st54{clip-path:url(#SVGID_31_);}
</style>
<g>
	<g>
		<path class="st49" d="M-0.2,41.2V41c0.6-0.1,3.1-0.2,3.7-0.2c0.3,0,0.5,0.2,0.8,0.5c1,1.4,3.4,5.1,5.5,8.4
			c1.3,2.1,2.4,3.8,3.1,5.3c-0.2-2.3-0.1-3.4-0.1-4.9v-8.3c0-0.7,0.2-0.8,0.6-0.9c0.9-0.1,1.7-0.1,2.4-0.1c-0.1,1.3-0.1,3-0.1,5.5
			v13.1c-0.3,0.1-2,0.5-2.8,0.5c-0.4,0-0.5-0.1-0.7-0.4c-1.5-2.1-3.1-4.5-5.4-8.1c-1.6-2.5-2.4-4.2-3.7-6.4c0.2,3,0.1,4.5,0.1,6.1
			v7.8c0,0.6-0.2,0.7-0.7,0.8c-0.5,0.1-1.5,0.1-2.4,0.1c0.1-1.2,0.1-2.9,0.1-5.4V41.9L-0.2,41.2z"/>
		<path class="st49" d="M24.4,54.3c-0.7,1.7-1.5,3.9-1.9,4.9c-0.1,0.3-0.4,0.4-0.8,0.4c-0.7,0-2-0.2-2.6-0.4v-0.1
			c1.5-3.6,6.2-14.7,7.3-17.4l-0.2-0.6c1.1-0.2,2.8-0.4,3.1-0.4c0.3,0,0.5,0.2,0.7,0.5c1.4,3.3,3.6,9.1,4.7,11.7
			c1.2,3,1.9,4.9,2.5,6.1v0.1c-0.7,0.2-2.7,0.4-3.3,0.4c-0.5,0-0.7-0.1-1-0.9c-0.5-1.5-0.9-2.6-1.6-4.3H24.4z M30.4,51.9
			c-1.4-3.7-2.3-5.9-2.6-6.9c-0.7,2-1.6,4.3-2.6,6.9H30.4z"/>
		<path class="st49" d="M42.5,43.4h-5.3c-0.5,0-0.7-0.2-0.5-0.9c0.3-0.9,0.7-1.4,1-1.7c0.5,0.1,1.3,0.1,4.3,0.1h10.6
			c-0.1,1.6-0.9,2.3-1.5,2.5h-4.7v12.4c0,2,0.1,3,0.1,3.6c-0.8,0.1-2,0.2-3.2,0.2c-0.4,0-0.6-0.1-0.6-0.5V43.4z"/>
		<path class="st49" d="M55.4,44.8c0-2,0-3.2-0.1-3.8c0.5-0.1,2.6-0.2,3.2-0.2c0.5,0,0.6,0.3,0.6,1.6v13.4c0,2.1,0.1,3.1,0.1,3.7
			c-0.5,0.1-2.5,0.2-3.2,0.2c-0.4,0-0.6-0.1-0.6-0.6V44.8z"/>
		<path class="st49" d="M72.9,40.5c6,0,9.5,4.3,9.5,9.6c0,5.3-3.3,9.9-9.6,9.9c-6.9,0-9.6-5.1-9.6-9.6
			C63.2,44.7,66.8,40.5,72.9,40.5L72.9,40.5z M72.5,42.8c-2.9,0-5.3,2.3-5.3,7.2c0,5,2.7,7.6,5.8,7.6c3.3,0,5.4-2.7,5.4-7.3
			C78.4,46.1,76.2,42.8,72.5,42.8L72.5,42.8z"/>
		<path class="st49" d="M85.9,41.2V41c0.6-0.1,3.1-0.2,3.7-0.2c0.3,0,0.5,0.2,0.8,0.5c1,1.4,3.4,5.1,5.5,8.4
			c1.3,2.1,2.4,3.8,3.1,5.3c-0.2-2.3-0.1-3.4-0.1-4.9v-8.3c0-0.7,0.2-0.8,0.6-0.9c0.9-0.1,1.7-0.1,2.4-0.1c-0.1,1.3-0.1,3-0.1,5.5
			v13.1c-0.3,0.1-2,0.5-2.8,0.5c-0.4,0-0.5-0.1-0.7-0.4c-1.5-2.1-3.1-4.5-5.4-8.1c-1.6-2.5-2.4-4.2-3.7-6.4c0.2,3,0.1,4.5,0.1,6.1
			v7.8c0,0.6-0.2,0.7-0.7,0.8c-0.5,0.1-1.5,0.1-2.4,0.1c0.1-1.2,0.1-2.9,0.1-5.4V41.9L85.9,41.2z"/>
		<path class="st49" d="M110.5,54.3c-0.7,1.7-1.5,3.9-1.9,4.9c-0.1,0.3-0.4,0.4-0.8,0.4c-0.7,0-2-0.2-2.6-0.4v-0.1
			c1.5-3.6,6.2-14.7,7.3-17.4l-0.2-0.6c1.1-0.2,2.8-0.4,3.1-0.4c0.3,0,0.5,0.2,0.7,0.5c1.4,3.3,3.6,9.1,4.7,11.7
			c1.2,3,1.9,4.9,2.5,6.1v0.1c-0.7,0.2-2.7,0.4-3.3,0.4c-0.5,0-0.7-0.1-1-0.9c-0.5-1.5-1-2.6-1.6-4.3H110.5z M116.4,51.9
			c-1.4-3.7-2.3-5.9-2.6-6.9c-0.7,2-1.6,4.3-2.6,6.9H116.4z"/>
		<path class="st49" d="M126.3,44.8c0-2,0-3.2-0.1-3.8c0.7-0.1,2.1-0.2,3.2-0.2c0.5,0,0.6,0.3,0.6,1.8V57c0.6,0.1,1.6,0.2,2.7,0.2
			c1.2,0,3,0,4.5-0.2l0,0.1c-0.2,1.2-0.8,2-1.5,2.4c-0.4,0.1-1.5,0.1-3.7,0.1c-2.5,0-4.5-0.1-5.2-0.3l-0.4-0.6V44.8z"/>
		<path class="st49" d="M161.9,56.5c-0.1,1-0.5,1.9-1,2.3c-0.7,0.5-2.3,1-4.3,1c-6.8,0-10.4-3.9-10.4-9.5c0-6.1,4.7-9.9,10.5-9.9
			c2.8,0,5,0.9,5.5,1.5c0.1,1-0.6,2-1.6,1.9c-0.9-0.4-2.3-0.8-3.9-0.8c-3.6,0-6.5,2.3-6.5,7.1c0,4,2.6,7.1,7.3,7.1
			C159.4,57.2,161,56.7,161.9,56.5L161.9,56.5z"/>
		<path class="st49" d="M173.7,40.5c6,0,9.5,4.3,9.5,9.6c0,5.3-3.3,9.9-9.6,9.9c-6.9,0-9.6-5.1-9.6-9.6
			C164,44.7,167.6,40.5,173.7,40.5L173.7,40.5z M173.3,42.8c-2.9,0-5.3,2.3-5.3,7.2c0,5,2.7,7.6,5.8,7.6c3.3,0,5.4-2.7,5.4-7.3
			C179.2,46.1,177,42.8,173.3,42.8L173.3,42.8z"/>
		<path class="st49" d="M201.8,41.2c0.4-0.2,2.4-0.4,3.1-0.4c0.3,0,0.5,0.2,0.6,0.9l1.6,10.9c0.5,3.1,0.8,5.3,1.1,6.7
			c-0.5,0.1-2.4,0.3-3,0.3c-0.4,0-0.8-0.1-0.8-0.7c-0.2-1.5-0.4-3.1-0.7-6.3l-0.9-7.4c-0.8,2.6-2.6,7.5-4.5,13.1
			c-0.2,0.6-0.4,0.8-1.1,1c-0.5,0.1-1.2,0.2-1.8,0.2c-0.7-2.3-3.3-10.2-4.7-14.2c-0.4,3.7-1.3,10.4-1.8,13.9
			c-0.1,0.3-0.2,0.5-0.5,0.5c-0.8,0-2.2,0-2.6-0.3c0.5-3.1,1.7-10.8,2.9-17.6l-0.1-0.6c0.7-0.1,1.8-0.4,3.2-0.4
			c0.4,0.1,0.7,0.5,1.2,2l4,11.1c1.5-3.9,3.5-9.2,4.7-12.3V41.2z"/>
		<path class="st49" d="M227.2,41.2c0.4-0.2,2.4-0.4,3.1-0.4c0.3,0,0.5,0.2,0.6,0.9l1.6,10.9c0.5,3.1,0.8,5.3,1.1,6.7
			c-0.5,0.1-2.4,0.3-3,0.3c-0.4,0-0.8-0.1-0.8-0.7c-0.2-1.5-0.4-3.1-0.7-6.3l-0.9-7.4c-0.8,2.6-2.6,7.5-4.5,13.1
			c-0.2,0.6-0.4,0.8-1.1,1c-0.5,0.1-1.2,0.2-1.8,0.2c-0.7-2.3-3.3-10.2-4.7-14.2c-0.4,3.7-1.3,10.4-1.7,13.9
			c-0.1,0.3-0.2,0.5-0.5,0.5c-0.8,0-2.2,0-2.6-0.3c0.5-3.1,1.7-10.8,2.9-17.6l-0.1-0.6c0.7-0.1,1.8-0.4,3.2-0.4
			c0.4,0.1,0.7,0.5,1.2,2l4,11.1c1.5-3.9,3.5-9.2,4.7-12.3V41.2z"/>
		<path class="st49" d="M237.5,44.8c0-2,0-3.2-0.1-3.8c0.5-0.1,2.6-0.2,3.2-0.2c0.5,0,0.6,0.3,0.6,1.6v13.4c0,2.1,0.1,3.1,0.1,3.7
			c-0.5,0.1-2.5,0.2-3.2,0.2c-0.4,0-0.6-0.1-0.6-0.6V44.8z"/>
		<path class="st49" d="M251.6,40.5c1.6,0,3.5,0.7,4.3,1.4c0,0.7-0.5,2-1.5,1.9c-0.7-0.4-2-0.7-2.9-0.7c-1.6,0-2.7,0.7-2.7,2
			c0,1.4,1,2.1,3.7,3.7c2.7,1.5,4.2,2.6,4.2,5.5c0,3.7-3.2,5.7-6.7,5.7c-2,0-3.6-0.6-4.3-1.2c-0.5-0.3-0.7-0.6-0.7-1
			c0-0.6,0.4-1.7,0.7-1.9c1.1,0.7,2.9,1.4,4.3,1.4c1.8,0,3-0.8,3-2.3c0-1.3-0.7-2-3.7-3.7c-3.4-1.9-4-3.8-4-5.6
			C245.3,43.7,246.7,40.5,251.6,40.5L251.6,40.5z"/>
		<path class="st49" d="M260.4,44.8c0-2,0-3.2-0.1-3.8c0.5-0.1,2.6-0.2,3.2-0.2c0.5,0,0.6,0.3,0.6,1.6v13.4c0,2.1,0.1,3.1,0.1,3.7
			c-0.5,0.1-2.5,0.2-3.2,0.2c-0.4,0-0.6-0.1-0.6-0.6V44.8z"/>
		<path class="st49" d="M277.9,40.5c6,0,9.5,4.3,9.5,9.6c0,5.3-3.3,9.9-9.6,9.9c-6.9,0-9.6-5.1-9.6-9.6
			C268.2,44.7,271.8,40.5,277.9,40.5L277.9,40.5z M277.5,42.8c-2.9,0-5.3,2.3-5.3,7.2c0,5,2.7,7.6,5.8,7.6c3.3,0,5.4-2.7,5.4-7.3
			C283.4,46.1,281.2,42.8,277.5,42.8L277.5,42.8z"/>
		<path class="st49" d="M290.9,41.2V41c0.6-0.1,3.1-0.2,3.7-0.2c0.3,0,0.5,0.2,0.8,0.5c0.9,1.4,3.4,5.1,5.5,8.4
			c1.3,2.1,2.4,3.8,3.1,5.3c-0.2-2.3-0.1-3.4-0.1-4.9v-8.3c0-0.7,0.2-0.8,0.6-0.9c0.9-0.1,1.7-0.1,2.4-0.1c-0.1,1.3-0.1,3-0.1,5.5
			v13.1c-0.3,0.1-2,0.5-2.8,0.5c-0.4,0-0.5-0.1-0.7-0.4c-1.5-2.1-3.1-4.5-5.4-8.1c-1.6-2.5-2.4-4.2-3.7-6.4c0.2,3,0.1,4.5,0.1,6.1
			v7.8c0,0.6-0.2,0.7-0.7,0.8c-0.5,0.1-1.5,0.1-2.4,0.1c0.1-1.2,0.1-2.9,0.1-5.4V41.9L290.9,41.2z"/>
		<path class="st49" d="M318.9,44.5c0-1.3,0-2.1-0.1-3.1c0.5-0.1,2.3-0.4,3.6-0.4c1.1,0,6.1,0,7.5,0c-0.2,1.3-0.7,1.9-1,2.3
			c-0.4,0.2-1,0.2-2.3,0.2h-4v5.9h6.7c-0.3,2.3-1,2.5-2.2,2.5h-4.5c0,3,0,5.4,0.1,7.7c-0.5,0.1-2,0.2-3.1,0.2
			c-0.4,0-0.7-0.1-0.7-0.6V44.5z"/>
		<path class="st49" d="M341.8,40.5c6,0,9.5,4.3,9.5,9.6c0,5.3-3.3,9.9-9.6,9.9c-6.9,0-9.6-5.1-9.6-9.6
			C332.2,44.7,335.7,40.5,341.8,40.5L341.8,40.5z M341.5,42.8c-2.9,0-5.3,2.3-5.3,7.2c0,5,2.7,7.6,5.8,7.6c3.3,0,5.4-2.7,5.4-7.3
			C347.4,46.1,345.2,42.8,341.5,42.8L341.5,42.8z"/>
		<path class="st49" d="M359,58.7c0,0.6-0.2,0.7-0.7,0.8c-0.8,0.1-2.5,0.1-3.1,0.1c0.1-1.2,0.1-2.9,0.1-5.4v-9.9c0-1.5,0-2.2-0.1-3
			c0.8-0.2,3.7-0.5,5.1-0.5c4.7,0,7.1,1.6,7.1,5.4c0,2.8-2.4,4.2-3.6,4.7c0.7,0.6,1.6,2.1,2.6,3.8c1.4,2.5,2.4,3.8,3.1,4.6v0.1
			c-0.2,0.2-1.3,0.3-2.4,0.3c-1.1,0-1.9-0.3-2.6-1.3c-0.8-1-1.4-2.2-2.6-4.5c-0.9-1.7-1.5-1.9-2.5-1.9c-0.2,0-0.3,0-0.5,0V58.7z
			 M359,49.7c0.8,0.1,2.4,0,2.9-0.2c0.6-0.2,1.8-1.1,1.8-3.1c0-2.5-1.5-3.5-3.4-3.5c-0.4,0-0.9,0-1.3,0.1V49.7z"/>
		<path class="st49" d="M379.4,45.1c0-1.4,0-2.5-0.1-3.7c0.8-0.2,2.1-0.4,3.4-0.4c1.5,0,4.9,0,7.2,0c-0.2,1.3-0.5,1.9-0.9,2.3
			c-0.4,0.2-1.5,0.2-2.8,0.2h-3.1v5.3h6.5c-0.3,2.1-0.9,2.5-2,2.5h-4.5V57c0.7,0.1,1.6,0.2,2.8,0.2c1.2,0,3.4,0,4.8-0.1l0.1,0.1
			c-0.3,1.3-0.8,2-1.6,2.4c-0.4,0.1-1.8,0.1-4,0.1c-2.6,0-4.6-0.1-5.3-0.3l-0.4-0.6V45.1z"/>
		<path class="st49" d="M394,44.7c0-2,0-2.6-0.1-3.4c0.7-0.1,3.7-0.6,6.1-0.6c8.9,0,10.5,5.4,10.5,9.2c0,6.4-4.6,9.9-10.7,9.9
			c-2.2,0-4-0.2-5.9-0.6V44.7z M397.8,57.2c0.7,0.2,1.5,0.2,2.3,0.2c2.7,0,6.6-1.3,6.6-7.5c0-4.5-2.6-6.9-7-6.9
			c-0.9,0-1.5,0.1-1.9,0.1V57.2z"/>
		<path class="st49" d="M418.2,50.8c0,5.5,2.4,6.4,4.4,6.4c2.4,0,4.4-1,4.4-6.7v-8.9c0-0.6,0.2-0.7,0.7-0.7c0.9-0.1,2-0.1,2.6-0.1
			c-0.1,1.2-0.1,2.9-0.1,5.4v4.2c0,8.3-4.4,9.5-8,9.5c-5,0-7.7-2.6-7.7-9v-6.1c0-2,0-3.2-0.1-3.8c0.5-0.1,2.6-0.2,3.2-0.2
			c0.5,0,0.6,0.3,0.6,1.7V50.8z"/>
		<path class="st49" d="M449.7,56.5c-0.1,1-0.5,1.9-1,2.3c-0.7,0.5-2.3,1-4.3,1c-6.8,0-10.4-3.9-10.4-9.5c0-6.1,4.7-9.9,10.5-9.9
			c2.8,0,5,0.9,5.5,1.5c0.1,1-0.6,2-1.6,1.9c-0.9-0.4-2.3-0.8-3.9-0.8c-3.6,0-6.5,2.3-6.5,7.1c0,4,2.6,7.1,7.3,7.1
			C447.2,57.2,448.8,56.7,449.7,56.5L449.7,56.5z"/>
		<path class="st49" d="M457.2,54.3c-0.7,1.7-1.5,3.9-1.9,4.9c-0.1,0.3-0.4,0.4-0.8,0.4c-0.7,0-2-0.2-2.6-0.4v-0.1
			c1.5-3.6,6.2-14.7,7.3-17.4l-0.2-0.6c1.1-0.2,2.8-0.4,3.1-0.4c0.3,0,0.5,0.2,0.7,0.5c1.4,3.3,3.6,9.1,4.7,11.7
			c1.2,3,1.9,4.9,2.5,6.1v0.1c-0.7,0.2-2.7,0.4-3.3,0.4c-0.5,0-0.7-0.1-1-0.9c-0.5-1.5-1-2.6-1.6-4.3H457.2z M463.2,51.9
			c-1.4-3.7-2.3-5.9-2.6-6.9c-0.7,2-1.6,4.3-2.6,6.9H463.2z"/>
		<path class="st49" d="M475.3,43.4h-5.3c-0.5,0-0.7-0.2-0.5-0.9c0.3-0.9,0.7-1.4,1-1.7c0.5,0.1,1.3,0.1,4.3,0.1h10.6
			c-0.1,1.6-0.9,2.3-1.5,2.5H479v12.4c0,2,0.1,3,0.1,3.6c-0.8,0.1-2,0.2-3.2,0.2c-0.4,0-0.6-0.1-0.6-0.5V43.4z"/>
		<path class="st49" d="M488.2,44.8c0-2,0-3.2-0.1-3.8c0.5-0.1,2.6-0.2,3.2-0.2c0.5,0,0.6,0.3,0.6,1.6v13.4c0,2.1,0.1,3.1,0.1,3.7
			c-0.5,0.1-2.5,0.2-3.2,0.2c-0.4,0-0.6-0.1-0.6-0.6V44.8z"/>
		<path class="st49" d="M505.7,40.5c6,0,9.5,4.3,9.5,9.6c0,5.3-3.3,9.9-9.6,9.9c-6.9,0-9.6-5.1-9.6-9.6
			C496,44.7,499.6,40.5,505.7,40.5L505.7,40.5z M505.3,42.8c-2.9,0-5.3,2.3-5.3,7.2c0,5,2.7,7.6,5.8,7.6c3.3,0,5.4-2.7,5.4-7.3
			C511.2,46.1,509,42.8,505.3,42.8L505.3,42.8z"/>
		<path class="st49" d="M518.7,41.2V41c0.6-0.1,3.1-0.2,3.7-0.2c0.3,0,0.5,0.2,0.8,0.5c0.9,1.4,3.4,5.1,5.5,8.4
			c1.3,2.1,2.4,3.8,3.1,5.3c-0.2-2.3-0.1-3.4-0.1-4.9v-8.3c0-0.7,0.2-0.8,0.6-0.9c0.9-0.1,1.7-0.1,2.4-0.1c-0.1,1.3-0.1,3-0.1,5.5
			v13.1c-0.3,0.1-2,0.5-2.8,0.5c-0.4,0-0.5-0.1-0.7-0.4c-1.5-2.1-3.1-4.5-5.4-8.1c-1.6-2.5-2.4-4.2-3.7-6.4c0.2,3,0.2,4.5,0.2,6.1
			v7.8c0,0.6-0.2,0.7-0.7,0.8c-0.5,0.1-1.5,0.1-2.4,0.1c0.1-1.2,0.1-2.9,0.1-5.4V41.9L518.7,41.2z"/>
		<path class="st49" d="M561.3,56.5c-0.1,1-0.5,1.9-1,2.3c-0.7,0.5-2.3,1-4.3,1c-6.8,0-10.4-3.9-10.4-9.5c0-6.1,4.7-9.9,10.5-9.9
			c2.8,0,5,0.9,5.5,1.5c0.1,1-0.6,2-1.6,1.9c-0.9-0.4-2.3-0.8-3.9-0.8c-3.6,0-6.5,2.3-6.5,7.1c0,4,2.6,7.1,7.3,7.1
			C558.8,57.2,560.4,56.7,561.3,56.5L561.3,56.5z"/>
		<path class="st49" d="M568.6,50.8c0,5.5,2.4,6.4,4.4,6.4c2.4,0,4.4-1,4.4-6.7v-8.9c0-0.6,0.2-0.7,0.7-0.7c0.9-0.1,2-0.1,2.6-0.1
			c-0.1,1.2-0.1,2.9-0.1,5.4v4.2c0,8.3-4.4,9.5-8,9.5c-5,0-7.7-2.6-7.7-9v-6.1c0-2,0-3.2-0.1-3.8c0.5-0.1,2.6-0.2,3.2-0.2
			c0.5,0,0.6,0.3,0.6,1.7V50.8z"/>
		<path class="st49" d="M585.5,44.8c0-2,0-3.2-0.1-3.8c0.7-0.1,2.1-0.2,3.2-0.2c0.5,0,0.6,0.3,0.6,1.8V57c0.6,0.1,1.6,0.2,2.7,0.2
			c1.2,0,3,0,4.5-0.2l0,0.1c-0.2,1.2-0.8,2-1.5,2.4c-0.4,0.1-1.5,0.1-3.7,0.1c-2.5,0-4.5-0.1-5.2-0.3l-0.4-0.6V44.8z"/>
		<path class="st49" d="M601.5,43.4h-5.3c-0.5,0-0.7-0.2-0.5-0.9c0.3-0.9,0.7-1.4,1-1.7c0.5,0.1,1.3,0.1,4.3,0.1h10.6
			c-0.1,1.6-0.9,2.3-1.5,2.5h-4.7v12.4c0,2,0.1,3,0.1,3.6c-0.8,0.1-2,0.2-3.2,0.2c-0.4,0-0.6-0.1-0.6-0.5V43.4z"/>
		<path class="st49" d="M618.1,50.8c0,5.5,2.4,6.4,4.4,6.4c2.4,0,4.4-1,4.4-6.7v-8.9c0-0.6,0.2-0.7,0.7-0.7c0.9-0.1,2-0.1,2.6-0.1
			c-0.1,1.2-0.1,2.9-0.1,5.4v4.2c0,8.3-4.4,9.5-8,9.5c-5,0-7.7-2.6-7.7-9v-6.1c0-2,0-3.2-0.1-3.8c0.5-0.1,2.6-0.2,3.2-0.2
			c0.5,0,0.6,0.3,0.6,1.7V50.8z"/>
		<path class="st49" d="M638.6,58.7c0,0.6-0.2,0.7-0.7,0.8c-0.8,0.1-2.5,0.1-3.1,0.1c0.1-1.2,0.1-2.9,0.1-5.4v-9.9
			c0-1.5,0-2.2-0.1-3c0.8-0.2,3.7-0.5,5.1-0.5c4.7,0,7.1,1.6,7.1,5.4c0,2.8-2.4,4.2-3.6,4.7c0.7,0.6,1.6,2.1,2.6,3.8
			c1.4,2.5,2.4,3.8,3.1,4.6v0.1c-0.2,0.2-1.3,0.3-2.4,0.3c-1.1,0-1.9-0.3-2.6-1.3c-0.8-1-1.4-2.2-2.6-4.5c-0.9-1.7-1.5-1.9-2.5-1.9
			c-0.2,0-0.3,0-0.5,0V58.7z M638.6,49.7c0.8,0.1,2.4,0,2.9-0.2c0.6-0.2,1.8-1.1,1.8-3.1c0-2.5-1.5-3.5-3.4-3.5
			c-0.4,0-0.9,0-1.3,0.1V49.7z"/>
		<path class="st49" d="M652.2,45.1c0-1.4,0-2.5-0.1-3.7c0.8-0.2,2.1-0.4,3.4-0.4c1.5,0,4.9,0,7.2,0c-0.2,1.3-0.5,1.9-0.9,2.3
			c-0.4,0.2-1.5,0.2-2.8,0.2h-3.1v5.3h6.5c-0.3,2.1-0.9,2.5-2,2.5h-4.5V57c0.7,0.1,1.6,0.2,2.8,0.2c1.2,0,3.4,0,4.8-0.1l0.1,0.1
			c-0.3,1.3-0.8,2-1.6,2.4c-0.4,0.1-1.8,0.1-4,0.1c-2.6,0-4.6-0.1-5.3-0.3l-0.4-0.6V45.1z"/>
		<path class="st49" d="M690.8,59.3c-0.5,0.2-1.8,0.5-3.3,0.5c-0.5,0-0.9-0.2-1.3-0.5c-0.5-0.5-1.3-1.3-2-1.8
			c-1.7,1.8-3.6,2.4-5.3,2.4c-3.6,0-5.8-2-5.8-5.1c0-2.6,2.2-3.9,3.6-4.8c-1.3-1.3-1.8-2.7-1.8-4.1c0-2.6,2-4.6,5-4.6
			c2.6,0,4.7,1.3,4.7,4.1c0,2.3-2.1,3.5-3.6,4.5c1.3,1.2,3.2,2.9,3.7,3.4c0.7-1.3,1.7-3.5,2.6-5c0.4-0.6,0.8-1,1.3-1
			c1.2,0,1.9,0.4,2.3,0.7v0.1c-0.9,1-2.4,3.3-4.4,6.9c3.1,2.8,4.1,3.8,4.5,4.2L690.8,59.3z M679.9,57.2c1,0,2.1-0.4,2.8-1.3
			c-1.1-1-3.8-3.6-4.7-4.6c-0.7,0.4-1.4,1.4-1.4,2.7C676.5,55.7,677.8,57.2,679.9,57.2L679.9,57.2z M677.9,45.4
			c0,1.1,0.6,2.1,1.7,3.1c1.2-0.9,1.9-1.8,1.9-3.1c0-1.4-0.8-2.2-1.8-2.2C678.7,43.2,677.9,44,677.9,45.4L677.9,45.4z"/>
		<path class="st49" d="M706.9,40.5c1.6,0,3.5,0.7,4.3,1.4c0,0.7-0.5,2-1.5,1.9c-0.7-0.4-2-0.7-2.9-0.7c-1.6,0-2.7,0.7-2.7,2
			c0,1.4,1,2.1,3.7,3.7c2.7,1.5,4.2,2.6,4.2,5.5c0,3.7-3.2,5.7-6.7,5.7c-2,0-3.6-0.6-4.3-1.2c-0.5-0.3-0.7-0.6-0.7-1
			c0-0.6,0.4-1.7,0.7-1.9c1.1,0.7,2.8,1.4,4.3,1.4c1.8,0,3-0.8,3-2.3c0-1.3-0.7-2-3.7-3.7c-3.4-1.9-4-3.8-4-5.6
			C700.6,43.7,702,40.5,706.9,40.5L706.9,40.5z"/>
		<path class="st49" d="M730.6,56.5c-0.1,1-0.5,1.9-1,2.3c-0.7,0.5-2.3,1-4.3,1c-6.8,0-10.4-3.9-10.4-9.5c0-6.1,4.7-9.9,10.5-9.9
			c2.8,0,5,0.9,5.5,1.5c0.1,1-0.6,2-1.6,1.9c-0.9-0.4-2.3-0.8-3.9-0.8c-3.6,0-6.5,2.3-6.5,7.1c0,4,2.6,7.1,7.3,7.1
			C728.2,57.2,729.8,56.7,730.6,56.5L730.6,56.5z"/>
		<path class="st49" d="M734.2,44.8c0-2,0-3.2-0.1-3.8c0.5-0.1,2.6-0.2,3.2-0.2c0.5,0,0.6,0.3,0.6,1.6v13.4c0,2.1,0.1,3.1,0.1,3.7
			c-0.5,0.1-2.5,0.2-3.2,0.2c-0.4,0-0.6-0.1-0.6-0.6V44.8z"/>
		<path class="st49" d="M743.1,45.1c0-1.4,0-2.5-0.1-3.7c0.8-0.2,2.1-0.4,3.4-0.4c1.5,0,4.9,0,7.2,0c-0.2,1.3-0.5,1.9-0.9,2.3
			c-0.4,0.2-1.5,0.2-2.8,0.2h-3.1v5.3h6.5c-0.3,2.1-0.9,2.5-2,2.5h-4.5V57c0.7,0.1,1.6,0.2,2.8,0.2c1.2,0,3.4,0,4.8-0.1l0.1,0.1
			c-0.3,1.3-0.8,2-1.6,2.4c-0.4,0.1-1.7,0.1-4,0.1c-2.6,0-4.6-0.1-5.3-0.3l-0.4-0.6V45.1z"/>
		<path class="st49" d="M757.3,41.2V41c0.6-0.1,3.1-0.2,3.7-0.2c0.3,0,0.5,0.2,0.8,0.5c0.9,1.4,3.4,5.1,5.5,8.4
			c1.3,2.1,2.4,3.8,3.1,5.3c-0.2-2.3-0.2-3.4-0.2-4.9v-8.3c0-0.7,0.2-0.8,0.6-0.9c0.9-0.1,1.7-0.1,2.4-0.1c-0.1,1.3-0.1,3-0.1,5.5
			v13.1c-0.3,0.1-2,0.5-2.8,0.5c-0.4,0-0.5-0.1-0.7-0.4c-1.5-2.1-3.1-4.5-5.4-8.1c-1.6-2.5-2.4-4.2-3.7-6.4c0.2,3,0.1,4.5,0.1,6.1
			v7.8c0,0.6-0.2,0.7-0.7,0.8c-0.5,0.1-1.5,0.1-2.4,0.1c0.1-1.2,0.1-2.9,0.1-5.4V41.9L757.3,41.2z"/>
		<path class="st49" d="M793.1,56.5c-0.1,1-0.5,1.9-1,2.3c-0.7,0.5-2.3,1-4.3,1c-6.8,0-10.4-3.9-10.4-9.5c0-6.1,4.7-9.9,10.5-9.9
			c2.8,0,5,0.9,5.5,1.5c0.1,1-0.6,2-1.6,1.9c-0.9-0.4-2.3-0.8-3.9-0.8c-3.6,0-6.5,2.3-6.5,7.1c0,4,2.6,7.1,7.3,7.1
			C790.6,57.2,792.2,56.7,793.1,56.5L793.1,56.5z"/>
		<path class="st49" d="M796.6,45.1c0-1.4,0-2.5-0.1-3.7c0.8-0.2,2.1-0.4,3.4-0.4c1.5,0,4.9,0,7.2,0c-0.2,1.3-0.5,1.9-0.9,2.3
			c-0.4,0.2-1.5,0.2-2.8,0.2h-3.1v5.3h6.5c-0.3,2.1-0.9,2.5-2,2.5h-4.5V57c0.7,0.1,1.6,0.2,2.8,0.2c1.2,0,3.4,0,4.8-0.1l0.1,0.1
			c-0.3,1.3-0.8,2-1.6,2.4c-0.4,0.1-1.8,0.1-4,0.1c-2.6,0-4.6-0.1-5.3-0.3l-0.4-0.6V45.1z"/>
	</g>
	<g>
		<g>
			<path class="st49" d="M15.7,16.8l-1.4,3.9H14c0,0-0.5-0.1-1.3-0.4c-0.8-0.2-1.4-0.4-1.8-0.4c-0.2,0-0.7-0.1-1.5-0.1
				c-0.9,0-1.9,0.1-2.9,0.3c-0.5,0.1-0.9,0.2-1.2,0.3c-0.5,0.2-0.8,0.4-0.9,0.6l1,7.3C5.2,29.9,5,31,4.9,31.5
				c-0.2,1.2-0.6,2.1-0.9,2.6l-0.3,0.1L2,21.4C2.5,18.8,5.2,17,10,16c-0.1-0.3-0.5-0.6-1.1-0.9c-0.6-0.3-1.1-0.5-1.5-0.6
				c-0.4-0.1-0.7-0.1-0.8-0.1c-0.7,0-1.4,0.4-2.2,1.2c-0.2,0.2-0.6,0.6-1.1,0.9v-0.4c0-0.1,0.2-0.6,0.6-1.4c0.6-1.1,1-2,1.5-2.5
				c0.7-1,1.6-1.6,2.7-2c0.1,0,0.3,0,0.5,0c0.2,0,0.4,0,0.5,0c0.2,0.1,0.6,0.4,1.1,0.8C12.2,12.2,14,14.2,15.7,16.8z"/>
			<path class="st49" d="M33.4,23.1h-1.7c-0.7,1.7-1.2,2.9-1.6,3.6c-0.8,1.4-1.6,2.5-2.6,3.3c-0.6,0.6-1.4,1-2.3,1.5
				c-0.4,0.1-0.9,0.2-1.4,0.2c-0.3,0-0.7,0-1-0.1c-0.9-0.2-2.3-0.7-4.2-1.5c-1.6-0.6-2.8-1.3-3.5-2v-0.4c0.1-0.1,0.3-0.1,0.6-0.1
				c0.1,0,0.7,0.2,2,0.5c1.3,0.3,1.9,0.5,2,0.5c0.5,0,1.1-0.1,1.8-0.3c2.6-0.6,5.1-2.4,7.5-5.2c-1.7-0.1-3.3-0.3-4.5-0.6
				c-0.5-0.1-1-0.3-1.6-0.8c-0.6-0.5-0.9-0.9-1-1.4c0-0.2-0.1-0.4-0.1-0.6c0-0.7,0.3-1.7,0.8-3.1c0.5-1.3,0.9-2.3,1.3-3
				c0.7-1.3,1.5-2.3,2.4-2.9c0.4-0.3,0.9-0.5,1.5-0.5c0.2,0,0.4,0,0.5,0.1c0.8,0.4,1.4,0.9,1.7,1.5c1.2,2.1,1.9,4.5,2.1,7.1h1.2
				V23.1z M28.8,17.8c-0.2-0.7-0.4-1.2-0.6-1.5c-0.3-0.5-0.6-0.9-0.9-1.2c-0.3-0.3-0.7-0.5-1-0.5c-0.4,0-0.8,0.3-1.4,0.8
				c-0.4,0.4-0.6,0.7-0.6,0.9c0,0.2,0.1,0.5,0.4,0.9c0.3,0.5,0.9,0.8,1.8,1c0.1,0,0.3,0.1,0.8,0.1c0.6,0,0.9-0.1,1.1-0.2
				C28.5,18.1,28.6,18,28.8,17.8z"/>
			<path class="st49" d="M93.5,23.1h-3.7c-0.2-0.2-0.4-0.6-0.5-1.1c-0.1-0.6-0.2-1-0.3-1.2c-0.3,0.5-0.9,1.3-1.8,2.4H31.8v-4.1h56.8
				L86.7,6l3.2-4.4c0.1,0.9,0.3,2.1,0.4,3.5c0.3,2.8,0.7,7,1.1,12.6c0,0.8,0.5,1.2,1.4,1.2h0.7V23.1z"/>
			<path class="st49" d="M115.6,23.1h-5l-1.4-2.5c-0.1,0.2-0.6,1-1.4,2.5H91.7v-4.1h16.1c-0.9-1.7-2.1-2.5-3.7-2.5
				c-0.4,0-0.8,0-1.3,0.1l2.1-4.1c0.7-0.2,1.3-0.4,1.9-0.6c0.9-0.3,1.7-0.4,2.3-0.4c1.2,0,2.3,0.4,3.5,1.3c1.1,0.9,1.7,1.8,1.7,2.8
				c0,0.4-0.2,0.9-0.6,1.5c-0.3,0.5-0.6,1-0.9,1.5v0.4h2.7V23.1z"/>
			<path class="st49" d="M126.9,5.9c-0.1,0.4-0.5,0.8-0.9,1.4c-0.1,0.1-0.8,1-2,2.6c-0.1,0.1-0.1,0.3-0.1,0.5l0.9,7.3l-1,5.3
				c-0.1,0-0.2,0-0.3,0.1c-0.2,0.1-0.3,0.1-0.4,0.1H114v-4.1h7.7c0.1-0.5,0.2-0.9,0.2-1.3c0-0.6-0.2-1.8-0.5-3.5
				c-0.2-1.6-0.7-3.9-1.4-7l-1.5-1.2c1-2,2-3.7,2.9-5.1c0,0.7,0.1,1.3,0.4,1.7c0.1,0.2,0.9,0.7,2.2,1.6C125,4.7,125.9,5.3,126.9,5.9
				z"/>
			<path class="st49" d="M136.4,15.3c0,3.1-0.7,5.7-2.1,7.8l-1.9-16.2c0-0.3,0.4-1.1,1.3-2.6c0.8-1.2,1.3-2.1,1.7-2.6L136.4,15.3z"
				/>
			<path class="st49" d="M152.3,18.9c0,2.8-0.7,5.5-2.1,8.4c-1.6,3.3-3.6,4.9-6,4.9c-1.1,0-2.7-0.3-5-0.9c-2.2-0.6-3.6-1.1-4.1-1.5
				c0-0.4,0.2-0.6,0.7-0.6c0.1,0,0.7,0.1,2,0.4c1.3,0.2,1.9,0.4,2,0.4c1.4,0,3.5-1,6.1-3c2.9-2.2,4.4-4.2,4.4-6c0-0.5-0.1-1-0.3-1.4
				h-0.1c-0.5,1.4-1.1,2.4-1.7,2.9c-0.6,0.5-1.5,0.7-2.6,0.7c-1.2,0-2.1-0.4-2.5-1.1c-0.3-0.6-0.5-1.5-0.5-2.7c0-0.7,0-1.1,0-1.3
				c0.1-0.8,0.7-2,1.8-3.7c1.3-2,2.5-3,3.6-3c0.7,0,1.4,0.5,2.2,1.6c0.5,0.8,0.9,1.5,1.1,2.1c0.1,0.3,0.2,0.7,0.4,1.3
				C152.2,17.3,152.3,18.2,152.3,18.9z M148.9,18.2c0-0.7-0.2-1.3-0.7-1.8c-0.4-0.4-0.9-0.5-1.4-0.5c-0.3,0-0.8,0.1-1.4,0.4
				c-0.7,0.4-1,0.8-1,1.3c0,0.4,0.4,0.7,1.2,0.9c0.6,0.2,1,0.3,1.4,0.3C147.5,18.8,148.1,18.6,148.9,18.2z"/>
			<path class="st49" d="M172.2,3.6c-0.1,0.1-0.5,0.6-1.4,1.5c-0.6,0.6-0.9,0.9-1,0.9c-0.3,0-1.3-0.5-3-1.6c-0.9,1-1.5,1.5-1.7,1.5
				c-0.3,0-1.3-0.5-2.9-1.6c0.5-0.5,1.2-1.4,2.1-2.5c1.5,1.1,2.4,1.7,2.7,1.7c-0.1,0,0.6-0.6,1.9-1.7L172.2,3.6z M177.7,23.1h-3
				c-0.2,0-0.4-0.1-0.5-0.3c-0.5-0.4-0.7-0.7-0.8-1.1c-0.1-0.7-0.4-1.8-0.7-3.2c-0.4,0.2-0.9,0.8-1.3,1.8c-0.5,1-1,1.5-1.6,1.6
				l-6.3-1.3V20c0,0.2,0.5-1.3,1.6-4.5c0.2-0.7,1.2-1.6,2.9-2.6c1.2-0.6,2.2-1.3,3.2-2c0-0.1-0.1-0.4-0.2-0.7
				c-0.1-0.3-0.2-0.5-0.2-0.6c0,0.1,0.7-1.1,2.2-3.7c0.4,2.7,1.1,6.8,2.1,12.3c0.1,0.5,0.6,0.7,1.6,0.7h1.1V23.1z M172.5,17.3v-0.8
				c0-0.6-0.2-1.9-0.7-3.9c-0.4,0.1-0.7,0.4-0.8,0.7c-0.3,0.9-0.9,1.6-1.9,2.2c-0.7,0.3-1.4,0.7-2.1,1c1.7,0.5,2.8,0.8,3.2,0.8
				H172.5z"/>
			<path class="st49" d="M238.4,16.9l-1,6.2h-60.9v-4.1h59.3c0.1-0.1,0.1-0.3,0.1-0.5c0-0.7-0.2-1.7-0.6-2.9
				c-0.1-0.4-0.4-0.8-0.7-1.2c-0.2,0.3-0.7,0.8-1.3,1.4c-0.8,0.7-1.9,1-3.3,1c-0.8,0-1.6-0.2-2.6-0.7c-1.2-0.6-1.8-1.4-1.8-2.4
				c0-0.5,0.3-1.3,0.9-2.4c0.8-1.4,1.8-2.6,3.1-3.6c1.3-1,2.4-1.5,3.4-1.5c1.2,0,2.3,1.2,3.4,3.5c0.7,1.4,1.2,2.7,1.4,3.7
				C238.2,14.3,238.3,15.4,238.4,16.9z M231.5,2.6c-1.7,1.7-2.7,2.6-2.9,2.6c-0.1,0-0.5-0.3-1.2-0.9c-1-0.8-1.6-1.3-1.7-1.5
				c1.5-1.9,2.4-2.8,2.8-2.8C228.6,0,229.6,0.9,231.5,2.6z M233.6,12.4c-0.3-0.6-0.7-1.1-1.3-1.7c-0.6-0.6-1.1-0.8-1.5-0.8
				c-0.8,0-1.4,0.5-2,1.5c1.3,0.9,2.3,1.4,2.8,1.4c0.1,0,0.4-0.1,0.9-0.2C233,12.5,233.4,12.4,233.6,12.4z"/>
			<path class="st49" d="M250.3,23.1h-5.9l-1.8-19.4c0-0.1,0.2-0.4,0.6-0.9c0.6-0.8,1.4-1.7,2.4-2.7c0.1,0.8,0.2,2.1,0.4,3.7
				c0.6,6.8,1.1,11.6,1.5,14.2c0,0.2,0.2,0.3,0.5,0.4c0.1,0,0.4,0.1,0.7,0.3c0.3,0.2,0.6,0.2,0.8,0.2h0.9V23.1z"/>
			<path class="st49" d="M290.6,23.1h-42.4v-4.1h29.6c0-0.5,0.1-1.1,0.3-1.9c1-1.3,2.3-2.7,3.9-4c2-1.6,3.6-2.4,4.9-2.4
				c0.8,0,1.5,0.5,1.9,1.6c0.3,0.8,0.5,1.7,0.5,2.7c0,0.7-0.2,1.3-0.5,1.9c-0.8,1.3-1.2,2-1.3,2.2h3.1V23.1z M287.8,5.6
				c-0.6,0.9-1.3,1.7-2.2,2.6L282,6.3l-2,1.8c-0.6-0.3-1.7-0.9-3.2-1.8c1.3-1.6,2.1-2.4,2.4-2.4c0.1,0,0.6,0.3,1.5,0.9
				c1,0.6,1.5,0.9,1.5,0.9c0.2,0,1-0.6,2.2-1.8L287.8,5.6z M286.2,18c0.1-0.7-0.1-1.4-0.6-2.2c-0.5-0.7-1-1.1-1.7-1.1
				c-0.4,0-1,0.2-1.9,0.7c-1.1,0.5-1.6,1-1.6,1.5c0,0.6,0.5,1.1,1.5,1.6c0.8,0.4,1.4,0.5,1.8,0.5C284.6,18.9,285.5,18.6,286.2,18z"
				/>
			<path class="st49" d="M306.9,23.1h-3.2c-0.5,0-0.9-0.2-1.4-0.7c-0.5-0.5-0.8-1.1-0.9-1.7c-0.5,0.6-0.9,1.5-1.4,2.5h-11v-4.1h11.8
				c0.2-0.4,0.3-1,0.2-1.7c0-0.7,0-1.3,0.2-1.7c0.1-0.4,1.1-1.5,2.8-3.4v2.8c0,0.1-0.1,0.5-0.2,1.1c-0.1,0.6-0.2,1-0.2,1.1
				c0,1.2,1.1,1.8,3.2,1.8V23.1z M304.3,7.5c-0.6,0.8-1.2,1.7-1.9,2.5c-0.3-0.1-0.9-0.5-1.9-1.1c-0.8-0.5-1.2-0.7-1.3-0.7
				c-0.2,0-0.7,0.6-1.7,1.7h-0.3l-2.6-1.6c0.7-1,1.4-1.8,1.9-2.4c0.5,0.3,0.9,0.6,1.4,0.9c0.8,0.5,1.3,0.8,1.5,0.8
				c0.3,0,0.7-0.3,1.1-0.9c0.5-0.6,0.8-0.9,0.9-0.9L304.3,7.5z M301.3,4c-0.6,0.7-1.3,1.4-2,2.1l-2.4-1.8c0,0,0.7-0.8,2.1-2.2
				L301.3,4z"/>
			<path class="st49" d="M321.2,5.9c-0.1,0.4-0.5,0.8-0.9,1.4c-0.1,0.1-0.8,1-2,2.6c-0.1,0.1-0.1,0.3-0.1,0.5l0.9,7.3l-1,5.3
				c-0.1,0-0.2,0-0.3,0.1c-0.2,0.1-0.3,0.1-0.4,0.1h-11.4v-4.1H316c0.1-0.5,0.2-0.9,0.2-1.3c0-0.6-0.2-1.8-0.5-3.5
				c-0.2-1.6-0.7-3.9-1.4-7l-1.5-1.2c1-2,2-3.7,2.9-5.1c0,0.7,0.1,1.3,0.4,1.7c0.1,0.2,0.9,0.7,2.2,1.6
				C319.2,4.7,320.2,5.3,321.2,5.9z"/>
			<path class="st49" d="M330.7,15.3c0,3.1-0.7,5.7-2.1,7.8l-1.9-16.2c0-0.3,0.4-1.1,1.3-2.6c0.8-1.2,1.3-2.1,1.7-2.6L330.7,15.3z"
				/>
			<path class="st49" d="M346.6,18.9c0,2.8-0.7,5.5-2.1,8.4c-1.6,3.3-3.6,4.9-6,4.9c-1.1,0-2.7-0.3-5-0.9c-2.2-0.6-3.6-1.1-4.1-1.5
				c0-0.4,0.2-0.6,0.7-0.6c0.1,0,0.7,0.1,2,0.4c1.3,0.2,1.9,0.4,2,0.4c1.4,0,3.5-1,6.1-3c2.9-2.2,4.4-4.2,4.4-6c0-0.5-0.1-1-0.3-1.4
				h-0.1c-0.5,1.4-1.1,2.4-1.7,2.9c-0.6,0.5-1.5,0.7-2.6,0.7c-1.2,0-2.1-0.4-2.5-1.1c-0.3-0.6-0.5-1.5-0.5-2.7c0-0.7,0-1.1,0-1.3
				c0.1-0.8,0.7-2,1.8-3.7c1.3-2,2.5-3,3.6-3c0.7,0,1.4,0.5,2.2,1.6c0.5,0.8,0.9,1.5,1.1,2.1c0.1,0.3,0.2,0.7,0.4,1.3
				C346.5,17.3,346.6,18.2,346.6,18.9z M343.1,18.2c0-0.7-0.2-1.3-0.7-1.8c-0.4-0.4-0.9-0.5-1.4-0.5c-0.3,0-0.8,0.1-1.4,0.4
				c-0.7,0.4-1,0.8-1,1.3c0,0.4,0.4,0.7,1.2,0.9c0.6,0.2,1,0.3,1.4,0.3C341.8,18.8,342.4,18.6,343.1,18.2z"/>
			<path class="st49" d="M366.5,3.6c-0.1,0.1-0.5,0.6-1.4,1.5c-0.6,0.6-0.9,0.9-1,0.9c-0.3,0-1.3-0.5-3-1.6c-0.9,1-1.5,1.5-1.7,1.5
				c-0.3,0-1.3-0.5-2.9-1.6c0.5-0.5,1.2-1.4,2.1-2.5c1.5,1.1,2.4,1.7,2.7,1.7c-0.1,0,0.6-0.6,1.9-1.7L366.5,3.6z M372,23.1h-3
				c-0.2,0-0.3-0.1-0.5-0.3c-0.5-0.4-0.7-0.7-0.8-1.1c-0.1-0.7-0.4-1.8-0.7-3.2c-0.4,0.2-0.9,0.8-1.3,1.8c-0.5,1-1,1.5-1.6,1.6
				l-6.3-1.3V20c0,0.2,0.5-1.3,1.6-4.5c0.2-0.7,1.2-1.6,2.9-2.6c1.2-0.6,2.2-1.3,3.2-2c0-0.1-0.1-0.4-0.2-0.7
				c-0.1-0.3-0.2-0.5-0.2-0.6c0,0.1,0.7-1.1,2.2-3.7c0.4,2.7,1.1,6.8,2.1,12.3c0.1,0.5,0.6,0.7,1.6,0.7h1.1V23.1z M366.8,17.3v-0.8
				c0-0.6-0.2-1.9-0.7-3.9c-0.4,0.1-0.7,0.4-0.8,0.7c-0.3,0.9-0.9,1.6-1.9,2.2c-0.7,0.3-1.4,0.7-2.1,1c1.7,0.5,2.8,0.8,3.2,0.8
				H366.8z"/>
			<path class="st49" d="M438,23.1h-3.4c-0.5,0-1-0.3-1.6-1c-0.6-0.7-0.9-1.2-0.9-1.6l-1.5,2.6h-59.9v-4.1h60.8
				c0.1-0.2,0.2-1,0.4-2.3c-0.1-0.4,0-1,0.1-1.9c0.2-0.4,1.1-1.4,2.6-2.9c0.1,0.3,0.1,0.7,0.1,1.1c0,0.5-0.1,1.2-0.2,2
				c-0.1,0.8-0.2,1.4-0.2,1.8c0,1.2,0.9,1.9,2.6,2.2h1V23.1z M435.7,28.6c-0.5,0.8-1.3,1.8-2.3,2.9l-2.9-1.7c-1.4,1.1-2,1.7-1.8,1.7
				c-0.1,0-0.6-0.3-1.5-0.8c-0.9-0.6-1.4-0.9-1.6-1.1c0.5-0.7,1.2-1.6,2.2-2.8c0.6,0.6,1.5,1.2,2.8,1.8c0.9-0.9,1.6-1.5,1.9-1.8
				L435.7,28.6z"/>
			<path class="st49" d="M452.4,16.8c0,0.8-0.2,2.9-0.7,6.2H436v-4.1c6.6,0,14.1,0,14.1,0c-0.5-1.4-1.3-3.1-2.6-5l2.1-3.5
				C451.5,12.6,452.4,14.7,452.4,16.8z M449.4,30c0,0.3-0.4,0.7-1.1,1.3c-0.7,0.5-1.2,0.8-1.3,0.8c-0.3,0-1.3-0.7-3-2
				c0.1-0.2,0.4-0.7,1.1-1.5c0.7-0.8,1.1-1.1,1.4-1.1c0.1,0,0.6,0.4,1.5,1.2C448.9,29.4,449.4,29.9,449.4,30z"/>
			<path class="st49" d="M471.6,23.1H468c-0.3,0-0.7-0.3-1.1-0.8c-0.2,1.5-1.1,3.2-2.5,5.3c-1.7,2.6-3.5,3.9-5.2,3.9
				c-0.9,0-2.4-0.5-4.5-1.4c-2.1-0.9-3.3-1.6-3.8-2.2v-0.4c0.1-0.1,0.2-0.2,0.4-0.2c0.1,0,0.6,0.2,1.6,0.6c1,0.4,1.8,0.6,2.4,0.6
				c1.4,0,3.3-1,5.6-2.9c2.4-2,3.6-3.5,3.6-4.5c0-0.7-0.9-2.1-2.6-4l2.2-3.7c2.2,2.8,4.2,4.6,6.2,5.3h1.2V23.1z"/>
			<path class="st49" d="M487.4,23.1h-2.6c-0.6,0-1.3-0.4-1.9-1.1c-0.2-0.2-0.5-0.7-0.7-1.4l-1.5,2.6h-10.7v-4.1h11.6
				c0.2-0.4,0.4-1.1,0.3-2.1c0-1,0-1.6,0.2-1.9c0.2-0.5,0.6-1.1,1.2-1.7c0.5-0.5,1-0.9,1.5-1.4l-0.4,4.9c0,0.3,0,0.5,0.1,0.5
				c0.1,0.4,0.3,0.8,0.8,1.1c0.5,0.3,0.8,0.5,1.1,0.5h1V23.1z M485.5,5.3c-0.3,0.5-1,1.3-2,2.4c-0.4,0.2-0.6,0.3-0.4,0.3
				c-0.3,0-1.4-0.6-3.2-1.7c-1.3,1.1-1.9,1.7-1.8,1.7c-0.1,0-0.3-0.1-0.7-0.3c-0.7-0.3-1.6-0.8-2.6-1.6c0.2-0.3,0.6-0.9,1.3-1.6
				c0.7-0.7,1-1,1.1-1c0.1,0,0.4,0.2,1,0.6c0.6,0.4,1.1,0.7,1.3,0.8c0.2,0.1,0.4,0.2,0.5,0.2c0.1,0,0.4-0.2,0.9-0.6
				c0.7-0.6,1.1-0.9,1.3-1L485.5,5.3z"/>
			<path class="st49" d="M504.8,23.1h-3.7c-0.2-0.2-0.4-0.6-0.5-1.1c-0.1-0.6-0.2-1-0.3-1.2c-0.3,0.5-0.9,1.3-1.8,2.4h-12.4v-4.1
				h13.8L498,6l3.2-4.4c0.1,0.9,0.3,2.1,0.4,3.5c0.3,2.8,0.7,7,1.2,12.6c0,0.8,0.5,1.2,1.4,1.2h0.7V23.1z"/>
			<path class="st49" d="M516.1,5.9c-0.1,0.4-0.5,0.8-0.9,1.4c-0.1,0.1-0.8,1-2,2.6c-0.1,0.1-0.1,0.3-0.1,0.5l0.9,7.3l-1,5.3
				c-0.1,0-0.2,0-0.3,0.1c-0.2,0.1-0.3,0.1-0.4,0.1h-8.9v-4.1h7.7c0.1-0.5,0.2-0.9,0.2-1.3c0-0.6-0.2-1.8-0.5-3.5
				c-0.2-1.6-0.7-3.9-1.4-7l-1.5-1.2c1-2,2-3.7,2.9-5.1c0,0.7,0.1,1.3,0.4,1.7c0.1,0.2,0.9,0.7,2.2,1.6
				C514.2,4.7,515.1,5.3,516.1,5.9z"/>
			<path class="st49" d="M536.7,3.6c-0.1,0.1-0.5,0.6-1.4,1.5c-0.6,0.6-0.9,0.9-1,0.9c-0.3,0-1.3-0.5-3-1.6c-0.9,1-1.5,1.5-1.7,1.5
				c-0.3,0-1.3-0.5-2.9-1.6c0.5-0.5,1.2-1.4,2.1-2.5c1.5,1.1,2.4,1.7,2.7,1.7c-0.1,0,0.6-0.6,1.9-1.7L536.7,3.6z M542.2,23.1h-3
				c-0.2,0-0.3-0.1-0.5-0.3c-0.5-0.4-0.7-0.7-0.8-1.1c-0.1-0.7-0.4-1.8-0.7-3.2c-0.4,0.2-0.9,0.8-1.3,1.8c-0.5,1-1,1.5-1.6,1.6
				l-6.3-1.3V20c0,0.2,0.5-1.3,1.6-4.5c0.2-0.7,1.2-1.6,2.9-2.6c1.2-0.6,2.2-1.3,3.2-2c0-0.1-0.1-0.4-0.2-0.7
				c-0.1-0.3-0.2-0.5-0.2-0.6c0,0.1,0.7-1.1,2.2-3.7c0.4,2.7,1.1,6.8,2.1,12.3c0.1,0.5,0.6,0.7,1.6,0.7h1.1V23.1z M537,17.3v-0.8
				c0-0.6-0.2-1.9-0.7-3.9c-0.4,0.1-0.7,0.4-0.8,0.7c-0.3,0.9-0.9,1.6-1.9,2.2c-0.7,0.3-1.4,0.7-2.1,1c1.7,0.5,2.8,0.8,3.2,0.8H537z
				"/>
			<path class="st49" d="M594.8,23.1h-3.4c-0.5,0-1-0.3-1.6-1c-0.6-0.7-0.9-1.2-0.9-1.6l-1.5,2.6h-46.8v-4.1h47.7
				c0.1-0.2,0.2-1,0.4-2.3c-0.1-0.4,0-1,0.1-1.9c0.2-0.4,1.1-1.4,2.6-2.9c0.1,0.3,0.1,0.7,0.1,1.1c0,0.5-0.1,1.2-0.2,2
				c-0.1,0.8-0.2,1.4-0.2,1.8c0,1.2,0.9,1.9,2.6,2.2h1V23.1z M592.5,28.6c-0.5,0.8-1.3,1.8-2.3,2.9l-2.9-1.7c-1.4,1.1-2,1.7-1.8,1.7
				c-0.1,0-0.6-0.3-1.5-0.8c-0.9-0.6-1.4-0.9-1.6-1.1c0.5-0.7,1.2-1.6,2.2-2.8c0.6,0.6,1.5,1.2,2.8,1.8c0.9-0.9,1.6-1.5,1.9-1.8
				L592.5,28.6z"/>
			<path class="st49" d="M610.7,23.1h-3c-0.1,0-0.3-0.1-0.6-0.2c-0.6-0.2-1.2-1-1.7-2.3l-1.4,2.6h-11.4v-4.1h12.1
				c0.2-0.4,0.3-1,0.3-1.8c0-0.8,0-1.3,0.2-1.6c0.2-0.6,1.2-1.8,2.8-3.3v2.7c0,0.1-0.1,0.5-0.2,1.1c-0.1,0.7-0.2,1-0.2,1.1
				c0,1.2,0.7,1.8,2.1,1.8h0.8V23.1z M607.4,6.4c0,0.2-0.1,0.4-0.3,0.6c-0.3,0.3-1.1,0.9-2.2,1.7c-0.3,0.1-0.5,0.2-0.4,0.2
				c-0.2,0-0.7-0.3-1.5-0.9c-1-0.7-1.5-1.2-1.5-1.5c0-0.2,0.1-0.4,0.4-0.6c0.8-0.8,1.5-1.5,2-1.9c0.2-0.2,0.4-0.3,0.6-0.3
				c0.1,0,0.7,0.4,1.6,1.3C606.9,5.7,607.4,6.2,607.4,6.4z"/>
			<path class="st49" d="M634.9,16.7c0,0.5-0.5,1.6-1.4,3.4c-0.9,1.8-1.6,2.8-1.9,3h-22.4v-4.3h5.5c0.5-0.1,0.9-0.5,1.1-1.2
				c0-0.1,0.1-0.3,0.1-0.6c0,0-0.1-0.7-0.3-2.1c-0.3-2.3-0.7-4.9-1.3-8c0-0.2-0.2-0.5-0.5-0.9c-0.3-0.3-0.4-0.7-0.4-0.9
				c0-0.5,0.4-1.2,1.1-2.2c0.6-0.8,1.1-1.3,1.4-1.5c0.3,1.5,1.9,2.8,4.6,4c-0.3,0.7-0.6,1.4-0.9,2.1c-0.6,0.9-1.2,1.5-1.9,1.6
				c0.3,2.5,0.5,4,0.5,4.3c0,0.5-0.1,1.1-0.3,1.8c-0.2,1-0.4,1.7-0.5,2.2c6.6-3.8,10.6-5.8,11.9-5.8c0.9,0,2,0.6,3.5,1.8
				C634.1,14.6,634.9,15.7,634.9,16.7z M630.8,18.3c0-0.7-0.5-1.4-1.4-1.9c-1-0.6-1.8-0.9-2.6-0.9c-1.5,0-4.1,1.1-7.7,3.3h11.4
				C630.7,18.7,630.8,18.5,630.8,18.3z"/>
			<path class="st49" d="M653.7,23.1H652c-0.7,1.7-1.2,2.9-1.6,3.6c-0.8,1.4-1.6,2.5-2.6,3.3c-0.6,0.6-1.4,1-2.3,1.5
				c-0.4,0.1-0.9,0.2-1.4,0.2c-0.3,0-0.7,0-1-0.1c-0.9-0.2-2.3-0.7-4.2-1.5c-1.6-0.6-2.8-1.3-3.5-2v-0.4c0.1-0.1,0.3-0.1,0.6-0.1
				c0.1,0,0.7,0.2,2,0.5c1.3,0.3,1.9,0.5,2,0.5c0.5,0,1.1-0.1,1.8-0.3c2.6-0.6,5.1-2.4,7.5-5.2c-1.7-0.1-3.3-0.3-4.6-0.6
				c-0.5-0.1-1-0.3-1.6-0.8c-0.6-0.5-0.9-0.9-1-1.4c0-0.2-0.1-0.4-0.1-0.6c0-0.7,0.3-1.7,0.8-3.1c0.5-1.3,0.9-2.3,1.3-3
				c0.7-1.3,1.5-2.3,2.4-2.9c0.4-0.3,0.9-0.5,1.5-0.5c0.2,0,0.4,0,0.5,0.1c0.8,0.4,1.4,0.9,1.7,1.5c1.2,2.1,1.9,4.5,2.1,7.1h1.2
				V23.1z M649.1,17.8c-0.2-0.7-0.4-1.2-0.6-1.5c-0.3-0.5-0.6-0.9-0.9-1.2c-0.3-0.3-0.7-0.5-1-0.5c-0.4,0-0.8,0.3-1.4,0.8
				c-0.4,0.4-0.6,0.7-0.6,0.9c0,0.2,0.1,0.5,0.4,0.9c0.3,0.5,0.9,0.8,1.8,1c0.1,0,0.3,0.1,0.8,0.1c0.6,0,0.9-0.1,1.1-0.2
				C648.8,18.1,648.9,18,649.1,17.8z"/>
			<path class="st49" d="M664.9,5.9c-0.1,0.4-0.5,0.8-0.9,1.4c-0.1,0.1-0.8,1-2,2.6c-0.1,0.1-0.1,0.3-0.1,0.5l0.9,7.3l-1,5.3
				c-0.1,0-0.2,0-0.3,0.1c-0.2,0.1-0.3,0.1-0.4,0.1h-8.9v-4.1h7.7c0.1-0.5,0.2-0.9,0.2-1.3c0-0.6-0.2-1.8-0.5-3.5
				c-0.2-1.6-0.7-3.9-1.4-7l-1.5-1.2c1-2,2-3.7,2.9-5.1c0,0.7,0.1,1.3,0.4,1.7c0.1,0.2,0.9,0.7,2.2,1.6C663,4.7,664,5.3,664.9,5.9z"
				/>
			<path class="st49" d="M674.5,15.3c0,3.1-0.7,5.7-2.1,7.8l-1.9-16.2c0-0.3,0.4-1.1,1.3-2.6c0.8-1.2,1.3-2.1,1.7-2.6L674.5,15.3z"
				/>
			<path class="st49" d="M694.4,3.6c-0.1,0.1-0.5,0.6-1.4,1.5c-0.6,0.6-0.9,0.9-1,0.9c-0.3,0-1.3-0.5-3-1.6c-0.9,1-1.5,1.5-1.7,1.5
				c-0.3,0-1.3-0.5-2.9-1.6c0.5-0.5,1.2-1.4,2.1-2.5c1.5,1.1,2.4,1.7,2.7,1.7c-0.1,0,0.6-0.6,1.9-1.7L694.4,3.6z M699.9,23.1h-3
				c-0.2,0-0.4-0.1-0.5-0.3c-0.5-0.4-0.7-0.7-0.8-1.1c-0.1-0.7-0.4-1.8-0.7-3.2c-0.4,0.2-0.9,0.8-1.3,1.8c-0.5,1-1,1.5-1.6,1.6
				l-6.3-1.3V20c0,0.2,0.5-1.3,1.6-4.5c0.2-0.7,1.2-1.6,2.9-2.6c1.2-0.6,2.2-1.3,3.2-2c0-0.1-0.1-0.4-0.2-0.7
				c-0.1-0.3-0.2-0.5-0.2-0.6c0,0.1,0.7-1.1,2.2-3.7c0.4,2.7,1.1,6.8,2.1,12.3c0.1,0.5,0.6,0.7,1.6,0.7h1.1V23.1z M694.7,17.3v-0.8
				c0-0.6-0.2-1.9-0.7-3.9c-0.4,0.1-0.7,0.4-0.8,0.7c-0.3,0.9-0.9,1.6-1.9,2.2c-0.7,0.3-1.4,0.7-2.1,1c1.7,0.5,2.8,0.8,3.2,0.8
				H694.7z"/>
			<path class="st49" d="M745.5,23.1h-3c-0.1,0-0.3-0.1-0.6-0.2c-0.6-0.2-1.2-1-1.7-2.3l-1.4,2.6H698v-4.1h41.7
				c0.2-0.4,0.3-1,0.3-1.8c0-0.8,0-1.3,0.2-1.6c0.2-0.6,1.2-1.8,2.8-3.3v2.7c0,0.1-0.1,0.5-0.2,1.1c-0.1,0.7-0.2,1-0.2,1.1
				c0,1.2,0.7,1.8,2.1,1.8h0.8V23.1z M742.3,6.4c0,0.2-0.1,0.4-0.3,0.6c-0.4,0.3-1.1,0.9-2.3,1.7c-0.3,0.1-0.5,0.2-0.4,0.2
				c-0.2,0-0.7-0.3-1.5-0.9c-1-0.7-1.5-1.2-1.5-1.5c0-0.2,0.1-0.4,0.4-0.6c0.8-0.8,1.5-1.5,2-1.9c0.2-0.2,0.4-0.3,0.6-0.3
				c0.1,0,0.7,0.4,1.6,1.3C741.8,5.7,742.3,6.2,742.3,6.4z"/>
			<path class="st49" d="M775.1,23.1h-6.2c-0.1-1.3-0.3-2.3-0.5-3.1c-0.5-0.1-1.5-0.2-3-0.2c-1.3,0-2.1,0-2.5,0.1
				c-0.4,0-0.9,0.2-1.5,0.5c-0.9,0.5-1.7,1-2.6,1.5c-1.5,0.8-2.5,1.2-2.9,1.2h-12.6v-4.1h13.3c1.1,0,2.6-0.6,4.4-1.7
				c-3.2-1.3-5.2-2-6.1-2c-0.7,0-1.9,0.4-3.5,1.3c1.4-3.5,3.3-5.2,5.7-5.2c1,0,2.4,0.4,4,1.1c2.2,1,3.7,1.6,4.4,1.8
				c1.7,0.5,4.1,1,7.1,1.3c-0.3,0.8-0.7,1.9-1.1,3.3c0,0,0.8,0.1,2.4,0.1h1.3V23.1z M762.4,29c0,0.1-0.4,0.6-1.2,1.4
				c-0.8,0.8-1.2,1.2-1.4,1.2c-0.2,0-0.8-0.3-1.8-0.9c-1-0.6-1.5-0.9-1.5-1.1c0-0.1,0.4-0.5,1.2-1.3c0.8-0.8,1.2-1.2,1.4-1.2
				c0.1,0,0.6,0.2,1.4,0.7C761.5,28.5,762.1,28.9,762.4,29z"/>
			<path class="st49" d="M785.7,23.1H782c-0.2-0.2-0.4-0.6-0.5-1.1c-0.1-0.6-0.2-1-0.3-1.2c-0.3,0.5-0.9,1.3-1.8,2.4h-6.2v-4.1h7.6
				L778.9,6l3.2-4.4c0.1,0.9,0.3,2.1,0.4,3.5c0.3,2.8,0.7,7,1.2,12.6c0,0.8,0.5,1.2,1.4,1.2h0.7V23.1z"/>
			<path class="st49" d="M797,5.9c-0.1,0.4-0.5,0.8-0.9,1.4c-0.1,0.1-0.8,1-2,2.6c-0.1,0.1-0.1,0.3-0.1,0.5l0.9,7.3l-1,5.3
				c-0.1,0-0.2,0-0.3,0.1c-0.2,0.1-0.3,0.1-0.4,0.1h-8.9v-4.1h7.7c0.1-0.5,0.2-0.9,0.2-1.3c0-0.6-0.2-1.8-0.5-3.5
				c-0.2-1.6-0.7-3.9-1.4-7l-1.5-1.2c1-2,2-3.7,2.9-5.1c0,0.7,0.1,1.3,0.4,1.7c0.1,0.2,0.9,0.7,2.2,1.6C795.1,4.7,796,5.3,797,5.9z"
				/>
			<path class="st49" d="M806.5,15.3c0,3.1-0.7,5.7-2.1,7.8l-1.9-16.2c0-0.3,0.4-1.1,1.3-2.6c0.8-1.2,1.3-2.1,1.7-2.6L806.5,15.3z"
				/>
		</g>
	</g>
</g>
</svg>
