<?xml version="1.0" encoding="utf-8"?>
<!-- Generator: Adobe Illustrator 19.0.0, SVG Export Plug-In . SVG Version: 6.00 Build 0)  -->
<svg version="1.1" xmlns="http://www.w3.org/2000/svg" xmlns:xlink="http://www.w3.org/1999/xlink" x="0px" y="0px"
	 viewBox="0 0 13.2 14" style="enable-background:new 0 0 13.2 14;" xml:space="preserve">
<style type="text/css">
	.st0{display:none;}
	.st1{display:inline;fill:#DCDBDB;}
	.st2{display:inline;fill:none;stroke:#DCDBDB;stroke-width:3;stroke-miterlimit:10;}
	.st3{display:inline;fill:#FFFFFF;}
	.st4{fill:#FFFFFF;}
	.st5{display:inline;fill:#E02B29;}
	.st6{display:inline;fill:#414141;}
	.st7{fill:#414141;}
</style>
<g id="Layer_1" class="st0">
	<path class="st1" d="M13.3,0.6H12v-0.7c0-0.3-0.2-0.5-0.5-0.5c-0.3,0-0.5,0.2-0.5,0.5v0.7H4.5v-0.7c0-0.3-0.2-0.5-0.5-0.5
		S3.6-0.4,3.6-0.1v0.7H2.2c-1.1,0-1.9,0.9-1.9,1.9v9.9c0,1.1,0.9,1.9,1.9,1.9h11.1c1.1,0,1.9-0.9,1.9-1.9V2.5
		C15.2,1.4,14.4,0.6,13.3,0.6 M2.2,1.5h1.3V2c0,0.3,0.2,0.5,0.5,0.5S4.5,2.2,4.5,2V1.5H11V2c0,0.3,0.2,0.5,0.5,0.5
		C11.8,2.5,12,2.2,12,2V1.5h1.3c0.5,0,1,0.4,1,1v1.1H1.2V2.5C1.2,2,1.7,1.5,2.2,1.5 M13.3,13.4H2.2c-0.5,0-1-0.4-1-1V4.6h13.1v7.9
		C14.3,13,13.9,13.4,13.3,13.4"/>
	<polyline class="st2" points="-7.1,6.7 5.2,19 17.5,6.7 	"/>
	<polyline class="st2" points="-7.1,-1.8 5.2,10.6 17.5,-1.8 	"/>
	<path id="XMLID_119_" class="st3" d="M-3.6,16.9c0.6,0,1-0.5,1-1V0.4c0-0.3,0.2-0.7,0.4-0.8c0.3-0.2,0.6-0.2,0.9-0.1L7,3.2
		c1.8,0.8,3.8,1.3,5.7,1.5v6.9c-2.1,0.1-4.1,0.7-6,1.6l-8,3.9c-0.3,0.1-0.6,0-0.9-0.1c-0.3-0.2-0.4-0.5-0.4-0.9c0-0.6-0.5-1-1-1
		c-0.6,0-1,0.5-1,1c0,1,0.5,2,1.3,2.6c0.8,0.6,1.9,0.7,2.9,0.4c0,0,0.1,0,0.1,0L7.7,15c1.6-0.8,3.3-1.2,5.1-1.4v7.1
		c0,0.8,0.3,1.6,0.9,2.2c0.6,0.6,1.3,0.9,2.2,0.9c0,0,0,0,0.1,0c0.8,0,1.6-0.3,2.2-0.9c0.6-0.6,1-1.4,1-2.3v-7.2
		c1.7-0.5,2.9-2.1,2.9-4V6.8c0-2.3-1.9-4.2-4.2-4.2l-4.1,0c-2,0-4-0.4-5.8-1.3l-8.3-3.9c0,0-0.1,0-0.1,0c-1-0.3-2-0.2-2.8,0.4
		c-0.8,0.6-1.3,1.5-1.3,2.5v15.5C-4.7,16.5-4.2,16.9-3.6,16.9 M14.9,4.7l2.9,0h0c1.1,0,2.1,0.9,2.1,2.1v2.7c0,1.1-0.9,2-1.9,2.1
		c-0.5,0-1,0.5-1,1v8.1c0,0.3-0.1,0.6-0.3,0.8c-0.2,0.2-0.5,0.3-0.7,0.3c-0.6,0-1-0.5-1-1V4.7z"/>
</g>
<g id="Layer_2" class="st0">
	<path id="XMLID_123_" class="st4" d="M0.5,10C0.8,10,1,9.8,1,9.5V1.8c0-0.2,0.1-0.3,0.2-0.4c0.1-0.1,0.3-0.1,0.5-0.1l4.1,1.9
		c0.9,0.4,1.9,0.7,2.9,0.7v3.5c-1,0.1-2.1,0.3-3,0.8l-4,1.9c-0.2,0-0.3,0-0.5-0.1C1.1,9.9,1,9.8,1,9.6c0-0.3-0.2-0.5-0.5-0.5
		C0.2,9.1,0,9.3,0,9.6c0,0.5,0.2,1,0.7,1.3C1,11.2,1.6,11.3,2,11.1c0,0,0,0,0,0l4.1-2c0.8-0.4,1.7-0.6,2.5-0.7V12
		c0,0.4,0.2,0.8,0.4,1.1c0.3,0.3,0.7,0.5,1.1,0.5c0,0,0,0,0,0c0.4,0,0.8-0.2,1.1-0.4c0.3-0.3,0.5-0.7,0.5-1.1V8.3
		c0.8-0.3,1.5-1.1,1.5-2V5c0-1.1-0.9-2.1-2.1-2.1l-2,0c-1,0-2-0.2-2.9-0.6L2.1,0.3c0,0,0,0,0,0C1.6,0.1,1,0.2,0.6,0.5
		C0.2,0.8,0,1.3,0,1.8v7.7C0,9.8,0.2,10,0.5,10 M9.7,3.9l1.5,0h0c0.6,0,1,0.5,1,1v1.3c0,0.5-0.4,1-1,1c-0.3,0-0.5,0.2-0.5,0.5v4
		c0,0.1-0.1,0.3-0.2,0.4c-0.1,0.1-0.2,0.2-0.4,0.1c-0.3,0-0.5-0.2-0.5-0.5V3.9z"/>
</g>
<g id="Layer_3" class="st0">
</g>
<g id="Layer_4" class="st0">
	<path class="st5" d="M7.5,4.4l2.9,0h0c1.1,0,2.1,0.9,2.1,2.1v2.7c0,1.1-0.9,2-1.9,2.1c-0.5,0-1,0.5-1,1v8.1c0,0.3-0.1,0.6-0.3,0.8
		c-0.2,0.2-0.5,0.3-0.7,0.3c-0.6,0-1-0.5-1-1V4.4z"/>
</g>
<g id="Layer_5" class="st0">
	<path id="XMLID_127_" class="st3" d="M0.4,10.6c0.3,0,0.6-0.3,0.6-0.6V1.7c0-0.2,0.1-0.4,0.2-0.5c0.1-0.1,0.3-0.1,0.5-0.1l4.5,2.1
		c1,0.5,2,0.7,3.1,0.8v3.7C8.1,7.8,7,8.1,6,8.6l-4.4,2.1c-0.2,0.1-0.3,0-0.5-0.1c-0.2-0.1-0.2-0.3-0.2-0.5c0-0.3-0.3-0.6-0.6-0.6
		c-0.3,0-0.6,0.3-0.6,0.6c0,0.5,0.3,1.1,0.7,1.4c0.4,0.3,1,0.4,1.5,0.2c0,0,0,0,0.1,0l4.4-2.1c0.9-0.4,1.8-0.7,2.7-0.7v3.8
		c0,0.4,0.2,0.9,0.5,1.2c0.3,0.3,0.7,0.5,1.2,0.5c0,0,0,0,0,0c0.4,0,0.9-0.2,1.2-0.5c0.3-0.3,0.5-0.8,0.5-1.2V8.8
		c0.9-0.3,1.6-1.1,1.6-2.1V5.2c0-1.2-1-2.2-2.2-2.2l-2.2,0c-1.1,0-2.1-0.2-3.1-0.7L2.1,0.1c0,0,0,0,0,0C1.5-0.1,1,0,0.5,0.3
		C0.1,0.6-0.2,1.1-0.2,1.7v8.4C-0.2,10.4,0,10.6,0.4,10.6 M10.3,4l1.6,0h0C12.5,4,13,4.5,13,5.2v1.5c0,0.6-0.5,1.1-1,1.1
		c-0.3,0-0.5,0.3-0.5,0.6v4.4c0,0.2-0.1,0.3-0.2,0.4c-0.1,0.1-0.2,0.2-0.4,0.2c-0.3,0-0.6-0.3-0.6-0.6V4z"/>
</g>
<g id="Layer_6" class="st0">
	<path id="XMLID_176_" class="st6" d="M14,5.4c-0.2-1.7-1.3-3.1-2.7-3.9c-0.4-0.2-0.7-0.4-1.1-0.5C7-0.7,2.9,0.5,0.9,3.5
		c-0.1,0-0.2,0-0.2,0.1C0.7,3.7,0.6,3.9,0.6,4.1C0.1,5-0.1,6-0.1,7c0,0.6,0,1.3,0.1,1.9c0.2,0.8,0.6,1.6,1.1,2.3
		c0.6,0.7,1.4,1.2,2.2,1.6c3,1.3,7,0.8,9.2-2c0.7-0.9,1.1-1.9,1.2-2.9C14,7,14.1,6.2,14,5.4 M12.8,9.1c-0.8,1.5-2.1,2.7-3.6,3.3
		c-3.1,1.4-7-0.4-8.4-3.6C0.7,8.6,0.6,8.3,0.6,8.1c0-0.9,0-1.7,0.3-2.6C1.1,4.8,1.5,4.2,2,3.7c1-1.1,2.3-1.9,3.6-2.3
		C7,1,8.5,1,9.9,1.4c0.1,0,0.2,0.1,0.2,0.1c0.4,0.2,0.7,0.4,1,0.7c1.3,1.2,2.2,2.9,2.3,4.7c0,0.2,0,0.4,0,0.6
		C13.3,8.1,13.1,8.6,12.8,9.1 M5.9,0.8c0.2,0,0.5-0.1,0.7-0.1C5.3,0.9,4,1.4,3,2.2C2.1,2.8,1.4,3.6,0.9,4.5C0.8,4.7,0.7,4.8,0.7,4.9
		c0.1-0.4,0.3-0.7,0.5-1C2.2,2.2,4,1.1,5.9,0.8 M0.6,9.4c0.6,1.1,1.4,2,2.5,2.7c-0.5-0.3-1-0.6-1.4-1C1.2,10.6,0.8,10,0.6,9.4"/>
	<path id="XMLID_173_" class="st6" d="M13.5,6.7c0-0.3-0.4-0.4-0.5-0.2c-0.5,1.1-0.7,1.6-1.6,2.9c-0.7,0.9-1.5,1.5-2.6,1.7
		C7.5,11.4,6.2,11.3,5,11c-0.6-0.2-1.1-0.4-1.6-0.8c-0.5-0.4-1-0.9-1.3-1.5c0-0.1-0.1-0.2-0.1-0.3C2,8.2,1.8,8.2,1.7,8.2
		c0,0,0,0,0,0C1.5,7.9,1,8.1,1.2,8.4c0.6,1.2,1.3,2.3,2.4,3.2c0.1,0.1,0.3,0.2,0.4,0.3c1,0.7,2.1,1.1,3.3,1.2
		c2.4,0.1,4.8-1.6,5.7-3.9C13,9.1,13,9,13,8.9C13.3,8.2,13.4,7.4,13.5,6.7 M7.7,11.9c0.8,0,1.6-0.2,2.4-0.5c-0.3,0.2-0.7,0.4-1,0.5
		c-1.4,0.6-2.9,0.4-4.2-0.2c-0.1-0.1-0.2-0.1-0.3-0.2c0,0-0.1-0.1-0.1-0.1C5.4,11.8,6.6,11.9,7.7,11.9"/>
	<path class="st6" d="M-3.4-17.3c-3.1,3.1-4.8,7.2-4.8,11.6c0,4.4,1.7,8.5,4.8,11.6c3.1,3.1,7.2,4.8,11.6,4.8
		c4.4,0,8.5-1.7,11.6-4.8c3.1-3.1,4.8-7.2,4.8-11.6c0-4.4-1.7-8.5-4.8-11.6c-3.1-3.1-7.2-4.8-11.6-4.8C3.7-22.1-0.4-20.4-3.4-17.3
		 M22.5-5.8c0,8-6.5,14.4-14.4,14.4S-6.3,2.2-6.3-5.8c0-8,6.5-14.4,14.4-14.4S22.5-13.7,22.5-5.8"/>
	<path class="st6" d="M5.1-12.4V0H2.9v-8.3c0-0.5-0.4-1-1-1h-4.1c-0.5,0-1,0.4-1,1v9.2c0,0.5,0.4,1,1,1h20.5c0.5,0,1-0.4,1-1V-9.3
		c0-0.5-0.4-1-1-1h-4.1c-0.5,0-1,0.4-1,1V0h-2.2v-12.4c0-0.5-0.4-1-1-1H6.1C5.5-13.4,5.1-13,5.1-12.4 M-1.2-7.4H1V0h-2.2V-7.4z
		 M15.2-8.4h2.2V0h-2.2V-8.4z M9.1,0l-2.2,0l0.2-11.4l2.2,0L9.1,0z"/>
</g>
<g id="Layer_7" class="st0">
	<path id="XMLID_186_" class="st6" d="M2.1,2C0.8,3.3,0,5.1,0,6.9c0,1.9,0.7,3.6,2,4.9c1.3,1.3,3.1,2,4.9,2c1.9,0,3.6-0.7,4.9-2
		c1.3-1.3,2-3.1,2-4.9c0-1.9-0.7-3.6-2-4.9C10.6,0.7,8.8,0,7,0C5.1,0,3.4,0.7,2.1,2 M13.1,6.9c0,3.4-2.7,6.1-6.1,6.1
		s-6.1-2.7-6.1-6.1c0-3.4,2.7-6.1,6.1-6.1S13.1,3.6,13.1,6.9"/>
	<path id="XMLID_181_" class="st6" d="M5.7,4.1v5.3H4.8V5.8c0-0.2-0.2-0.4-0.4-0.4H2.6c-0.2,0-0.4,0.2-0.4,0.4v3.9
		c0,0.2,0.2,0.4,0.4,0.4h8.7c0.2,0,0.4-0.2,0.4-0.4V5.4c0-0.2-0.2-0.4-0.4-0.4H9.6C9.4,5,9.2,5.2,9.2,5.4v3.9H8.3V4.1
		c0-0.2-0.2-0.4-0.4-0.4H6.1C5.9,3.7,5.7,3.9,5.7,4.1 M3,6.3H4v3.1H3V6.3z M10,5.8h0.9v3.5H10V5.8z M7.4,9.4l-0.9,0l0.1-4.8l0.9,0
		L7.4,9.4z"/>
</g>
<g id="Layer_8" class="st0">
	<path id="XMLID_184_" class="st6" d="M13.2,5.1c0.3-0.9,0.4-1.6,0.4-2.3c0-0.5-0.3-1-0.6-1.4l-1.1-1.1c-0.3-0.3-0.6-0.4-1-0.4
		c-0.4,0-0.7,0.1-1,0.4C9.7,0.6,9.5,0.8,9.3,1C9.2,1.1,9.1,1.2,9,1.3L8.2,2.1c-0.3,0.3-0.5,0.7-0.5,1c0,0.4,0.2,0.7,0.5,1
		c0.1,0.1,0.2,0.2,0.3,0.3c0.2,0.2,0.5,0.5,0.8,0.7C9,5.6,8.7,6,8.3,6.5c-0.8,1-1.6,1.7-2.5,2.3C5.7,8.9,5.6,9,5.5,9
		c-0.1,0-0.2,0.1-0.3,0.1l-1-1c-0.3-0.3-0.6-0.5-1-0.5c-0.4,0-0.7,0.2-1,0.5L0.5,9.8c-0.6,0.6-0.6,1.4,0,2c0.1,0.1,0.3,0.3,0.4,0.4
		c0.2,0.2,0.4,0.4,0.5,0.6c0,0,0,0,0,0c0.5,0.5,1,0.7,1.7,0.7c0.1,0,0.1,0,0.2,0c1-0.1,2-0.5,2.7-0.8c1.8-0.9,3.5-2.2,4.8-3.8
		C12,7.7,12.7,6.5,13.2,5.1 M12.5,4.9c-0.5,1.3-1.2,2.4-2.2,3.7c-1.3,1.5-2.8,2.7-4.6,3.6c-0.6,0.3-1.5,0.7-2.4,0.7c0,0-0.1,0-0.1,0
		c-0.5,0-0.9-0.2-1.2-0.5c-0.2-0.2-0.4-0.4-0.6-0.6c-0.1-0.1-0.3-0.2-0.4-0.4c-0.3-0.4-0.3-0.7,0-1.1l1.7-1.7C2.8,8.5,3,8.4,3.2,8.4
		c0.2,0,0.4,0.1,0.5,0.3l1.1,1.1c0,0,0.2,0.2,0.4,0.2c0.1,0,0.2,0,0.3-0.1c0,0,0,0,0,0c0.1-0.1,0.2-0.1,0.3-0.2
		C5.9,9.6,6,9.5,6.2,9.4C7.1,8.8,8,8,8.9,7c0.5-0.6,0.8-1.1,1-1.6c0,0,0,0,0,0C9.9,5.2,10,4.9,9.7,4.7c0,0,0,0,0,0
		C9.5,4.5,9.2,4.2,8.9,3.9C8.9,3.8,8.8,3.8,8.7,3.7C8.5,3.5,8.4,3.3,8.4,3.1c0-0.2,0.1-0.4,0.3-0.5l0.8-0.8c0.1-0.1,0.2-0.2,0.3-0.3
		c0.2-0.2,0.4-0.4,0.6-0.6c0.2-0.2,0.3-0.2,0.5-0.2c0.2,0,0.4,0.1,0.5,0.2l1,1c0.3,0.3,0.4,0.6,0.4,1C12.9,3.5,12.8,4.1,12.5,4.9"/>
</g>
<g id="Layer_9">
	<path id="XMLID_202_" class="st7" d="M12.7,4L9.4,0.5c0,0-0.1-0.1-0.2-0.1h-5c-0.6,0-1,0.5-1,1V5h-2C0.8,5,0.4,5.3,0.4,5.7v3.8
		c0,0.4,0.3,0.8,0.8,0.8h2v2.3c0,0.6,0.5,1,1,1h7.5c0.6,0,1-0.5,1-1V4.2C12.8,4.1,12.7,4,12.7,4 M9.2,1.1L12,4H9.2V1.1z M1.2,9.7
		c-0.1,0-0.3-0.1-0.3-0.3V5.7c0-0.1,0.1-0.3,0.3-0.3H8c0.1,0,0.3,0.1,0.3,0.3v3.8c0,0.1-0.1,0.3-0.3,0.3H1.2z M12.3,12.5
		c0,0.3-0.2,0.5-0.5,0.5H4.2c-0.3,0-0.5-0.2-0.5-0.5v-2.3H8c0.4,0,0.8-0.3,0.8-0.8V5.7C8.7,5.3,8.4,5,8,5H3.7V1.5
		c0-0.3,0.2-0.5,0.5-0.5h4.5v3.3c0,0.1,0.1,0.3,0.3,0.3h3.3V12.5z"/>
	<path id="XMLID_199_" class="st7" d="M3.4,6.8C3.4,6.7,3.3,6.6,3.1,6.6c-0.1,0-0.3,0-0.5,0H1.9v2.2h0.4V7.9h0.3c0.2,0,0.3,0,0.5,0
		c0.1,0,0.2-0.1,0.2-0.1c0.1-0.1,0.1-0.1,0.2-0.2c0-0.1,0.1-0.2,0.1-0.3C3.6,7.1,3.5,6.9,3.4,6.8 M3.1,7.4c0,0-0.1,0.1-0.1,0.1
		c-0.1,0-0.2,0-0.3,0H2.4V6.9h0.2c0.2,0,0.3,0,0.3,0C2.9,7,3,7,3.1,7.1c0,0.1,0.1,0.1,0.1,0.2C3.1,7.3,3.1,7.4,3.1,7.4"/>
	<path id="XMLID_196_" class="st7" d="M5.7,7.2c0-0.1-0.1-0.3-0.2-0.3C5.4,6.7,5.3,6.7,5.1,6.6c-0.1,0-0.2,0-0.4,0H3.9v2.2h0.8
		c0.2,0,0.3,0,0.4,0c0.1,0,0.2-0.1,0.3-0.2c0.1-0.1,0.2-0.2,0.2-0.4c0-0.1,0.1-0.3,0.1-0.5C5.7,7.5,5.7,7.3,5.7,7.2 M5.2,8.1
		c0,0.1-0.1,0.2-0.1,0.2c0,0-0.1,0.1-0.2,0.1c-0.1,0-0.1,0-0.3,0H4.4V6.9h0.2c0.2,0,0.3,0,0.4,0C5,7,5.1,7,5.1,7.1
		c0.1,0,0.1,0.1,0.1,0.2c0,0.1,0,0.2,0,0.4C5.3,7.8,5.3,8,5.2,8.1"/>
	<polygon id="XMLID_183_" class="st7" points="7.6,6.9 7.6,6.6 6.1,6.6 6.1,8.7 6.5,8.7 6.5,7.8 7.4,7.8 7.4,7.5 6.5,7.5 6.5,6.9 	
		"/>
</g>
</svg>
