<?xml version="1.0" encoding="utf-8"?>
<!-- Generator: Adobe Illustrator 19.0.0, SVG Export Plug-In . SVG Version: 6.00 Build 0)  -->
<svg version="1.1" id="Layer_1" xmlns="http://www.w3.org/2000/svg" xmlns:xlink="http://www.w3.org/1999/xlink" x="0px" y="0px"
	 viewBox="0 0 20.5 20.3" style="enable-background:new 0 0 20.5 20.3;" xml:space="preserve">
<style type="text/css">
	.st0{clip-path:url(#XMLID_194_);fill:#414141;}
	.st1{clip-path:url(#XMLID_194_);fill:none;stroke:#414141;stroke-width:0.5;stroke-miterlimit:10;}
	.st2{clip-path:url(#XMLID_194_);fill:none;stroke:#DCDBDB;stroke-width:0.5;stroke-miterlimit:10;}
	.st3{clip-path:url(#XMLID_194_);fill:none;stroke:#DCDBDB;stroke-width:0.25;stroke-miterlimit:10;}
</style>
<g id="XMLID_2_">
	<defs>
		<rect id="XMLID_3_" x="-12.2" y="-549.2" width="1920" height="3466.8"/>
	</defs>
	<clipPath id="XMLID_194_">
		<use xlink:href="#XMLID_3_"  style="overflow:visible;"/>
	</clipPath>
	<path id="XMLID_63_" class="st0" d="M19.4-55.1l-7.3-7.4c0,0,0,0,0,0c-0.8-0.7-2-0.7-2.8,0c0,0,0,0,0,0l-7.4,7.4
		c-0.3,0.3-0.3,0.7,0,1c0.3,0.3,0.7,0.3,1,0l0.6-0.6v6.1c0,1.6,1.3,2.8,2.8,2.8h2.5c0.4,0,0.7-0.3,0.7-0.7v-5.7h2.5v5.7
		c0,0.4,0.3,0.7,0.7,0.7h2.5c1.6,0,2.8-1.3,2.8-2.8c0-0.4-0.3-0.7-0.7-0.7c-0.4,0-0.7,0.3-0.7,0.7c0,0.8-0.6,1.4-1.4,1.4h-1.8v-5.7
		c0-0.4-0.3-0.7-0.7-0.7H8.7c-0.4,0-0.7,0.3-0.7,0.7v5.7H6.2c-0.8,0-1.4-0.6-1.4-1.4V-56c0,0,0,0,0,0l5.4-5.4c0.3-0.2,0.6-0.2,0.9,0
		l5.4,5.4v7.6c0,0.4,0.3,0.7,0.7,0.7c0.4,0,0.7-0.3,0.7-0.7v-6.2l0.6,0.6c0.1,0.1,0.3,0.2,0.5,0.2c0.2,0,0.4-0.1,0.5-0.2
		C19.7-54.4,19.7-54.8,19.4-55.1"/>
	<path id="XMLID_60_" class="st0" d="M20.5-24.6c-0.3-0.9-1.1-1.5-2.1-1.5h-4c0,0,0,0,0,0c-0.2,0-0.4-0.2-0.5-0.4l-1.2-3.8
		c-0.3-0.9-1.1-1.5-2.1-1.5h0c-1,0-1.8,0.6-2.1,1.5l-1.2,3.8c-0.1,0.2-0.3,0.4-0.5,0.4c0,0,0,0,0,0h-4h0c-1,0-1.8,0.6-2.1,1.5
		c0,0.1,0,0.2-0.1,0.3c-0.1,0.3-0.1,0.7,0,1c0.1,0.4,0.4,0.8,0.8,1.1l0.9,0.7l1.3,0.9c0,0,0,0,0,0l1,0.7c0.2,0.2,0.3,0.4,0.2,0.7
		l-0.6,1.9l-0.6,1.9c-0.1,0.2-0.1,0.5-0.1,0.7c0,0.2,0,0.4,0.1,0.7c0.1,0.4,0.4,0.8,0.8,1.1c0.4,0.3,0.8,0.4,1.3,0.4
		c0,0,0.1,0,0.1,0c0.4,0,0.8-0.1,1.2-0.4l2.2-1.6l1.1-0.8c0.1-0.1,0.2-0.1,0.3-0.1c0.1,0,0.2,0,0.3,0.1l1.1,0.8l2.2,1.6
		c0.4,0.3,0.8,0.4,1.2,0.4c0,0,0.1,0,0.1,0c0.4,0,0.9-0.1,1.3-0.4c0.2-0.1,0.4-0.3,0.5-0.5c0.3-0.4,0.4-0.8,0.4-1.2
		c0-0.2,0-0.5-0.1-0.7l-0.6-1.9l-0.6-1.9c-0.1-0.2,0-0.5,0.2-0.7l1-0.7l1.3-0.9l0.9-0.7C20.5-22.7,20.8-23.7,20.5-24.6 M15.6-21.1
		c-0.8,0.6-1.1,1.5-0.8,2.4l0.4,1.2l0.8,2.6c0.1,0.4-0.1,0.6-0.2,0.7c0,0-0.1,0.1-0.3,0.1c-0.1,0-0.3,0-0.4-0.1l-3.2-2.4
		c-0.4-0.3-0.8-0.4-1.3-0.4c-0.4,0-0.9,0.1-1.3,0.4l-3.2,2.4c-0.2,0.1-0.3,0.1-0.4,0.1c-0.1,0-0.2-0.1-0.3-0.1
		c-0.1-0.1-0.3-0.3-0.2-0.7L6-17.5l0.4-1.2c0.3-0.9,0-1.9-0.8-2.4L4.4-22l-2-1.4c-0.3-0.2-0.2-0.6-0.2-0.7c0-0.1,0.2-0.4,0.6-0.4h4
		h0c0.1,0,0.1,0,0.2,0c0.9-0.1,1.6-0.6,1.9-1.4v0l1.2-3.8c0.1-0.4,0.5-0.4,0.6-0.4c0.1,0,0.4,0,0.6,0.4l1.2,3.8v0
		c0.3,0.8,1,1.4,1.9,1.4c0.1,0,0.1,0,0.2,0h4c0.4,0,0.5,0.3,0.6,0.4c0,0.1,0.1,0.4-0.2,0.7l-2,1.4L15.6-21.1z"/>
	<path id="XMLID_57_" class="st0" d="M18.9,15.9c0-0.2,0.1-0.4,0.1-0.7c0-0.1,0-0.3-0.1-0.4c0-0.2-0.1-0.3-0.2-0.5
		c-0.1-0.3-0.3-0.6-0.5-0.8c-0.9-0.9-1.7-1.4-2.4-1.6c-1-0.3-1.9,0-2.8,0.8c0,0,0,0,0,0l-0.9,0.9c-0.4-0.2-1.1-0.7-1.9-1.4
		C10,12,9.7,11.7,9.4,11.4l-0.1-0.1c-1.2-1.2-1.9-2.2-2.2-2.8L8,7.6l0,0c0.8-0.8,1.1-1.8,0.8-2.8C8.6,4.1,8.1,3.4,7.2,2.4
		C6.7,2,6.1,1.7,5.5,1.7c-0.2,0-0.4,0-0.6,0.1C4.5,1.8,4.1,2,3.7,2.3l0,0c0,0,0,0,0,0C3.4,2.6,3.2,2.9,3,3.2C3,3.2,2.9,3.4,2.9,3.5
		C2.8,3.7,2.7,3.9,2.6,4.1C2.5,4.2,2.5,4.4,2.5,4.5C2.4,4.7,2.3,4.9,2.3,5.1c0,0.2,0,0.3,0,0.5c0,0.2-0.1,0.4-0.1,0.6v0
		c0,0.3,0,0.6,0.1,0.9c0,0.3,0.1,0.5,0.1,0.8c0,0,0,0.1,0,0.1c0.4,1.6,1.2,3.3,2.4,4.8c0,0,0,0,0,0c0,0.1,0.1,0.1,0.1,0.2
		c0.2,0.2,0.3,0.4,0.5,0.6c0.2,0.3,0.5,0.6,0.7,0.8c0,0,0,0,0,0C6.4,14.8,6.7,15,7,15.3c0.2,0.2,0.4,0.3,0.6,0.5
		c0.1,0,0.1,0.1,0.2,0.1c0,0,0,0,0,0c1.5,1.2,3.2,2,4.8,2.4c0,0,0.1,0,0.1,0c0.3,0.1,0.5,0.1,0.8,0.1c0.3,0,0.6,0.1,0.9,0.1h0
		c0.2,0,0.4,0,0.6-0.1c0.2,0,0.3,0,0.5,0c0.2,0,0.4-0.1,0.6-0.2c0.1,0,0.3-0.1,0.4-0.1c0.2-0.1,0.4-0.2,0.6-0.3
		c0.1-0.1,0.2-0.1,0.3-0.2c0.3-0.2,0.5-0.4,0.8-0.6c0,0,0,0,0,0l0,0l0,0C18.7,16.7,18.9,16.3,18.9,15.9 M17.7,15.4
		c0,0.3-0.1,0.5-0.3,0.7v0l0,0c0,0-0.1,0-0.1,0.1c-0.2,0.1-0.3,0.3-0.5,0.4c-0.1,0.1-0.2,0.1-0.3,0.1c-0.1,0.1-0.3,0.2-0.4,0.2
		c-0.1,0-0.2,0.1-0.3,0.1c-0.1,0-0.3,0.1-0.4,0.1c-0.1,0-0.3,0-0.4,0c-0.2,0-0.3,0-0.5,0h0c0,0,0,0,0,0c-0.2,0-0.5,0-0.7-0.1
		c-0.8-0.1-1.6-0.3-2.5-0.7c0,0,0,0-0.1,0c-0.9-0.4-1.8-0.9-2.7-1.6c-0.2-0.2-0.4-0.4-0.7-0.5c-0.2-0.2-0.5-0.4-0.7-0.7
		c-0.2-0.2-0.5-0.5-0.7-0.7c-0.2-0.2-0.4-0.4-0.5-0.7c-0.7-0.9-1.2-1.8-1.6-2.7c0,0,0,0,0-0.1C3.9,8.6,3.7,7.8,3.6,7
		c0-0.3-0.1-0.5-0.1-0.7c0,0,0,0,0,0v0c0-0.2,0-0.3,0-0.5c0-0.1,0-0.3,0-0.4c0-0.2,0.1-0.3,0.1-0.5c0-0.1,0-0.2,0.1-0.3
		C3.9,4.4,3.9,4.3,4,4.1c0-0.1,0.1-0.2,0.1-0.3c0.1-0.2,0.2-0.3,0.4-0.5c0,0,0-0.1,0.1-0.1l0,0l0,0c0.5-0.4,1.2-0.4,1.6,0.1
		c1.7,1.8,1.6,2.6,0.8,3.4L5.9,7.9C5.7,8.1,5.6,8.4,5.7,8.7c0,0.1,0.8,1.7,2.6,3.6l0,0l0.1,0.1C10.3,14.2,12,15,12,15
		c0.2,0.1,0.5,0.1,0.7-0.1l1.2-1.2c0.8-0.8,1.6-0.9,3.4,0.8C17.6,14.7,17.7,15,17.7,15.4C17.7,15.3,17.7,15.3,17.7,15.4"/>
	<path id="XMLID_54_" class="st0" d="M10.6,51.4c-5,0-9.1-4.1-9.1-9.1c0-5,4.1-9.1,9.1-9.1s9.1,4.1,9.1,9.1
		C19.7,47.3,15.6,51.4,10.6,51.4 M10.6,34.7c-4.2,0-7.7,3.4-7.7,7.7c0,4.2,3.4,7.7,7.7,7.7s7.7-3.4,7.7-7.7
		C18.3,38.1,14.9,34.7,10.6,34.7"/>
	<path id="XMLID_53_" class="st0" d="M10.6,47.6c-2.4,0-4.4-2-4.4-4.4c0-0.4,0.3-0.7,0.7-0.7c0.4,0,0.7,0.3,0.7,0.7c0,1.6,1.3,3,3,3
		s3-1.3,3-3c0-0.4,0.3-0.7,0.7-0.7c0.4,0,0.7,0.3,0.7,0.7C15,45.7,13,47.6,10.6,47.6"/>
	<path id="XMLID_52_" class="st0" d="M17.5,228.4H3.7c-0.4,0-0.7-0.3-0.7-0.7s0.3-0.7,0.7-0.7h13.8c0.4,0,0.7,0.3,0.7,0.7
		S17.9,228.4,17.5,228.4"/>
	<path id="XMLID_51_" class="st0" d="M17.5,244.6H3.7c-0.4,0-0.7-0.3-0.7-0.7s0.3-0.7,0.7-0.7h13.8c0.4,0,0.7,0.3,0.7,0.7
		S17.9,244.6,17.5,244.6"/>
	<path id="XMLID_50_" class="st0" d="M17.5,236.5H3.7c-0.4,0-0.7-0.3-0.7-0.7s0.3-0.7,0.7-0.7h13.8c0.4,0,0.7,0.3,0.7,0.7
		S17.9,236.5,17.5,236.5"/>
	<path id="XMLID_47_" class="st0" d="M17.6,97.4h-14c-1.3,0-2.4,1.1-2.4,2.4v14c0,1.3,1.1,2.4,2.4,2.4h14c1.3,0,2.4-1.1,2.4-2.4v-14
		C20,98.5,18.9,97.4,17.6,97.4 M19.3,113.8c0,0.9-0.8,1.7-1.7,1.7h-14c-0.9,0-1.7-0.8-1.7-1.7v-14c0-0.9,0.8-1.7,1.7-1.7h14
		c0.9,0,1.7,0.8,1.7,1.7V113.8z"/>
	<path id="XMLID_44_" class="st1" d="M17.6,97.4h-14c-1.3,0-2.4,1.1-2.4,2.4v14c0,1.3,1.1,2.4,2.4,2.4h14c1.3,0,2.4-1.1,2.4-2.4v-14
		C20,98.5,18.9,97.4,17.6,97.4z M19.3,113.8c0,0.9-0.8,1.7-1.7,1.7h-14c-0.9,0-1.7-0.8-1.7-1.7v-14c0-0.9,0.8-1.7,1.7-1.7h14
		c0.9,0,1.7,0.8,1.7,1.7V113.8z"/>
	<path id="XMLID_43_" class="st0" d="M16.4,105.1L16.4,105.1c-0.5-0.6-1.2-0.9-2.1-0.9c-0.6,0-1.2,0.1-1.7,0.4
		c-0.2,0.1-0.4,0.3-0.7,0.5v-0.4c0-0.2-0.2-0.4-0.4-0.4H8.8c-0.2,0-0.4,0.2-0.4,0.4v8.2c0,0.2,0.2,0.4,0.4,0.4h2.7
		c0.2,0,0.4-0.2,0.4-0.4v-4.6c0-0.6,0.5-1.1,1-1.2l0.1,0c0.2,0,0.4,0.1,0.6,0.2c0.2,0.2,0.3,0.4,0.3,0.7v4.9c0,0.2,0.2,0.4,0.4,0.4
		h2.5c0.2,0,0.4-0.2,0.4-0.4v-5.2C17.1,106.6,16.9,105.7,16.4,105.1"/>
	<path id="XMLID_42_" class="st2" d="M16.4,105.1L16.4,105.1c-0.5-0.6-1.2-0.9-2.1-0.9c-0.6,0-1.2,0.1-1.7,0.4
		c-0.2,0.1-0.4,0.3-0.7,0.5v-0.4c0-0.2-0.2-0.4-0.4-0.4H8.8c-0.2,0-0.4,0.2-0.4,0.4v8.2c0,0.2,0.2,0.4,0.4,0.4h2.7
		c0.2,0,0.4-0.2,0.4-0.4v-4.6c0-0.6,0.5-1.1,1-1.2l0.1,0c0.2,0,0.4,0.1,0.6,0.2c0.2,0.2,0.3,0.4,0.3,0.7v4.9c0,0.2,0.2,0.4,0.4,0.4
		h2.5c0.2,0,0.4-0.2,0.4-0.4v-5.2C17.1,106.6,16.9,105.7,16.4,105.1z"/>
	<path id="XMLID_41_" class="st0" d="M7.3,104.4H4.6c-0.2,0-0.4,0.2-0.4,0.4v6.2v0.6v1.4c0,0.2,0.2,0.4,0.4,0.4h2.7
		c0.2,0,0.4-0.2,0.4-0.4v-8.2C7.7,104.6,7.5,104.4,7.3,104.4"/>
	<path id="XMLID_40_" class="st2" d="M7.3,104.4H4.6c-0.2,0-0.4,0.2-0.4,0.4v6.2v0.6v1.4c0,0.2,0.2,0.4,0.4,0.4h2.7
		c0.2,0,0.4-0.2,0.4-0.4v-8.2C7.7,104.6,7.5,104.4,7.3,104.4z"/>
	<path id="XMLID_39_" class="st0" d="M6,100.3c-1,0-1.9,0.8-1.9,1.9c0,1,0.8,1.9,1.9,1.9c1,0,1.9-0.8,1.9-1.9
		C7.8,101.2,7,100.3,6,100.3"/>
	<circle id="XMLID_38_" class="st2" cx="6" cy="102.2" r="1.9"/>
	<path id="XMLID_35_" class="st0" d="M20.1,133.1c-0.1-0.1-0.3-0.2-0.4-0.1c-0.2,0.1-0.5,0.2-0.7,0.3c0.3-0.4,0.5-0.8,0.7-1.3
		c0-0.1,0-0.3-0.1-0.4c-0.1-0.1-0.3-0.1-0.4,0c-0.7,0.4-1.4,0.7-2.1,0.8c-0.8-0.7-1.8-1.2-2.9-1.2c-2.3,0-4.1,1.9-4.1,4.1
		c0,0.2,0,0.3,0,0.5c-0.6-0.1-1.1-0.2-1.7-0.3c-1-0.3-2.4-0.9-3.2-1.5c0,0,0,0-0.1,0c-0.8-0.5-1.5-1.2-2.1-1.9
		c-0.1-0.1-0.2-0.1-0.3-0.1c-0.1,0-0.2,0.1-0.3,0.2c-0.4,0.6-0.6,1.3-0.6,2.1c0,0.9,0.3,1.8,0.8,2.5c-0.1,0-0.2-0.1-0.3-0.1
		c-0.1-0.1-0.3-0.1-0.4,0c-0.1,0.1-0.2,0.2-0.2,0.3v0c0,1.4,0.7,2.6,1.8,3.4c0,0,0,0,0,0c-0.1,0-0.3,0-0.3,0.1
		c-0.1,0.1-0.1,0.2-0.1,0.4c0.4,1.4,1.5,2.4,2.9,2.7c-1.1,0.7-2.4,1-3.7,1c-0.3,0-0.6,0-0.9,0c-0.2,0-0.3,0.1-0.4,0.2
		c-0.1,0.2,0,0.3,0.1,0.4c1.8,1.1,3.9,1.8,6,1.8c1.7,0,3.3-0.3,4.8-1c1.3-0.6,2.5-1.5,3.5-2.6c1.8-2.1,2.9-4.8,2.9-7.5v0l0-0.3
		c0.7-0.5,1.3-1.2,1.8-1.9C20.2,133.4,20.2,133.3,20.1,133.1 M17.7,135c-0.1,0.1-0.2,0.2-0.2,0.3l0,0.5c0,5.1-3.9,10.3-10.3,10.3
		c-1.5,0-2.9-0.3-4.3-0.9c1.6-0.1,3-0.7,4.3-1.7c0.1-0.1,0.2-0.3,0.1-0.4c0-0.1-0.2-0.3-0.3-0.3c-1.3,0-2.4-0.7-2.9-1.8
		c0,0,0.1,0,0.1,0c0.4,0,0.7,0,1.1-0.1c0.2,0,0.3-0.2,0.3-0.4c0-0.2-0.1-0.3-0.3-0.4c-1.4-0.3-2.4-1.4-2.7-2.8
		c0.4,0.2,0.8,0.2,1.3,0.2c0.2,0,0.3-0.1,0.4-0.3c0-0.2,0-0.3-0.1-0.4c-0.9-0.6-1.5-1.7-1.5-2.8c0-0.4,0.1-0.8,0.2-1.2
		c0.6,0.7,1.3,1.3,2,1.8c0,0,0,0,0,0c0.9,0.6,2.2,1.2,3.2,1.5c0,0,0,0,0,0c0,0,0,0,0.1,0c0,0,0,0,0,0c0,0,0.1,0,0.1,0
		c0.7,0.2,1.4,0.3,2.2,0.3c0.1,0,0.2,0,0.3-0.1c0.1-0.1,0.1-0.2,0.1-0.3c-0.1-0.3-0.1-0.5-0.1-0.8c0-1.9,1.5-3.4,3.4-3.4
		c0.9,0,1.8,0.4,2.5,1.1c0.1,0.1,0.2,0.1,0.3,0.1c0.5-0.1,1-0.2,1.5-0.4c-0.3,0.4-0.6,0.7-1,0.9c-0.2,0.1-0.2,0.3-0.2,0.4
		c0.1,0.2,0.2,0.3,0.4,0.3c0.3,0,0.7-0.1,1-0.2C18.4,134.5,18.1,134.8,17.7,135"/>
	<path id="XMLID_32_" class="st1" d="M20.1,133.1c-0.1-0.1-0.3-0.2-0.4-0.1c-0.2,0.1-0.5,0.2-0.7,0.3c0.3-0.4,0.5-0.8,0.7-1.3
		c0-0.1,0-0.3-0.1-0.4c-0.1-0.1-0.3-0.1-0.4,0c-0.7,0.4-1.4,0.7-2.1,0.8c-0.8-0.7-1.8-1.2-2.9-1.2c-2.3,0-4.1,1.9-4.1,4.1
		c0,0.2,0,0.3,0,0.5c-0.6-0.1-1.1-0.2-1.7-0.3c-1-0.3-2.4-0.9-3.2-1.5c0,0,0,0-0.1,0c-0.8-0.5-1.5-1.2-2.1-1.9
		c-0.1-0.1-0.2-0.1-0.3-0.1c-0.1,0-0.2,0.1-0.3,0.2c-0.4,0.6-0.6,1.3-0.6,2.1c0,0.9,0.3,1.8,0.8,2.5c-0.1,0-0.2-0.1-0.3-0.1
		c-0.1-0.1-0.3-0.1-0.4,0c-0.1,0.1-0.2,0.2-0.2,0.3v0c0,1.4,0.7,2.6,1.8,3.4c0,0,0,0,0,0c-0.1,0-0.3,0-0.3,0.1
		c-0.1,0.1-0.1,0.2-0.1,0.4c0.4,1.4,1.5,2.4,2.9,2.7c-1.1,0.7-2.4,1-3.7,1c-0.3,0-0.6,0-0.9,0c-0.2,0-0.3,0.1-0.4,0.2
		c-0.1,0.2,0,0.3,0.1,0.4c1.8,1.1,3.9,1.8,6,1.8c1.7,0,3.3-0.3,4.8-1c1.3-0.6,2.5-1.5,3.5-2.6c1.8-2.1,2.9-4.8,2.9-7.5v0l0-0.3
		c0.7-0.5,1.3-1.2,1.8-1.9C20.2,133.4,20.2,133.3,20.1,133.1z M17.7,135c-0.1,0.1-0.2,0.2-0.2,0.3l0,0.5c0,5.1-3.9,10.3-10.3,10.3
		c-1.5,0-2.9-0.3-4.3-0.9c1.6-0.1,3-0.7,4.3-1.7c0.1-0.1,0.2-0.3,0.1-0.4c0-0.1-0.2-0.3-0.3-0.3c-1.3,0-2.4-0.7-2.9-1.8
		c0,0,0.1,0,0.1,0c0.4,0,0.7,0,1.1-0.1c0.2,0,0.3-0.2,0.3-0.4c0-0.2-0.1-0.3-0.3-0.4c-1.4-0.3-2.4-1.4-2.7-2.8
		c0.4,0.2,0.8,0.2,1.3,0.2c0.2,0,0.3-0.1,0.4-0.3c0-0.2,0-0.3-0.1-0.4c-0.9-0.6-1.5-1.7-1.5-2.8c0-0.4,0.1-0.8,0.2-1.2
		c0.6,0.7,1.3,1.3,2,1.8c0,0,0,0,0,0c0.9,0.6,2.2,1.2,3.2,1.5c0,0,0,0,0,0c0,0,0,0,0.1,0c0,0,0,0,0,0c0,0,0.1,0,0.1,0
		c0.7,0.2,1.4,0.3,2.2,0.3c0.1,0,0.2,0,0.3-0.1c0.1-0.1,0.1-0.2,0.1-0.3c-0.1-0.3-0.1-0.5-0.1-0.8c0-1.9,1.5-3.4,3.4-3.4
		c0.9,0,1.8,0.4,2.5,1.1c0.1,0.1,0.2,0.1,0.3,0.1c0.5-0.1,1-0.2,1.5-0.4c-0.3,0.4-0.6,0.7-1,0.9c-0.2,0.1-0.2,0.3-0.2,0.4
		c0.1,0.2,0.2,0.3,0.4,0.3c0.3,0,0.7-0.1,1-0.2C18.4,134.5,18.1,134.8,17.7,135z"/>
	<path id="XMLID_31_" class="st0" d="M14.1,171l-5.4-3.1c-0.1-0.1-0.3-0.1-0.4,0c-0.1,0.1-0.2,0.2-0.2,0.4v6.2
		c0,0.2,0.1,0.3,0.2,0.4c0.1,0,0.1,0.1,0.2,0.1c0.1,0,0.1,0,0.2-0.1l5.4-3.1c0.1-0.1,0.2-0.2,0.2-0.4
		C14.3,171.2,14.3,171.1,14.1,171"/>
	<path id="XMLID_30_" class="st1" d="M14.1,171l-5.4-3.1c-0.1-0.1-0.3-0.1-0.4,0c-0.1,0.1-0.2,0.2-0.2,0.4v6.2
		c0,0.2,0.1,0.3,0.2,0.4c0.1,0,0.1,0.1,0.2,0.1c0.1,0,0.1,0,0.2-0.1l5.4-3.1c0.1-0.1,0.2-0.2,0.2-0.4
		C14.3,171.2,14.3,171.1,14.1,171z"/>
	<path id="XMLID_27_" class="st0" d="M21.7,171.3c0-0.1,0-3.6-0.5-5.3c-0.3-1.1-1.1-1.9-2.2-2.2c-1.1-0.3-15.7-0.3-16.9,0
		c-1.1,0.3-1.9,1.1-2.2,2.2c-0.5,1.7-0.5,5.2-0.5,5.3c0,0,0,0,0,0c0,0,0,0,0,0c0,0.1,0,3.6,0.5,5.3c0.3,1.1,1.1,1.9,2.2,2.2
		c1.1,0.3,15.7,0.3,16.9,0c1.1-0.3,1.9-1.1,2.2-2.2C21.7,174.9,21.7,171.5,21.7,171.3C21.7,171.3,21.7,171.3,21.7,171.3
		C21.7,171.3,21.7,171.3,21.7,171.3 M2.4,178c-0.8-0.2-1.4-0.8-1.6-1.6c-0.4-1.6-0.4-4.9-0.4-5.1c0-0.2,0-3.5,0.4-5.1
		c0.2-0.8,0.8-1.4,1.6-1.6c1.6-0.4,14.8-0.4,16.4,0c0.8,0.2,1.4,0.8,1.6,1.6c0.4,1.6,0.4,4.9,0.4,5.1c0,0.2,0,3.5-0.4,5.1
		c-0.2,0.8-0.8,1.4-1.6,1.6C17.2,178.5,4,178.5,2.4,178"/>
	<path id="XMLID_24_" class="st1" d="M21.7,171.3c0-0.1,0-3.6-0.5-5.3c-0.3-1.1-1.1-1.9-2.2-2.2c-1.1-0.3-15.7-0.3-16.9,0
		c-1.1,0.3-1.9,1.1-2.2,2.2c-0.5,1.7-0.5,5.2-0.5,5.3c0,0,0,0,0,0c0,0,0,0,0,0c0,0.1,0,3.6,0.5,5.3c0.3,1.1,1.1,1.9,2.2,2.2
		c1.1,0.3,15.7,0.3,16.9,0c1.1-0.3,1.9-1.1,2.2-2.2C21.7,174.9,21.7,171.5,21.7,171.3C21.7,171.3,21.7,171.3,21.7,171.3
		C21.7,171.3,21.7,171.3,21.7,171.3z M2.4,178c-0.8-0.2-1.4-0.8-1.6-1.6c-0.4-1.6-0.4-4.9-0.4-5.1c0-0.2,0-3.5,0.4-5.1
		c0.2-0.8,0.8-1.4,1.6-1.6c1.6-0.4,14.8-0.4,16.4,0c0.8,0.2,1.4,0.8,1.6,1.6c0.4,1.6,0.4,4.9,0.4,5.1c0,0.2,0,3.5-0.4,5.1
		c-0.2,0.8-0.8,1.4-1.6,1.6C17.2,178.5,4,178.5,2.4,178z"/>
	<path id="XMLID_21_" class="st0" d="M16.3,65.4H4.9c-1.9,0-3.5,1.6-3.5,3.5v11.4c0,1.9,1.6,3.5,3.5,3.5h5.7c0.2,0,0.4-0.2,0.4-0.4
		v-1.6v-1.2v-4.3c0-0.2-0.2-0.4-0.4-0.4H8.9v-1.8h1.8c0.2,0,0.4-0.2,0.4-0.4v-1.9c0-0.8,0.3-2.7,2.7-2.7H16V71h-1.7
		c-0.5,0-1,0.3-1,1.1v1.7c0,0.2,0.2,0.4,0.4,0.4H16L15.8,76h-2.1c-0.2,0-0.4,0.2-0.4,0.4v7.1c0,0.2,0.2,0.4,0.4,0.4h2.7
		c1.9,0,3.5-1.6,3.5-3.5V68.9C19.8,66.9,18.3,65.4,16.3,65.4 M19.1,80.3c0,1.5-1.3,2.8-2.8,2.8H14v-6.4h2.1c0.2,0,0.3-0.1,0.4-0.3
		l0.3-2.6c0-0.1,0-0.2-0.1-0.3c-0.1-0.1-0.2-0.1-0.3-0.1H14v-1.4c0-0.2,0.1-0.3,0.3-0.3h2c0.2,0,0.4-0.2,0.4-0.4v-2.5
		c0-0.2-0.2-0.4-0.4-0.4h-2.7c-1.5,0-2.3,0.7-2.7,1.2c-0.6,0.8-0.7,1.7-0.7,2.2v1.5H8.5c-0.2,0-0.4,0.2-0.4,0.4v2.6
		c0,0.2,0.2,0.4,0.4,0.4h1.8v3.9v1.2v1.2H4.9c-1.5,0-2.8-1.3-2.8-2.8V68.9c0-1.5,1.3-2.8,2.8-2.8h11.4c1.5,0,2.8,1.3,2.8,2.8V80.3z"
		/>
	<path id="XMLID_18_" class="st1" d="M16.3,65.4H4.9c-1.9,0-3.5,1.6-3.5,3.5v11.4c0,1.9,1.6,3.5,3.5,3.5h5.7c0.2,0,0.4-0.2,0.4-0.4
		v-1.6v-1.2v-4.3c0-0.2-0.2-0.4-0.4-0.4H8.9v-1.8h1.8c0.2,0,0.4-0.2,0.4-0.4v-1.9c0-0.8,0.3-2.7,2.7-2.7H16V71h-1.7
		c-0.5,0-1,0.3-1,1.1v1.7c0,0.2,0.2,0.4,0.4,0.4H16L15.8,76h-2.1c-0.2,0-0.4,0.2-0.4,0.4v7.1c0,0.2,0.2,0.4,0.4,0.4h2.7
		c1.9,0,3.5-1.6,3.5-3.5V68.9C19.8,66.9,18.3,65.4,16.3,65.4z M19.1,80.3c0,1.5-1.3,2.8-2.8,2.8H14v-6.4h2.1c0.2,0,0.3-0.1,0.4-0.3
		l0.3-2.6c0-0.1,0-0.2-0.1-0.3c-0.1-0.1-0.2-0.1-0.3-0.1H14v-1.4c0-0.2,0.1-0.3,0.3-0.3h2c0.2,0,0.4-0.2,0.4-0.4v-2.5
		c0-0.2-0.2-0.4-0.4-0.4h-2.7c-1.5,0-2.3,0.7-2.7,1.2c-0.6,0.8-0.7,1.7-0.7,2.2v1.5H8.5c-0.2,0-0.4,0.2-0.4,0.4v2.6
		c0,0.2,0.2,0.4,0.4,0.4h1.8v3.9v1.2v1.2H4.9c-1.5,0-2.8-1.3-2.8-2.8V68.9c0-1.5,1.3-2.8,2.8-2.8h11.4c1.5,0,2.8,1.3,2.8,2.8V80.3z"
		/>
	<path id="XMLID_15_" class="st0" d="M10.6,195.7c2.6,0,2.9,0,3.9,0.1c0.9,0,1.4,0.2,1.8,0.3c0.4,0.2,0.8,0.4,1.1,0.7
		c0.3,0.3,0.5,0.7,0.7,1.1c0.1,0.3,0.3,0.8,0.3,1.8c0,1,0.1,1.3,0.1,3.9c0,2.6,0,2.9-0.1,3.9c0,0.9-0.2,1.4-0.3,1.8
		c-0.2,0.4-0.4,0.8-0.7,1.1c-0.3,0.3-0.7,0.5-1.1,0.7c-0.3,0.1-0.8,0.3-1.8,0.3c-1,0-1.3,0.1-3.9,0.1s-2.9,0-3.9-0.1
		c-0.9,0-1.4-0.2-1.8-0.3c-0.4-0.2-0.8-0.4-1.1-0.7c-0.3-0.3-0.5-0.7-0.7-1.1c-0.1-0.3-0.3-0.8-0.3-1.8c0-1-0.1-1.3-0.1-3.9
		c0-2.6,0-2.9,0.1-3.9c0-0.9,0.2-1.4,0.3-1.8c0.2-0.4,0.4-0.8,0.7-1.1c0.3-0.3,0.7-0.5,1.1-0.7c0.3-0.1,0.8-0.3,1.8-0.3
		C7.8,195.7,8.1,195.7,10.6,195.7 M10.6,194c-2.6,0-2.9,0-3.9,0.1c-1,0-1.7,0.2-2.3,0.4c-0.6,0.2-1.2,0.6-1.7,1.1
		c-0.5,0.5-0.9,1.1-1.1,1.7c-0.2,0.6-0.4,1.3-0.4,2.3c0,1-0.1,1.3-0.1,3.9c0,2.6,0,2.9,0.1,3.9c0,1,0.2,1.7,0.4,2.3
		c0.2,0.6,0.6,1.2,1.1,1.7c0.5,0.5,1.1,0.9,1.7,1.1c0.6,0.2,1.3,0.4,2.3,0.4c1,0,1.3,0.1,3.9,0.1s2.9,0,3.9-0.1c1,0,1.7-0.2,2.3-0.4
		c0.6-0.2,1.2-0.6,1.7-1.1c0.5-0.5,0.9-1.1,1.1-1.7c0.2-0.6,0.4-1.3,0.4-2.3c0-1,0.1-1.3,0.1-3.9c0-2.6,0-2.9-0.1-3.9
		c0-1-0.2-1.7-0.4-2.3c-0.2-0.6-0.6-1.2-1.1-1.7c-0.5-0.5-1.1-0.9-1.7-1.1c-0.6-0.2-1.3-0.4-2.3-0.4C13.5,194,13.2,194,10.6,194"/>
	<path id="XMLID_12_" class="st3" d="M10.6,195.7c2.6,0,2.9,0,3.9,0.1c0.9,0,1.4,0.2,1.8,0.3c0.4,0.2,0.8,0.4,1.1,0.7
		c0.3,0.3,0.5,0.7,0.7,1.1c0.1,0.3,0.3,0.8,0.3,1.8c0,1,0.1,1.3,0.1,3.9c0,2.6,0,2.9-0.1,3.9c0,0.9-0.2,1.4-0.3,1.8
		c-0.2,0.4-0.4,0.8-0.7,1.1c-0.3,0.3-0.7,0.5-1.1,0.7c-0.3,0.1-0.8,0.3-1.8,0.3c-1,0-1.3,0.1-3.9,0.1s-2.9,0-3.9-0.1
		c-0.9,0-1.4-0.2-1.8-0.3c-0.4-0.2-0.8-0.4-1.1-0.7c-0.3-0.3-0.5-0.7-0.7-1.1c-0.1-0.3-0.3-0.8-0.3-1.8c0-1-0.1-1.3-0.1-3.9
		c0-2.6,0-2.9,0.1-3.9c0-0.9,0.2-1.4,0.3-1.8c0.2-0.4,0.4-0.8,0.7-1.1c0.3-0.3,0.7-0.5,1.1-0.7c0.3-0.1,0.8-0.3,1.8-0.3
		C7.8,195.7,8.1,195.7,10.6,195.7 M10.6,194c-2.6,0-2.9,0-3.9,0.1c-1,0-1.7,0.2-2.3,0.4c-0.6,0.2-1.2,0.6-1.7,1.1
		c-0.5,0.5-0.9,1.1-1.1,1.7c-0.2,0.6-0.4,1.3-0.4,2.3c0,1-0.1,1.3-0.1,3.9c0,2.6,0,2.9,0.1,3.9c0,1,0.2,1.7,0.4,2.3
		c0.2,0.6,0.6,1.2,1.1,1.7c0.5,0.5,1.1,0.9,1.7,1.1c0.6,0.2,1.3,0.4,2.3,0.4c1,0,1.3,0.1,3.9,0.1s2.9,0,3.9-0.1c1,0,1.7-0.2,2.3-0.4
		c0.6-0.2,1.2-0.6,1.7-1.1c0.5-0.5,0.9-1.1,1.1-1.7c0.2-0.6,0.4-1.3,0.4-2.3c0-1,0.1-1.3,0.1-3.9c0-2.6,0-2.9-0.1-3.9
		c0-1-0.2-1.7-0.4-2.3c-0.2-0.6-0.6-1.2-1.1-1.7c-0.5-0.5-1.1-0.9-1.7-1.1c-0.6-0.2-1.3-0.4-2.3-0.4C13.5,194,13.2,194,10.6,194z"/>
	<path id="XMLID_9_" class="st0" d="M10.6,198.7c-2.7,0-4.9,2.2-4.9,4.9c0,2.7,2.2,4.9,4.9,4.9s4.9-2.2,4.9-4.9
		C15.5,200.9,13.3,198.7,10.6,198.7 M10.6,206.8c-1.8,0-3.2-1.4-3.2-3.2s1.4-3.2,3.2-3.2c1.8,0,3.2,1.4,3.2,3.2
		S12.4,206.8,10.6,206.8"/>
	<path id="XMLID_6_" class="st3" d="M10.6,198.7c-2.7,0-4.9,2.2-4.9,4.9c0,2.7,2.2,4.9,4.9,4.9s4.9-2.2,4.9-4.9
		C15.5,200.9,13.3,198.7,10.6,198.7z M10.6,206.8c-1.8,0-3.2-1.4-3.2-3.2s1.4-3.2,3.2-3.2c1.8,0,3.2,1.4,3.2,3.2
		S12.4,206.8,10.6,206.8z"/>
	<path id="XMLID_5_" class="st0" d="M16.9,198.5c0,0.6-0.5,1.1-1.1,1.1c-0.6,0-1.1-0.5-1.1-1.1c0-0.6,0.5-1.1,1.1-1.1
		C16.4,197.3,16.9,197.8,16.9,198.5"/>
	<circle id="XMLID_4_" class="st3" cx="15.7" cy="198.5" r="1.1"/>
</g>
</svg>
