<?xml version="1.0" encoding="utf-8"?>
<!-- Generator: Adobe Illustrator 19.0.0, SVG Export Plug-In . SVG Version: 6.00 Build 0)  -->
<svg version="1.1" xmlns="http://www.w3.org/2000/svg" xmlns:xlink="http://www.w3.org/1999/xlink" x="0px" y="0px"
	 viewBox="0 0 14.4 14.6" style="enable-background:new 0 0 14.4 14.6;" xml:space="preserve">
<style type="text/css">
	.st0{display:none;}
	.st1{display:inline;fill:#DCDBDB;}
	.st2{display:inline;fill:none;stroke:#DCDBDB;stroke-width:3;stroke-miterlimit:10;}
	.st3{display:inline;fill:#FFFFFF;}
	.st4{fill:#FFFFFF;}
	.st5{display:inline;fill:#E02B29;}
	.st6{display:inline;fill:#414141;}
	.st7{fill:#414141;}
</style>
<g id="Layer_1" class="st0">
	<path class="st1" d="M13.5,0.8h-1.3V0.1c0-0.3-0.2-0.5-0.5-0.5c-0.3,0-0.5,0.2-0.5,0.5v0.7H4.7V0.1c0-0.3-0.2-0.5-0.5-0.5
		S3.8-0.2,3.8,0.1v0.7H2.4c-1.1,0-1.9,0.9-1.9,1.9v9.9c0,1.1,0.9,1.9,1.9,1.9h11.1c1.1,0,1.9-0.9,1.9-1.9V2.7
		C15.4,1.7,14.6,0.8,13.5,0.8 M2.4,1.7h1.3v0.5c0,0.3,0.2,0.5,0.5,0.5s0.5-0.2,0.5-0.5V1.7h6.5v0.5c0,0.3,0.2,0.5,0.5,0.5
		c0.3,0,0.5-0.2,0.5-0.5V1.7h1.3c0.5,0,1,0.4,1,1v1.1H1.4V2.7C1.4,2.2,1.9,1.7,2.4,1.7 M13.5,13.6H2.4c-0.5,0-1-0.4-1-1V4.8h13.1
		v7.9C14.5,13.2,14.1,13.6,13.5,13.6"/>
	<polyline class="st2" points="-6.9,6.9 5.4,19.2 17.7,6.9 	"/>
	<polyline class="st2" points="-6.9,-1.6 5.4,10.8 17.7,-1.6 	"/>
	<path id="XMLID_119_" class="st3" d="M-3.4,17.1c0.6,0,1-0.5,1-1V0.6c0-0.3,0.2-0.7,0.4-0.8C-1.7-0.4-1.3-0.5-1-0.4l8.3,3.8
		C9.1,4.3,11,4.8,13,4.9v6.9c-2.1,0.1-4.1,0.7-6,1.6l-8,3.9c-0.3,0.1-0.6,0-0.9-0.1c-0.3-0.2-0.4-0.5-0.4-0.9c0-0.6-0.5-1-1-1
		c-0.6,0-1,0.5-1,1c0,1,0.5,2,1.3,2.6c0.8,0.6,1.9,0.7,2.9,0.4c0,0,0.1,0,0.1,0l8.1-3.9c1.6-0.8,3.3-1.2,5.1-1.4v7.1
		c0,0.8,0.3,1.6,0.9,2.2c0.6,0.6,1.3,0.9,2.2,0.9c0,0,0,0,0.1,0c0.8,0,1.6-0.3,2.2-0.9c0.6-0.6,1-1.4,1-2.3v-7.2
		c1.7-0.5,2.9-2.1,2.9-4V7c0-2.3-1.9-4.2-4.2-4.2l-4.1,0c-2,0-4-0.4-5.8-1.3l-8.3-3.9c0,0-0.1,0-0.1,0c-1-0.3-2-0.2-2.8,0.4
		C-4-1.4-4.4-0.4-4.4,0.6v15.5C-4.4,16.7-4,17.1-3.4,17.1 M15.1,4.9l2.9,0h0c1.1,0,2.1,0.9,2.1,2.1v2.7c0,1.1-0.9,2-1.9,2.1
		c-0.5,0-1,0.5-1,1v8.1c0,0.3-0.1,0.6-0.3,0.8c-0.2,0.2-0.5,0.3-0.7,0.3c-0.6,0-1-0.5-1-1V4.9z"/>
</g>
<g id="Layer_2" class="st0">
	<path id="XMLID_123_" class="st4" d="M0.7,10.3c0.3,0,0.5-0.2,0.5-0.5V2c0-0.2,0.1-0.3,0.2-0.4c0.1-0.1,0.3-0.1,0.5-0.1L6,3.4
		c0.9,0.4,1.9,0.7,2.9,0.7v3.5c-1,0.1-2.1,0.3-3,0.8l-4,1.9c-0.2,0-0.3,0-0.5-0.1C1.3,10.2,1.2,10,1.2,9.8c0-0.3-0.2-0.5-0.5-0.5
		c-0.3,0-0.5,0.2-0.5,0.5c0,0.5,0.2,1,0.7,1.3c0.4,0.3,0.9,0.4,1.4,0.2c0,0,0,0,0,0l4.1-2C7.1,8.9,8,8.7,8.9,8.6v3.5
		c0,0.4,0.2,0.8,0.4,1.1c0.3,0.3,0.7,0.5,1.1,0.5c0,0,0,0,0,0c0.4,0,0.8-0.2,1.1-0.4c0.3-0.3,0.5-0.7,0.5-1.1V8.5
		c0.8-0.3,1.5-1.1,1.5-2V5.2c0-1.1-0.9-2.1-2.1-2.1l-2,0c-1,0-2-0.2-2.9-0.6L2.3,0.5c0,0,0,0,0,0c-0.5-0.2-1-0.1-1.4,0.2
		C0.4,1,0.2,1.5,0.2,2v7.7C0.2,10,0.4,10.3,0.7,10.3 M9.9,4.2l1.5,0h0c0.6,0,1,0.5,1,1v1.3c0,0.5-0.4,1-1,1c-0.3,0-0.5,0.2-0.5,0.5
		v4c0,0.1-0.1,0.3-0.2,0.4c-0.1,0.1-0.2,0.2-0.4,0.1c-0.3,0-0.5-0.2-0.5-0.5V4.2z"/>
</g>
<g id="Layer_3" class="st0">
</g>
<g id="Layer_4" class="st0">
	<path class="st5" d="M7.7,4.6l2.9,0h0c1.1,0,2.1,0.9,2.1,2.1v2.7c0,1.1-0.9,2-1.9,2.1c-0.5,0-1,0.5-1,1v8.1c0,0.3-0.1,0.6-0.3,0.8
		c-0.2,0.2-0.5,0.3-0.7,0.3c-0.6,0-1-0.5-1-1V4.6z"/>
</g>
<g id="Layer_5" class="st0">
	<path id="XMLID_127_" class="st3" d="M0.6,10.8c0.3,0,0.6-0.3,0.6-0.6V1.9c0-0.2,0.1-0.4,0.2-0.5c0.1-0.1,0.3-0.1,0.5-0.1l4.5,2.1
		c1,0.5,2,0.7,3.1,0.8v3.7C8.3,8,7.2,8.3,6.2,8.8l-4.4,2.1c-0.2,0.1-0.3,0-0.5-0.1c-0.2-0.1-0.2-0.3-0.2-0.5c0-0.3-0.3-0.6-0.6-0.6
		C0.3,9.8,0,10.1,0,10.4c0,0.5,0.3,1.1,0.7,1.4c0.4,0.3,1,0.4,1.5,0.2c0,0,0,0,0.1,0l4.4-2.1c0.9-0.4,1.8-0.7,2.7-0.7v3.8
		c0,0.4,0.2,0.9,0.5,1.2c0.3,0.3,0.7,0.5,1.2,0.5c0,0,0,0,0,0c0.4,0,0.9-0.2,1.2-0.5c0.3-0.3,0.5-0.8,0.5-1.2V9
		c0.9-0.3,1.6-1.1,1.6-2.1V5.4c0-1.2-1-2.2-2.2-2.2l-2.2,0c-1.1,0-2.1-0.2-3.1-0.7L2.3,0.3c0,0,0,0,0,0C1.7,0.1,1.2,0.2,0.7,0.5
		C0.3,0.8,0,1.3,0,1.9v8.4C0,10.6,0.3,10.8,0.6,10.8 M10.6,4.2l1.6,0h0c0.6,0,1.1,0.5,1.1,1.1v1.5c0,0.6-0.5,1.1-1,1.1
		c-0.3,0-0.5,0.3-0.5,0.6v4.4c0,0.2-0.1,0.3-0.2,0.4c-0.1,0.1-0.2,0.2-0.4,0.2c-0.3,0-0.6-0.3-0.6-0.6V4.2z"/>
</g>
<g id="Layer_6" class="st0">
	<path id="XMLID_176_" class="st6" d="M14.2,5.6C14,4,12.9,2.5,11.5,1.7c-0.4-0.2-0.7-0.4-1.1-0.5C7.2-0.5,3.1,0.7,1.1,3.7
		C1.1,3.6,1,3.6,1,3.7C0.9,3.9,0.8,4.1,0.8,4.3C0.3,5.2,0.1,6.2,0.2,7.2c0,0.6,0,1.3,0.1,1.9c0.2,0.8,0.6,1.6,1.1,2.3
		C2,12,2.8,12.6,3.6,12.9c3,1.3,7,0.8,9.2-2c0.7-0.9,1.1-1.9,1.2-2.9C14.2,7.3,14.3,6.4,14.2,5.6 M13,9.3c-0.8,1.5-2.1,2.7-3.6,3.3
		C6.3,14,2.4,12.2,1,9C0.9,8.8,0.8,8.5,0.8,8.3c0-0.9,0-1.7,0.3-2.6c0.2-0.7,0.6-1.3,1.1-1.8c1-1.1,2.3-1.9,3.6-2.3
		c1.4-0.4,2.9-0.4,4.3,0c0.1,0,0.2,0.1,0.2,0.1c0.4,0.2,0.7,0.4,1,0.7c1.3,1.2,2.2,2.9,2.3,4.7c0,0.2,0,0.4,0,0.6
		C13.5,8.3,13.3,8.8,13,9.3 M6.1,1c0.2,0,0.5-0.1,0.7-0.1C5.5,1.1,4.2,1.6,3.2,2.4C2.3,3,1.6,3.8,1.1,4.8C1,4.9,0.9,5,0.9,5.1
		c0.1-0.4,0.3-0.7,0.5-1C2.4,2.4,4.2,1.3,6.1,1 M0.8,9.6c0.6,1.1,1.4,2,2.5,2.7c-0.5-0.3-1-0.6-1.4-1C1.4,10.8,1.1,10.2,0.8,9.6"/>
	<path id="XMLID_173_" class="st6" d="M13.7,6.9c0-0.3-0.4-0.4-0.5-0.2c-0.5,1.1-0.7,1.6-1.6,2.9c-0.7,0.9-1.5,1.5-2.6,1.7
		c-1.2,0.2-2.5,0.2-3.7-0.2c-0.6-0.2-1.1-0.4-1.6-0.8c-0.5-0.4-1-0.9-1.3-1.5c0-0.1-0.1-0.2-0.1-0.3C2.2,8.4,2,8.4,1.9,8.4
		c0,0,0,0,0,0C1.7,8.1,1.2,8.3,1.4,8.6C2,9.9,2.7,11,3.8,11.8C3.9,11.9,4,12,4.2,12.1c1,0.7,2.1,1.1,3.3,1.2
		c2.4,0.1,4.8-1.6,5.7-3.9c0-0.1,0.1-0.2,0.1-0.3C13.5,8.4,13.6,7.6,13.7,6.9 M7.9,12.1c0.8,0,1.6-0.2,2.4-0.5
		c-0.3,0.2-0.7,0.4-1,0.5c-1.4,0.6-2.9,0.4-4.2-0.2c-0.1-0.1-0.2-0.1-0.3-0.2c0,0-0.1-0.1-0.1-0.1C5.6,12,6.8,12.1,7.9,12.1"/>
	<path class="st6" d="M-3.2-17.1C-6.3-14-8-9.9-8-5.5C-8-1.2-6.3,2.9-3.2,6c3.1,3.1,7.2,4.8,11.6,4.8c4.4,0,8.5-1.7,11.6-4.8
		c3.1-3.1,4.8-7.2,4.8-11.6c0-4.4-1.7-8.5-4.8-11.6c-3.1-3.1-7.2-4.8-11.6-4.8C4-21.9-0.2-20.2-3.2-17.1 M22.8-5.5
		c0,8-6.5,14.4-14.4,14.4S-6.1,2.4-6.1-5.5c0-8,6.5-14.4,14.4-14.4S22.8-13.5,22.8-5.5"/>
	<path class="st6" d="M5.3-12.2V0.2H3.1v-8.3c0-0.5-0.4-1-1-1h-4.1c-0.5,0-1,0.4-1,1v9.2c0,0.5,0.4,1,1,1h20.5c0.5,0,1-0.4,1-1V-9.1
		c0-0.5-0.4-1-1-1h-4.1c-0.5,0-1,0.4-1,1v9.3h-2.2v-12.4c0-0.5-0.4-1-1-1H6.3C5.7-13.2,5.3-12.7,5.3-12.2 M-1-7.2h2.2v7.3H-1V-7.2z
		 M15.4-8.2h2.2v8.3h-2.2V-8.2z M9.3,0.2l-2.2,0l0.2-11.4l2.2,0L9.3,0.2z"/>
</g>
<g id="Layer_7" class="st0">
	<path id="XMLID_186_" class="st6" d="M2.3,2.2c-1.3,1.3-2,3.1-2,4.9c0,1.9,0.7,3.6,2,4.9c1.3,1.3,3.1,2,4.9,2c1.9,0,3.6-0.7,4.9-2
		c1.3-1.3,2-3.1,2-4.9c0-1.9-0.7-3.6-2-4.9c-1.3-1.3-3.1-2-4.9-2C5.3,0.2,3.6,0.9,2.3,2.2 M13.3,7.1c0,3.4-2.7,6.1-6.1,6.1
		s-6.1-2.7-6.1-6.1C1.1,3.8,3.8,1,7.2,1S13.3,3.8,13.3,7.1"/>
	<path id="XMLID_181_" class="st6" d="M5.9,4.3v5.3H5V6.1c0-0.2-0.2-0.4-0.4-0.4H2.8c-0.2,0-0.4,0.2-0.4,0.4V10
		c0,0.2,0.2,0.4,0.4,0.4h8.7c0.2,0,0.4-0.2,0.4-0.4V5.6c0-0.2-0.2-0.4-0.4-0.4H9.8c-0.2,0-0.4,0.2-0.4,0.4v3.9H8.5V4.3
		c0-0.2-0.2-0.4-0.4-0.4H6.3C6.1,3.9,5.9,4.1,5.9,4.3 M3.2,6.5h0.9v3.1H3.2V6.5z M10.2,6h0.9v3.5h-0.9V6z M7.6,9.6l-0.9,0l0.1-4.8
		l0.9,0L7.6,9.6z"/>
</g>
<g id="Layer_8">
	<path id="XMLID_184_" class="st7" d="M13.4,5.3c0.3-0.9,0.4-1.6,0.4-2.3c0-0.5-0.3-1-0.6-1.4l-1.1-1.1c-0.3-0.3-0.6-0.4-1-0.4
		c-0.4,0-0.7,0.1-1,0.4C9.9,0.8,9.7,1,9.5,1.2C9.4,1.3,9.3,1.4,9.2,1.5L8.4,2.3C8.1,2.6,7.9,3,7.9,3.3c0,0.4,0.2,0.7,0.5,1
		c0.1,0.1,0.2,0.2,0.3,0.3c0.2,0.2,0.5,0.5,0.8,0.7C9.2,5.8,9,6.2,8.5,6.7C7.8,7.7,6.9,8.5,6,9.1C5.9,9.1,5.8,9.2,5.7,9.2
		c-0.1,0-0.2,0.1-0.3,0.1l-1-1c-0.3-0.3-0.6-0.5-1-0.5c-0.4,0-0.7,0.2-1,0.5l-1.7,1.7c-0.6,0.6-0.6,1.4,0,2c0.1,0.1,0.3,0.3,0.4,0.4
		c0.2,0.2,0.4,0.4,0.5,0.6c0,0,0,0,0,0c0.5,0.5,1,0.7,1.7,0.7c0.1,0,0.1,0,0.2,0c1-0.1,2-0.5,2.7-0.8c1.8-0.9,3.5-2.2,4.8-3.8
		C12.2,7.9,12.9,6.7,13.4,5.3 M12.7,5.1c-0.5,1.3-1.2,2.4-2.2,3.7c-1.3,1.5-2.8,2.7-4.6,3.6c-0.6,0.3-1.5,0.7-2.4,0.7
		c0,0-0.1,0-0.1,0c-0.5,0-0.9-0.2-1.2-0.5C2,12.4,1.8,12.2,1.6,12c-0.1-0.1-0.3-0.2-0.4-0.4c-0.3-0.4-0.3-0.7,0-1.1l1.7-1.7
		C3,8.7,3.2,8.6,3.4,8.6c0.2,0,0.4,0.1,0.5,0.3L5,9.9c0,0,0.2,0.2,0.4,0.2c0.1,0,0.2,0,0.3-0.1c0,0,0,0,0,0C5.8,10,5.9,9.9,6,9.8
		c0.1-0.1,0.3-0.1,0.4-0.2c1-0.6,1.9-1.4,2.7-2.5c0.5-0.6,0.8-1.1,1-1.6c0,0,0,0,0,0c0.1-0.2,0.1-0.4-0.1-0.6c0,0,0,0,0,0
		C9.7,4.7,9.4,4.4,9.2,4.1C9.1,4.1,9,4,8.9,3.9C8.7,3.7,8.6,3.5,8.6,3.4c0-0.2,0.1-0.4,0.3-0.5L9.7,2C9.8,1.9,9.9,1.8,10,1.7
		c0.2-0.2,0.4-0.4,0.6-0.6c0.2-0.2,0.3-0.2,0.5-0.2c0.2,0,0.4,0.1,0.5,0.2l1,1c0.3,0.3,0.4,0.6,0.4,1C13.1,3.7,13,4.3,12.7,5.1"/>
</g>
</svg>
