<?xml version="1.0" encoding="utf-8"?>
<!-- Generator: Adobe Illustrator 19.0.0, SVG Export Plug-In . SVG Version: 6.00 Build 0)  -->
<svg version="1.1" xmlns="http://www.w3.org/2000/svg" xmlns:xlink="http://www.w3.org/1999/xlink" x="0px" y="0px"
	 viewBox="0 0 27.3 27.3" style="enable-background:new 0 0 27.3 27.3;" xml:space="preserve">
<style type="text/css">
	.st0{display:none;}
	.st1{display:inline;}
	.st2{fill:#B08B43;}
</style>
<g id="Layer_1" class="st0">
	<g class="st1">
		<path class="st2" d="M25.6,12.8l-10-10.1L14.9,2c-0.8-0.7-2-0.7-2.7,0.2c-0.3,0.4-0.4,0.4-0.5,0.5L1.6,12.8c-0.4,0.4-0.4,1,0,1.4
			c0.4,0.4,1,0.4,1.4,0l0.8-0.8v9.2c0,1.6,1.3,2.9,2.9,2.9H12c0,0,0,0,0,0v-8.8h3.4v8.8c0,0,0,0,0,0h4.3c2.1,0,3.8-1.7,3.8-3.8
			c0-0.5-0.4-1-1-1c-0.7,0-1.2,0.8-0.8,1.5c0.4,0.6-0.2,1.4-0.9,1.4l-3.6,0v-8.8c0,0,0,0,0,0h-7.2v8.8H6.6c-0.5,0-1-0.4-1-1V11.5
			c0,0,0,0,0,0l7.4-7.4c0.4-0.3,0.9-0.3,1.2,0l7.3,7.3v10.3c0,0.5,0.4,1,1,1s1-0.4,1-1v-8.4l0.8,0.8c0.2,0.2,0.4,0.3,0.7,0.3
			c0.2,0,0.5-0.1,0.7-0.3C26,13.8,26,13.1,25.6,12.8"/>
	</g>
</g>
<g id="Layer_2">
	<path id="XMLID_145_" class="st2" d="M24.4,20.8c0.5,0,0.9-0.4,0.9-0.9v-6.5c0-2-1.6-3.6-3.6-3.6h-1.4V2.9c0-0.5-0.4-0.9-0.9-0.9H8
		C7.5,2,7.1,2.4,7.1,2.9v6.8H5.7c-2,0-3.6,1.6-3.6,3.6v6.5c0,2,1.6,3.6,3.6,3.6h1.4v0.9c0,0.5,0.4,0.9,0.9,0.9h11.4
		c0.5,0,0.9-0.4,0.9-0.9v-0.9h1.4c2,0,3.6-1.6,3.6-3.6c0-0.5-0.4-0.9-0.9-0.9c-0.5,0-0.9,0.4-0.9,0.9c0,1-0.8,1.8-1.8,1.8h-1.4v-3.8
		h0.5c0.5,0,0.9-0.4,0.9-0.9s-0.4-0.9-0.9-0.9H6.6c-0.5,0-0.9,0.4-0.9,0.9s0.4,0.9,0.9,0.9h0.5v3.8H5.7c-1,0-1.8-0.8-1.8-1.8v-6.5
		c0-1,0.8-1.8,1.8-1.8h16c1,0,1.8,0.8,1.8,1.8v6.5C23.5,20.3,23.9,20.8,24.4,20.8 M8.9,17.9h9.5v5.6H8.9V17.9z M18.4,9.7H8.9V3.9
		h9.5V9.7z"/>
</g>
</svg>
