<?xml version="1.0" encoding="utf-8"?>
<!-- Generator: Adobe Illustrator 19.0.0, SVG Export Plug-In . SVG Version: 6.00 Build 0)  -->
<svg version="1.1" xmlns="http://www.w3.org/2000/svg" xmlns:xlink="http://www.w3.org/1999/xlink" x="0px" y="0px"
	 viewBox="0 0 14.4 14.6" style="enable-background:new 0 0 14.4 14.6;" xml:space="preserve">
<style type="text/css">
	.st0{display:none;}
	.st1{display:inline;fill:#DCDBDB;}
	.st2{display:inline;fill:none;stroke:#DCDBDB;stroke-width:3;stroke-miterlimit:10;}
	.st3{display:inline;fill:#FFFFFF;}
	.st4{fill:#FFFFFF;}
	.st5{display:inline;fill:#E02B29;}
</style>
<g id="Layer_1" class="st0">
	<path class="st1" d="M13.5,0.8h-1.3V0.1c0-0.3-0.2-0.5-0.5-0.5c-0.3,0-0.5,0.2-0.5,0.5v0.7H4.7V0.1c0-0.3-0.2-0.5-0.5-0.5
		S3.8-0.2,3.8,0.1v0.7H2.4c-1.1,0-1.9,0.9-1.9,1.9v9.9c0,1.1,0.9,1.9,1.9,1.9h11.1c1.1,0,1.9-0.9,1.9-1.9V2.7
		C15.4,1.7,14.6,0.8,13.5,0.8 M2.4,1.7h1.3v0.5c0,0.3,0.2,0.5,0.5,0.5s0.5-0.2,0.5-0.5V1.7h6.5v0.5c0,0.3,0.2,0.5,0.5,0.5
		c0.3,0,0.5-0.2,0.5-0.5V1.7h1.3c0.5,0,1,0.4,1,1v1.1H1.4V2.7C1.4,2.2,1.9,1.7,2.4,1.7 M13.5,13.6H2.4c-0.5,0-1-0.4-1-1V4.8h13.1
		v7.9C14.5,13.2,14.1,13.6,13.5,13.6"/>
	<polyline class="st2" points="-6.9,6.9 5.4,19.2 17.7,6.9 	"/>
	<polyline class="st2" points="-6.9,-1.6 5.4,10.8 17.7,-1.6 	"/>
	<path id="XMLID_119_" class="st3" d="M-3.4,17.1c0.6,0,1-0.5,1-1V0.6c0-0.3,0.2-0.7,0.4-0.8C-1.7-0.4-1.3-0.5-1-0.4l8.3,3.8
		C9.1,4.3,11,4.8,13,4.9v6.9c-2.1,0.1-4.1,0.7-6,1.6l-8,3.9c-0.3,0.1-0.6,0-0.9-0.1c-0.3-0.2-0.4-0.5-0.4-0.9c0-0.6-0.5-1-1-1
		c-0.6,0-1,0.5-1,1c0,1,0.5,2,1.3,2.6c0.8,0.6,1.9,0.7,2.9,0.4c0,0,0.1,0,0.1,0l8.1-3.9c1.6-0.8,3.3-1.2,5.1-1.4v7.1
		c0,0.8,0.3,1.6,0.9,2.2c0.6,0.6,1.3,0.9,2.2,0.9c0,0,0,0,0.1,0c0.8,0,1.6-0.3,2.2-0.9c0.6-0.6,1-1.4,1-2.3v-7.2
		c1.7-0.5,2.9-2.1,2.9-4V7c0-2.3-1.9-4.2-4.2-4.2l-4.1,0c-2,0-4-0.4-5.8-1.3l-8.3-3.9c0,0-0.1,0-0.1,0c-1-0.3-2-0.2-2.8,0.4
		C-4-1.4-4.4-0.4-4.4,0.6v15.5C-4.4,16.7-4,17.1-3.4,17.1 M15.1,4.9l2.9,0h0c1.1,0,2.1,0.9,2.1,2.1v2.7c0,1.1-0.9,2-1.9,2.1
		c-0.5,0-1,0.5-1,1v8.1c0,0.3-0.1,0.6-0.3,0.8c-0.2,0.2-0.5,0.3-0.7,0.3c-0.6,0-1-0.5-1-1V4.9z"/>
</g>
<g id="Layer_2" class="st0">
	<path id="XMLID_123_" class="st4" d="M0.7,10.3c0.3,0,0.5-0.2,0.5-0.5V2c0-0.2,0.1-0.3,0.2-0.4c0.1-0.1,0.3-0.1,0.5-0.1L6,3.4
		c0.9,0.4,1.9,0.7,2.9,0.7v3.5c-1,0.1-2.1,0.3-3,0.8l-4,1.9c-0.2,0-0.3,0-0.5-0.1C1.3,10.2,1.2,10,1.2,9.8c0-0.3-0.2-0.5-0.5-0.5
		c-0.3,0-0.5,0.2-0.5,0.5c0,0.5,0.2,1,0.7,1.3c0.4,0.3,0.9,0.4,1.4,0.2c0,0,0,0,0,0l4.1-2C7.1,8.9,8,8.7,8.9,8.6v3.5
		c0,0.4,0.2,0.8,0.4,1.1c0.3,0.3,0.7,0.5,1.1,0.5c0,0,0,0,0,0c0.4,0,0.8-0.2,1.1-0.4c0.3-0.3,0.5-0.7,0.5-1.1V8.5
		c0.8-0.3,1.5-1.1,1.5-2V5.2c0-1.1-0.9-2.1-2.1-2.1l-2,0c-1,0-2-0.2-2.9-0.6L2.3,0.5c0,0,0,0,0,0c-0.5-0.2-1-0.1-1.4,0.2
		C0.4,1,0.2,1.5,0.2,2v7.7C0.2,10,0.4,10.3,0.7,10.3 M9.9,4.2l1.5,0h0c0.6,0,1,0.5,1,1v1.3c0,0.5-0.4,1-1,1c-0.3,0-0.5,0.2-0.5,0.5
		v4c0,0.1-0.1,0.3-0.2,0.4c-0.1,0.1-0.2,0.2-0.4,0.1c-0.3,0-0.5-0.2-0.5-0.5V4.2z"/>
</g>
<g id="Layer_3" class="st0">
</g>
<g id="Layer_4" class="st0">
	<path class="st5" d="M7.7,4.6l2.9,0h0c1.1,0,2.1,0.9,2.1,2.1v2.7c0,1.1-0.9,2-1.9,2.1c-0.5,0-1,0.5-1,1v8.1c0,0.3-0.1,0.6-0.3,0.8
		c-0.2,0.2-0.5,0.3-0.7,0.3c-0.6,0-1-0.5-1-1V4.6z"/>
</g>
<g id="Layer_5">
	<path id="XMLID_127_" class="st4" d="M0.6,10.8c0.3,0,0.6-0.3,0.6-0.6V1.9c0-0.2,0.1-0.4,0.2-0.5c0.1-0.1,0.3-0.1,0.5-0.1l4.5,2.1
		c1,0.5,2,0.7,3.1,0.8v3.7C8.3,8,7.2,8.3,6.2,8.8l-4.4,2.1c-0.2,0.1-0.3,0-0.5-0.1c-0.2-0.1-0.2-0.3-0.2-0.5c0-0.3-0.3-0.6-0.6-0.6
		C0.3,9.8,0,10.1,0,10.4c0,0.5,0.3,1.1,0.7,1.4c0.4,0.3,1,0.4,1.5,0.2c0,0,0,0,0.1,0l4.4-2.1c0.9-0.4,1.8-0.7,2.7-0.7v3.8
		c0,0.4,0.2,0.9,0.5,1.2c0.3,0.3,0.7,0.5,1.2,0.5c0,0,0,0,0,0c0.4,0,0.9-0.2,1.2-0.5c0.3-0.3,0.5-0.8,0.5-1.2V9
		c0.9-0.3,1.6-1.1,1.6-2.1V5.4c0-1.2-1-2.2-2.2-2.2l-2.2,0c-1.1,0-2.1-0.2-3.1-0.7L2.3,0.3c0,0,0,0,0,0C1.7,0.1,1.2,0.2,0.7,0.5
		C0.3,0.8,0,1.3,0,1.9v8.4C0,10.6,0.3,10.8,0.6,10.8 M10.6,4.2l1.6,0h0c0.6,0,1.1,0.5,1.1,1.1v1.5c0,0.6-0.5,1.1-1,1.1
		c-0.3,0-0.5,0.3-0.5,0.6v4.4c0,0.2-0.1,0.3-0.2,0.4c-0.1,0.1-0.2,0.2-0.4,0.2c-0.3,0-0.6-0.3-0.6-0.6V4.2z"/>
</g>
</svg>
