<?xml version="1.0" encoding="utf-8"?>
<!-- Generator: Adobe Illustrator 19.0.0, SVG Export Plug-In . SVG Version: 6.00 Build 0)  -->
<svg version="1.1" id="Layer_1" xmlns="http://www.w3.org/2000/svg" xmlns:xlink="http://www.w3.org/1999/xlink" x="0px" y="0px"
	 viewBox="0 0 20.5 20.3" style="enable-background:new 0 0 20.5 20.3;" xml:space="preserve">
<style type="text/css">
	.st0{clip-path:url(#XMLID_194_);fill:#414141;}
	.st1{clip-path:url(#XMLID_194_);fill:none;stroke:#414141;stroke-width:0.5;stroke-miterlimit:10;}
	.st2{clip-path:url(#XMLID_194_);fill:none;stroke:#DCDBDB;stroke-width:0.5;stroke-miterlimit:10;}
	.st3{clip-path:url(#XMLID_194_);fill:none;stroke:#DCDBDB;stroke-width:0.25;stroke-miterlimit:10;}
</style>
<g id="XMLID_2_">
	<defs>
		<rect id="XMLID_3_" x="-12.5" y="-516.6" width="1920" height="3466.8"/>
	</defs>
	<clipPath id="XMLID_194_">
		<use xlink:href="#XMLID_3_"  style="overflow:visible;"/>
	</clipPath>
	<path id="XMLID_63_" class="st0" d="M19.1-22.5l-7.3-7.4c0,0,0,0,0,0c-0.8-0.7-2-0.7-2.8,0c0,0,0,0,0,0l-7.4,7.4
		c-0.3,0.3-0.3,0.7,0,1c0.3,0.3,0.7,0.3,1,0L3-22.1v6.1c0,1.6,1.3,2.8,2.8,2.8h2.5c0.4,0,0.7-0.3,0.7-0.7v-5.7h2.5v5.7
		c0,0.4,0.3,0.7,0.7,0.7h2.5c1.6,0,2.8-1.3,2.8-2.8c0-0.4-0.3-0.7-0.7-0.7c-0.4,0-0.7,0.3-0.7,0.7c0,0.8-0.6,1.4-1.4,1.4h-1.8v-5.7
		c0-0.4-0.3-0.7-0.7-0.7H8.4c-0.4,0-0.7,0.3-0.7,0.7v5.7H5.8c-0.8,0-1.4-0.6-1.4-1.4v-7.5c0,0,0,0,0,0l5.4-5.4
		c0.3-0.2,0.6-0.2,0.9,0l5.4,5.4v7.6c0,0.4,0.3,0.7,0.7,0.7c0.4,0,0.7-0.3,0.7-0.7v-6.2l0.6,0.6c0.1,0.1,0.3,0.2,0.5,0.2
		c0.2,0,0.4-0.1,0.5-0.2C19.3-21.8,19.3-22.2,19.1-22.5"/>
	<path id="XMLID_60_" class="st0" d="M20.2,8c-0.3-0.9-1.1-1.5-2.1-1.5h-4c0,0,0,0,0,0c-0.2,0-0.4-0.2-0.5-0.4l-1.2-3.8
		c-0.3-0.9-1.1-1.5-2.1-1.5h0c-1,0-1.8,0.6-2.1,1.5L7,6.1C6.9,6.3,6.7,6.4,6.4,6.5c0,0,0,0,0,0h-4h0c-1,0-1.8,0.6-2.1,1.5
		c0,0.1,0,0.2-0.1,0.3c-0.1,0.3-0.1,0.7,0,1c0.1,0.4,0.4,0.8,0.8,1.1L2,11.1L3.3,12c0,0,0,0,0,0l1,0.7c0.2,0.2,0.3,0.4,0.2,0.7
		L4,15.3l-0.6,1.9c-0.1,0.2-0.1,0.5-0.1,0.7c0,0.2,0,0.4,0.1,0.7c0.1,0.4,0.4,0.8,0.8,1.1c0.4,0.3,0.8,0.4,1.3,0.4c0,0,0.1,0,0.1,0
		c0.4,0,0.8-0.1,1.2-0.4l2.2-1.6l1.1-0.8c0.1-0.1,0.2-0.1,0.3-0.1c0.1,0,0.2,0,0.3,0.1l1.1,0.8l2.2,1.6c0.4,0.3,0.8,0.4,1.2,0.4
		c0,0,0.1,0,0.1,0c0.4,0,0.9-0.1,1.3-0.4c0.2-0.1,0.4-0.3,0.5-0.5c0.3-0.4,0.4-0.8,0.4-1.2c0-0.2,0-0.5-0.1-0.7l-0.6-1.9l-0.6-1.9
		c-0.1-0.2,0-0.5,0.2-0.7l1-0.7l1.3-0.9l0.9-0.7C20.2,9.8,20.5,8.9,20.2,8 M15.2,11.5c-0.8,0.6-1.1,1.5-0.8,2.4l0.4,1.2l0.8,2.6
		c0.1,0.4-0.1,0.6-0.2,0.7c0,0-0.1,0.1-0.3,0.1c-0.1,0-0.3,0-0.4-0.1L11.5,16c-0.4-0.3-0.8-0.4-1.3-0.4c-0.4,0-0.9,0.1-1.3,0.4
		l-3.2,2.4c-0.2,0.1-0.3,0.1-0.4,0.1c-0.1,0-0.2-0.1-0.3-0.1c-0.1-0.1-0.3-0.3-0.2-0.7l0.8-2.6l0.4-1.2C6.4,13,6,12,5.3,11.5L4,10.6
		L2,9.1C1.7,8.9,1.8,8.6,1.8,8.5C1.9,8.4,2,8,2.4,8h4h0c0.1,0,0.1,0,0.2,0c0.9-0.1,1.6-0.6,1.9-1.4v0l1.2-3.8
		c0.1-0.4,0.5-0.4,0.6-0.4c0.1,0,0.4,0,0.6,0.4l1.2,3.8v0c0.3,0.8,1,1.4,1.9,1.4c0.1,0,0.1,0,0.2,0h4c0.4,0,0.5,0.3,0.6,0.4
		c0,0.1,0.1,0.4-0.2,0.7l-2,1.4L15.2,11.5z"/>
	<path id="XMLID_57_" class="st0" d="M18.6,48.5c0-0.2,0.1-0.4,0.1-0.7c0-0.1,0-0.3-0.1-0.4c0-0.2-0.1-0.3-0.2-0.5
		c-0.1-0.3-0.3-0.6-0.5-0.8c-0.9-0.9-1.7-1.4-2.4-1.6c-1-0.3-1.9,0-2.8,0.8c0,0,0,0,0,0l-0.9,0.9c-0.4-0.2-1.1-0.7-1.9-1.4
		C9.6,44.5,9.3,44.3,9,44l-0.1-0.1c-1.2-1.2-1.9-2.2-2.2-2.8l0.9-0.9l0,0c0.8-0.8,1.1-1.8,0.8-2.8c-0.2-0.7-0.7-1.5-1.6-2.4
		c-0.5-0.5-1.1-0.7-1.7-0.8c-0.2,0-0.4,0-0.6,0.1c-0.4,0.1-0.8,0.3-1.2,0.6l0,0c0,0,0,0,0,0c-0.2,0.2-0.5,0.5-0.6,0.8
		c-0.1,0.1-0.1,0.2-0.2,0.3c-0.1,0.2-0.2,0.4-0.3,0.6c-0.1,0.1-0.1,0.3-0.1,0.4C2.1,37.3,2,37.5,2,37.7c0,0.2,0,0.3,0,0.5
		c0,0.2-0.1,0.4-0.1,0.6v0c0,0.3,0,0.6,0.1,0.9C2,40,2,40.3,2.1,40.5c0,0,0,0.1,0,0.1c0.4,1.6,1.2,3.3,2.4,4.8c0,0,0,0,0,0
		c0,0.1,0.1,0.1,0.1,0.2c0.2,0.2,0.3,0.4,0.5,0.6c0.2,0.3,0.5,0.6,0.7,0.8c0,0,0,0,0,0c0.3,0.3,0.5,0.5,0.8,0.7
		C6.8,48,7,48.2,7.2,48.3c0.1,0,0.1,0.1,0.2,0.1c0,0,0,0,0,0c1.5,1.2,3.2,2,4.8,2.4c0,0,0.1,0,0.1,0c0.3,0.1,0.5,0.1,0.8,0.1
		c0.3,0,0.6,0.1,0.9,0.1h0c0.2,0,0.4,0,0.6-0.1c0.2,0,0.3,0,0.5,0c0.2,0,0.4-0.1,0.6-0.2c0.1,0,0.3-0.1,0.4-0.1
		c0.2-0.1,0.4-0.2,0.6-0.3c0.1-0.1,0.2-0.1,0.3-0.2c0.3-0.2,0.5-0.4,0.8-0.6c0,0,0,0,0,0l0,0l0,0C18.3,49.2,18.5,48.9,18.6,48.5
		 M17.3,47.9c0,0.3-0.1,0.5-0.3,0.7v0l0,0c0,0-0.1,0-0.1,0.1c-0.2,0.1-0.3,0.3-0.5,0.4c-0.1,0.1-0.2,0.1-0.3,0.1
		c-0.1,0.1-0.3,0.2-0.4,0.2c-0.1,0-0.2,0.1-0.3,0.1c-0.1,0-0.3,0.1-0.4,0.1c-0.1,0-0.3,0-0.4,0c-0.2,0-0.3,0-0.5,0h0c0,0,0,0,0,0
		c-0.2,0-0.5,0-0.7-0.1c-0.8-0.1-1.6-0.3-2.5-0.7c0,0,0,0-0.1,0C9.9,48.6,9,48,8.1,47.4c-0.2-0.2-0.4-0.4-0.7-0.5
		c-0.2-0.2-0.5-0.4-0.7-0.7c-0.2-0.2-0.5-0.5-0.7-0.7c-0.2-0.2-0.4-0.4-0.5-0.7C4.9,43.9,4.4,43,4,42.1c0,0,0,0,0-0.1
		c-0.4-0.9-0.6-1.7-0.7-2.5c0-0.3-0.1-0.5-0.1-0.7c0,0,0,0,0,0v0c0-0.2,0-0.3,0-0.5c0-0.1,0-0.3,0-0.4c0-0.2,0.1-0.3,0.1-0.5
		c0-0.1,0-0.2,0.1-0.3c0.1-0.2,0.1-0.3,0.2-0.4c0-0.1,0.1-0.2,0.1-0.3C3.9,36.3,4,36.1,4.2,36c0,0,0-0.1,0.1-0.1l0,0l0,0
		c0.5-0.4,1.2-0.4,1.6,0.1c1.7,1.8,1.6,2.6,0.8,3.4l-1.2,1.2c-0.2,0.2-0.2,0.5-0.1,0.7c0,0.1,0.8,1.7,2.6,3.6l0,0l0.1,0.1
		c1.9,1.9,3.5,2.6,3.6,2.6c0.2,0.1,0.5,0.1,0.7-0.1l1.2-1.2c0.8-0.8,1.6-0.9,3.4,0.8C17.2,47.3,17.3,47.5,17.3,47.9
		C17.4,47.9,17.3,47.9,17.3,47.9"/>
	<path id="XMLID_54_" class="st0" d="M10.3,84c-5,0-9.1-4.1-9.1-9.1c0-5,4.1-9.1,9.1-9.1s9.1,4.1,9.1,9.1C19.3,79.9,15.3,84,10.3,84
		 M10.3,67.2c-4.2,0-7.7,3.4-7.7,7.7c0,4.2,3.4,7.7,7.7,7.7s7.7-3.4,7.7-7.7C17.9,70.7,14.5,67.2,10.3,67.2"/>
	<path id="XMLID_53_" class="st0" d="M10.3,80.2c-2.4,0-4.4-2-4.4-4.4c0-0.4,0.3-0.7,0.7-0.7c0.4,0,0.7,0.3,0.7,0.7c0,1.6,1.3,3,3,3
		s3-1.3,3-3c0-0.4,0.3-0.7,0.7-0.7c0.4,0,0.7,0.3,0.7,0.7C14.6,78.2,12.7,80.2,10.3,80.2"/>
	<path id="XMLID_52_" class="st0" d="M17.2,261H3.4c-0.4,0-0.7-0.3-0.7-0.7s0.3-0.7,0.7-0.7h13.8c0.4,0,0.7,0.3,0.7,0.7
		S17.5,261,17.2,261"/>
	<path id="XMLID_51_" class="st0" d="M17.2,277.2H3.4c-0.4,0-0.7-0.3-0.7-0.7s0.3-0.7,0.7-0.7h13.8c0.4,0,0.7,0.3,0.7,0.7
		S17.5,277.2,17.2,277.2"/>
	<path id="XMLID_50_" class="st0" d="M17.2,269.1H3.4c-0.4,0-0.7-0.3-0.7-0.7s0.3-0.7,0.7-0.7h13.8c0.4,0,0.7,0.3,0.7,0.7
		S17.5,269.1,17.2,269.1"/>
	<path id="XMLID_47_" class="st0" d="M17.2,130h-14c-1.3,0-2.4,1.1-2.4,2.4v14c0,1.3,1.1,2.4,2.4,2.4h14c1.3,0,2.4-1.1,2.4-2.4v-14
		C19.7,131.1,18.6,130,17.2,130 M18.9,146.4c0,0.9-0.8,1.7-1.7,1.7h-14c-0.9,0-1.7-0.8-1.7-1.7v-14c0-0.9,0.8-1.7,1.7-1.7h14
		c0.9,0,1.7,0.8,1.7,1.7V146.4z"/>
	<path id="XMLID_44_" class="st1" d="M17.2,130h-14c-1.3,0-2.4,1.1-2.4,2.4v14c0,1.3,1.1,2.4,2.4,2.4h14c1.3,0,2.4-1.1,2.4-2.4v-14
		C19.7,131.1,18.6,130,17.2,130z M18.9,146.4c0,0.9-0.8,1.7-1.7,1.7h-14c-0.9,0-1.7-0.8-1.7-1.7v-14c0-0.9,0.8-1.7,1.7-1.7h14
		c0.9,0,1.7,0.8,1.7,1.7V146.4z"/>
	<path id="XMLID_43_" class="st0" d="M16,137.7L16,137.7c-0.5-0.6-1.2-0.9-2.1-0.9c-0.6,0-1.2,0.1-1.7,0.4c-0.2,0.1-0.4,0.3-0.7,0.5
		v-0.4c0-0.2-0.2-0.4-0.4-0.4H8.5c-0.2,0-0.4,0.2-0.4,0.4v8.2c0,0.2,0.2,0.4,0.4,0.4h2.7c0.2,0,0.4-0.2,0.4-0.4v-4.6
		c0-0.6,0.5-1.1,1-1.2l0.1,0c0.2,0,0.4,0.1,0.6,0.2c0.2,0.2,0.3,0.4,0.3,0.7v4.9c0,0.2,0.2,0.4,0.4,0.4h2.5c0.2,0,0.4-0.2,0.4-0.4
		v-5.2C16.8,139.2,16.5,138.3,16,137.7"/>
	<path id="XMLID_42_" class="st2" d="M16,137.7L16,137.7c-0.5-0.6-1.2-0.9-2.1-0.9c-0.6,0-1.2,0.1-1.7,0.4c-0.2,0.1-0.4,0.3-0.7,0.5
		v-0.4c0-0.2-0.2-0.4-0.4-0.4H8.5c-0.2,0-0.4,0.2-0.4,0.4v8.2c0,0.2,0.2,0.4,0.4,0.4h2.7c0.2,0,0.4-0.2,0.4-0.4v-4.6
		c0-0.6,0.5-1.1,1-1.2l0.1,0c0.2,0,0.4,0.1,0.6,0.2c0.2,0.2,0.3,0.4,0.3,0.7v4.9c0,0.2,0.2,0.4,0.4,0.4h2.5c0.2,0,0.4-0.2,0.4-0.4
		v-5.2C16.8,139.2,16.5,138.3,16,137.7z"/>
	<path id="XMLID_41_" class="st0" d="M7,137H4.3c-0.2,0-0.4,0.2-0.4,0.4v6.2v0.6v1.4c0,0.2,0.2,0.4,0.4,0.4H7c0.2,0,0.4-0.2,0.4-0.4
		v-8.2C7.3,137.2,7.2,137,7,137"/>
	<path id="XMLID_40_" class="st2" d="M7,137H4.3c-0.2,0-0.4,0.2-0.4,0.4v6.2v0.6v1.4c0,0.2,0.2,0.4,0.4,0.4H7c0.2,0,0.4-0.2,0.4-0.4
		v-8.2C7.3,137.2,7.2,137,7,137z"/>
	<path id="XMLID_39_" class="st0" d="M5.6,132.9c-1,0-1.9,0.8-1.9,1.9c0,1,0.8,1.9,1.9,1.9c1,0,1.9-0.8,1.9-1.9
		C7.5,133.7,6.6,132.9,5.6,132.9"/>
	<circle id="XMLID_38_" class="st2" cx="5.6" cy="134.8" r="1.9"/>
	<path id="XMLID_35_" class="st0" d="M19.7,165.7c-0.1-0.1-0.3-0.2-0.4-0.1c-0.2,0.1-0.5,0.2-0.7,0.3c0.3-0.4,0.5-0.8,0.7-1.3
		c0-0.1,0-0.3-0.1-0.4c-0.1-0.1-0.3-0.1-0.4,0c-0.7,0.4-1.4,0.7-2.1,0.8c-0.8-0.7-1.8-1.2-2.9-1.2c-2.3,0-4.1,1.9-4.1,4.1
		c0,0.2,0,0.3,0,0.5c-0.6-0.1-1.1-0.2-1.7-0.3c-1-0.3-2.4-0.9-3.2-1.5c0,0,0,0-0.1,0c-0.8-0.5-1.5-1.2-2.1-1.9
		c-0.1-0.1-0.2-0.1-0.3-0.1c-0.1,0-0.2,0.1-0.3,0.2c-0.4,0.6-0.6,1.3-0.6,2.1c0,0.9,0.3,1.8,0.8,2.5c-0.1,0-0.2-0.1-0.3-0.1
		c-0.1-0.1-0.3-0.1-0.4,0c-0.1,0.1-0.2,0.2-0.2,0.3v0c0,1.4,0.7,2.6,1.8,3.4c0,0,0,0,0,0c-0.1,0-0.3,0-0.3,0.1
		c-0.1,0.1-0.1,0.2-0.1,0.4c0.4,1.4,1.5,2.4,2.9,2.7c-1.1,0.7-2.4,1-3.7,1c-0.3,0-0.6,0-0.9,0c-0.2,0-0.3,0.1-0.4,0.2
		c-0.1,0.2,0,0.3,0.1,0.4c1.8,1.1,3.9,1.8,6,1.8c1.7,0,3.3-0.3,4.8-1c1.3-0.6,2.5-1.5,3.5-2.6c1.8-2.1,2.9-4.8,2.9-7.5v0l0-0.3
		c0.7-0.5,1.3-1.2,1.8-1.9C19.9,166,19.9,165.8,19.7,165.7 M17.4,167.6c-0.1,0.1-0.2,0.2-0.2,0.3l0,0.5c0,5.1-3.9,10.3-10.3,10.3
		c-1.5,0-2.9-0.3-4.3-0.9c1.6-0.1,3-0.7,4.3-1.7c0.1-0.1,0.2-0.3,0.1-0.4c0-0.1-0.2-0.3-0.3-0.3c-1.3,0-2.4-0.7-2.9-1.8
		c0,0,0.1,0,0.1,0c0.4,0,0.7,0,1.1-0.1c0.2,0,0.3-0.2,0.3-0.4c0-0.2-0.1-0.3-0.3-0.4c-1.4-0.3-2.4-1.4-2.7-2.8
		c0.4,0.2,0.8,0.2,1.3,0.2c0.2,0,0.3-0.1,0.4-0.3c0-0.2,0-0.3-0.1-0.4c-0.9-0.6-1.5-1.7-1.5-2.8c0-0.4,0.1-0.8,0.2-1.2
		c0.6,0.7,1.3,1.3,2,1.8c0,0,0,0,0,0c0.9,0.6,2.2,1.2,3.2,1.5c0,0,0,0,0,0c0,0,0,0,0.1,0c0,0,0,0,0,0c0,0,0.1,0,0.1,0
		c0.7,0.2,1.4,0.3,2.2,0.3c0.1,0,0.2,0,0.3-0.1c0.1-0.1,0.1-0.2,0.1-0.3c-0.1-0.3-0.1-0.5-0.1-0.8c0-1.9,1.5-3.4,3.4-3.4
		c0.9,0,1.8,0.4,2.5,1.1c0.1,0.1,0.2,0.1,0.3,0.1c0.5-0.1,1-0.2,1.5-0.4c-0.3,0.4-0.6,0.7-1,0.9c-0.2,0.1-0.2,0.3-0.2,0.4
		c0.1,0.2,0.2,0.3,0.4,0.3c0.3,0,0.7-0.1,1-0.2C18.1,167,17.7,167.3,17.4,167.6"/>
	<path id="XMLID_32_" class="st1" d="M19.7,165.7c-0.1-0.1-0.3-0.2-0.4-0.1c-0.2,0.1-0.5,0.2-0.7,0.3c0.3-0.4,0.5-0.8,0.7-1.3
		c0-0.1,0-0.3-0.1-0.4c-0.1-0.1-0.3-0.1-0.4,0c-0.7,0.4-1.4,0.7-2.1,0.8c-0.8-0.7-1.8-1.2-2.9-1.2c-2.3,0-4.1,1.9-4.1,4.1
		c0,0.2,0,0.3,0,0.5c-0.6-0.1-1.1-0.2-1.7-0.3c-1-0.3-2.4-0.9-3.2-1.5c0,0,0,0-0.1,0c-0.8-0.5-1.5-1.2-2.1-1.9
		c-0.1-0.1-0.2-0.1-0.3-0.1c-0.1,0-0.2,0.1-0.3,0.2c-0.4,0.6-0.6,1.3-0.6,2.1c0,0.9,0.3,1.8,0.8,2.5c-0.1,0-0.2-0.1-0.3-0.1
		c-0.1-0.1-0.3-0.1-0.4,0c-0.1,0.1-0.2,0.2-0.2,0.3v0c0,1.4,0.7,2.6,1.8,3.4c0,0,0,0,0,0c-0.1,0-0.3,0-0.3,0.1
		c-0.1,0.1-0.1,0.2-0.1,0.4c0.4,1.4,1.5,2.4,2.9,2.7c-1.1,0.7-2.4,1-3.7,1c-0.3,0-0.6,0-0.9,0c-0.2,0-0.3,0.1-0.4,0.2
		c-0.1,0.2,0,0.3,0.1,0.4c1.8,1.1,3.9,1.8,6,1.8c1.7,0,3.3-0.3,4.8-1c1.3-0.6,2.5-1.5,3.5-2.6c1.8-2.1,2.9-4.8,2.9-7.5v0l0-0.3
		c0.7-0.5,1.3-1.2,1.8-1.9C19.9,166,19.9,165.8,19.7,165.7z M17.4,167.6c-0.1,0.1-0.2,0.2-0.2,0.3l0,0.5c0,5.1-3.9,10.3-10.3,10.3
		c-1.5,0-2.9-0.3-4.3-0.9c1.6-0.1,3-0.7,4.3-1.7c0.1-0.1,0.2-0.3,0.1-0.4c0-0.1-0.2-0.3-0.3-0.3c-1.3,0-2.4-0.7-2.9-1.8
		c0,0,0.1,0,0.1,0c0.4,0,0.7,0,1.1-0.1c0.2,0,0.3-0.2,0.3-0.4c0-0.2-0.1-0.3-0.3-0.4c-1.4-0.3-2.4-1.4-2.7-2.8
		c0.4,0.2,0.8,0.2,1.3,0.2c0.2,0,0.3-0.1,0.4-0.3c0-0.2,0-0.3-0.1-0.4c-0.9-0.6-1.5-1.7-1.5-2.8c0-0.4,0.1-0.8,0.2-1.2
		c0.6,0.7,1.3,1.3,2,1.8c0,0,0,0,0,0c0.9,0.6,2.2,1.2,3.2,1.5c0,0,0,0,0,0c0,0,0,0,0.1,0c0,0,0,0,0,0c0,0,0.1,0,0.1,0
		c0.7,0.2,1.4,0.3,2.2,0.3c0.1,0,0.2,0,0.3-0.1c0.1-0.1,0.1-0.2,0.1-0.3c-0.1-0.3-0.1-0.5-0.1-0.8c0-1.9,1.5-3.4,3.4-3.4
		c0.9,0,1.8,0.4,2.5,1.1c0.1,0.1,0.2,0.1,0.3,0.1c0.5-0.1,1-0.2,1.5-0.4c-0.3,0.4-0.6,0.7-1,0.9c-0.2,0.1-0.2,0.3-0.2,0.4
		c0.1,0.2,0.2,0.3,0.4,0.3c0.3,0,0.7-0.1,1-0.2C18.1,167,17.7,167.3,17.4,167.6z"/>
	<path id="XMLID_31_" class="st0" d="M13.8,203.6l-5.4-3.1c-0.1-0.1-0.3-0.1-0.4,0c-0.1,0.1-0.2,0.2-0.2,0.4v6.2
		c0,0.2,0.1,0.3,0.2,0.4c0.1,0,0.1,0.1,0.2,0.1c0.1,0,0.1,0,0.2-0.1l5.4-3.1c0.1-0.1,0.2-0.2,0.2-0.4
		C14,203.8,13.9,203.7,13.8,203.6"/>
	<path id="XMLID_30_" class="st1" d="M13.8,203.6l-5.4-3.1c-0.1-0.1-0.3-0.1-0.4,0c-0.1,0.1-0.2,0.2-0.2,0.4v6.2
		c0,0.2,0.1,0.3,0.2,0.4c0.1,0,0.1,0.1,0.2,0.1c0.1,0,0.1,0,0.2-0.1l5.4-3.1c0.1-0.1,0.2-0.2,0.2-0.4
		C14,203.8,13.9,203.7,13.8,203.6z"/>
	<path id="XMLID_27_" class="st0" d="M21.4,203.9c0-0.1,0-3.6-0.5-5.3c-0.3-1.1-1.1-1.9-2.2-2.2c-1.1-0.3-15.7-0.3-16.9,0
		c-1.1,0.3-1.9,1.1-2.2,2.2c-0.5,1.7-0.5,5.2-0.5,5.3c0,0,0,0,0,0c0,0,0,0,0,0c0,0.1,0,3.6,0.5,5.3c0.3,1.1,1.1,1.9,2.2,2.2
		c1.1,0.3,15.7,0.3,16.9,0c1.1-0.3,1.9-1.1,2.2-2.2C21.3,207.5,21.4,204.1,21.4,203.9C21.4,203.9,21.4,203.9,21.4,203.9
		C21.4,203.9,21.4,203.9,21.4,203.9 M2.1,210.6c-0.8-0.2-1.4-0.8-1.6-1.6c-0.4-1.6-0.4-4.9-0.4-5.1c0-0.2,0-3.5,0.4-5.1
		c0.2-0.8,0.8-1.4,1.6-1.6c1.6-0.4,14.8-0.4,16.4,0c0.8,0.2,1.4,0.8,1.6,1.6c0.4,1.6,0.4,4.9,0.4,5.1c0,0.2,0,3.5-0.4,5.1
		c-0.2,0.8-0.8,1.4-1.6,1.6C16.9,211,3.6,211,2.1,210.6"/>
	<path id="XMLID_24_" class="st1" d="M21.4,203.9c0-0.1,0-3.6-0.5-5.3c-0.3-1.1-1.1-1.9-2.2-2.2c-1.1-0.3-15.7-0.3-16.9,0
		c-1.1,0.3-1.9,1.1-2.2,2.2c-0.5,1.7-0.5,5.2-0.5,5.3c0,0,0,0,0,0c0,0,0,0,0,0c0,0.1,0,3.6,0.5,5.3c0.3,1.1,1.1,1.9,2.2,2.2
		c1.1,0.3,15.7,0.3,16.9,0c1.1-0.3,1.9-1.1,2.2-2.2C21.3,207.5,21.4,204.1,21.4,203.9C21.4,203.9,21.4,203.9,21.4,203.9
		C21.4,203.9,21.4,203.9,21.4,203.9z M2.1,210.6c-0.8-0.2-1.4-0.8-1.6-1.6c-0.4-1.6-0.4-4.9-0.4-5.1c0-0.2,0-3.5,0.4-5.1
		c0.2-0.8,0.8-1.4,1.6-1.6c1.6-0.4,14.8-0.4,16.4,0c0.8,0.2,1.4,0.8,1.6,1.6c0.4,1.6,0.4,4.9,0.4,5.1c0,0.2,0,3.5-0.4,5.1
		c-0.2,0.8-0.8,1.4-1.6,1.6C16.9,211,3.6,211,2.1,210.6z"/>
	<path id="XMLID_21_" class="st0" d="M16,97.9H4.6c-1.9,0-3.5,1.6-3.5,3.5v11.4c0,1.9,1.6,3.5,3.5,3.5h5.7c0.2,0,0.4-0.2,0.4-0.4
		v-1.6v-1.2v-4.3c0-0.2-0.2-0.4-0.4-0.4H8.5v-1.8h1.8c0.2,0,0.4-0.2,0.4-0.4v-1.9c0-0.8,0.3-2.7,2.7-2.7h2.3v1.8h-1.7
		c-0.5,0-1,0.3-1,1.1v1.7c0,0.2,0.2,0.4,0.4,0.4h2.3l-0.2,1.9h-2.1c-0.2,0-0.4,0.2-0.4,0.4v7.1c0,0.2,0.2,0.4,0.4,0.4H16
		c1.9,0,3.5-1.6,3.5-3.5v-11.4C19.5,99.5,17.9,97.9,16,97.9 M18.8,112.8c0,1.5-1.3,2.8-2.8,2.8h-2.3v-6.4h2.1c0.2,0,0.3-0.1,0.4-0.3
		l0.3-2.6c0-0.1,0-0.2-0.1-0.3c-0.1-0.1-0.2-0.1-0.3-0.1h-2.3v-1.4c0-0.2,0.1-0.3,0.3-0.3h2c0.2,0,0.4-0.2,0.4-0.4v-2.5
		c0-0.2-0.2-0.4-0.4-0.4h-2.7c-1.5,0-2.3,0.7-2.7,1.2c-0.6,0.8-0.7,1.7-0.7,2.2v1.5H8.1c-0.2,0-0.4,0.2-0.4,0.4v2.6
		c0,0.2,0.2,0.4,0.4,0.4h1.8v3.9v1.2v1.2H4.6c-1.5,0-2.8-1.3-2.8-2.8v-11.4c0-1.5,1.3-2.8,2.8-2.8H16c1.5,0,2.8,1.3,2.8,2.8V112.8z"
		/>
	<path id="XMLID_18_" class="st1" d="M16,97.9H4.6c-1.9,0-3.5,1.6-3.5,3.5v11.4c0,1.9,1.6,3.5,3.5,3.5h5.7c0.2,0,0.4-0.2,0.4-0.4
		v-1.6v-1.2v-4.3c0-0.2-0.2-0.4-0.4-0.4H8.5v-1.8h1.8c0.2,0,0.4-0.2,0.4-0.4v-1.9c0-0.8,0.3-2.7,2.7-2.7h2.3v1.8h-1.7
		c-0.5,0-1,0.3-1,1.1v1.7c0,0.2,0.2,0.4,0.4,0.4h2.3l-0.2,1.9h-2.1c-0.2,0-0.4,0.2-0.4,0.4v7.1c0,0.2,0.2,0.4,0.4,0.4H16
		c1.9,0,3.5-1.6,3.5-3.5v-11.4C19.5,99.5,17.9,97.9,16,97.9z M18.8,112.8c0,1.5-1.3,2.8-2.8,2.8h-2.3v-6.4h2.1
		c0.2,0,0.3-0.1,0.4-0.3l0.3-2.6c0-0.1,0-0.2-0.1-0.3c-0.1-0.1-0.2-0.1-0.3-0.1h-2.3v-1.4c0-0.2,0.1-0.3,0.3-0.3h2
		c0.2,0,0.4-0.2,0.4-0.4v-2.5c0-0.2-0.2-0.4-0.4-0.4h-2.7c-1.5,0-2.3,0.7-2.7,1.2c-0.6,0.8-0.7,1.7-0.7,2.2v1.5H8.1
		c-0.2,0-0.4,0.2-0.4,0.4v2.6c0,0.2,0.2,0.4,0.4,0.4h1.8v3.9v1.2v1.2H4.6c-1.5,0-2.8-1.3-2.8-2.8v-11.4c0-1.5,1.3-2.8,2.8-2.8H16
		c1.5,0,2.8,1.3,2.8,2.8V112.8z"/>
	<path id="XMLID_15_" class="st0" d="M10.3,228.3c2.6,0,2.9,0,3.9,0.1c0.9,0,1.4,0.2,1.8,0.3c0.4,0.2,0.8,0.4,1.1,0.7
		c0.3,0.3,0.5,0.7,0.7,1.1c0.1,0.3,0.3,0.8,0.3,1.8c0,1,0.1,1.3,0.1,3.9c0,2.6,0,2.9-0.1,3.9c0,0.9-0.2,1.4-0.3,1.8
		c-0.2,0.4-0.4,0.8-0.7,1.1c-0.3,0.3-0.7,0.5-1.1,0.7c-0.3,0.1-0.8,0.3-1.8,0.3c-1,0-1.3,0.1-3.9,0.1s-2.9,0-3.9-0.1
		c-0.9,0-1.4-0.2-1.8-0.3c-0.4-0.2-0.8-0.4-1.1-0.7c-0.3-0.3-0.5-0.7-0.7-1.1c-0.1-0.3-0.3-0.8-0.3-1.8c0-1-0.1-1.3-0.1-3.9
		c0-2.6,0-2.9,0.1-3.9c0-0.9,0.2-1.4,0.3-1.8c0.2-0.4,0.4-0.8,0.7-1.1c0.3-0.3,0.7-0.5,1.1-0.7c0.3-0.1,0.8-0.3,1.8-0.3
		C7.4,228.3,7.7,228.3,10.3,228.3 M10.3,226.6c-2.6,0-2.9,0-3.9,0.1c-1,0-1.7,0.2-2.3,0.4c-0.6,0.2-1.2,0.6-1.7,1.1
		c-0.5,0.5-0.9,1.1-1.1,1.7c-0.2,0.6-0.4,1.3-0.4,2.3c0,1-0.1,1.3-0.1,3.9c0,2.6,0,2.9,0.1,3.9c0,1,0.2,1.7,0.4,2.3
		c0.2,0.6,0.6,1.2,1.1,1.7c0.5,0.5,1.1,0.9,1.7,1.1c0.6,0.2,1.3,0.4,2.3,0.4c1,0,1.3,0.1,3.9,0.1s2.9,0,3.9-0.1c1,0,1.7-0.2,2.3-0.4
		c0.6-0.2,1.2-0.6,1.7-1.1c0.5-0.5,0.9-1.1,1.1-1.7c0.2-0.6,0.4-1.3,0.4-2.3c0-1,0.1-1.3,0.1-3.9c0-2.6,0-2.9-0.1-3.9
		c0-1-0.2-1.7-0.4-2.3c-0.2-0.6-0.6-1.2-1.1-1.7c-0.5-0.5-1.1-0.9-1.7-1.1c-0.6-0.2-1.3-0.4-2.3-0.4
		C13.2,226.6,12.9,226.6,10.3,226.6"/>
	<path id="XMLID_12_" class="st3" d="M10.3,228.3c2.6,0,2.9,0,3.9,0.1c0.9,0,1.4,0.2,1.8,0.3c0.4,0.2,0.8,0.4,1.1,0.7
		c0.3,0.3,0.5,0.7,0.7,1.1c0.1,0.3,0.3,0.8,0.3,1.8c0,1,0.1,1.3,0.1,3.9c0,2.6,0,2.9-0.1,3.9c0,0.9-0.2,1.4-0.3,1.8
		c-0.2,0.4-0.4,0.8-0.7,1.1c-0.3,0.3-0.7,0.5-1.1,0.7c-0.3,0.1-0.8,0.3-1.8,0.3c-1,0-1.3,0.1-3.9,0.1s-2.9,0-3.9-0.1
		c-0.9,0-1.4-0.2-1.8-0.3c-0.4-0.2-0.8-0.4-1.1-0.7c-0.3-0.3-0.5-0.7-0.7-1.1c-0.1-0.3-0.3-0.8-0.3-1.8c0-1-0.1-1.3-0.1-3.9
		c0-2.6,0-2.9,0.1-3.9c0-0.9,0.2-1.4,0.3-1.8c0.2-0.4,0.4-0.8,0.7-1.1c0.3-0.3,0.7-0.5,1.1-0.7c0.3-0.1,0.8-0.3,1.8-0.3
		C7.4,228.3,7.7,228.3,10.3,228.3 M10.3,226.6c-2.6,0-2.9,0-3.9,0.1c-1,0-1.7,0.2-2.3,0.4c-0.6,0.2-1.2,0.6-1.7,1.1
		c-0.5,0.5-0.9,1.1-1.1,1.7c-0.2,0.6-0.4,1.3-0.4,2.3c0,1-0.1,1.3-0.1,3.9c0,2.6,0,2.9,0.1,3.9c0,1,0.2,1.7,0.4,2.3
		c0.2,0.6,0.6,1.2,1.1,1.7c0.5,0.5,1.1,0.9,1.7,1.1c0.6,0.2,1.3,0.4,2.3,0.4c1,0,1.3,0.1,3.9,0.1s2.9,0,3.9-0.1c1,0,1.7-0.2,2.3-0.4
		c0.6-0.2,1.2-0.6,1.7-1.1c0.5-0.5,0.9-1.1,1.1-1.7c0.2-0.6,0.4-1.3,0.4-2.3c0-1,0.1-1.3,0.1-3.9c0-2.6,0-2.9-0.1-3.9
		c0-1-0.2-1.7-0.4-2.3c-0.2-0.6-0.6-1.2-1.1-1.7c-0.5-0.5-1.1-0.9-1.7-1.1c-0.6-0.2-1.3-0.4-2.3-0.4
		C13.2,226.6,12.9,226.6,10.3,226.6z"/>
	<path id="XMLID_9_" class="st0" d="M10.3,231.2c-2.7,0-4.9,2.2-4.9,4.9c0,2.7,2.2,4.9,4.9,4.9s4.9-2.2,4.9-4.9
		C15.2,233.4,13,231.2,10.3,231.2 M10.3,239.3c-1.8,0-3.2-1.4-3.2-3.2s1.4-3.2,3.2-3.2c1.8,0,3.2,1.4,3.2,3.2S12,239.3,10.3,239.3"
		/>
	<path id="XMLID_6_" class="st3" d="M10.3,231.2c-2.7,0-4.9,2.2-4.9,4.9c0,2.7,2.2,4.9,4.9,4.9s4.9-2.2,4.9-4.9
		C15.2,233.4,13,231.2,10.3,231.2z M10.3,239.3c-1.8,0-3.2-1.4-3.2-3.2s1.4-3.2,3.2-3.2c1.8,0,3.2,1.4,3.2,3.2S12,239.3,10.3,239.3z
		"/>
	<path id="XMLID_5_" class="st0" d="M16.5,231c0,0.6-0.5,1.1-1.1,1.1c-0.6,0-1.1-0.5-1.1-1.1c0-0.6,0.5-1.1,1.1-1.1
		C16,229.9,16.5,230.4,16.5,231"/>
	<circle id="XMLID_4_" class="st3" cx="15.4" cy="231" r="1.1"/>
</g>
</svg>
