<?xml version="1.0" encoding="utf-8"?>
<!-- Generator: Adobe Illustrator 25.0.1, SVG Export Plug-In . SVG Version: 6.00 Build 0)  -->
<svg version="1.1" id="Layer_1" xmlns="http://www.w3.org/2000/svg" xmlns:xlink="http://www.w3.org/1999/xlink" x="0px" y="0px"
	 viewBox="0 0 75 75" style="enable-background:new 0 0 75 75;" xml:space="preserve">
<style type="text/css">
	.st0{fill:#F9F9F9;}
	.st1{fill:#B68A35;}
	.st2{fill:#2D2A26;}
	.st3{fill:url(#SVGID_3_);}
	.st4{fill:#FFFFFF;}
	.st5{fill:url(#SVGID_4_);}
	.st6{fill:url(#SVGID_5_);}
	.st7{fill:url(#SVGID_6_);}
	.st8{fill:url(#SVGID_7_);}
	.st9{fill:url(#SVGID_8_);}
	.st10{fill:url(#SVGID_9_);}
	.st11{fill:url(#SVGID_10_);}
	.st12{fill:url(#SVGID_11_);}
	.st13{fill:url(#SVGID_12_);}
	.st14{fill:url(#SVGID_13_);}
	.st15{fill:url(#SVGID_14_);}
	.st16{fill:url(#SVGID_15_);}
	.st17{fill-rule:evenodd;clip-rule:evenodd;fill:#2D2A26;}
	.st18{fill-rule:evenodd;clip-rule:evenodd;fill:#FFFFFF;}
	.st19{fill:none;}
	.st20{fill:#DBDBDA;}
	.st21{fill:url(#SVGID_16_);}
	.st22{fill:#00843D;}
	.st23{fill:url(#SVGID_17_);}
	.st24{fill:#C8102E;}
	.st25{fill:none;stroke:#DBDBDB;stroke-width:2;stroke-miterlimit:10;}
	.st26{fill:#B08B44;}
	.st27{fill:none;stroke:#B08B44;stroke-width:1.5;stroke-miterlimit:10;}
	.st28{fill:none;stroke:#FFFFFF;stroke-miterlimit:10;}
	.st29{fill:#E5E5E5;}
	.st30{fill:#404040;}
	.st31{fill:#404040;stroke:#404040;stroke-width:0.5;stroke-miterlimit:10;}
	.st32{fill:#404040;stroke:#DBDBDB;stroke-width:0.5;stroke-miterlimit:10;}
	.st33{fill:#404040;stroke:#DBDBDB;stroke-width:0.25;stroke-miterlimit:10;}
	.st34{fill:none;stroke:#DBDBDB;stroke-width:3;stroke-miterlimit:10;}
	.st35{clip-path:url(#SVGID_19_);}
	.st36{opacity:0.27;}
	.st37{clip-path:url(#SVGID_21_);}
	.st38{fill:#404040;stroke:#404040;stroke-width:0.75;stroke-miterlimit:10;}
	.st39{opacity:0.5;}
	.st40{clip-path:url(#SVGID_27_);}
	.st41{fill:none;stroke:#404040;stroke-linecap:square;stroke-miterlimit:10;}
	.st42{fill:none;stroke:#FFFFFF;stroke-linecap:square;stroke-miterlimit:10;}
	.st43{fill:#FFFFFF;fill-opacity:0;}
	.st44{fill:#A6A6A6;}
	.st45{fill:url(#SVGID_28_);}
	.st46{fill:url(#SVGID_29_);}
	.st47{fill:url(#SVGID_30_);}
	.st48{fill:url(#SVGID_31_);}
	.st49{opacity:0.2;enable-background:new    ;}
	.st50{opacity:0.12;enable-background:new    ;}
	.st51{opacity:0.25;fill:#FFFFFF;enable-background:new    ;}
	.st52{fill:#FFFFFF;stroke:#FFFFFF;stroke-width:0.2;stroke-miterlimit:10;}
	.st53{fill:none;stroke:#B08B44;stroke-width:2;stroke-miterlimit:10;}
</style>
<g>
	<g>
		<g>
			<g>
				<g>
					<path class="st30" d="M63.3,59h-1.8l-0.7-10.7c0-0.4-0.2-0.7-0.5-0.9L57.8,46c-0.3-0.2-0.8-0.2-1.1,0l-0.4,0.2l-0.5-6.7
						c0-0.4-0.2-0.7-0.5-0.9l-2.5-1.4c-0.3-0.2-0.8-0.2-1.1,0l-0.2,0.1l-0.7-9.8c0-0.4-0.2-0.7-0.5-0.9l-2.5-1.4
						c-0.3-0.2-0.7-0.2-1,0L46,11.9c0-0.4-0.2-0.7-0.5-0.9L43,9.6c-0.3-0.2-0.8-0.2-1.1,0L39.4,11c-0.3,0.2-0.5,0.6-0.5,0.9v0.3
						h-2.7V12c0-0.4-0.2-0.8-0.5-0.9l-2.5-1.4c-0.3-0.2-0.8-0.2-1.1,0L29.6,11c-0.3,0.2-0.5,0.5-0.5,0.9l-0.9,13.2
						c-0.3-0.2-0.7-0.1-1,0l-2.5,1.4c-0.3,0.2-0.5,0.5-0.5,0.9l-0.7,9.8l-0.2-0.1c-0.3-0.2-0.8-0.2-1.1,0l-2.5,1.4
						c-0.3,0.2-0.5,0.5-0.5,0.9l-0.5,6.7L18.3,46c-0.3-0.2-0.8-0.2-1.1,0l-2.5,1.4c-0.3,0.2-0.5,0.5-0.5,0.9L13.5,59h-1.8
						c-1.2,0-2.2,1-2.2,2.2v3.3c0,0.6,0.5,1.1,1.1,1.1h53.9c0.6,0,1.1-0.5,1.1-1.1v-3.3C65.5,59.9,64.5,59,63.3,59L63.3,59z
						 M32.6,11.8l1.4,0.8v0.8c0,0.6,0.5,1.1,1.1,1.1H40c0.6,0,1.1-0.5,1.1-1.1v-0.8l1.4-0.8l1.4,0.8l0.9,13.7l-0.4,0.2
						c-0.3,0.2-0.5,0.6-0.5,0.9v0.3h-2.7v-0.3c0-0.4-0.2-0.8-0.5-0.9L38,25.2c-0.3-0.2-0.8-0.2-1.1,0l-2.5,1.4
						c-0.3,0.2-0.5,0.6-0.5,0.9v0.3h-2.7v-0.3c0-0.4-0.2-0.8-0.5-0.9l-0.4-0.2l0.9-13.7L32.6,11.8z M26.2,28.2l1.4-0.8l1.4,0.8V29
						c0,0.6,0.5,1.1,1.1,1.1H35c0.6,0,1.1-0.5,1.1-1.1v-0.8l1.4-0.8l1.4,0.8V29c0,0.6,0.5,1.1,1.1,1.1h4.9c0.6,0,1.1-0.5,1.1-1.1
						v-0.8l1.4-0.8l1.4,0.8l0.7,10.3l-0.2,0.1c-0.3,0.2-0.5,0.6-0.5,0.9v0.3H46v-0.3c0-0.4-0.2-0.8-0.5-0.9L43,37.2
						c-0.3-0.2-0.8-0.2-1.1,0l-2.5,1.4c-0.3,0.2-0.5,0.6-0.5,0.9v0.3h-2.7v-0.3c0-0.4-0.2-0.8-0.5-0.9l-2.5-1.4
						c-0.3-0.2-0.8-0.2-1.1,0l-2.5,1.4c-0.3,0.2-0.5,0.6-0.5,0.9v0.3h-2.7v-0.3c0-0.4-0.2-0.8-0.5-0.9l-0.2-0.1L26.2,28.2z
						 M22.7,39.4l1.4,0.8V41c0,0.6,0.5,1.1,1.1,1.1h4.9c0.6,0,1.1-0.5,1.1-1.1v-0.8l1.4-0.8l1.4,0.8V41c0,0.6,0.5,1.1,1.1,1.1H40
						c0.6,0,1.1-0.5,1.1-1.1v-0.8l1.4-0.8l1.4,0.8V41c0,0.6,0.5,1.1,1.1,1.1h4.9c0.6,0,1.1-0.5,1.1-1.1v-0.8l1.4-0.8l1.4,0.8
						l0.5,7.2c-0.3,0.2-0.5,0.6-0.5,0.9v0.3h-2.7v-0.3c0-0.4-0.2-0.8-0.5-0.9L47.9,46c-0.3-0.2-0.8-0.2-1.1,0l-2.5,1.4
						c-0.3,0.2-0.5,0.6-0.5,0.9v0.3h-2.7v-0.3c0-0.4-0.2-0.8-0.5-0.9L38,46c-0.3-0.2-0.8-0.2-1.1,0l-2.5,1.4
						c-0.3,0.2-0.5,0.6-0.5,0.9v0.3h-2.7v-0.3c0-0.4-0.2-0.8-0.5-0.9L28.2,46c-0.3-0.2-0.8-0.2-1.1,0l-2.5,1.4
						c-0.3,0.2-0.5,0.6-0.5,0.9v0.3h-2.7v-0.3c0-0.4-0.2-0.7-0.5-0.9l0.5-7.2L22.7,39.4z M63.3,63.3H11.7v-2.2h35.6
						c1.5-0.1,1.5-2.1,0-2.2H15.7l0.7-10l1.4-0.8l1.4,0.8v0.8c0,0.6,0.5,1.1,1.1,1.1h4.9c0.6,0,1.1-0.5,1.1-1.1V49l1.4-0.8L29,49
						v0.8c0,0.6,0.5,1.1,1.1,1.1H35c0.6,0,1.1-0.5,1.1-1.1V49l1.4-0.8l1.4,0.8v0.8c0,0.6,0.5,1.1,1.1,1.1h4.9c0.6,0,1.1-0.5,1.1-1.1
						V49l1.4-0.8l1.4,0.8v0.8c0,0.6,0.5,1.1,1.1,1.1h4.9c0.6,0,1.1-0.5,1.1-1.1V49l1.4-0.8l1.4,0.8l0.7,10H42.4
						c-1.5,0.1-1.5,2.1,0,2.2l20.9,0L63.3,63.3L63.3,63.3z"/>
					<path class="st30" d="M30.1,35.5c0.6,0,1.1-0.5,1.1-1.1v-1.1c-0.1-1.5-2.1-1.5-2.2,0v1.1C29,35,29.5,35.5,30.1,35.5z"/>
					<path class="st30" d="M35,35.5c0.6,0,1.1-0.5,1.1-1.1v-1.1c-0.1-1.5-2.1-1.5-2.2,0v1.1C33.9,35,34.4,35.5,35,35.5z"/>
					<path class="st30" d="M40,35.5c0.6,0,1.1-0.5,1.1-1.1v-1.1c-0.1-1.5-2.1-1.5-2.2,0v1.1C38.9,35,39.4,35.5,40,35.5z"/>
					<path class="st30" d="M44.9,35.5c0.6,0,1.1-0.5,1.1-1.1v-1.1c-0.1-1.5-2.1-1.5-2.2,0v1.1C43.8,35,44.3,35.5,44.9,35.5z"/>
					<path class="st30" d="M35,20c0.6,0,1.1-0.5,1.1-1.1v-1.1c-0.1-1.5-2.1-1.5-2.2,0v1.1C33.9,19.5,34.4,20,35,20z"/>
					<path class="st30" d="M40,20c0.6,0,1.1-0.5,1.1-1.1v-1.1c-0.1-1.5-2.1-1.5-2.2,0v1.1C38.9,19.5,39.4,20,40,20z"/>
					<path class="st30" d="M37.5,59L37.5,59c-0.6,0-1.1,0.5-1.1,1.1c0.1,1.5,2.1,1.5,2.2,0C38.6,59.5,38.1,59,37.5,59z"/>
				</g>
			</g>
		</g>
	</g>
</g>
</svg>
