<?xml version="1.0" encoding="utf-8"?>
<!-- Generator: Adobe Illustrator 25.0.1, SVG Export Plug-In . SVG Version: 6.00 Build 0)  -->
<svg version="1.1" id="Layer_1" xmlns="http://www.w3.org/2000/svg" xmlns:xlink="http://www.w3.org/1999/xlink" x="0px" y="0px"
	 viewBox="0 0 75 75" style="enable-background:new 0 0 75 75;" xml:space="preserve">
<style type="text/css">
	.st0{fill:#F9F9F9;}
	.st1{fill:#B68A35;}
	.st2{fill:#2D2A26;}
	.st3{fill:url(#SVGID_3_);}
	.st4{fill:#FFFFFF;}
	.st5{fill:url(#SVGID_4_);}
	.st6{fill:url(#SVGID_5_);}
	.st7{fill:url(#SVGID_6_);}
	.st8{fill:url(#SVGID_7_);}
	.st9{fill:url(#SVGID_8_);}
	.st10{fill:url(#SVGID_9_);}
	.st11{fill:url(#SVGID_10_);}
	.st12{fill:url(#SVGID_11_);}
	.st13{fill:url(#SVGID_12_);}
	.st14{fill:url(#SVGID_13_);}
	.st15{fill:url(#SVGID_14_);}
	.st16{fill:url(#SVGID_15_);}
	.st17{fill-rule:evenodd;clip-rule:evenodd;fill:#2D2A26;}
	.st18{fill-rule:evenodd;clip-rule:evenodd;fill:#FFFFFF;}
	.st19{fill:none;}
	.st20{fill:#DBDBDA;}
	.st21{fill:url(#SVGID_16_);}
	.st22{fill:#00843D;}
	.st23{fill:url(#SVGID_17_);}
	.st24{fill:#C8102E;}
	.st25{fill:none;stroke:#DBDBDB;stroke-width:2;stroke-miterlimit:10;}
	.st26{fill:#B08B44;}
	.st27{fill:none;stroke:#B08B44;stroke-width:1.5;stroke-miterlimit:10;}
	.st28{fill:none;stroke:#FFFFFF;stroke-miterlimit:10;}
	.st29{fill:#E5E5E5;}
	.st30{fill:#404040;}
	.st31{fill:#404040;stroke:#404040;stroke-width:0.5;stroke-miterlimit:10;}
	.st32{fill:#404040;stroke:#DBDBDB;stroke-width:0.5;stroke-miterlimit:10;}
	.st33{fill:#404040;stroke:#DBDBDB;stroke-width:0.25;stroke-miterlimit:10;}
	.st34{fill:none;stroke:#DBDBDB;stroke-width:3;stroke-miterlimit:10;}
	.st35{clip-path:url(#SVGID_19_);}
	.st36{opacity:0.27;}
	.st37{clip-path:url(#SVGID_21_);}
	.st38{fill:#404040;stroke:#404040;stroke-width:0.75;stroke-miterlimit:10;}
	.st39{opacity:0.5;}
	.st40{clip-path:url(#SVGID_27_);}
	.st41{fill:none;stroke:#404040;stroke-linecap:square;stroke-miterlimit:10;}
	.st42{fill:none;stroke:#FFFFFF;stroke-linecap:square;stroke-miterlimit:10;}
	.st43{fill:#FFFFFF;fill-opacity:0;}
	.st44{fill:#A6A6A6;}
	.st45{fill:url(#SVGID_28_);}
	.st46{fill:url(#SVGID_29_);}
	.st47{fill:url(#SVGID_30_);}
	.st48{fill:url(#SVGID_31_);}
	.st49{opacity:0.2;enable-background:new    ;}
	.st50{opacity:0.12;enable-background:new    ;}
	.st51{opacity:0.25;fill:#FFFFFF;enable-background:new    ;}
	.st52{fill:#FFFFFF;stroke:#FFFFFF;stroke-width:0.2;stroke-miterlimit:10;}
	.st53{fill:none;stroke:#B08B44;stroke-width:2;stroke-miterlimit:10;}
</style>
<g>
	<path class="st30" d="M18.9,46.8c-1.4,1.3-2.4,2.7-3.2,4.4l-0.4,0.9l-6.8,8.6c-0.3,0.4-0.2,0.9,0.1,1.3c0.2,0.1,0.4,0.2,0.6,0.2
		c0.3,0,0.5-0.1,0.7-0.3l6.9-8.7c0-0.1,0.1-0.1,0.1-0.2l0.5-1c0.7-1.5,1.7-2.8,2.8-3.9c0.4-0.3,0.4-0.9,0-1.3
		C19.9,46.5,19.3,46.5,18.9,46.8L18.9,46.8z"/>
	<path class="st30" d="M65.9,40.8c-1.2-1.4-3.4-1.6-4.8-0.4l-0.5,0.4c-0.1-0.6-0.4-1.1-0.7-1.6c-1.2-1.4-3.4-1.6-4.8-0.4l-0.4,0.3
		c-0.1-0.5-0.4-1.1-0.7-1.5c-1.2-1.4-3.4-1.6-4.8-0.4l-6.8,5.8c-0.4-0.1-0.7-0.2-1.1-0.2H28.9c-5.3,0-8.4,2.4-9.9,3.9
		c-0.3,0.6,0.8,1.5,1.2,1.3c1.8-0.9,2.9-3.4,8.7-3.4h12.3c1.3,0,2.3,1,2.3,2.3c0,0.6-0.2,1.2-0.7,1.6c-0.4,0.4-1,0.7-1.6,0.6
		c0,0,0,0,0,0h-7.9c-0.5,0-0.9,0.4-0.9,0.9c0,0.5,0.4,0.9,0.9,0.9h7.9c0,0,0.1,0,0.1,0c1.1,0,2.1-0.4,2.8-1.2
		c0.1-0.1,0.2-0.2,0.3-0.3h7.5c0.8,0,1.6-0.3,2.2-0.8l8.2-7c0.7-0.6,1.7-0.5,2.3,0.2c0.6,0.7,0.5,1.7-0.2,2.3l-13,11
		c-1.2,1-2.7,1.7-4.3,1.9l-1.6,0.2c-0.5,0.1-0.8,0.5-0.8,1c0.1,0.5,0.4,0.8,0.9,0.8c0,0,0.1,0,0.1,0l1.6-0.2c1.9-0.2,3.7-1,5.2-2.3
		l13-11C66.9,44.4,67.1,42.2,65.9,40.8L65.9,40.8z M50.2,38.6c0.7-0.6,1.7-0.5,2.3,0.2c0.5,0.6,0.5,1.6,0,2.2l-7.3,6.2
		c0-0.1,0-0.1,0-0.2c0-1.2-0.5-2.2-1.3-3L50.2,38.6z M47.3,47.8l8.9-7.6c0.7-0.6,1.7-0.5,2.3,0.2c0.6,0.7,0.5,1.7-0.2,2.3l-5.5,4.7
		c-0.3,0.2-0.7,0.4-1,0.4H47.3z"/>
	<path class="st30" d="M45.4,57.3l-12.8,1.5c-0.2,0-0.4,0.1-0.6,0.3l-6,7.1c-0.3,0.4-0.3,0.9,0.1,1.3c0.2,0.1,0.4,0.2,0.6,0.2
		c0.3,0,0.5-0.1,0.7-0.3l5.7-6.9l12.5-1.5c0.5-0.1,0.8-0.5,0.8-1C46.3,57.6,45.9,57.3,45.4,57.3L45.4,57.3z"/>
	<path class="st30" d="M34.6,32.7c0,0-5.2-8.1-5.2-8.1c-0.9-1.2-1.5-2.7-1.7-4.2c-0.1-0.5-0.5-0.8-1-0.7c-0.5,0.1-0.8,0.5-0.7,1
		c0.3,1.8,1,3.5,2,5l5,7.8v1.3c0,0.4,0.1,0.7,0.4,1v3.1c0,1.4,1.2,2.6,2.6,2.6h3.1c1.4,0,2.6-1.2,2.6-2.6v-3.1
		c0.2-0.3,0.4-0.6,0.4-1v-1.3l5-7.8c1.4-2,2.1-4.3,2.1-6.7c0-3.9-1.9-7.5-5.1-9.6C40.8,7,36.8,6.6,32.9,8.1c-2.8,1.1-5,3.3-6.1,6.1
		c-0.3,0.8-0.5,1.5-0.7,2.3c-0.1,0.5,0.2,1,0.7,1c0.5,0.1,1-0.2,1-0.7c0.1-0.7,0.3-1.4,0.6-2c0.9-2.3,2.8-4.2,5.1-5.1
		c3.3-1.3,6.8-0.9,9.5,0.9c2.7,1.8,4.3,4.9,4.3,8.2c0,2.1-0.6,4-1.8,5.7c0,0-5.2,8.1-5.2,8.1c-0.1,0.1-0.1,0.3-0.1,0.5v1.4h-0.2
		l0.5-8.6h0.8c1.4,0,2.5-1.1,2.5-2.5v-0.1c0-1.4-1.1-2.5-2.5-2.5c-1.3,0-2.4,1-2.5,2.3l-0.1,0.9h-2.7l-0.1-0.9
		c-0.1-1.3-1.2-2.3-2.5-2.3c-1.4,0-2.5,1.1-2.5,2.5v0.1c0,1.4,1.1,2.5,2.5,2.5h0.8l0.5,8.6h-0.2v-1.4C34.8,33,34.7,32.8,34.6,32.7
		L34.6,32.7z M40.7,23.3c0-0.4,0.3-0.7,0.7-0.7c0.4,0,0.7,0.3,0.7,0.7v0.1c0,0.4-0.3,0.7-0.7,0.7h-0.7L40.7,23.3z M33.7,24.1
		c-0.4,0-0.7-0.3-0.7-0.7v-0.1c0-0.4,0.3-0.7,0.7-0.7c0.4,0,0.7,0.3,0.7,0.7l0,0.8L33.7,24.1L33.7,24.1z M39.9,38.8
		c0,0.5-0.4,0.8-0.8,0.8H36c-0.5,0-0.8-0.4-0.8-0.8v-2.5h4.8V38.8z M36.3,25.9h2.5l-0.5,8.6h-1.5L36.3,25.9z"/>
	<path class="st30" d="M52.9,19.9c0,0.5,0.4,0.9,0.9,0.9h2.1c0.5,0,0.9-0.4,0.9-0.9c0-0.5-0.4-0.9-0.9-0.9h-2.1
		C53.3,19,52.9,19.4,52.9,19.9z"/>
	<path class="st30" d="M52.4,15.1c0.1,0,0.2,0,0.3-0.1l2-0.7c0.5-0.2,0.7-0.7,0.5-1.1c-0.2-0.5-0.7-0.7-1.1-0.5l-2,0.7
		c-0.5,0.2-0.7,0.7-0.5,1.1C51.7,14.9,52.1,15.1,52.4,15.1z"/>
	<path class="st30" d="M52.1,26.3l2,0.7c0.1,0,0.2,0.1,0.3,0.1c0.4,0,0.7-0.2,0.8-0.6c0.2-0.5-0.1-1-0.5-1.1l-2-0.7
		c-0.5-0.2-1,0.1-1.1,0.5C51.4,25.6,51.7,26.1,52.1,26.3L52.1,26.3z"/>
	<path class="st30" d="M19.1,20.7h2.1c0.5,0,0.9-0.4,0.9-0.9c0-0.5-0.4-0.9-0.9-0.9h-2.1c-0.5,0-0.9,0.4-0.9,0.9
		C18.2,20.3,18.6,20.7,19.1,20.7z"/>
	<path class="st30" d="M20.4,14.4l2,0.7c0.1,0,0.2,0.1,0.3,0.1c0.4,0,0.7-0.2,0.8-0.6c0.2-0.5-0.1-1-0.5-1.1l-2-0.7
		c-0.5-0.2-1,0.1-1.1,0.5C19.7,13.7,19.9,14.2,20.4,14.4z"/>
	<path class="st30" d="M23.5,25.1c-0.2-0.5-0.7-0.7-1.1-0.5l-2,0.7c-0.5,0.2-0.7,0.7-0.5,1.1c0.1,0.4,0.5,0.6,0.8,0.6
		c0.1,0,0.2,0,0.3-0.1l2-0.7C23.4,26.1,23.6,25.6,23.5,25.1L23.5,25.1z"/>
	<path class="st30" d="M40.4,32.7c-0.1,0.1-0.1,0.3-0.1,0.5v1.4h-0.2l0.5-8.6h0.8c1.4,0,2.5-1.1,2.5-2.5v-0.1c0-1.4-1.1-2.5-2.5-2.5
		c-1.3,0-2.4,1-2.5,2.3l-0.1,0.9h-2.7l-0.1-0.9c-0.1-1.3-1.2-2.3-2.5-2.3c-1.4,0-2.5,1.1-2.5,2.5v0.1c0,1.4,1.1,2.5,2.5,2.5h0.8
		l0.5,8.6h-0.2v-1.4c0-0.2,0-0.3-0.1-0.5c0,0-5.2-8.1-5.2-8.1c-1.2-1.7-1.8-3.6-1.8-5.7c0-3.3,1.6-6.3,4.3-8.2
		c2.8-1.9,6.2-2.2,9.5-0.9c2.3,0.9,4.2,2.8,5.1,5.1c0.3,0.7,0.5,1.3,0.6,2c0.1,0.5,0.6,0.8,1,0.7c0.5-0.1,0.8-0.6,0.7-1
		c-0.2-0.8-0.4-1.6-0.7-2.3c-1.1-2.8-3.3-5-6.1-6.1C38.3,6.6,34.2,7,31,9.2c-3.2,2.2-5.1,5.8-5.1,9.6c0,2.4,0.7,4.7,2.1,6.7l5,7.8
		v1.3c0,0.4,0.1,0.7,0.4,1v3.1c0,1.4,1.2,2.6,2.6,2.6h3.1c1.4,0,2.6-1.2,2.6-2.6v-3.1c0.2-0.3,0.4-0.6,0.4-1v-1.3l5-7.8
		c1-1.5,1.7-3.2,2-5c0.1-0.5-0.3-0.9-0.7-1c-0.5-0.1-0.9,0.3-1,0.7c-0.2,1.5-0.8,3-1.7,4.2C45.6,24.6,40.4,32.7,40.4,32.7L40.4,32.7
		z M34.4,24.1h-0.7c-0.4,0-0.7-0.3-0.7-0.7v-0.1c0-0.4,0.3-0.7,0.7-0.7c0.4,0,0.7,0.3,0.7,0.7L34.4,24.1z M41.4,24.1h-0.7l0-0.8
		c0-0.4,0.3-0.7,0.7-0.7c0.4,0,0.7,0.3,0.7,0.7v0.1C42.1,23.8,41.8,24.1,41.4,24.1L41.4,24.1z M35.2,36.3h4.8v2.5
		c0,0.5-0.4,0.8-0.8,0.8H36c-0.5,0-0.8-0.4-0.8-0.8V36.3z M38.3,34.5h-1.5l-0.5-8.6h2.5L38.3,34.5z"/>
</g>
</svg>
