<?xml version="1.0" encoding="utf-8"?>
<!-- Generator: Adobe Illustrator 25.0.1, SVG Export Plug-In . SVG Version: 6.00 Build 0)  -->
<svg version="1.1" id="Layer_1" xmlns="http://www.w3.org/2000/svg" xmlns:xlink="http://www.w3.org/1999/xlink" x="0px" y="0px"
	 viewBox="0 0 75 75" style="enable-background:new 0 0 75 75;" xml:space="preserve">
<style type="text/css">
	.st0{fill:#F9F9F9;}
	.st1{fill:#B68A35;}
	.st2{fill:#2D2A26;}
	.st3{fill:url(#SVGID_3_);}
	.st4{fill:#FFFFFF;}
	.st5{fill:url(#SVGID_4_);}
	.st6{fill:url(#SVGID_5_);}
	.st7{fill:url(#SVGID_6_);}
	.st8{fill:url(#SVGID_7_);}
	.st9{fill:url(#SVGID_8_);}
	.st10{fill:url(#SVGID_9_);}
	.st11{fill:url(#SVGID_10_);}
	.st12{fill:url(#SVGID_11_);}
	.st13{fill:url(#SVGID_12_);}
	.st14{fill:url(#SVGID_13_);}
	.st15{fill:url(#SVGID_14_);}
	.st16{fill:url(#SVGID_15_);}
	.st17{fill-rule:evenodd;clip-rule:evenodd;fill:#2D2A26;}
	.st18{fill-rule:evenodd;clip-rule:evenodd;fill:#FFFFFF;}
	.st19{fill:none;}
	.st20{fill:#DBDBDA;}
	.st21{fill:url(#SVGID_16_);}
	.st22{fill:#00843D;}
	.st23{fill:url(#SVGID_17_);}
	.st24{fill:#C8102E;}
	.st25{fill:none;stroke:#DBDBDB;stroke-width:2;stroke-miterlimit:10;}
	.st26{fill:#B08B44;}
	.st27{fill:none;stroke:#B08B44;stroke-width:1.5;stroke-miterlimit:10;}
	.st28{fill:none;stroke:#FFFFFF;stroke-miterlimit:10;}
	.st29{fill:#E5E5E5;}
	.st30{fill:#404040;}
	.st31{fill:#404040;stroke:#404040;stroke-width:0.5;stroke-miterlimit:10;}
	.st32{fill:#404040;stroke:#DBDBDB;stroke-width:0.5;stroke-miterlimit:10;}
	.st33{fill:#404040;stroke:#DBDBDB;stroke-width:0.25;stroke-miterlimit:10;}
	.st34{fill:none;stroke:#DBDBDB;stroke-width:3;stroke-miterlimit:10;}
	.st35{clip-path:url(#SVGID_19_);}
	.st36{opacity:0.27;}
	.st37{clip-path:url(#SVGID_21_);}
	.st38{fill:#404040;stroke:#404040;stroke-width:0.75;stroke-miterlimit:10;}
	.st39{opacity:0.5;}
	.st40{clip-path:url(#SVGID_27_);}
	.st41{fill:none;stroke:#404040;stroke-linecap:square;stroke-miterlimit:10;}
	.st42{fill:none;stroke:#FFFFFF;stroke-linecap:square;stroke-miterlimit:10;}
	.st43{fill:#FFFFFF;fill-opacity:0;}
	.st44{fill:#A6A6A6;}
	.st45{fill:url(#SVGID_28_);}
	.st46{fill:url(#SVGID_29_);}
	.st47{fill:url(#SVGID_30_);}
	.st48{fill:url(#SVGID_31_);}
	.st49{opacity:0.2;enable-background:new    ;}
	.st50{opacity:0.12;enable-background:new    ;}
	.st51{opacity:0.25;fill:#FFFFFF;enable-background:new    ;}
	.st52{fill:#FFFFFF;stroke:#FFFFFF;stroke-width:0.2;stroke-miterlimit:10;}
	.st53{fill:none;stroke:#B08B44;stroke-width:2;stroke-miterlimit:10;}
</style>
<g>
	<g>
		<g>
			<path class="st38" d="M37.5,11c-3.4,0-6.2,2.8-6.2,6.2s2.8,6.2,6.2,6.2s6.2-2.8,6.2-6.2S40.9,11,37.5,11z M37.5,21.6
				c-2.5,0-4.5-2-4.5-4.5s2-4.5,4.5-4.5c2.5,0,4.5,2,4.5,4.5S40,21.6,37.5,21.6z"/>
		</g>
	</g>
	<g>
		<g>
			<path class="st38" d="M50,18.1c-2.5,0-4.5,2-4.5,4.5s2,4.5,4.5,4.5c2.5,0,4.5-2,4.5-4.5S52.4,18.1,50,18.1z M50,25.2
				c-1.5,0-2.7-1.2-2.7-2.7c0-1.5,1.2-2.7,2.7-2.7c1.5,0,2.7,1.2,2.7,2.7C52.6,24,51.4,25.2,50,25.2z"/>
		</g>
	</g>
	<g>
		<g>
			<path class="st38" d="M25.2,18.1c-2.5,0-4.5,2-4.5,4.5s2,4.5,4.5,4.5s4.5-2,4.5-4.5S27.6,18.1,25.2,18.1z M25.2,25.2
				c-1.5,0-2.7-1.2-2.7-2.7c0-1.5,1.2-2.7,2.7-2.7c1.5,0,2.7,1.2,2.7,2.7C27.8,24,26.6,25.2,25.2,25.2z"/>
		</g>
	</g>
	<g>
		<g>
			<path class="st38" d="M37.5,25.2c-6.4,0-11.6,5.2-11.6,11.6c0,0.5,0.4,0.9,0.9,0.9c0.5,0,0.9-0.4,0.9-0.9c0-5.4,4.4-9.8,9.8-9.8
				s9.8,4.4,9.8,9.8c0,0.5,0.4,0.9,0.9,0.9s0.9-0.4,0.9-0.9C49.1,30.4,43.9,25.2,37.5,25.2z"/>
		</g>
	</g>
	<g>
		<g>
			<path class="st38" d="M50,28.8c-1.5,0-2.9,0.4-4.2,1.2c-0.4,0.3-0.6,0.8-0.3,1.2c0.3,0.4,0.8,0.6,1.2,0.3c1-0.6,2.1-0.9,3.2-0.9
				c3.4,0,6.2,2.8,6.2,6.2c0,0.5,0.4,0.9,0.9,0.9c0.5,0,0.9-0.4,0.9-0.9C58,32.4,54.4,28.8,50,28.8z"/>
		</g>
	</g>
	<g>
		<g>
			<path class="st38" d="M29.2,29.9c-1.2-0.8-2.7-1.2-4.2-1.2c-4.4,0-8,3.6-8,8c0,0.5,0.4,0.9,0.9,0.9s0.9-0.4,0.9-0.9
				c0-3.4,2.8-6.2,6.2-6.2c1.1,0,2.3,0.3,3.2,0.9c0.4,0.3,1,0.1,1.2-0.3C29.7,30.7,29.6,30.2,29.2,29.9z"/>
		</g>
	</g>
	<path class="st38" d="M13.8,56.3l4.2,2.1v4.7c0,0.5,0.4,0.9,0.9,0.9h9.3c0.5,0,0.9-0.4,0.9-0.9V51.7c0-2.7-2-4.9-4.7-5.2l-0.1,0
		c-1.5-0.2-4.3-1.2-5.4-2.3l-2-2c-0.7-0.7-1.5-1-2.5-1v-7c0-1.9-1.6-3.5-3.5-3.5s-3.5,1.6-3.5,3.5v11.9C7.5,50.4,9.9,54.4,13.8,56.3
		L13.8,56.3z M9.2,34.2c0-1,0.8-1.8,1.8-1.8s1.8,0.8,1.8,1.8v7.5c-1.1,0.6-1.8,1.8-1.8,3c0,0.9,0.4,1.8,1,2.5l4.5,4.5
		c0.3,0.3,0.9,0.3,1.2,0c0.3-0.3,0.3-0.9,0-1.2L13.3,46c-0.3-0.3-0.5-0.8-0.5-1.2c0-0.7,0.5-1.4,1.2-1.7c0,0,0,0,0,0c0,0,0,0,0,0
		c0.6-0.2,1.3-0.1,1.8,0.4l2,2c2,2,6.5,2.8,6.5,2.8c1.8,0.2,3.1,1.7,3.1,3.4v10.6h-7.6v-4.4c0-0.3-0.2-0.6-0.5-0.8l-4.7-2.4
		c-3.3-1.6-5.3-5-5.3-8.6L9.2,34.2z"/>
	<path class="st38" d="M61.2,56.3c3.9-1.9,6.3-5.9,6.3-10.2V34.2c0-1.9-1.6-3.5-3.5-3.5s-3.5,1.6-3.5,3.5v7c-0.9,0-1.8,0.4-2.5,1
		l-2,2c-1.1,1.1-3.8,2.1-5.4,2.3l-0.1,0c-2.7,0.3-4.7,2.5-4.7,5.2v11.5c0,0.5,0.4,0.9,0.9,0.9h9.3c0.5,0,0.9-0.4,0.9-0.9v-4.7
		L61.2,56.3L61.2,56.3z M65.8,46.1c0,3.7-2,7-5.3,8.6l-4.7,2.4c-0.3,0.1-0.5,0.5-0.5,0.8v4.4h-7.6V51.7c0-1.8,1.3-3.3,3.1-3.4
		c0,0,4.5-0.8,6.5-2.8l2-2c0.5-0.5,1.2-0.6,1.8-0.4c0,0,0,0,0,0c0,0,0,0,0,0c0.7,0.2,1.2,0.9,1.2,1.7c0,0.5-0.2,0.9-0.5,1.2
		l-4.5,4.5c-0.3,0.3-0.3,0.9,0,1.2c0.3,0.3,0.9,0.3,1.2,0l4.5-4.5c0.7-0.7,1-1.5,1-2.5c0-1.3-0.7-2.4-1.8-3v-7.5
		c0-1,0.8-1.8,1.8-1.8c1,0,1.8,0.8,1.8,1.8V46.1z"/>
</g>
</svg>
