<?xml version="1.0" encoding="utf-8"?>
<!-- Generator: Adobe Illustrator 25.0.1, SVG Export Plug-In . SVG Version: 6.00 Build 0)  -->
<svg version="1.1" id="Layer_1" xmlns="http://www.w3.org/2000/svg" xmlns:xlink="http://www.w3.org/1999/xlink" x="0px" y="0px"
	 viewBox="0 0 75 75" style="enable-background:new 0 0 75 75;" xml:space="preserve">
<style type="text/css">
	.st0{fill:#F9F9F9;}
	.st1{fill:#B68A35;}
	.st2{fill:#2D2A26;}
	.st3{fill:url(#SVGID_3_);}
	.st4{fill:#FFFFFF;}
	.st5{fill:url(#SVGID_4_);}
	.st6{fill:url(#SVGID_5_);}
	.st7{fill:url(#SVGID_6_);}
	.st8{fill:url(#SVGID_7_);}
	.st9{fill:url(#SVGID_8_);}
	.st10{fill:url(#SVGID_9_);}
	.st11{fill:url(#SVGID_10_);}
	.st12{fill:url(#SVGID_11_);}
	.st13{fill:url(#SVGID_12_);}
	.st14{fill:url(#SVGID_13_);}
	.st15{fill:url(#SVGID_14_);}
	.st16{fill:url(#SVGID_15_);}
	.st17{fill-rule:evenodd;clip-rule:evenodd;fill:#2D2A26;}
	.st18{fill-rule:evenodd;clip-rule:evenodd;fill:#FFFFFF;}
	.st19{fill:none;}
	.st20{fill:#DBDBDA;}
	.st21{fill:url(#SVGID_16_);}
	.st22{fill:#00843D;}
	.st23{fill:url(#SVGID_17_);}
	.st24{fill:#C8102E;}
	.st25{fill:none;stroke:#DBDBDB;stroke-width:2;stroke-miterlimit:10;}
	.st26{fill:#B08B44;}
	.st27{fill:none;stroke:#B08B44;stroke-width:1.5;stroke-miterlimit:10;}
	.st28{fill:none;stroke:#FFFFFF;stroke-miterlimit:10;}
	.st29{fill:#E5E5E5;}
	.st30{fill:#404040;}
	.st31{fill:#404040;stroke:#404040;stroke-width:0.5;stroke-miterlimit:10;}
	.st32{fill:#404040;stroke:#DBDBDB;stroke-width:0.5;stroke-miterlimit:10;}
	.st33{fill:#404040;stroke:#DBDBDB;stroke-width:0.25;stroke-miterlimit:10;}
	.st34{fill:none;stroke:#DBDBDB;stroke-width:3;stroke-miterlimit:10;}
	.st35{clip-path:url(#SVGID_19_);}
	.st36{opacity:0.27;}
	.st37{clip-path:url(#SVGID_21_);}
	.st38{fill:#404040;stroke:#404040;stroke-width:0.75;stroke-miterlimit:10;}
	.st39{opacity:0.5;}
	.st40{clip-path:url(#SVGID_27_);}
	.st41{fill:none;stroke:#404040;stroke-linecap:square;stroke-miterlimit:10;}
	.st42{fill:none;stroke:#FFFFFF;stroke-linecap:square;stroke-miterlimit:10;}
	.st43{fill:#FFFFFF;fill-opacity:0;}
	.st44{fill:#A6A6A6;}
	.st45{fill:url(#SVGID_28_);}
	.st46{fill:url(#SVGID_29_);}
	.st47{fill:url(#SVGID_30_);}
	.st48{fill:url(#SVGID_31_);}
	.st49{opacity:0.2;enable-background:new    ;}
	.st50{opacity:0.12;enable-background:new    ;}
	.st51{opacity:0.25;fill:#FFFFFF;enable-background:new    ;}
	.st52{fill:#FFFFFF;stroke:#FFFFFF;stroke-width:0.2;stroke-miterlimit:10;}
	.st53{fill:none;stroke:#B08B44;stroke-width:2;stroke-miterlimit:10;}
</style>
<g id="Layer_2_1_">
	<path class="st38" d="M55.2,11.3h-7.1v-2c0-0.4-0.4-0.8-0.8-0.8H27.7c-0.4,0-0.8,0.4-0.8,0.8v2h-7.1c-1.7,0-3.1,1.4-3.1,3.1v49.1
		c0,1.7,1.4,3.1,3.1,3.1h35.4c1.7,0,3.1-1.4,3.1-3.1V14.3C58.3,12.7,56.9,11.3,55.2,11.3z M52.1,17.4v43H22.9v-43H52.1z M28.5,10
		h17.9v5.8H28.5V10z M56.7,63.5c0,0.8-0.7,1.5-1.5,1.5H19.8c-0.8,0-1.5-0.7-1.5-1.5V14.3c0-0.8,0.7-1.5,1.5-1.5h7.1v3h-4.9
		c-0.4,0-0.8,0.4-0.8,0.8c0,0,0,0,0,0v44.6c0,0.4,0.4,0.8,0.8,0.8c0,0,0,0,0,0h30.9c0.4,0,0.8-0.4,0.8-0.8c0,0,0,0,0,0V16.6
		c0-0.4-0.4-0.8-0.8-0.8c0,0,0,0,0,0h-4.9v-3h7.1c0.8,0,1.5,0.7,1.5,1.5V63.5z"/>
	<path class="st38" d="M32.1,13.7h10.8c0.4,0,0.8-0.4,0.8-0.8s-0.4-0.8-0.8-0.8H32.1c-0.4,0-0.8,0.4-0.8,0.8S31.6,13.7,32.1,13.7z"
		/>
	<path class="st38" d="M27.7,37.3h4c0.4,0,0.8-0.4,0.8-0.8c0,0,0,0,0,0v-4c0-0.4-0.4-0.8-0.8-0.8c0,0,0,0,0,0h-4
		c-0.4,0-0.8,0.4-0.8,0.8c0,0,0,0,0,0v4C26.9,36.9,27.3,37.3,27.7,37.3C27.7,37.3,27.7,37.3,27.7,37.3z M28.5,33.2H31v2.4h-2.4V33.2
		z"/>
	<path class="st38" d="M27.7,46.2h4c0.4,0,0.8-0.4,0.8-0.8c0,0,0,0,0,0v-4c0-0.4-0.4-0.8-0.8-0.8c0,0,0,0,0,0h-4
		c-0.4,0-0.8,0.4-0.8,0.8c0,0,0,0,0,0v4C26.9,45.8,27.3,46.2,27.7,46.2z M28.5,42.2H31v2.4h-2.4V42.2z"/>
	<path class="st38" d="M27.7,55.1h4c0.4,0,0.8-0.4,0.8-0.8c0,0,0,0,0,0v-4c0-0.4-0.4-0.8-0.8-0.8c0,0,0,0,0,0h-4
		c-0.4,0-0.8,0.4-0.8,0.8c0,0,0,0,0,0v4C26.9,54.8,27.3,55.1,27.7,55.1C27.7,55.1,27.7,55.1,27.7,55.1z M28.5,51.1H31v2.4h-2.4V51.1
		z"/>
	<path class="st38" d="M36.6,26.3h10.7c0.4,0,0.8-0.4,0.8-0.8c0-0.4-0.4-0.8-0.8-0.8H36.6c-0.4,0-0.8,0.4-0.8,0.8
		C35.8,26,36.2,26.3,36.6,26.3z"/>
	<path class="st38" d="M36.6,35.2h10.7c0.4,0,0.8-0.4,0.8-0.8c0-0.4-0.4-0.8-0.8-0.8H36.6c-0.4,0-0.8,0.4-0.8,0.8
		C35.8,34.9,36.2,35.2,36.6,35.2z"/>
	<path class="st38" d="M36.6,44.2h10.7c0.4,0,0.8-0.4,0.8-0.8s-0.4-0.8-0.8-0.8H36.6c-0.4,0-0.8,0.4-0.8,0.8S36.2,44.2,36.6,44.2z"
		/>
	<path class="st38" d="M36.6,53.1h10.7c0.4,0,0.8-0.4,0.8-0.8c0-0.4-0.4-0.8-0.8-0.8H36.6c-0.4,0-0.8,0.4-0.8,0.8
		C35.8,52.7,36.2,53.1,36.6,53.1z"/>
	<path class="st38" d="M28.7,28.1c0.3,0.3,0.8,0.3,1.1,0c0,0,0.1-0.1,0.1-0.1l2.5-4c0.2-0.4,0.1-0.9-0.2-1.1
		c-0.4-0.2-0.9-0.1-1.1,0.2c0,0,0,0,0,0l-1.9,3.2l-0.8-0.8c-0.3-0.3-0.8-0.3-1.1,0c-0.3,0.3-0.3,0.8,0,1.1L28.7,28.1z"/>
</g>
</svg>
