<?xml version="1.0" encoding="utf-8"?>
<!-- Generator: Adobe Illustrator 25.0.1, SVG Export Plug-In . SVG Version: 6.00 Build 0)  -->
<svg version="1.1" id="Layer_1" xmlns="http://www.w3.org/2000/svg" xmlns:xlink="http://www.w3.org/1999/xlink" x="0px" y="0px"
	 viewBox="0 0 75 75" style="enable-background:new 0 0 75 75;" xml:space="preserve">
<style type="text/css">
	.st0{fill:#F9F9F9;}
	.st1{fill:#B68A35;}
	.st2{fill:#2D2A26;}
	.st3{fill:url(#SVGID_3_);}
	.st4{fill:#FFFFFF;}
	.st5{fill:url(#SVGID_4_);}
	.st6{fill:url(#SVGID_5_);}
	.st7{fill:url(#SVGID_6_);}
	.st8{fill:url(#SVGID_7_);}
	.st9{fill:url(#SVGID_8_);}
	.st10{fill:url(#SVGID_9_);}
	.st11{fill:url(#SVGID_10_);}
	.st12{fill:url(#SVGID_11_);}
	.st13{fill:url(#SVGID_12_);}
	.st14{fill:url(#SVGID_13_);}
	.st15{fill:url(#SVGID_14_);}
	.st16{fill:url(#SVGID_15_);}
	.st17{fill-rule:evenodd;clip-rule:evenodd;fill:#2D2A26;}
	.st18{fill-rule:evenodd;clip-rule:evenodd;fill:#FFFFFF;}
	.st19{fill:none;}
	.st20{fill:#DBDBDA;}
	.st21{fill:url(#SVGID_16_);}
	.st22{fill:#00843D;}
	.st23{fill:url(#SVGID_17_);}
	.st24{fill:#C8102E;}
	.st25{fill:none;stroke:#DBDBDB;stroke-width:2;stroke-miterlimit:10;}
	.st26{fill:#B08B44;}
	.st27{fill:none;stroke:#B08B44;stroke-width:1.5;stroke-miterlimit:10;}
	.st28{fill:none;stroke:#FFFFFF;stroke-miterlimit:10;}
	.st29{fill:#E5E5E5;}
	.st30{fill:#404040;}
	.st31{fill:#404040;stroke:#404040;stroke-width:0.5;stroke-miterlimit:10;}
	.st32{fill:#404040;stroke:#DBDBDB;stroke-width:0.5;stroke-miterlimit:10;}
	.st33{fill:#404040;stroke:#DBDBDB;stroke-width:0.25;stroke-miterlimit:10;}
	.st34{fill:none;stroke:#DBDBDB;stroke-width:3;stroke-miterlimit:10;}
	.st35{clip-path:url(#SVGID_19_);}
	.st36{opacity:0.27;}
	.st37{clip-path:url(#SVGID_21_);}
	.st38{fill:#404040;stroke:#404040;stroke-width:0.75;stroke-miterlimit:10;}
	.st39{opacity:0.5;}
	.st40{clip-path:url(#SVGID_27_);}
	.st41{fill:none;stroke:#404040;stroke-linecap:square;stroke-miterlimit:10;}
	.st42{fill:none;stroke:#FFFFFF;stroke-linecap:square;stroke-miterlimit:10;}
	.st43{fill:#FFFFFF;fill-opacity:0;}
	.st44{fill:#A6A6A6;}
	.st45{fill:url(#SVGID_28_);}
	.st46{fill:url(#SVGID_29_);}
	.st47{fill:url(#SVGID_30_);}
	.st48{fill:url(#SVGID_31_);}
	.st49{opacity:0.2;enable-background:new    ;}
	.st50{opacity:0.12;enable-background:new    ;}
	.st51{opacity:0.25;fill:#FFFFFF;enable-background:new    ;}
	.st52{fill:#FFFFFF;stroke:#FFFFFF;stroke-width:0.2;stroke-miterlimit:10;}
	.st53{fill:none;stroke:#B08B44;stroke-width:2;stroke-miterlimit:10;}
</style>
<g id="Outline_1_">
	<path class="st30" d="M11.1,37.8c-0.4-0.4-1-0.4-1.3,0c-0.2,0.2-0.3,0.4-0.3,0.7v26.1c0,0.5,0.4,0.9,0.9,0.9h26.1
		c0.5,0,0.9-0.4,0.9-0.9c0-0.2-0.1-0.5-0.3-0.7L11.1,37.8z M11.4,63.6V40.7l22.9,22.9H11.4z"/>
	<path class="st30" d="M16,59.9h7.5c0.5,0,0.9-0.4,0.9-0.9c0-0.2-0.1-0.5-0.3-0.7l-7.5-7.5c-0.4-0.4-1-0.4-1.3,0
		c-0.2,0.2-0.3,0.4-0.3,0.7V59C15.1,59.5,15.5,59.9,16,59.9z M17,53.8l4.3,4.3H17V53.8z"/>
	<path class="st30" d="M19.8,13.2h1.9v1.9h-1.9V13.2z"/>
	<path class="st30" d="M23.5,13.2h1.9v1.9h-1.9V13.2z"/>
	<path class="st30" d="M27.2,13.2h1.9v1.9h-1.9V13.2z"/>
	<path class="st30" d="M28.7,26.4c-0.3,0.1-0.6,0.5-0.6,0.9v10.3c0,0.4,0.2,0.7,0.6,0.9l8.4,3.7c0.2,0.1,0.5,0.1,0.8,0v0l8.4-3.7
		c0.3-0.1,0.6-0.5,0.6-0.9V27.2c0-0.4-0.2-0.7-0.6-0.9v0l-8.4-3.7c-0.2-0.1-0.5-0.1-0.8,0L28.7,26.4L28.7,26.4z M36.6,39.8L30,36.9
		v-8.2l6.5,2.9V39.8z M45,36.9l-6.5,2.9v-8.2l6.5-2.9V36.9z M37.5,24.5l6.1,2.7l-6.1,2.7l-6.1-2.7L37.5,24.5z"/>
	<path class="st30" d="M36.6,45h1.9v4.7h-1.9V45z"/>
	<path class="st30" d="M36.6,16h1.9v4.7h-1.9V16z"/>
	<path class="st30" d="M21.2,25.3l0.8-1.7l3.9,1.9l-0.8,1.7L21.2,25.3z"/>
	<path class="st30" d="M49,25.5l3.9-1.9l0.8,1.7l-3.9,1.9L49,25.5z"/>
	<path class="st30" d="M21.2,40.4l3.9-1.9l0.8,1.7L22,42.1L21.2,40.4z"/>
	<path class="st30" d="M64.6,52.4H59V37.9l5.5-5.5c1.4-1.4,1.4-3.7,0-5.1c-1.4-1.4-3.7-1.4-5.1,0l0,0L59,27.8v-8
		c0-0.2-0.1-0.5-0.3-0.7l-9.3-9.3c-0.2-0.2-0.4-0.3-0.7-0.3H19.8c-2.1,0-3.7,1.7-3.7,3.7v27.1h1.9V13.2c0-1,0.8-1.9,1.9-1.9h28V17
		c0,2.1,1.7,3.7,3.7,3.7h5.6v8.9L42.4,44.3c-0.1,0.1-0.2,0.3-0.3,0.5l-0.9,4.7c-0.1,0.5,0.2,1,0.7,1.1c0.1,0,0.2,0,0.4,0l4.7-0.9
		c0.2,0,0.3-0.1,0.5-0.3l9.6-9.6v12.7H38.4c-0.5,0-0.9,0.4-0.9,0.9v2.8h-4.7V58h4.7v2.8c0,0.5,0.4,0.9,0.9,0.9h26.1
		c0.5,0,0.9-0.4,0.9-0.9v-7.5C65.5,52.9,65.1,52.4,64.6,52.4L64.6,52.4z M49.6,17v-4.3l6.1,6.1h-4.3C50.5,18.8,49.6,18,49.6,17z
		 M44.4,45L59,30.4l2.4,2.4L46.8,47.4L44.4,45z M61.9,28.2c0.9,0,1.7,0.8,1.7,1.7c0,0.5-0.2,0.9-0.5,1.2l-0.4,0.4l-2.4-2.4l0.4-0.4
		C61,28.3,61.5,28.2,61.9,28.2L61.9,28.2z M43.7,46.9l1.3,1.3l-1.6,0.3L43.7,46.9z M63.6,59.9H39.4v-5.6h1.9v1.9h1.9v-1.9H45v1.9
		h1.9v-1.9h1.9v1.9h1.9v-1.9h1.9v1.9h1.9v-1.9h1.9v1.9H58v-1.9h1.9v1.9h1.9v-1.9h1.9V59.9z"/>
</g>
</svg>
