<?xml version="1.0" encoding="utf-8"?>
<!-- Generator: Adobe Illustrator 25.0.1, SVG Export Plug-In . SVG Version: 6.00 Build 0)  -->
<svg version="1.1" id="Layer_1" xmlns="http://www.w3.org/2000/svg" xmlns:xlink="http://www.w3.org/1999/xlink" x="0px" y="0px"
	 viewBox="0 0 75 75" style="enable-background:new 0 0 75 75;" xml:space="preserve">
<style type="text/css">
	.st0{fill:#F9F9F9;}
	.st1{fill:#B68A35;}
	.st2{fill:#2D2A26;}
	.st3{fill:url(#SVGID_3_);}
	.st4{fill:#FFFFFF;}
	.st5{fill:url(#SVGID_4_);}
	.st6{fill:url(#SVGID_5_);}
	.st7{fill:url(#SVGID_6_);}
	.st8{fill:url(#SVGID_7_);}
	.st9{fill:url(#SVGID_8_);}
	.st10{fill:url(#SVGID_9_);}
	.st11{fill:url(#SVGID_10_);}
	.st12{fill:url(#SVGID_11_);}
	.st13{fill:url(#SVGID_12_);}
	.st14{fill:url(#SVGID_13_);}
	.st15{fill:url(#SVGID_14_);}
	.st16{fill:url(#SVGID_15_);}
	.st17{fill-rule:evenodd;clip-rule:evenodd;fill:#2D2A26;}
	.st18{fill-rule:evenodd;clip-rule:evenodd;fill:#FFFFFF;}
	.st19{fill:none;}
	.st20{fill:#DBDBDA;}
	.st21{fill:url(#SVGID_16_);}
	.st22{fill:#00843D;}
	.st23{fill:url(#SVGID_17_);}
	.st24{fill:#C8102E;}
	.st25{fill:none;stroke:#DBDBDB;stroke-width:2;stroke-miterlimit:10;}
	.st26{fill:#B08B44;}
	.st27{fill:none;stroke:#B08B44;stroke-width:1.5;stroke-miterlimit:10;}
	.st28{fill:none;stroke:#FFFFFF;stroke-miterlimit:10;}
	.st29{fill:#E5E5E5;}
	.st30{fill:#404040;}
	.st31{fill:#404040;stroke:#404040;stroke-width:0.5;stroke-miterlimit:10;}
	.st32{fill:#404040;stroke:#DBDBDB;stroke-width:0.5;stroke-miterlimit:10;}
	.st33{fill:#404040;stroke:#DBDBDB;stroke-width:0.25;stroke-miterlimit:10;}
	.st34{fill:none;stroke:#DBDBDB;stroke-width:3;stroke-miterlimit:10;}
	.st35{clip-path:url(#SVGID_19_);}
	.st36{opacity:0.27;}
	.st37{clip-path:url(#SVGID_21_);}
	.st38{fill:#404040;stroke:#404040;stroke-width:0.75;stroke-miterlimit:10;}
	.st39{opacity:0.5;}
	.st40{clip-path:url(#SVGID_27_);}
	.st41{fill:none;stroke:#404040;stroke-linecap:square;stroke-miterlimit:10;}
	.st42{fill:none;stroke:#FFFFFF;stroke-linecap:square;stroke-miterlimit:10;}
	.st43{fill:#FFFFFF;fill-opacity:0;}
	.st44{fill:#A6A6A6;}
	.st45{fill:url(#SVGID_28_);}
	.st46{fill:url(#SVGID_29_);}
	.st47{fill:url(#SVGID_30_);}
	.st48{fill:url(#SVGID_31_);}
	.st49{opacity:0.2;enable-background:new    ;}
	.st50{opacity:0.12;enable-background:new    ;}
	.st51{opacity:0.25;fill:#FFFFFF;enable-background:new    ;}
	.st52{fill:#FFFFFF;stroke:#FFFFFF;stroke-width:0.2;stroke-miterlimit:10;}
	.st53{fill:none;stroke:#B08B44;stroke-width:2;stroke-miterlimit:10;}
</style>
<g>
	<path class="st30" d="M43.3,46.2v-2.9c0-3.2-2.6-5.8-5.8-5.8h-2.9v-3c1.7-0.4,3.1-1.7,3.6-3.4l0.1-0.4c1.8-0.4,3.1-1.9,3.1-3.8
		v-8.7c0-2.1-1.7-3.9-3.9-3.9c-1.1,0-1.9-0.9-1.9-1.9c0-2.1-1.7-3.9-3.9-3.9h-2.7c-1.2,0-2.3,0.5-3.1,1.3c-0.8-0.8-2-1.3-3.1-1.3
		h-2.7c-2.1,0-3.9,1.7-3.9,3.9c0,1.1-0.9,1.9-1.9,1.9c-2.1,0-3.9,1.7-3.9,3.9v8.7c0,1.8,1.3,3.4,3.1,3.8l0.1,0.4
		c0.4,1.7,1.8,3.1,3.6,3.4v3h-2.9c-3.2,0-5.8,2.6-5.8,5.8v2.9c0,0.2,0.1,0.4,0.2,0.6l7.4,9h-2.8c-0.3,0-0.6,0.2-0.8,0.4l-1.9,2.9
		c-0.1,0.2-0.2,0.3-0.2,0.5v5.8c0,0.5,0.4,1,1,1h28.9c0.5,0,1-0.4,1-1v-5.8c0-0.2-0.1-0.4-0.2-0.5l-1.9-2.9
		c-0.2-0.3-0.5-0.4-0.8-0.4h-2.8l7.4-9C43.2,46.6,43.3,46.4,43.3,46.2z M19.2,20.1c1.1-0.1,2-0.8,2.3-1.8l0.7-1.8l0.8,1.3
		c0.9,1.4,2.4,2.3,4.1,2.3h5.5v8.7c0,3.7-3,6.7-6.7,6.7s-6.7-3-6.7-6.7V20.1z M15.6,30.6l-0.3-1c-0.1-0.4-0.5-0.7-0.9-0.7
		c-1.1,0-1.9-0.9-1.9-1.9v-8.7c0-1.1,0.9-1.9,1.9-1.9c2.1,0,3.9-1.7,3.9-3.9c0-1.1,0.9-1.9,1.9-1.9h2.7c1,0,1.8,0.5,2.3,1.4
		c0.2,0.5,0.8,0.7,1.3,0.4c0.2-0.1,0.3-0.2,0.4-0.4c0.4-0.9,1.3-1.4,2.3-1.4h2.7c1.1,0,1.9,0.9,1.9,1.9c0,2.1,1.7,3.9,3.9,3.9
		c1.1,0,1.9,0.9,1.9,1.9v8.7c0,1.1-0.9,1.9-1.9,1.9c-0.4,0-0.8,0.3-0.9,0.7l-0.3,1c-0.2,0.9-0.9,1.6-1.7,1.9V20.2h1.9v-1.9h-9.4
		c-1,0-2-0.5-2.5-1.4l-1.8-2.9c-0.3-0.5-0.9-0.6-1.3-0.3c-0.2,0.1-0.3,0.3-0.4,0.5l-1.4,3.6c-0.1,0.4-0.5,0.6-0.9,0.6h-3.5v1.9h1.9
		v12.3C16.4,32.2,15.8,31.5,15.6,30.6z M39.4,59.9v4.5h-27v-4.5l1.5-2.2h24L39.4,59.9z M41.4,45.8l-8.2,10H18.7l-8.2-10v-2.5
		c0-2.1,1.7-3.9,3.9-3.9h3.9c0.5,0,1-0.4,1-1v-4.2c3,3.7,8.4,4.3,12.2,1.3c0.5-0.4,0.9-0.8,1.3-1.3v4.2c0,0.5,0.4,1,1,1h3.9
		c2.1,0,3.9,1.7,3.9,3.9V45.8z"/>
	<path class="st30" d="M29.6,42.4c0.5-1.2,0.9-2.5,1-3.9l-1.9-0.2c-0.3,2.4-1.3,4.6-2.9,6.5c-1.1-1.6-2.9-2.5-4.8-2.5h-3.9v1.9h3.9
		c2.1,0,3.9,1.7,3.9,3.9V50h1.9v-1.9c0-2.1,1.7-3.9,3.9-3.9h3.9v-1.9h-3.9C30.4,42.3,30,42.4,29.6,42.4z"/>
	<path class="st30" d="M65.4,8.6H37.5v1.9h25.6l-2.9,2.9H41.4v1.9h18.3v19.3l-5.2-3.7c-0.3-0.2-0.7-0.2-1-0.1l-7,3.7l-4.5-4L40.7,32
		l3.9,3.5L41.9,37l0.9,1.7l11-5.8l5.9,4.2v7.2H45.2v1.9h15l2.9,2.9H43.3V51h22.2c0.5,0,1-0.4,1-1V9.6C66.4,9,66,8.6,65.4,8.6z
		 M61.6,14.8l2.9-2.9v35.8l-2.9-2.9V14.8z"/>
	<path class="st30" d="M52.9,25c0-2.7-2.2-4.8-4.8-4.8s-4.8,2.2-4.8,4.8s2.2,4.8,4.8,4.8C50.8,29.8,52.9,27.6,52.9,25z M45.2,25
		c0-1.6,1.3-2.9,2.9-2.9S51,23.4,51,25c0,1.6-1.3,2.9-2.9,2.9C46.5,27.9,45.2,26.6,45.2,25z"/>
</g>
</svg>
