<?xml version="1.0" encoding="utf-8"?>
<!-- Generator: Adobe Illustrator 19.0.0, SVG Export Plug-In . SVG Version: 6.00 Build 0)  -->
<svg version="1.1" id="Layer_1" xmlns="http://www.w3.org/2000/svg" xmlns:xlink="http://www.w3.org/1999/xlink" x="0px" y="0px"
	 viewBox="0 0 22.3 15.9" style="enable-background:new 0 0 22.3 15.9;" xml:space="preserve">
<style type="text/css">
	.st0{clip-path:url(#XMLID_116_);fill:#414141;}
	.st1{clip-path:url(#XMLID_116_);fill:none;stroke:#414141;stroke-width:0.5;stroke-miterlimit:10;}
	.st2{clip-path:url(#XMLID_116_);fill:none;stroke:#DCDBDB;stroke-width:0.5;stroke-miterlimit:10;}
	.st3{clip-path:url(#XMLID_116_);fill:none;stroke:#DCDBDB;stroke-width:0.25;stroke-miterlimit:10;}
</style>
<g id="XMLID_2_">
	<defs>
		<rect id="XMLID_3_" x="-10.6" y="-687.1" width="1852.2" height="3344.4"/>
	</defs>
	<clipPath id="XMLID_116_">
		<use xlink:href="#XMLID_3_"  style="overflow:visible;"/>
	</clipPath>
	<path id="XMLID_63_" class="st0" d="M19.8-210.4l-7.1-7.1c0,0,0,0,0,0c-0.8-0.7-1.9-0.7-2.7,0c0,0,0,0,0,0l-7.1,7.1
		c-0.3,0.3-0.3,0.7,0,1c0.3,0.3,0.7,0.3,1,0l0.5-0.5v5.9c0,1.5,1.2,2.7,2.7,2.7h2.4c0.4,0,0.7-0.3,0.7-0.7v-5.5h2.4v5.5
		c0,0.4,0.3,0.7,0.7,0.7h2.4c1.5,0,2.7-1.2,2.7-2.7c0-0.4-0.3-0.7-0.7-0.7c-0.4,0-0.7,0.3-0.7,0.7c0,0.7-0.6,1.4-1.4,1.4h-1.7v-5.5
		c0-0.4-0.3-0.7-0.7-0.7H9.5c-0.4,0-0.7,0.3-0.7,0.7v5.5H7.1c-0.7,0-1.4-0.6-1.4-1.4v-7.2c0,0,0,0,0,0l5.2-5.2
		c0.3-0.2,0.6-0.2,0.9,0l5.2,5.2v7.3c0,0.4,0.3,0.7,0.7,0.7c0.4,0,0.7-0.3,0.7-0.7v-5.9l0.5,0.5c0.1,0.1,0.3,0.2,0.5,0.2
		c0.2,0,0.3-0.1,0.5-0.2C20.1-209.7,20.1-210.2,19.8-210.4"/>
	<path id="XMLID_60_" class="st0" d="M20.9-181c-0.3-0.9-1.1-1.4-2-1.4H15c0,0,0,0,0,0c-0.2,0-0.4-0.2-0.5-0.4l-1.2-3.7
		c-0.3-0.9-1.1-1.4-2-1.4h0c-0.9,0-1.7,0.6-2,1.4l-1.2,3.7c-0.1,0.2-0.3,0.4-0.5,0.4c0,0,0,0,0,0H3.7h0c-0.9,0-1.7,0.6-2,1.4
		c0,0.1,0,0.2-0.1,0.3c-0.1,0.3-0.1,0.7,0,1c0.1,0.4,0.4,0.8,0.8,1l0.9,0.6l1.3,0.9c0,0,0,0,0,0l1,0.7c0.2,0.1,0.3,0.4,0.2,0.6
		l-0.6,1.8l-0.6,1.8c-0.1,0.2-0.1,0.4-0.1,0.7c0,0.2,0,0.4,0.1,0.6c0.1,0.4,0.4,0.8,0.8,1c0.4,0.3,0.8,0.4,1.2,0.4c0,0,0.1,0,0.1,0
		c0.4,0,0.8-0.1,1.1-0.4l2.1-1.5l1-0.8c0.1-0.1,0.2-0.1,0.3-0.1c0.1,0,0.2,0,0.3,0.1l1,0.8l2.1,1.5c0.3,0.2,0.7,0.4,1.1,0.4
		c0,0,0.1,0,0.1,0c0.4,0,0.9-0.1,1.2-0.4c0.2-0.1,0.3-0.3,0.5-0.5c0.3-0.4,0.4-0.8,0.4-1.2c0-0.2,0-0.4-0.1-0.7l-0.6-1.8l-0.6-1.8
		c-0.1-0.2,0-0.5,0.2-0.6l1-0.7l1.3-0.9l0.9-0.6C20.9-179.2,21.2-180.1,20.9-181 M16.1-177.6c-0.7,0.5-1,1.5-0.8,2.3l0.4,1.2
		l0.8,2.5c0.1,0.4-0.1,0.6-0.2,0.6c0,0-0.1,0.1-0.2,0.1c-0.1,0-0.3,0-0.4-0.1l-3.1-2.3c-0.4-0.3-0.8-0.4-1.2-0.4
		c-0.4,0-0.9,0.1-1.2,0.4L7-171c-0.2,0.1-0.3,0.1-0.4,0.1c-0.1,0-0.2-0.1-0.2-0.1c-0.1-0.1-0.3-0.3-0.2-0.6l0.8-2.5l0.4-1.2
		c0.3-0.9,0-1.8-0.8-2.3l-1.2-0.9l-1.9-1.4c-0.3-0.2-0.2-0.6-0.2-0.7c0-0.1,0.2-0.4,0.5-0.4h3.9h0c0.1,0,0.1,0,0.2,0
		c0.8-0.1,1.5-0.6,1.8-1.4v0l1.2-3.7c0.1-0.4,0.4-0.4,0.5-0.4c0.1,0,0.4,0,0.5,0.4l1.2,3.7v0c0.3,0.8,1,1.3,1.8,1.4
		c0.1,0,0.1,0,0.2,0h3.9c0.4,0,0.5,0.3,0.5,0.4c0,0.1,0.1,0.4-0.2,0.7l-1.9,1.4L16.1-177.6z"/>
	<path id="XMLID_57_" class="st0" d="M19.4-142c0-0.2,0.1-0.4,0.1-0.6c0-0.1,0-0.3-0.1-0.4c0-0.2-0.1-0.3-0.2-0.5
		c-0.1-0.3-0.3-0.5-0.5-0.8c-0.9-0.9-1.6-1.3-2.3-1.5c-1-0.3-1.9,0-2.7,0.8c0,0,0,0,0,0l-0.9,0.8c-0.4-0.2-1.1-0.7-1.9-1.3
		c-0.3-0.2-0.5-0.5-0.8-0.8l-0.1-0.1c-1.1-1.1-1.8-2.2-2.1-2.7l0.8-0.9l0,0c0.8-0.8,1-1.7,0.8-2.7c-0.2-0.7-0.7-1.4-1.5-2.3
		c-0.4-0.5-1-0.7-1.6-0.7c-0.2,0-0.4,0-0.6,0.1c-0.4,0.1-0.8,0.3-1.1,0.6l0,0c0,0,0,0,0,0c-0.2,0.2-0.4,0.5-0.6,0.8
		c-0.1,0.1-0.1,0.2-0.2,0.3c-0.1,0.2-0.2,0.4-0.3,0.6c0,0.1-0.1,0.3-0.1,0.4c-0.1,0.2-0.1,0.4-0.2,0.6c0,0.2,0,0.3,0,0.5
		c0,0.2-0.1,0.4-0.1,0.6v0c0,0.3,0,0.6,0.1,0.9c0,0.2,0.1,0.5,0.1,0.7c0,0,0,0.1,0,0.1c0.4,1.6,1.1,3.2,2.3,4.7c0,0,0,0,0,0
		c0,0.1,0.1,0.1,0.1,0.2c0.2,0.2,0.3,0.4,0.5,0.6c0.2,0.3,0.5,0.5,0.7,0.8c0,0,0,0,0,0c0.2,0.2,0.5,0.5,0.8,0.7
		c0.2,0.2,0.4,0.3,0.6,0.5c0.1,0,0.1,0.1,0.2,0.1c0,0,0,0,0,0c1.5,1.1,3.1,1.9,4.7,2.3c0,0,0.1,0,0.1,0c0.2,0.1,0.5,0.1,0.7,0.1
		c0.3,0,0.6,0.1,0.9,0.1h0c0.2,0,0.4,0,0.6,0c0.2,0,0.3,0,0.5,0c0.2,0,0.4-0.1,0.6-0.2c0.1,0,0.3-0.1,0.4-0.1
		c0.2-0.1,0.4-0.2,0.6-0.3c0.1-0.1,0.2-0.1,0.3-0.1c0.3-0.2,0.5-0.4,0.8-0.6c0,0,0,0,0,0l0,0l0,0C19.1-141.2,19.3-141.6,19.4-142
		 M18.2-142.5c0,0.3-0.1,0.5-0.3,0.7v0l0,0c0,0-0.1,0-0.1,0.1c-0.2,0.1-0.3,0.3-0.5,0.4c-0.1,0-0.2,0.1-0.2,0.1
		c-0.1,0.1-0.3,0.1-0.4,0.2c-0.1,0-0.2,0.1-0.3,0.1c-0.1,0-0.3,0.1-0.4,0.1c-0.1,0-0.3,0-0.4,0c-0.2,0-0.3,0-0.5,0h0c0,0,0,0,0,0
		c-0.2,0-0.5,0-0.7-0.1c-0.7-0.1-1.5-0.3-2.4-0.7c0,0,0,0-0.1,0c-0.9-0.4-1.7-0.9-2.6-1.5c-0.2-0.2-0.4-0.3-0.6-0.5
		c-0.2-0.2-0.5-0.4-0.7-0.6c-0.2-0.2-0.4-0.5-0.6-0.7c-0.2-0.2-0.3-0.4-0.5-0.6c-0.6-0.8-1.2-1.7-1.5-2.6c0,0,0,0,0-0.1
		c-0.4-0.8-0.6-1.6-0.7-2.4c0-0.2-0.1-0.5-0.1-0.7c0,0,0,0,0,0v0c0-0.2,0-0.3,0-0.5c0-0.1,0-0.3,0-0.4c0-0.2,0.1-0.3,0.1-0.4
		c0-0.1,0-0.2,0.1-0.3c0.1-0.2,0.1-0.3,0.2-0.4c0-0.1,0.1-0.2,0.1-0.2c0.1-0.2,0.2-0.3,0.4-0.5c0,0,0-0.1,0.1-0.1l0,0l0,0
		c0.5-0.4,1.2-0.4,1.6,0.1c1.6,1.7,1.5,2.5,0.8,3.2l-1.2,1.2c-0.2,0.2-0.2,0.5-0.1,0.7c0,0.1,0.8,1.7,2.5,3.5l0,0l0.1,0.1
		c1.8,1.8,3.4,2.5,3.5,2.5c0.2,0.1,0.5,0.1,0.7-0.1l1.2-1.2c0.7-0.7,1.5-0.8,3.2,0.8C18-143.1,18.2-142.8,18.2-142.5
		C18.2-142.5,18.2-142.5,18.2-142.5"/>
	<path id="XMLID_54_" class="st0" d="M11.3-107.7c-4.8,0-8.8-3.9-8.8-8.8c0-4.8,3.9-8.8,8.8-8.8s8.8,3.9,8.8,8.8
		C20.1-111.6,16.2-107.7,11.3-107.7 M11.3-123.8c-4.1,0-7.4,3.3-7.4,7.4c0,4.1,3.3,7.4,7.4,7.4s7.4-3.3,7.4-7.4
		C18.7-120.5,15.4-123.8,11.3-123.8"/>
	<path id="XMLID_53_" class="st0" d="M11.3-111.3c-2.3,0-4.2-1.9-4.2-4.2c0-0.4,0.3-0.7,0.7-0.7c0.4,0,0.7,0.3,0.7,0.7
		c0,1.6,1.3,2.9,2.9,2.9s2.9-1.3,2.9-2.9c0-0.4,0.3-0.7,0.7-0.7c0.4,0,0.7,0.3,0.7,0.7C15.5-113.2,13.6-111.3,11.3-111.3"/>
	<path id="XMLID_52_" class="st0" d="M18,63.1H4.7c-0.4,0-0.7-0.3-0.7-0.7c0-0.4,0.3-0.7,0.7-0.7H18c0.4,0,0.7,0.3,0.7,0.7
		C18.6,62.8,18.3,63.1,18,63.1"/>
	<path id="XMLID_51_" class="st0" d="M18,78.7H4.7C4.3,78.7,4,78.4,4,78c0-0.4,0.3-0.7,0.7-0.7H18c0.4,0,0.7,0.3,0.7,0.7
		C18.6,78.4,18.3,78.7,18,78.7"/>
	<path id="XMLID_50_" class="st0" d="M18,70.9H4.7c-0.4,0-0.7-0.3-0.7-0.7c0-0.4,0.3-0.7,0.7-0.7H18c0.4,0,0.7,0.3,0.7,0.7
		C18.6,70.6,18.3,70.9,18,70.9"/>
	<path id="XMLID_47_" class="st0" d="M18.1-63.3H4.6c-1.3,0-2.3,1-2.3,2.3v13.5c0,1.3,1,2.3,2.3,2.3h13.5c1.3,0,2.3-1,2.3-2.3V-61
		C20.4-62.2,19.4-63.3,18.1-63.3 M19.7-47.5c0,0.9-0.7,1.6-1.6,1.6H4.6c-0.9,0-1.6-0.7-1.6-1.6V-61c0-0.9,0.7-1.6,1.6-1.6h13.5
		c0.9,0,1.6,0.7,1.6,1.6V-47.5z"/>
	<path id="XMLID_44_" class="st1" d="M18.1-63.3H4.6c-1.3,0-2.3,1-2.3,2.3v13.5c0,1.3,1,2.3,2.3,2.3h13.5c1.3,0,2.3-1,2.3-2.3V-61
		C20.4-62.2,19.4-63.3,18.1-63.3z M19.7-47.5c0,0.9-0.7,1.6-1.6,1.6H4.6c-0.9,0-1.6-0.7-1.6-1.6V-61c0-0.9,0.7-1.6,1.6-1.6h13.5
		c0.9,0,1.6,0.7,1.6,1.6V-47.5z"/>
	<path id="XMLID_43_" class="st0" d="M16.9-55.9L16.9-55.9c-0.5-0.6-1.2-0.9-2.1-0.9c-0.6,0-1.2,0.1-1.6,0.4
		c-0.2,0.1-0.4,0.3-0.6,0.5v-0.3c0-0.2-0.2-0.4-0.4-0.4H9.6c-0.2,0-0.4,0.2-0.4,0.4v7.9c0,0.2,0.2,0.4,0.4,0.4h2.6
		c0.2,0,0.4-0.2,0.4-0.4v-4.5c0-0.6,0.4-1.1,1-1.1l0.1,0c0.2,0,0.4,0.1,0.6,0.2c0.2,0.2,0.3,0.4,0.3,0.7v4.7c0,0.2,0.2,0.4,0.4,0.4
		h2.4c0.2,0,0.4-0.2,0.4-0.4v-5C17.6-54.4,17.4-55.3,16.9-55.9"/>
	<path id="XMLID_42_" class="st2" d="M16.9-55.9L16.9-55.9c-0.5-0.6-1.2-0.9-2.1-0.9c-0.6,0-1.2,0.1-1.6,0.4
		c-0.2,0.1-0.4,0.3-0.6,0.5v-0.3c0-0.2-0.2-0.4-0.4-0.4H9.6c-0.2,0-0.4,0.2-0.4,0.4v7.9c0,0.2,0.2,0.4,0.4,0.4h2.6
		c0.2,0,0.4-0.2,0.4-0.4v-4.5c0-0.6,0.4-1.1,1-1.1l0.1,0c0.2,0,0.4,0.1,0.6,0.2c0.2,0.2,0.3,0.4,0.3,0.7v4.7c0,0.2,0.2,0.4,0.4,0.4
		h2.4c0.2,0,0.4-0.2,0.4-0.4v-5C17.6-54.4,17.4-55.3,16.9-55.9z"/>
	<path id="XMLID_41_" class="st0" d="M8.1-56.5H5.6c-0.2,0-0.4,0.2-0.4,0.4v6v0.5v1.4c0,0.2,0.2,0.4,0.4,0.4h2.6
		c0.2,0,0.4-0.2,0.4-0.4v-7.9C8.5-56.4,8.3-56.5,8.1-56.5"/>
	<path id="XMLID_40_" class="st2" d="M8.1-56.5H5.6c-0.2,0-0.4,0.2-0.4,0.4v6v0.5v1.4c0,0.2,0.2,0.4,0.4,0.4h2.6
		c0.2,0,0.4-0.2,0.4-0.4v-7.9C8.5-56.4,8.3-56.5,8.1-56.5z"/>
	<path id="XMLID_39_" class="st0" d="M6.8-60.5c-1,0-1.8,0.8-1.8,1.8c0,1,0.8,1.8,1.8,1.8c1,0,1.8-0.8,1.8-1.8
		C8.6-59.7,7.8-60.5,6.8-60.5"/>
	<circle id="XMLID_38_" class="st2" cx="6.8" cy="-58.7" r="1.8"/>
	<path id="XMLID_35_" class="st0" d="M20.5-28.8C20.4-29,20.2-29,20-28.9c-0.2,0.1-0.4,0.2-0.7,0.3c0.3-0.4,0.5-0.8,0.7-1.3
		c0-0.1,0-0.3-0.1-0.4c-0.1-0.1-0.3-0.1-0.4,0c-0.6,0.4-1.3,0.6-2,0.8c-0.7-0.7-1.7-1.1-2.8-1.1c-2.2,0-4,1.8-4,4c0,0.1,0,0.3,0,0.4
		c-0.5-0.1-1.1-0.1-1.6-0.3c-1-0.3-2.3-0.9-3.1-1.4c0,0,0,0-0.1,0c-0.8-0.5-1.4-1.2-2-1.9C3.9-30,3.8-30,3.7-30
		c-0.1,0-0.2,0.1-0.3,0.2c-0.4,0.6-0.5,1.3-0.5,2c0,0.9,0.3,1.7,0.8,2.4c-0.1,0-0.2-0.1-0.3-0.1c-0.1-0.1-0.2-0.1-0.4,0
		c-0.1,0.1-0.2,0.2-0.2,0.3v0c0,1.3,0.7,2.5,1.7,3.3c0,0,0,0,0,0c-0.1,0-0.3,0-0.3,0.1c-0.1,0.1-0.1,0.2-0.1,0.3
		c0.4,1.3,1.5,2.3,2.8,2.6c-1.1,0.6-2.3,1-3.6,1c-0.3,0-0.5,0-0.8,0c-0.2,0-0.3,0.1-0.4,0.2c-0.1,0.2,0,0.3,0.1,0.4
		C4-16.1,6-15.6,8-15.6c1.6,0,3.2-0.3,4.6-1c1.3-0.6,2.4-1.4,3.4-2.5c1.7-2,2.8-4.6,2.8-7.2v0l0-0.3c0.7-0.5,1.3-1.1,1.8-1.9
		C20.6-28.5,20.6-28.7,20.5-28.8 M18.2-27C18.1-27,18-26.8,18-26.7l0,0.5c0,4.9-3.7,10-10,10c-1.4,0-2.8-0.3-4.1-0.9
		c1.5-0.1,2.9-0.7,4.1-1.6c0.1-0.1,0.2-0.3,0.1-0.4c0-0.1-0.2-0.2-0.3-0.2c-1.2,0-2.3-0.7-2.8-1.7c0,0,0.1,0,0.1,0
		c0.4,0,0.7,0,1-0.1c0.2,0,0.3-0.2,0.3-0.4c0-0.2-0.1-0.3-0.3-0.3c-1.3-0.3-2.4-1.4-2.6-2.7c0.4,0.1,0.8,0.2,1.2,0.2
		c0.2,0,0.3-0.1,0.4-0.3c0-0.2,0-0.3-0.1-0.4c-0.9-0.6-1.5-1.6-1.5-2.7c0-0.4,0.1-0.8,0.2-1.2c0.6,0.6,1.3,1.2,2,1.7c0,0,0,0,0,0
		c0.8,0.6,2.1,1.1,3.1,1.4c0,0,0,0,0,0c0,0,0,0,0.1,0c0,0,0,0,0,0c0,0,0.1,0,0.1,0c0.7,0.2,1.4,0.3,2.1,0.3c0.1,0,0.2,0,0.3-0.1
		c0.1-0.1,0.1-0.2,0.1-0.3c-0.1-0.2-0.1-0.5-0.1-0.7c0-1.8,1.5-3.3,3.3-3.3c0.9,0,1.8,0.4,2.4,1c0.1,0.1,0.2,0.1,0.3,0.1
		c0.5-0.1,1-0.2,1.4-0.4c-0.3,0.4-0.6,0.7-1,0.9c-0.1,0.1-0.2,0.3-0.2,0.4c0.1,0.2,0.2,0.3,0.4,0.2c0.3,0,0.7-0.1,1-0.2
		C18.8-27.6,18.5-27.3,18.2-27"/>
	<path id="XMLID_32_" class="st1" d="M20.5-28.8C20.4-29,20.2-29,20-28.9c-0.2,0.1-0.4,0.2-0.7,0.3c0.3-0.4,0.5-0.8,0.7-1.3
		c0-0.1,0-0.3-0.1-0.4c-0.1-0.1-0.3-0.1-0.4,0c-0.6,0.4-1.3,0.6-2,0.8c-0.7-0.7-1.7-1.1-2.8-1.1c-2.2,0-4,1.8-4,4c0,0.1,0,0.3,0,0.4
		c-0.5-0.1-1.1-0.1-1.6-0.3c-1-0.3-2.3-0.9-3.1-1.4c0,0,0,0-0.1,0c-0.8-0.5-1.4-1.2-2-1.9C3.9-30,3.8-30,3.7-30
		c-0.1,0-0.2,0.1-0.3,0.2c-0.4,0.6-0.5,1.3-0.5,2c0,0.9,0.3,1.7,0.8,2.4c-0.1,0-0.2-0.1-0.3-0.1c-0.1-0.1-0.2-0.1-0.4,0
		c-0.1,0.1-0.2,0.2-0.2,0.3v0c0,1.3,0.7,2.5,1.7,3.3c0,0,0,0,0,0c-0.1,0-0.3,0-0.3,0.1c-0.1,0.1-0.1,0.2-0.1,0.3
		c0.4,1.3,1.5,2.3,2.8,2.6c-1.1,0.6-2.3,1-3.6,1c-0.3,0-0.5,0-0.8,0c-0.2,0-0.3,0.1-0.4,0.2c-0.1,0.2,0,0.3,0.1,0.4
		C4-16.1,6-15.6,8-15.6c1.6,0,3.2-0.3,4.6-1c1.3-0.6,2.4-1.4,3.4-2.5c1.7-2,2.8-4.6,2.8-7.2v0l0-0.3c0.7-0.5,1.3-1.1,1.8-1.9
		C20.6-28.5,20.6-28.7,20.5-28.8z M18.2-27C18.1-27,18-26.8,18-26.7l0,0.5c0,4.9-3.7,10-10,10c-1.4,0-2.8-0.3-4.1-0.9
		c1.5-0.1,2.9-0.7,4.1-1.6c0.1-0.1,0.2-0.3,0.1-0.4c0-0.1-0.2-0.2-0.3-0.2c-1.2,0-2.3-0.7-2.8-1.7c0,0,0.1,0,0.1,0
		c0.4,0,0.7,0,1-0.1c0.2,0,0.3-0.2,0.3-0.4c0-0.2-0.1-0.3-0.3-0.3c-1.3-0.3-2.4-1.4-2.6-2.7c0.4,0.1,0.8,0.2,1.2,0.2
		c0.2,0,0.3-0.1,0.4-0.3c0-0.2,0-0.3-0.1-0.4c-0.9-0.6-1.5-1.6-1.5-2.7c0-0.4,0.1-0.8,0.2-1.2c0.6,0.6,1.3,1.2,2,1.7c0,0,0,0,0,0
		c0.8,0.6,2.1,1.1,3.1,1.4c0,0,0,0,0,0c0,0,0,0,0.1,0c0,0,0,0,0,0c0,0,0.1,0,0.1,0c0.7,0.2,1.4,0.3,2.1,0.3c0.1,0,0.2,0,0.3-0.1
		c0.1-0.1,0.1-0.2,0.1-0.3c-0.1-0.2-0.1-0.5-0.1-0.7c0-1.8,1.5-3.3,3.3-3.3c0.9,0,1.8,0.4,2.4,1c0.1,0.1,0.2,0.1,0.3,0.1
		c0.5-0.1,1-0.2,1.4-0.4c-0.3,0.4-0.6,0.7-1,0.9c-0.1,0.1-0.2,0.3-0.2,0.4c0.1,0.2,0.2,0.3,0.4,0.2c0.3,0,0.7-0.1,1-0.2
		C18.8-27.6,18.5-27.3,18.2-27z"/>
	<path id="XMLID_31_" class="st0" d="M14.7,7.7l-5.2-3c-0.1-0.1-0.3-0.1-0.4,0C9,4.8,8.9,4.9,8.9,5v6c0,0.1,0.1,0.3,0.2,0.4
		c0.1,0,0.1,0.1,0.2,0.1c0.1,0,0.1,0,0.2-0.1l5.2-3c0.1-0.1,0.2-0.2,0.2-0.4C14.9,7.9,14.8,7.8,14.7,7.7"/>
	<path id="XMLID_30_" class="st1" d="M14.7,7.7l-5.2-3c-0.1-0.1-0.3-0.1-0.4,0C9,4.8,8.9,4.9,8.9,5v6c0,0.1,0.1,0.3,0.2,0.4
		c0.1,0,0.1,0.1,0.2,0.1c0.1,0,0.1,0,0.2-0.1l5.2-3c0.1-0.1,0.2-0.2,0.2-0.4C14.9,7.9,14.8,7.8,14.7,7.7z"/>
	<path id="XMLID_27_" class="st0" d="M22,8c0-0.1,0-3.5-0.4-5.1c-0.3-1-1.1-1.9-2.1-2.1c-1.1-0.3-15.2-0.3-16.3,0
		C2.2,1,1.4,1.8,1.1,2.9C0.6,4.5,0.6,7.8,0.6,8c0,0,0,0,0,0c0,0,0,0,0,0c0,0.1,0,3.5,0.4,5.1c0.3,1,1.1,1.9,2.1,2.1
		c1.1,0.3,15.2,0.3,16.3,0c1-0.3,1.8-1.1,2.1-2.1C22,11.5,22,8.1,22,8C22,8,22,8,22,8C22,8,22,8,22,8 M3.4,14.5
		c-0.7-0.2-1.3-0.8-1.5-1.5C1.5,11.4,1.5,8.2,1.5,8c0-0.2,0-3.4,0.4-4.9c0.2-0.8,0.8-1.3,1.5-1.5c1.5-0.4,14.3-0.4,15.8,0
		c0.7,0.2,1.3,0.8,1.5,1.5c0.4,1.5,0.4,4.7,0.4,4.9c0,0.2,0,3.4-0.4,4.9c-0.2,0.8-0.8,1.3-1.5,1.5C17.7,14.9,4.9,14.9,3.4,14.5"/>
	<path id="XMLID_24_" class="st1" d="M22,8c0-0.1,0-3.5-0.4-5.1c-0.3-1-1.1-1.9-2.1-2.1c-1.1-0.3-15.2-0.3-16.3,0
		C2.2,1,1.4,1.8,1.1,2.9C0.6,4.5,0.6,7.8,0.6,8c0,0,0,0,0,0c0,0,0,0,0,0c0,0.1,0,3.5,0.4,5.1c0.3,1,1.1,1.9,2.1,2.1
		c1.1,0.3,15.2,0.3,16.3,0c1-0.3,1.8-1.1,2.1-2.1C22,11.5,22,8.1,22,8C22,8,22,8,22,8C22,8,22,8,22,8z M3.4,14.5
		c-0.7-0.2-1.3-0.8-1.5-1.5C1.5,11.4,1.5,8.2,1.5,8c0-0.2,0-3.4,0.4-4.9c0.2-0.8,0.8-1.3,1.5-1.5c1.5-0.4,14.3-0.4,15.8,0
		c0.7,0.2,1.3,0.8,1.5,1.5c0.4,1.5,0.4,4.7,0.4,4.9c0,0.2,0,3.4-0.4,4.9c-0.2,0.8-0.8,1.3-1.5,1.5C17.7,14.9,4.9,14.9,3.4,14.5z"/>
	<path id="XMLID_21_" class="st0" d="M16.8-94.2h-11c-1.9,0-3.4,1.5-3.4,3.4v11c0,1.9,1.5,3.4,3.4,3.4h5.5c0.2,0,0.3-0.2,0.3-0.3
		v-1.5v-1.1v-4.1c0-0.2-0.2-0.3-0.3-0.3H9.6v-1.8h1.7c0.2,0,0.3-0.2,0.3-0.3v-1.8c0-0.8,0.3-2.6,2.6-2.6h2.2v1.7h-1.6
		c-0.4,0-1,0.3-1,1v1.7c0,0.2,0.2,0.3,0.3,0.3h2.2L16.3-84h-2c-0.2,0-0.3,0.2-0.3,0.3v6.8c0,0.2,0.2,0.3,0.3,0.3h2.6
		c1.9,0,3.4-1.5,3.4-3.4v-11C20.2-92.7,18.7-94.2,16.8-94.2 M19.5-79.8c0,1.5-1.2,2.7-2.7,2.7h-2.2v-6.1h2c0.2,0,0.3-0.1,0.3-0.3
		l0.2-2.5c0-0.1,0-0.2-0.1-0.3c-0.1-0.1-0.2-0.1-0.3-0.1h-2.3v-1.3c0-0.2,0.1-0.3,0.3-0.3h2c0.2,0,0.3-0.2,0.3-0.3v-2.4
		c0-0.2-0.2-0.3-0.3-0.3h-2.6c-1.5,0-2.2,0.6-2.6,1.2c-0.6,0.8-0.6,1.6-0.6,2.1v1.5H9.3c-0.2,0-0.3,0.2-0.3,0.3v2.5
		c0,0.2,0.2,0.3,0.3,0.3H11v3.8v1.1v1.2H5.8c-1.5,0-2.7-1.2-2.7-2.7v-11c0-1.5,1.2-2.7,2.7-2.7h11c1.5,0,2.7,1.2,2.7,2.7V-79.8z"/>
	<path id="XMLID_18_" class="st1" d="M16.8-94.2h-11c-1.9,0-3.4,1.5-3.4,3.4v11c0,1.9,1.5,3.4,3.4,3.4h5.5c0.2,0,0.3-0.2,0.3-0.3
		v-1.5v-1.1v-4.1c0-0.2-0.2-0.3-0.3-0.3H9.6v-1.8h1.7c0.2,0,0.3-0.2,0.3-0.3v-1.8c0-0.8,0.3-2.6,2.6-2.6h2.2v1.7h-1.6
		c-0.4,0-1,0.3-1,1v1.7c0,0.2,0.2,0.3,0.3,0.3h2.2L16.3-84h-2c-0.2,0-0.3,0.2-0.3,0.3v6.8c0,0.2,0.2,0.3,0.3,0.3h2.6
		c1.9,0,3.4-1.5,3.4-3.4v-11C20.2-92.7,18.7-94.2,16.8-94.2z M19.5-79.8c0,1.5-1.2,2.7-2.7,2.7h-2.2v-6.1h2c0.2,0,0.3-0.1,0.3-0.3
		l0.2-2.5c0-0.1,0-0.2-0.1-0.3c-0.1-0.1-0.2-0.1-0.3-0.1h-2.3v-1.3c0-0.2,0.1-0.3,0.3-0.3h2c0.2,0,0.3-0.2,0.3-0.3v-2.4
		c0-0.2-0.2-0.3-0.3-0.3h-2.6c-1.5,0-2.2,0.6-2.6,1.2c-0.6,0.8-0.6,1.6-0.6,2.1v1.5H9.3c-0.2,0-0.3,0.2-0.3,0.3v2.5
		c0,0.2,0.2,0.3,0.3,0.3H11v3.8v1.1v1.2H5.8c-1.5,0-2.7-1.2-2.7-2.7v-11c0-1.5,1.2-2.7,2.7-2.7h11c1.5,0,2.7,1.2,2.7,2.7V-79.8z"/>
	<path id="XMLID_15_" class="st0" d="M11.3,31.5c2.5,0,2.8,0,3.7,0.1c0.9,0,1.4,0.2,1.7,0.3c0.4,0.2,0.7,0.4,1.1,0.7
		s0.5,0.6,0.7,1.1c0.1,0.3,0.3,0.8,0.3,1.7c0,1,0.1,1.3,0.1,3.7c0,2.5,0,2.8-0.1,3.7c0,0.9-0.2,1.4-0.3,1.7
		c-0.2,0.4-0.4,0.7-0.7,1.1c-0.3,0.3-0.6,0.5-1.1,0.7c-0.3,0.1-0.8,0.3-1.7,0.3c-1,0-1.3,0.1-3.7,0.1s-2.8,0-3.7-0.1
		c-0.9,0-1.4-0.2-1.7-0.3c-0.4-0.2-0.7-0.4-1.1-0.7c-0.3-0.3-0.5-0.6-0.7-1.1c-0.1-0.3-0.3-0.8-0.3-1.7c0-1-0.1-1.3-0.1-3.7
		c0-2.5,0-2.8,0.1-3.7c0-0.9,0.2-1.4,0.3-1.7c0.2-0.4,0.4-0.7,0.7-1.1c0.3-0.3,0.6-0.5,1.1-0.7c0.3-0.1,0.8-0.3,1.7-0.3
		C8.6,31.5,8.9,31.5,11.3,31.5 M11.3,29.9c-2.5,0-2.8,0-3.8,0.1c-1,0-1.7,0.2-2.2,0.4c-0.6,0.2-1.1,0.6-1.6,1.1
		c-0.5,0.5-0.8,1-1.1,1.6c-0.2,0.6-0.4,1.3-0.4,2.2c0,1-0.1,1.3-0.1,3.8c0,2.5,0,2.8,0.1,3.8c0,1,0.2,1.7,0.4,2.2
		c0.2,0.6,0.6,1.1,1.1,1.6c0.5,0.5,1,0.8,1.6,1.1c0.6,0.2,1.3,0.4,2.2,0.4c1,0,1.3,0.1,3.8,0.1s2.8,0,3.8-0.1c1,0,1.7-0.2,2.2-0.4
		c0.6-0.2,1.1-0.6,1.6-1.1c0.5-0.5,0.8-1,1.1-1.6c0.2-0.6,0.4-1.3,0.4-2.2c0-1,0.1-1.3,0.1-3.8c0-2.5,0-2.8-0.1-3.8
		c0-1-0.2-1.7-0.4-2.2c-0.2-0.6-0.6-1.1-1.1-1.6c-0.5-0.5-1-0.8-1.6-1.1c-0.6-0.2-1.3-0.4-2.2-0.4C14.2,29.9,13.8,29.9,11.3,29.9"/>
	<path id="XMLID_12_" class="st3" d="M11.3,31.5c2.5,0,2.8,0,3.7,0.1c0.9,0,1.4,0.2,1.7,0.3c0.4,0.2,0.7,0.4,1.1,0.7
		s0.5,0.6,0.7,1.1c0.1,0.3,0.3,0.8,0.3,1.7c0,1,0.1,1.3,0.1,3.7c0,2.5,0,2.8-0.1,3.7c0,0.9-0.2,1.4-0.3,1.7
		c-0.2,0.4-0.4,0.7-0.7,1.1c-0.3,0.3-0.6,0.5-1.1,0.7c-0.3,0.1-0.8,0.3-1.7,0.3c-1,0-1.3,0.1-3.7,0.1s-2.8,0-3.7-0.1
		c-0.9,0-1.4-0.2-1.7-0.3c-0.4-0.2-0.7-0.4-1.1-0.7c-0.3-0.3-0.5-0.6-0.7-1.1c-0.1-0.3-0.3-0.8-0.3-1.7c0-1-0.1-1.3-0.1-3.7
		c0-2.5,0-2.8,0.1-3.7c0-0.9,0.2-1.4,0.3-1.7c0.2-0.4,0.4-0.7,0.7-1.1c0.3-0.3,0.6-0.5,1.1-0.7c0.3-0.1,0.8-0.3,1.7-0.3
		C8.6,31.5,8.9,31.5,11.3,31.5 M11.3,29.9c-2.5,0-2.8,0-3.8,0.1c-1,0-1.7,0.2-2.2,0.4c-0.6,0.2-1.1,0.6-1.6,1.1
		c-0.5,0.5-0.8,1-1.1,1.6c-0.2,0.6-0.4,1.3-0.4,2.2c0,1-0.1,1.3-0.1,3.8c0,2.5,0,2.8,0.1,3.8c0,1,0.2,1.7,0.4,2.2
		c0.2,0.6,0.6,1.1,1.1,1.6c0.5,0.5,1,0.8,1.6,1.1c0.6,0.2,1.3,0.4,2.2,0.4c1,0,1.3,0.1,3.8,0.1s2.8,0,3.8-0.1c1,0,1.7-0.2,2.2-0.4
		c0.6-0.2,1.1-0.6,1.6-1.1c0.5-0.5,0.8-1,1.1-1.6c0.2-0.6,0.4-1.3,0.4-2.2c0-1,0.1-1.3,0.1-3.8c0-2.5,0-2.8-0.1-3.8
		c0-1-0.2-1.7-0.4-2.2c-0.2-0.6-0.6-1.1-1.1-1.6c-0.5-0.5-1-0.8-1.6-1.1c-0.6-0.2-1.3-0.4-2.2-0.4C14.2,29.9,13.8,29.9,11.3,29.9z"
		/>
	<path id="XMLID_9_" class="st0" d="M11.3,34.4c-2.6,0-4.7,2.1-4.7,4.7c0,2.6,2.1,4.7,4.7,4.7s4.7-2.1,4.7-4.7
		C16.1,36.5,13.9,34.4,11.3,34.4 M11.3,42.2c-1.7,0-3.1-1.4-3.1-3.1S9.6,36,11.3,36c1.7,0,3.1,1.4,3.1,3.1S13,42.2,11.3,42.2"/>
	<path id="XMLID_6_" class="st3" d="M11.3,34.4c-2.6,0-4.7,2.1-4.7,4.7c0,2.6,2.1,4.7,4.7,4.7s4.7-2.1,4.7-4.7
		C16.1,36.5,13.9,34.4,11.3,34.4z M11.3,42.2c-1.7,0-3.1-1.4-3.1-3.1S9.6,36,11.3,36c1.7,0,3.1,1.4,3.1,3.1S13,42.2,11.3,42.2z"/>
	<path id="XMLID_5_" class="st0" d="M17.4,34.2c0,0.6-0.5,1.1-1.1,1.1c-0.6,0-1.1-0.5-1.1-1.1c0-0.6,0.5-1.1,1.1-1.1
		C16.9,33.1,17.4,33.6,17.4,34.2"/>
	<circle id="XMLID_4_" class="st3" cx="16.3" cy="34.2" r="1.1"/>
</g>
</svg>
